<?xml version="1.0" encoding="UTF-8"?>
<svg id="Layer_2" data-name="Layer 2" xmlns="http://www.w3.org/2000/svg" viewBox="0 0 604.37 1034.52">
  <defs>
    <style>
      .cls-1 {
        fill: #ffd400;
      }

      .cls-2 {
        fill: #00a03a;
      }

      .cls-3 {
        stroke-width: 15px;
      }

      .cls-3, .cls-4, .cls-5 {
        stroke: #00a03a;
        stroke-linecap: round;
        stroke-linejoin: round;
      }

      .cls-3, .cls-5 {
        fill: none;
      }

      .cls-4 {
        fill: #fff;
      }

      .cls-4, .cls-5 {
        stroke-width: 6px;
      }
    </style>
  </defs>
  <g id="Capa_2" data-name="Capa 2">
    <g>
      <rect class="cls-4" x="3" y="3" width="598.37" height="1028.52" rx="205.43" ry="205.43"/>
      <path class="cls-5" d="M18.48,558.08c3.74-.85,8.6-2.01,14.37-3.58,7.4-2,16.3-4.67,26.3-8.19l-3.87,12.72c17.31-5.61,38.87-13.95,62.1-26.19l-4.43,14.54c12.8-6.3,26.24-13.78,39.86-22.65,6.94-4.52,13.33-9.01,19.17-13.39l-3.7,12.13h0s-1.52,5.01-1.52,5.01c11.25-7.79,25.61-19.31,37.52-29.44,2.12-1.8,4.18-3.56,6.12-5.25h0c3.58-3.22,7.17-6.59,10.74-10.08,5.92-5.8,11.31-11.44,16.17-16.88l-1.25,12.62h0s-.52,5.21-.52,5.21c8.53-8.84,50.02-59.03,65.44-78.08-24.41,2.17-89.2,8.63-101.3,10.78l4.61,2.47h0s11.17,5.99,11.17,5.99c-7.23,1.01-14.92,2.33-23.03,4.01-4.89,1.02-9.68,2.12-14.36,3.29h0c-2.49,.68-5.1,1.4-7.77,2.16-15.05,4.25-32.62,9.75-45.36,14.74l5.01,1.52h0s12.13,3.68,12.13,3.68c-6.89,2.4-14.18,5.21-21.8,8.45-14.96,6.36-28.66,13.35-41.03,20.46l14.54,4.43c-23.11,12.47-42.06,25.71-56.36,36.95l12.72,3.87c-8.5,6.34-15.67,12.24-21.46,17.26-4.53,3.92-8.2,7.3-10.99,9.94"/>
      <path class="cls-5" d="M585.44,556.59c-2.79-2.63-6.46-6.02-10.99-9.94-5.79-5.02-12.97-10.92-21.46-17.26l12.72-3.87c-14.31-11.24-33.25-24.49-56.36-36.95l14.54-4.43c-12.37-7.11-26.07-14.1-41.03-20.46-7.62-3.24-14.91-6.04-21.8-8.45l12.13-3.69h0s5.01-1.52,5.01-1.52c-12.74-4.99-30.31-10.49-45.36-14.74-2.68-.76-5.29-1.48-7.77-2.15h0c-4.68-1.18-9.47-2.28-14.36-3.3-8.11-1.68-15.8-3.01-23.03-4.01l11.17-6h0s4.61-2.47,4.61-2.47c-12.1-2.15-76.9-8.61-101.3-10.78,15.41,19.05,56.9,69.24,65.44,78.08l-.52-5.21h0s-1.25-12.63-1.25-12.63c4.86,5.44,10.25,11.08,16.17,16.88,3.57,3.49,7.16,6.85,10.74,10.09h0c1.94,1.68,3.99,3.45,6.12,5.25,11.92,10.13,26.28,21.64,37.52,29.44l-1.52-5.01h0s-3.7-12.13-3.7-12.13c5.84,4.38,12.23,8.86,19.17,13.39,13.62,8.87,27.06,16.35,39.86,22.65l-4.43-14.54c23.24,12.24,44.8,20.58,62.1,26.19l-3.87-12.72c10,3.52,18.9,6.19,26.3,8.19,5.78,1.57,10.63,2.73,14.37,3.58"/>
      <path class="cls-2" d="M18.48,558.08c3.74-.85,8.6-2.01,14.37-3.58,7.4-2,16.3-4.67,26.3-8.19l-3.87,12.72c17.31-5.61,38.87-13.95,62.1-26.19l-4.43,14.54c12.8-6.3,26.24-13.78,39.86-22.65,6.94-4.52,13.33-9.01,19.17-13.39l-3.7,12.13h0s-1.52,5.01-1.52,5.01c11.25-7.79,25.61-19.31,37.52-29.44,2.12-1.8,4.18-3.56,6.12-5.25h0c3.58-3.22,7.17-6.59,10.74-10.08,5.92-5.8,11.31-11.44,16.17-16.88l-1.25,12.62h0s-.52,5.21-.52,5.21c8.53-8.84,50.02-59.03,65.44-78.08-24.41,2.17-89.2,8.63-101.3,10.78l4.61,2.47h0s11.17,5.99,11.17,5.99c-7.23,1.01-14.92,2.33-23.03,4.01-4.89,1.02-9.68,2.12-14.36,3.29h0c-2.49,.68-5.1,1.4-7.77,2.16-15.05,4.25-32.62,9.75-45.36,14.74l5.01,1.52h0s12.13,3.68,12.13,3.68c-6.89,2.4-14.18,5.21-21.8,8.45-14.96,6.36-28.66,13.35-41.03,20.46l14.54,4.43c-23.11,12.47-42.06,25.71-56.36,36.95l12.72,3.87c-8.5,6.34-15.67,12.24-21.46,17.26-4.53,3.92-8.2,7.3-10.99,9.94"/>
      <path class="cls-2" d="M585.44,556.59c-2.79-2.63-6.46-6.02-10.99-9.94-5.79-5.02-12.97-10.92-21.46-17.26l12.72-3.87c-14.31-11.24-33.25-24.49-56.36-36.95l14.54-4.43c-12.37-7.11-26.07-14.1-41.03-20.46-7.62-3.24-14.91-6.04-21.8-8.45l12.13-3.69h0s5.01-1.52,5.01-1.52c-12.74-4.99-30.31-10.49-45.36-14.74-2.68-.76-5.29-1.48-7.77-2.15h0c-4.68-1.18-9.47-2.28-14.36-3.3-8.11-1.68-15.8-3.01-23.03-4.01l11.17-6h0s4.61-2.47,4.61-2.47c-12.1-2.15-76.9-8.61-101.3-10.78,15.41,19.05,56.9,69.24,65.44,78.08l-.52-5.21h0s-1.25-12.63-1.25-12.63c4.86,5.44,10.25,11.08,16.17,16.88,3.57,3.49,7.16,6.85,10.74,10.09h0c1.94,1.68,3.99,3.45,6.12,5.25,11.92,10.13,26.28,21.64,37.52,29.44l-1.52-5.01h0s-3.7-12.13-3.7-12.13c5.84,4.38,12.23,8.86,19.17,13.39,13.62,8.87,27.06,16.35,39.86,22.65l-4.43-14.54c23.24,12.24,44.8,20.58,62.1,26.19l-3.87-12.72c10,3.52,18.9,6.19,26.3,8.19,5.78,1.57,10.63,2.73,14.37,3.58"/>
      <path class="cls-1" d="M373.54,233.76h.16c45.43,1.01,89.32,3.15,131.57,6.19,.6,6.22,1.2,12.43,1.8,18.65,24.14-2.3,39.49-5.05,42.84-8.01l.69-1.23c-.99-.85-1.99-1.69-2.98-2.53h0c-80.54-68.61-161.11-137.18-241.65-205.77v-.91c-.18,.15-.36,.3-.53,.45-.18-.15-.36-.3-.53-.45v.91C224.35,109.64,143.78,178.22,63.24,246.82h0c-.99,.85-1.99,1.69-2.98,2.54l.69,1.23c3.35,2.96,18.7,5.71,42.84,8.01,.6-6.22,1.2-12.43,1.8-18.65,42.25-3.04,86.14-5.18,131.57-6.19h.16c22.92-.52,45.46-.72,67.58-.65h0c.18,0,.36,0,.53,0,.18,0,.36,0,.53,0h0c22.12-.07,44.66,.13,67.58,.65Z"/>
      <path class="cls-2" d="M297.48,567.53c-5.21-.8-10.45-1.39-15.66-2.19l-6.73,.36c-.26-.59-.55-1.17-.82-1.75-6.89-1.53-13.51-4.03-20.29-6-4.87-1.42-9.6-2.91-14.34-4.79-1.56-.62-3.09-1.27-4.63-1.94-1.78-.78-6.09-1.87,.43-.08-4.19-1.15-7.99-2.66-11.46-4.63-1.16,.72-2.32,1.45-3.48,2.23-6.28,4.21-13.82,9.47-20.73,14.59-3.96,2.93-7.71,5.81-10.9,8.42l11.73-.91c-4.07,3.12-8.34,6.57-12.76,10.37-8.68,7.46-16.46,15.01-23.37,22.31l9.95-.77c-13.03,13.15-23.28,25.77-30.84,36.06l8.7-.67c-8.09,10.53-13.71,19.2-16.91,24.38,5.18-3.2,13.85-8.82,24.38-16.91l-.67,8.7c10.29-7.56,22.91-17.81,36.06-30.84l-.77,9.95c3.6-3.41,7.26-7.03,10.95-10.87-2.72,6.12-5.17,12.12-7.38,17.94l11.38-5.06c-8.34,20.41-13.66,39.06-17.06,53.92l9.94-4.42c-3.89,15.36-5.86,27.57-6.86,34.8,4.41-5.82,11.64-15.85,19.75-29.47l3.91,10.16c8.1-12.91,17.52-29.86,26.05-50.2l4.48,11.63c4.91-10.93,9.65-22.94,13.8-35.93,.98-3.06,1.88-6.04,2.72-8.96h0s8.96-8.98,8.96-8.98c-1.12,7.21-2.07,14.96-2.8,23.21-1.42,16.19-1.7,31.57-1.24,45.83l10.75-10.75c.13,26.26,2.91,49.21,6.1,67.12l9.4-9.4c1.6,10.48,3.43,19.59,5.14,27.06,1.33,5.84,2.59,10.67,3.6,14.37v-197.88c-2.8,.41-5.68,.41-8.48-.01Z"/>
      <path class="cls-5" d="M305.94,393.43c-1.04,.12-2.81,.25-4.97,0-12.42-1.41-16.63-12.87-27.47-13.8-1.92-.16-4.92-.08-8.76,1.56"/>
      <path class="cls-5" d="M260.74,353.12c-13.28,6.07-19.41,19.68-15.8,30.13,3.44,9.94,14.45,13.39,15.8,13.79"/>
      <path class="cls-5" d="M305.73,764.14c-1.01-3.7-2.27-8.53-3.6-14.37-1.71-7.47-3.54-16.58-5.14-27.06l-9.4,9.4c-3.19-17.91-5.97-40.86-6.1-67.12l-10.75,10.75c-.46-14.26-.18-29.64,1.24-45.83,.73-8.25,1.68-16,2.8-23.21l-8.96,8.97h0s-3.7,3.71-3.7,3.71c1.59-13.59,5-31.68,8.33-46.96,.59-2.72,1.18-5.36,1.76-7.87"/>
      <path class="cls-5" d="M265.82,615.67h0c-.84,2.93-1.74,5.91-2.72,8.97-4.15,12.99-8.89,25-13.8,35.93l-4.48-11.63c-8.53,20.34-17.95,37.29-26.05,50.2l-3.91-10.16c-8.11,13.62-15.34,23.65-19.75,29.47,1-7.23,2.97-19.44,6.86-34.8l-9.94,4.42c3.4-14.86,8.72-33.51,17.06-53.92l-11.38,5.06c2.21-5.82,4.66-11.82,7.38-17.94,2.52-5.65,5.25-11.41,8.26-17.23,3.19-6.18,6.38-11.89,9.52-17.15l-13.41,5.97c3.38-6.14,7.8-13.37,12.4-20.54,.03-.04,.06-.09,.09-.14,4.26-6.62,8.66-13.18,12.56-18.76"/>
      <path class="cls-5" d="M220.27,547.46c-6.28,4.21-13.82,9.47-20.73,14.59-3.96,2.93-7.71,5.81-10.9,8.42l11.73-.91c-4.07,3.12-8.34,6.57-12.76,10.37-8.68,7.46-16.46,15.01-23.37,22.31l9.95-.77c-13.03,13.15-23.28,25.77-30.84,36.06l8.7-.67c-8.09,10.53-13.71,19.2-16.91,24.38,5.18-3.2,13.85-8.82,24.38-16.91l-.67,8.7c10.29-7.56,22.91-17.81,36.06-30.84l-.77,9.95c3.6-3.41,7.26-7.03,10.95-10.87"/>
      <g>
        <path class="cls-3" d="M139.02,312.66c11.83-10.2,29.1-16.61,48.31-16.61s36.48,6.41,48.31,16.61"/>
        <path class="cls-3" d="M375.21,312.66c11.83-10.2,29.1-16.61,48.31-16.61s36.48,6.41,48.31,16.61"/>
      </g>
      <path class="cls-5" d="M305.94,452.69c-.08,0-.16,0-.24,0-11.29-.02-22.52-1.6-33.45-4.4-9.5-2.43-19.01-4.86-28.51-7.29"/>
      <path class="cls-5" d="M174.32,491.39c13.48,12.45,38.3,31.97,74.57,43.18,22.39,6.92,42.32,8.57,57.05,8.56"/>
      <path class="cls-5" d="M368.16,441c-9.5,2.43-19.01,4.86-28.51,7.29-10.93,2.8-22.16,4.38-33.45,4.4-.08,0-.16,0-.24,0"/>
      <path class="cls-5" d="M305.96,543.13c14.73,0,34.66-1.64,57.05-8.56,36.27-11.21,61.08-30.72,74.57-43.18"/>
      <path class="cls-5" d="M219.77,546.23c25.95,12.95,55.21,20.23,86.17,20.23"/>
      <path class="cls-5" d="M180.57,496.96c-27.18-23.17-47.87-53.74-58.94-88.59-3.32-10.43-.4-21.85,7.34-29.59l.49-.49c13.23-13.23,35.1-10.87,45.54,4.64,13.61,20.22,31.77,37.11,53.03,49.21"/>
      <path class="cls-5" d="M107.63,406.6c-4.67-14.68-.56-30.75,10.33-41.64l.69-.69c18.62-18.62,49.4-15.3,64.09,6.53"/>
      <path class="cls-5" d="M150.89,371.18c-8.25,8.25-8.25,21.62,0,29.87-8.25-8.25-21.62-8.25-29.87,0"/>
      <path class="cls-2" d="M150.89,371.18c-.8-.12-15.11-2.04-24.27,8.92-7.37,8.82-5.86,19.34-5.6,20.95,.97-.92,7.96-7.31,17.81-5.99,6.44,.86,10.59,4.55,12.05,5.99-1.15-1.55-6.65-9.3-4.83-19.33,.91-5.02,3.29-8.6,4.83-10.54Z"/>
      <path class="cls-2" d="M460.99,371.18c.8-.12,15.11-2.04,24.27,8.92,7.37,8.82,5.86,19.34,5.6,20.95-.97-.92-7.96-7.31-17.81-5.99-6.44,.86-10.59,4.55-12.05,5.99,1.15-1.55,6.65-9.3,4.83-19.33-.91-5.02-3.29-8.6-4.83-10.54Z"/>
      <path class="cls-5" d="M305.96,233.11c-23.83,0-46.86,.23-68.65,.65h-.16c-53.76,1.03-99.9,3.25-131.57,6.19-21.51,2-36.34,4.34-42.34,6.87l-.03,.02c-1.95,.82-2.96,1.66-2.96,2.52,0,.41,.23,.82,.69,1.23,3.35,2.96,18.7,5.71,42.84,8.01"/>
      <polyline class="cls-5" points="60.25 249.36 63.21 246.84 63.24 246.82 305.43 40.61"/>
      <path class="cls-5" d="M153.23,528.27c-43.16-44.57-65.16-106.79-59.06-170.09l9.61-99.58,1.8-18.65"/>
      <path class="cls-5" d="M268.24,353.59c.42-2.47,2.29-11.84,10.8-18.48,5.21-4.07,10.59-5.3,13.42-5.74"/>
      <path class="cls-5" d="M180.57,496.96c-27.18-23.17-47.87-53.74-58.94-88.59-3.32-10.43-.4-21.85,7.34-29.59l.49-.49c13.23-13.23,35.1-10.87,45.54,4.64,13.61,20.22,31.77,37.11,53.03,49.21"/>
      <path class="cls-5" d="M179.54,423.78c-4.48,3.85-11.24,3.33-15.09-1.15"/>
      <path class="cls-5" d="M179.54,423.78c-4.48,3.85-5,10.6-1.15,15.09"/>
      <path class="cls-5" d="M163.31,437.72c4.48-3.85,5-10.6,1.15-15.09"/>
      <path class="cls-5" d="M163.31,437.72c4.48-3.85,11.24-3.33,15.09,1.15"/>
      <path class="cls-2" d="M313.37,567.53c5.21-.8,10.45-1.39,15.66-2.19l6.73,.36c.26-.59,.55-1.17,.82-1.75,6.89-1.53,13.51-4.03,20.29-6,4.87-1.42,9.6-2.91,14.34-4.79,1.56-.62,3.09-1.27,4.63-1.94,1.78-.78,6.09-1.87-.43-.08,4.19-1.15,7.99-2.66,11.46-4.63,1.16,.72,2.32,1.45,3.48,2.23,6.28,4.21,13.82,9.47,20.73,14.59,3.96,2.93,7.71,5.81,10.9,8.42l-11.73-.91c4.07,3.12,8.34,6.57,12.76,10.37,8.68,7.46,16.46,15.01,23.37,22.31l-9.95-.77c13.03,13.15,23.28,25.77,30.84,36.06l-8.7-.67c8.09,10.53,13.71,19.2,16.91,24.38-5.18-3.2-13.85-8.82-24.38-16.91l.67,8.7c-10.29-7.56-22.91-17.81-36.06-30.84l.77,9.95c-3.6-3.41-7.26-7.03-10.95-10.87,2.72,6.12,5.17,12.12,7.38,17.94l-11.38-5.06c8.34,20.41,13.66,39.06,17.06,53.92l-9.94-4.42c3.89,15.36,5.86,27.57,6.86,34.8-4.41-5.82-11.64-15.85-19.75-29.47l-3.91,10.16c-8.1-12.91-17.52-29.86-26.05-50.2l-4.48,11.63c-4.91-10.93-9.65-22.94-13.8-35.93-.98-3.06-1.88-6.04-2.72-8.96h0s-8.96-8.98-8.96-8.98c1.12,7.21,2.07,14.96,2.8,23.21,1.42,16.19,1.7,31.57,1.24,45.83l-10.75-10.75c-.13,26.26-2.91,49.21-6.1,67.12l-9.4-9.4c-1.6,10.48-3.43,19.59-5.14,27.06-1.33,5.84-2.59,10.67-3.6,14.37v-197.88c2.8,.41,5.68,.41,8.48-.01Z"/>
      <path class="cls-5" d="M304.91,393.43c1.04,.12,2.81,.25,4.97,0,12.42-1.41,16.63-12.87,27.47-13.8,1.92-.16,4.92-.08,8.76,1.56"/>
      <path class="cls-5" d="M350.11,353.12c13.28,6.07,19.41,19.68,15.8,30.13-3.44,9.94-14.45,13.39-15.8,13.79"/>
      <path class="cls-5" d="M338.64,564.55c.58,2.51,1.17,5.15,1.76,7.87,3.33,15.28,6.74,33.37,8.33,46.96l-3.7-3.7h0s-8.96-8.98-8.96-8.98c1.12,7.21,2.07,14.96,2.8,23.21,1.42,16.19,1.7,31.57,1.24,45.83l-10.75-10.75c-.13,26.26-2.91,49.21-6.1,67.12l-9.4-9.4c-1.6,10.48-3.43,19.59-5.14,27.06-1.33,5.84-2.59,10.67-3.6,14.37"/>
      <path class="cls-5" d="M376.34,553.42c3.9,5.58,8.3,12.14,12.56,18.76,.03,.05,.06,.1,.09,.14,4.6,7.17,9.02,14.4,12.4,20.54l-13.41-5.97c3.14,5.26,6.33,10.97,9.52,17.15,3.01,5.82,5.74,11.58,8.26,17.23,2.72,6.12,5.17,12.12,7.38,17.94l-11.38-5.06c8.34,20.41,13.66,39.06,17.06,53.92l-9.94-4.42c3.89,15.36,5.86,27.57,6.86,34.8-4.41-5.82-11.64-15.85-19.75-29.47l-3.91,10.16c-8.1-12.91-17.52-29.86-26.05-50.2l-4.48,11.63c-4.91-10.93-9.65-22.94-13.8-35.93-.98-3.06-1.88-6.04-2.72-8.96h0"/>
      <path class="cls-5" d="M405.76,621.27c3.69,3.84,7.35,7.46,10.95,10.87l-.77-9.95c13.15,13.03,25.77,23.28,36.06,30.84l-.67-8.7c10.53,8.09,19.2,13.71,24.38,16.91-3.2-5.18-8.82-13.85-16.91-24.38l8.7,.67c-7.56-10.29-17.81-22.91-30.84-36.06l9.95,.77c-6.91-7.3-14.69-14.85-23.37-22.31-4.42-3.8-8.69-7.25-12.76-10.37l11.73,.91c-3.19-2.61-6.94-5.49-10.9-8.42-6.91-5.12-14.45-10.38-20.73-14.59"/>
      <path class="cls-5" d="M304.91,566.46c30.96,0,60.22-7.28,86.17-20.23"/>
      <path class="cls-5" d="M382.82,432.14c21.26-12.1,39.42-28.99,53.03-49.21,10.44-15.51,32.31-17.87,45.54-4.64l.49,.49c7.74,7.74,10.66,19.16,7.34,29.59-11.07,34.85-31.76,65.42-58.94,88.59"/>
      <path class="cls-5" d="M428.12,370.8c14.69-21.83,45.47-25.15,64.09-6.53l.69,.69c10.89,10.89,15,26.96,10.33,41.64"/>
      <path class="cls-5" d="M459.96,371.18c8.25,8.25,8.25,21.62,0,29.87,8.25-8.25,21.62-8.25,29.87,0"/>
      <path class="cls-5" d="M507.07,258.6c24.14-2.3,39.49-5.05,42.84-8.01,.46-.41,.69-.82,.69-1.23,0-.86-1.01-1.7-2.96-2.52l-.03-.02c-6-2.53-20.83-4.87-42.34-6.87-31.67-2.94-77.81-5.16-131.57-6.19h-.16c-21.79-.42-44.82-.65-68.65-.65"/>
      <polyline class="cls-5" points="305.43 40.61 547.61 246.82 547.64 246.84 550.6 249.36"/>
      <path class="cls-5" d="M342.61,353.59c-.42-2.47-2.29-11.84-10.8-18.48-5.21-4.07-10.59-5.3-13.42-5.74"/>
      <path class="cls-5" d="M382.82,432.14c21.26-12.1,39.42-28.99,53.03-49.21,10.44-15.51,32.31-17.87,45.54-4.64l.49,.49c7.74,7.74,10.66,19.16,7.34,29.59-11.07,34.85-31.76,65.42-58.94,88.59"/>
      <path class="cls-5" d="M431.31,423.78c4.48,3.85,11.24,3.33,15.09-1.15"/>
      <path class="cls-5" d="M431.31,423.78c4.48,3.85,5,10.6,1.15,15.09"/>
      <path class="cls-5" d="M447.54,437.72c-4.48-3.85-5-10.6-1.15-15.09"/>
      <path class="cls-5" d="M447.54,437.72c-4.48-3.85-11.24-3.33-15.09,1.15"/>
      <g>
        <path class="cls-1" d="M76.2,790.92h50.6l-4.2,15.87-25.54,.11v7.83h28.01l-2.52,14.29-25.85-.05c-.53,7.57-.06,12.57,1.39,15,1.45,2.44,3.88,3.67,7.28,3.7h19.23l-2.57,14.87c-15.45,.35-24.41-.13-26.88-1.45-2.47-1.31-5.04-3.48-7.72-6.51s-4.37-7.49-5.07-13.37v-12.24l-8.67,.05,2.15-14.4,7.09,.05v-8.2l-9.25,.05,2.52-15.6Z"/>
        <path class="cls-1" d="M136.78,790.87h15.61l-.05,37.57,8.93,.11-1.52,12.61-6.99,.05v4.68l28.06-.05-1.63,16.5-48.39-.11,2.37-16.24h3.31v-4.68h-5.15l1.37-12.82,3.99-.05,.11-37.57Z"/>
        <path class="cls-1" d="M218.06,790.92l38.99-.05c4.24,1.05,6.98,3.42,8.22,7.09,1.24,3.68,1.87,6.9,1.87,9.67l-13.77,2.73c0-3.29-3.1-4.69-9.3-4.2h-10.82l33.05,32.37c2.45,3.15,2.77,8.46,.95,15.92-1.82,4.76-6.32,7.46-13.5,8.09l-26.53-.05c-3.08-1.02-5.52-2.97-7.3-5.86-1.79-2.89-3.17-6.47-4.15-10.75l14.4-4.89c.38,3.99,2,5.92,4.83,5.78l14.03,.05c2.14-.49,1.79-2.03-1.05-4.62l-30.74-30.05,7.57-5.99h-9.67l2.94-15.24Z"/>
        <path class="cls-1" d="M274.6,791.45h51.96v14.97l-30,.05v8.35l23.75,.05-1.68,14.45h-22.07v18.55l30.9-3.57,4.41,15.87-54.75,6.88-1.68-15.87,6.2-1.05v-20.7h-6.52l1.47-13.5,5.15-.05-.05-6.09,8.46-3.1-15.55,.05v-15.29Z"/>
        <path class="cls-1" d="M335.34,791.18h15.24l-.05,11.35,1.79-4.41c6.69,1.79,11.64,3.79,14.84,6.02,3.21,2.22,6.52,5.86,9.96,10.9l.73,2.1-.05-25.85h15.13v58.95c.24,2.7-.92,5.56-3.49,8.59-2.57,3.03-7.86,4.33-15.84,3.91v-14.87c3.5-.28,4.97-2.54,4.41-6.78,.04-2.38-.48-4.96-1.55-7.75s-4.4-6.5-9.98-11.14c-5.59-4.64-10.9-7.66-15.95-9.06v49.6h-15.29l.11-71.56Z"/>
        <path class="cls-1" d="M400.91,790.92l38.99-.05c4.24,1.05,6.98,3.42,8.22,7.09,1.24,3.68,1.87,6.9,1.87,9.67l-13.77,2.73c0-3.29-3.1-4.69-9.3-4.2h-10.82l33.05,32.37c2.45,3.15,2.77,8.46,.95,15.92-1.82,4.76-6.32,7.46-13.5,8.09l-26.53-.05c-3.08-1.02-5.52-2.97-7.3-5.86-1.79-2.89-3.17-6.47-4.15-10.75l14.4-4.89c.38,3.99,2,5.92,4.83,5.78l14.03,.05c2.14-.49,1.79-2.03-1.05-4.62l-30.74-30.05,7.57-5.99h-9.67l2.94-15.24Z"/>
        <path class="cls-1" d="M457.45,791.45h51.96v14.97l-30,.05v8.35l23.75,.05-1.68,14.45h-22.07v18.55l30.9-3.57,4.41,15.87-54.75,6.88-1.68-15.87,6.2-1.05v-20.7h-6.52l1.47-13.5,5.15-.05-.05-6.09,8.46-3.1-15.55,.05v-15.29Z"/>
        <path class="cls-1" d="M535.68,790.66l-.05,71.77h-15.81l-.05-69.36,15.92-2.42Z"/>
      </g>
      <g>
        <path class="cls-2" d="M370.59,908.82c0,3.13-1.17,5.58-3.52,7.34s-5.76,2.65-10.22,2.65c-3.62,0-6.58-.54-8.88-1.61-2.3-1.07-3.45-2.5-3.45-4.29,0-.85,.19-1.59,.57-2.21,.38-.62,.88-1.14,1.51-1.54,1.25,.8,2.69,1.52,4.32,2.15,1.63,.63,3.52,.94,5.67,.94,3.71,0,5.57-1.14,5.57-3.42,0-.94-.33-1.7-.97-2.28-.65-.58-1.67-1.03-3.05-1.34l-3.75-.87c-3.31-.71-5.76-1.84-7.34-3.39-1.59-1.54-2.38-3.59-2.38-6.13,0-2.91,1.16-5.26,3.49-7.07,2.32-1.81,5.59-2.72,9.79-2.72,2.15,0,4.06,.21,5.73,.64,1.68,.43,3,1.04,3.99,1.84,.98,.8,1.47,1.77,1.47,2.88,0,.8-.17,1.51-.5,2.11-.33,.6-.77,1.08-1.31,1.44-.54-.31-1.27-.65-2.21-1.01-.94-.36-1.99-.67-3.15-.94-1.16-.27-2.3-.4-3.42-.4-1.74,0-3.11,.27-4.09,.8-.98,.54-1.48,1.34-1.48,2.41,0,.71,.28,1.33,.84,1.84s1.53,.93,2.92,1.24l3.29,.8c3.71,.85,6.4,2.09,8.08,3.72,1.68,1.63,2.51,3.77,2.51,6.4Z"/>
        <path class="cls-2" d="M386.14,906.2l-.4-5.97,17.84-2.62c-.13-1.65-.78-3.09-1.94-4.32-1.16-1.23-2.82-1.84-4.96-1.84-2.28,0-4.16,.78-5.63,2.35-1.47,1.56-2.24,3.8-2.28,6.71l.2,3.62c.36,2.77,1.44,4.82,3.25,6.14s4.08,1.98,6.81,1.98c1.88,0,3.62-.28,5.23-.84,1.61-.56,2.88-1.15,3.82-1.78,.63,.36,1.14,.85,1.54,1.48,.4,.63,.6,1.3,.6,2.01,0,1.16-.51,2.18-1.54,3.05-1.03,.87-2.43,1.53-4.19,1.98-1.77,.45-3.77,.67-6,.67-3.49,0-6.56-.65-9.22-1.94-2.66-1.3-4.74-3.23-6.24-5.8-1.5-2.57-2.25-5.73-2.25-9.49,0-2.77,.42-5.2,1.27-7.27,.85-2.08,2.01-3.8,3.49-5.16,1.48-1.36,3.16-2.38,5.06-3.05,1.9-.67,3.92-1.01,6.07-1.01,2.95,0,5.54,.59,7.78,1.78,2.24,1.19,3.98,2.83,5.23,4.93,1.25,2.1,1.88,4.52,1.88,7.24,0,1.25-.32,2.19-.97,2.82-.65,.63-1.55,1.03-2.72,1.21l-21.72,3.15Z"/>
        <path class="cls-2" d="M426.7,906.2l-.4-5.97,17.84-2.62c-.13-1.65-.78-3.09-1.94-4.32-1.16-1.23-2.82-1.84-4.96-1.84-2.28,0-4.16,.78-5.63,2.35-1.47,1.56-2.24,3.8-2.28,6.71l.2,3.62c.36,2.77,1.44,4.82,3.25,6.14s4.08,1.98,6.81,1.98c1.88,0,3.62-.28,5.23-.84,1.61-.56,2.88-1.15,3.82-1.78,.63,.36,1.14,.85,1.54,1.48,.4,.63,.6,1.3,.6,2.01,0,1.16-.51,2.18-1.54,3.05-1.03,.87-2.43,1.53-4.19,1.98-1.77,.45-3.77,.67-6,.67-3.49,0-6.56-.65-9.22-1.94-2.66-1.3-4.74-3.23-6.24-5.8-1.5-2.57-2.25-5.73-2.25-9.49,0-2.77,.42-5.2,1.27-7.27,.85-2.08,2.01-3.8,3.49-5.16,1.48-1.36,3.16-2.38,5.06-3.05,1.9-.67,3.92-1.01,6.07-1.01,2.95,0,5.54,.59,7.78,1.78,2.24,1.19,3.98,2.83,5.23,4.93,1.25,2.1,1.88,4.52,1.88,7.24,0,1.25-.32,2.19-.97,2.82-.65,.63-1.55,1.03-2.72,1.21l-21.72,3.15Z"/>
        <path class="cls-2" d="M484.43,910.69v-20.92l8.45-.07v21.93c0,.98-.21,1.81-.64,2.48-.42,.67-1.11,1.27-2.04,1.81-1.07,.71-2.55,1.37-4.43,1.98-1.88,.6-4,.91-6.37,.91-3.58,0-6.67-.62-9.29-1.84-2.61-1.23-4.64-3.08-6.07-5.57-1.43-2.48-2.15-5.6-2.15-9.35s.71-7.14,2.15-9.62c1.43-2.48,3.39-4.32,5.87-5.53,2.48-1.21,5.22-1.81,8.21-1.81,1.65,0,3.16,.19,4.53,.57,1.36,.38,2.45,.86,3.25,1.44v7.17c-.72-.62-1.63-1.2-2.75-1.71-1.12-.51-2.44-.77-3.96-.77-1.65,0-3.14,.36-4.46,1.07-1.32,.72-2.36,1.82-3.12,3.32-.76,1.5-1.14,3.48-1.14,5.93,0,3.4,.79,5.89,2.38,7.48,1.59,1.59,3.74,2.38,6.47,2.38,1.16,0,2.16-.13,2.98-.4,.83-.27,1.53-.56,2.11-.87Zm8.45-19.18h-8.45v-17.3c.36-.13,.88-.26,1.58-.37,.69-.11,1.44-.17,2.25-.17,1.61,0,2.78,.28,3.52,.84,.74,.56,1.11,1.6,1.11,3.12v13.88Z"/>
        <path class="cls-2" d="M530.97,908.82c0,3.13-1.17,5.58-3.52,7.34s-5.76,2.65-10.22,2.65c-3.62,0-6.58-.54-8.88-1.61-2.3-1.07-3.45-2.5-3.45-4.29,0-.85,.19-1.59,.57-2.21,.38-.62,.88-1.14,1.51-1.54,1.25,.8,2.69,1.52,4.32,2.15,1.63,.63,3.52,.94,5.67,.94,3.71,0,5.57-1.14,5.57-3.42,0-.94-.33-1.7-.97-2.28-.65-.58-1.67-1.03-3.05-1.34l-3.75-.87c-3.31-.71-5.76-1.84-7.34-3.39-1.59-1.54-2.38-3.59-2.38-6.13,0-2.91,1.16-5.26,3.49-7.07,2.32-1.81,5.59-2.72,9.79-2.72,2.15,0,4.06,.21,5.73,.64,1.68,.43,3,1.04,3.99,1.84,.98,.8,1.47,1.77,1.47,2.88,0,.8-.17,1.51-.5,2.11-.33,.6-.77,1.08-1.31,1.44-.54-.31-1.27-.65-2.21-1.01-.94-.36-1.99-.67-3.15-.94-1.16-.27-2.3-.4-3.42-.4-1.74,0-3.11,.27-4.09,.8-.98,.54-1.48,1.34-1.48,2.41,0,.71,.28,1.33,.84,1.84s1.53,.93,2.92,1.24l3.29,.8c3.71,.85,6.4,2.09,8.08,3.72,1.68,1.63,2.51,3.77,2.51,6.4Z"/>
      </g>
      <path class="cls-5" d="M132.73,503.01c38.51,53.78,101.51,88.82,172.69,88.82,78.83,0,147.63-42.98,184.24-106.78l-32.04,43.22c43.16-44.57,65.16-106.79,59.06-170.09l-9.61-99.58-1.8-18.65"/>
      <rect class="cls-2" x="167.48" y="426.99" width="7.1" height="7.1"/>
      <rect class="cls-2" x="436.7" y="426.25" width="5.7" height="10.76"/>
    </g>
  </g>
</svg>