<svg id="Layer_1" data-name="Layer 1" xmlns="http://www.w3.org/2000/svg" viewBox="0 0 790.8 1185.3"><defs><style>.cls-1{fill:#fff;}.cls-2,.cls-5{fill:none;stroke:#00a03a;stroke-linecap:round;stroke-linejoin:round;}.cls-2{stroke-width:6px;}.cls-3,.cls-7{fill:#00a03a;}.cls-4,.cls-6{fill:#ffd400;}.cls-5{stroke-width:15px;}.cls-6{font-size:107.61px;font-family:GangofThree, Gang of Three;}.cls-7{font-size:67.05px;font-family:BalooBhaina2-Bold, "Baloo Bhaina 2";font-weight:700;letter-spacing:0.07em;}.cls-8{letter-spacing:0.07em;}.cls-9{letter-spacing:0.07em;}.cls-10{letter-spacing:0em;}</style></defs><path class="cls-1" d="M489.2,1106.9H301.7c-113,0-205.5-92.4-205.5-205.4V283.8c0-113,92.5-205.4,205.5-205.4H489.2c112.9,0,205.4,92.4,205.4,205.4V901.5c0,113-92.5,205.4-205.4,205.4"/><rect class="cls-2" x="96.2" y="78.4" width="598.4" height="1028.52" rx="205.4"/><path class="cls-2" d="M111.7,633.5c3.7-.9,8.6-2,14.4-3.6,7.4-2,16.3-4.7,26.3-8.2l-3.9,12.7a387.9,387.9,0,0,0,62.1-26.2l-4.4,14.6A375.7,375.7,0,0,0,246,600.1c7-4.5,13.4-9,19.2-13.4l-3.7,12.2h0l-1.5,5c11.2-7.8,25.6-19.3,37.5-29.5l6.1-5.2h0c3.6-3.2,7.2-6.6,10.7-10.1,6-5.8,11.4-11.4,16.2-16.9l-1.2,12.7h0l-.6,5.2c8.6-8.9,50.1-59.1,65.5-78.1-24.4,2.2-89.2,8.6-101.3,10.8l4.6,2.4h0l11.2,6c-7.3,1-15,2.4-23.1,4l-14.3,3.3h0l-7.8,2.2c-15,4.2-32.6,9.7-45.4,14.7l5.1,1.5h0l12.1,3.7c-6.9,2.4-14.2,5.2-21.8,8.5a364.2,364.2,0,0,0-41,20.4L187,564a394.6,394.6,0,0,0-56.4,36.9l12.8,3.9c-8.5,6.3-15.7,12.2-21.5,17.3s-8.2,7.3-11,9.9"/><path class="cls-2" d="M678.7,632c-2.8-2.6-6.5-6-11-9.9s-13-11-21.5-17.3l12.7-3.9A392.9,392.9,0,0,0,602.6,564l14.5-4.5a382,382,0,0,0-41-20.4c-7.6-3.3-14.9-6.1-21.8-8.5l12.1-3.7h0l5-1.5c-12.7-5-30.3-10.5-45.3-14.7l-7.8-2.2h0l-14.4-3.3c-8.1-1.6-15.8-3-23-4l11.2-6h0l4.6-2.4c-12.1-2.2-76.9-8.6-101.3-10.8,15.4,19,56.9,69.2,65.4,78.1l-.5-5.2h0l-1.2-12.7c4.8,5.5,10.2,11.1,16.1,16.9,3.6,3.5,7.2,6.9,10.8,10.1h0l6.1,5.2c11.9,10.2,26.3,21.7,37.5,29.5l-1.5-5h0l-3.7-12.2c5.8,4.4,12.2,8.9,19.1,13.4a387,387,0,0,0,39.9,22.7L579,608.2a387.9,387.9,0,0,0,62.1,26.2l-3.9-12.7c10,3.5,18.9,6.2,26.3,8.2,5.8,1.6,10.6,2.7,14.4,3.6"/><path class="cls-3" d="M111.7,633.5c3.7-.9,8.6-2,14.4-3.6,7.4-2,16.3-4.7,26.3-8.2l-3.9,12.7a387.9,387.9,0,0,0,62.1-26.2l-4.4,14.6A375.7,375.7,0,0,0,246,600.1c7-4.5,13.4-9,19.2-13.4l-3.7,12.2h0l-1.5,5c11.2-7.8,25.6-19.3,37.5-29.5l6.1-5.2h0c3.6-3.2,7.2-6.6,10.7-10.1,6-5.8,11.4-11.4,16.2-16.9l-1.2,12.7h0l-.6,5.2c8.6-8.9,50.1-59.1,65.5-78.1-24.4,2.2-89.2,8.6-101.3,10.8l4.6,2.4h0l11.2,6c-7.3,1-15,2.4-23.1,4l-14.3,3.3h0l-7.8,2.2c-15,4.2-32.6,9.7-45.4,14.7l5.1,1.5h0l12.1,3.7c-6.9,2.4-14.2,5.2-21.8,8.5a364.2,364.2,0,0,0-41,20.4L187,564a394.6,394.6,0,0,0-56.4,36.9l12.8,3.9c-8.5,6.3-15.7,12.2-21.5,17.3s-8.2,7.3-11,9.9"/><path class="cls-3" d="M678.7,632c-2.8-2.6-6.5-6-11-9.9s-13-11-21.5-17.3l12.7-3.9A392.9,392.9,0,0,0,602.6,564l14.5-4.5a382,382,0,0,0-41-20.4c-7.6-3.3-14.9-6.1-21.8-8.5l12.1-3.7h0l5-1.5c-12.7-5-30.3-10.5-45.3-14.7l-7.8-2.2h0l-14.4-3.3c-8.1-1.6-15.8-3-23-4l11.2-6h0l4.6-2.4c-12.1-2.2-76.9-8.6-101.3-10.8,15.4,19,56.9,69.2,65.4,78.1l-.5-5.2h0l-1.2-12.7c4.8,5.5,10.2,11.1,16.1,16.9,3.6,3.5,7.2,6.9,10.8,10.1h0l6.1,5.2c11.9,10.2,26.3,21.7,37.5,29.5l-1.5-5h0l-3.7-12.2c5.8,4.4,12.2,8.9,19.1,13.4a387,387,0,0,0,39.9,22.7L579,608.2a387.9,387.9,0,0,0,62.1,26.2l-3.9-12.7c10,3.5,18.9,6.2,26.3,8.2,5.8,1.6,10.6,2.7,14.4,3.6"/><path class="cls-4" d="M466.8,309.2h.1q68.3,1.5,131.6,6.1l1.8,18.7c24.1-2.3,39.5-5.1,42.8-8l.7-1.2-3-2.6h0L399.2,116.5v-1l-.6.5-.5-.5v1L156.5,322.2h0l-3,2.6.7,1.2c3.3,2.9,18.7,5.7,42.8,8l1.8-18.7q63.3-4.5,131.6-6.1h.1q34.5-.9,67.6-.7h1.1q33.2-.2,67.6.7"/><path class="cls-3" d="M390.7,642.9,375,640.7l-6.7.4c-.3-.6-.5-1.2-.8-1.7-6.9-1.6-13.5-4.1-20.3-6-4.9-1.5-9.6-3-14.3-4.8l-4.7-2c-1.7-.7-6.1-1.8.5,0a51.3,51.3,0,0,1-11.5-4.7l-3.5,2.3c-6.3,4.2-13.8,9.4-20.7,14.5-4,3-7.7,5.9-10.9,8.5l11.7-.9c-4,3.1-8.3,6.5-12.7,10.3a317.3,317.3,0,0,0-23.4,22.3l9.9-.7a325.6,325.6,0,0,0-30.8,36l8.7-.6c-8.1,10.5-13.7,19.2-16.9,24.3,5.2-3.2,13.8-8.8,24.4-16.9l-.7,8.7a323.8,323.8,0,0,0,36.1-30.8l-.8,9.9c3.6-3.4,7.3-7,10.9-10.8-2.7,6.1-5.1,12.1-7.3,17.9l11.3-5.1a354.7,354.7,0,0,0-17,54l9.9-4.5a318.4,318.4,0,0,0-6.8,34.8,318.7,318.7,0,0,0,19.7-29.4l3.9,10.1a351.4,351.4,0,0,0,26.1-50.2l4.5,11.7a361.7,361.7,0,0,0,13.8-36l2.7-8.9h0l8.9-9c-1.1,7.2-2,15-2.8,23.2a378.8,378.8,0,0,0-1.2,45.8l10.7-10.7a413.2,413.2,0,0,0,6.1,67.1l9.4-9.4c1.6,10.5,3.5,19.6,5.2,27.1,1.3,5.8,2.6,10.6,3.6,14.3V642.9a24.3,24.3,0,0,1-8.5,0"/><path class="cls-2" d="M399.2,468.8a20.4,20.4,0,0,1-5,0c-12.4-1.4-16.6-12.8-27.5-13.8a19.2,19.2,0,0,0-8.7,1.6"/><path class="cls-2" d="M354,428.5c-13.3,6.1-19.5,19.7-15.8,30.2S352.6,472,354,472.4"/><path class="cls-2" d="M399,839.5c-1.1-3.7-2.3-8.5-3.7-14.3-1.7-7.5-3.5-16.6-5.1-27.1l-9.4,9.4a391.8,391.8,0,0,1-6.1-67.1L364,751.1a378.8,378.8,0,0,1,1.2-45.8c.7-8.2,1.7-16,2.8-23.2l-9,9h0l-3.7,3.7c1.6-13.6,5-31.7,8.4-47,.6-2.7,1.1-5.3,1.7-7.9"/><path class="cls-2" d="M359,691.1h0c-.8,2.9-1.7,5.9-2.7,8.9a338.7,338.7,0,0,1-13.8,36L338,724.3a342.1,342.1,0,0,1-26,50.2l-3.9-10.1a314.8,314.8,0,0,1-19.8,29.4,324.8,324.8,0,0,1,6.9-34.8l-10,4.5a356.4,356.4,0,0,1,17.1-54l-11.4,5.1c2.2-5.8,4.7-11.8,7.4-17.9s5.3-11.4,8.3-17.3,6.3-11.9,9.5-17.1l-13.4,6c3.4-6.2,7.8-13.4,12.4-20.6a.1.1,0,0,1,.1-.1c4.2-6.6,8.6-13.2,12.5-18.8"/><path class="cls-2" d="M313.5,622.9c-6.3,4.2-13.8,9.4-20.7,14.5-4,3-7.7,5.9-10.9,8.5l11.7-.9c-4.1,3.1-8.3,6.5-12.8,10.3a315,315,0,0,0-23.3,22.3l9.9-.7a315,315,0,0,0-30.8,36l8.7-.6c-8.1,10.5-13.7,19.2-16.9,24.3,5.1-3.2,13.8-8.8,24.3-16.9l-.6,8.7a315,315,0,0,0,36-30.8l-.7,9.9c3.6-3.4,7.2-7,10.9-10.8"/><path class="cls-5" d="M232.2,388.1c11.9-10.2,29.1-16.6,48.4-16.6s36.4,6.4,48.3,16.6"/><path class="cls-5" d="M468.4,388.1c11.9-10.2,29.1-16.6,48.3-16.6s36.5,6.4,48.4,16.6"/><path class="cls-2" d="M399.2,528.1h-.3a134.3,134.3,0,0,1-33.4-4.4L337,516.4"/><path class="cls-2" d="M267.5,566.8A195.7,195.7,0,0,0,342.1,610a193.4,193.4,0,0,0,57.1,8.5"/><path class="cls-2" d="M461.4,516.4l-28.5,7.3a135.7,135.7,0,0,1-33.5,4.4h-.2"/><path class="cls-2" d="M399.2,618.5a193.2,193.2,0,0,0,57-8.5,195.7,195.7,0,0,0,74.6-43.2"/><path class="cls-2" d="M313,621.6a191.7,191.7,0,0,0,86.2,20.3"/><path class="cls-2" d="M273.8,572.4a194.2,194.2,0,0,1-59-88.6,29.3,29.3,0,0,1,7.4-29.6l.5-.5a29.6,29.6,0,0,1,45.5,4.6,159,159,0,0,0,53,49.2"/><path class="cls-2" d="M200.8,482a41.3,41.3,0,0,1,10.4-41.6l.7-.7c18.6-18.7,49.4-15.3,64.1,6.5"/><path class="cls-2" d="M244.1,446.6a21.2,21.2,0,0,0,0,29.9,21.1,21.1,0,0,0-29.9,0"/><path class="cls-3" d="M244.1,446.6c-.8-.1-15.1-2.1-24.3,8.9-7.3,8.8-5.8,19.3-5.6,21,1-1,8-7.4,17.9-6a20.8,20.8,0,0,1,12,6c-1.1-1.6-6.6-9.3-4.8-19.4a23.9,23.9,0,0,1,4.8-10.5"/><path class="cls-3" d="M554.2,446.6c.8-.1,15.1-2.1,24.3,8.9,7.3,8.8,5.8,19.3,5.6,21-1-1-8-7.4-17.8-6a20.8,20.8,0,0,0-12.1,6c1.2-1.6,6.7-9.4,4.8-19.4a23.9,23.9,0,0,0-4.8-10.5"/><path class="cls-2" d="M399.2,308.5c-23.9,0-46.9.2-68.7.7h-.1c-53.8,1-99.9,3.2-131.6,6.1-21.5,2-36.3,4.4-42.3,6.9h-.1c-1.9.9-2.9,1.7-2.9,2.6a1.5,1.5,0,0,0,.7,1.2c3.3,2.9,18.7,5.7,42.8,8"/><polyline class="cls-2" points="153.5 324.8 156.4 322.2 156.5 322.2 398.7 116"/><path class="cls-2" d="M246.5,603.7a215,215,0,0,1-59.1-170.1L197,334l1.8-18.7"/><path class="cls-2" d="M361.5,429a30.1,30.1,0,0,1,10.8-18.5,27.8,27.8,0,0,1,13.4-5.7"/><path class="cls-2" d="M273.8,572.4a194.2,194.2,0,0,1-59-88.6,29.3,29.3,0,0,1,7.4-29.6l.5-.5a29.6,29.6,0,0,1,45.5,4.6,159,159,0,0,0,53,49.2"/><path class="cls-2" d="M272.8,499.2a10.7,10.7,0,0,1-15.1-1.2"/><path class="cls-2" d="M272.8,499.2a10.7,10.7,0,0,0-1.2,15.1"/><path class="cls-2" d="M256.5,513.1a10.7,10.7,0,0,0,1.2-15.1"/><path class="cls-2" d="M256.5,513.1a10.7,10.7,0,0,1,15.1,1.2"/><path class="cls-3" d="M406.6,642.9l15.7-2.2,6.7.4a8.9,8.9,0,0,1,.8-1.7c6.9-1.6,13.5-4.1,20.3-6,4.9-1.5,9.6-3,14.3-4.8l4.7-2c1.7-.7,6-1.8-.5,0a51.3,51.3,0,0,0,11.5-4.7l3.5,2.3c6.3,4.2,13.8,9.4,20.7,14.5,4,3,7.7,5.9,10.9,8.5l-11.7-.9c4,3.1,8.3,6.5,12.7,10.3a317.3,317.3,0,0,1,23.4,22.3l-9.9-.7a325.6,325.6,0,0,1,30.8,36l-8.7-.6c8.1,10.5,13.7,19.2,16.9,24.3-5.2-3.2-13.8-8.8-24.4-16.9l.7,8.7a323.8,323.8,0,0,1-36.1-30.8l.8,9.9c-3.6-3.4-7.3-7-10.9-10.8,2.7,6.1,5.1,12.1,7.3,17.9l-11.3-5.1a354.7,354.7,0,0,1,17,54l-9.9-4.5a318.4,318.4,0,0,1,6.8,34.8A318.7,318.7,0,0,1,489,765.7l-3.9,10.1A351.4,351.4,0,0,1,459,725.6l-4.5,11.7a361.7,361.7,0,0,1-13.8-36l-2.7-8.9h0l-8.9-9c1.1,7.2,2,15,2.8,23.2a378.8,378.8,0,0,1,1.2,45.8l-10.7-10.7a413.2,413.2,0,0,1-6.1,67.1l-9.4-9.4c-1.6,10.5-3.5,19.6-5.2,27.1-1.3,5.8-2.6,10.6-3.6,14.3V642.9a24.3,24.3,0,0,0,8.5,0"/><path class="cls-2" d="M398.1,468.8a20.3,20.3,0,0,0,5,0c12.4-1.4,16.6-12.8,27.5-13.8a19.2,19.2,0,0,1,8.7,1.6"/><path class="cls-2" d="M443.3,428.5c13.3,6.1,19.4,19.7,15.8,30.2s-14.4,13.3-15.8,13.7"/><path class="cls-2" d="M431.9,639.9c.5,2.6,1.1,5.2,1.7,7.9,3.4,15.3,6.8,33.4,8.4,47l-3.7-3.7h0l-9-9c1.1,7.2,2.1,15,2.8,23.2a378.8,378.8,0,0,1,1.2,45.8l-10.7-10.7a391.8,391.8,0,0,1-6.1,67.1l-9.4-9.4c-1.6,10.5-3.4,19.6-5.2,27.1-1.3,5.8-2.5,10.6-3.6,14.3"/><path class="cls-2" d="M469.6,628.8c3.9,5.6,8.3,12.2,12.5,18.8a.1.1,0,0,1,.1.1c4.6,7.2,9,14.4,12.4,20.6l-13.4-6c3.1,5.2,6.3,11,9.5,17.1s5.8,11.6,8.3,17.3,5.2,12.1,7.4,17.9L495,709.5a354.7,354.7,0,0,1,17,54l-9.9-4.5a324.8,324.8,0,0,1,6.9,34.8,314.8,314.8,0,0,1-19.8-29.4l-3.9,10.1a342.1,342.1,0,0,1-26-50.2L454.8,736A338.7,338.7,0,0,1,441,700c-1-3-1.9-6-2.7-8.9h0"/><path class="cls-2" d="M499,696.7c3.7,3.8,7.3,7.4,10.9,10.8l-.7-9.9a315,315,0,0,0,36,30.8l-.6-8.7c10.5,8.1,19.2,13.7,24.3,16.9-3.2-5.1-8.8-13.8-16.9-24.3l8.7.6a315,315,0,0,0-30.8-36l9.9.7c-6.9-7.3-14.7-14.8-23.3-22.3-4.5-3.8-8.7-7.2-12.8-10.3l11.7.9c-3.2-2.6-6.9-5.5-10.9-8.5-6.9-5.1-14.4-10.3-20.7-14.5"/><path class="cls-2" d="M398.1,641.9a191.7,191.7,0,0,0,86.2-20.3"/><path class="cls-2" d="M476,507.5a158.4,158.4,0,0,0,53.1-49.2,29.6,29.6,0,0,1,45.5-4.6l.5.5a29.2,29.2,0,0,1,7.3,29.6,193.2,193.2,0,0,1-58.9,88.6"/><path class="cls-2" d="M521.3,446.2c14.7-21.8,45.5-25.2,64.1-6.5l.7.7A41.1,41.1,0,0,1,596.4,482"/><path class="cls-2" d="M553.2,446.6a21.2,21.2,0,0,1,0,29.9,20.9,20.9,0,0,1,29.8,0"/><path class="cls-2" d="M600.3,334c24.1-2.3,39.5-5.1,42.8-8a1.5,1.5,0,0,0,.7-1.2c0-.9-1-1.7-2.9-2.6h-.1c-6-2.5-20.8-4.9-42.3-6.9-31.7-2.9-77.8-5.1-131.6-6.1h-.1c-21.8-.5-44.9-.7-68.7-.7"/><polyline class="cls-2" points="398.7 116 640.8 322.2 640.9 322.2 643.8 324.8"/><path class="cls-2" d="M435.8,429A30.1,30.1,0,0,0,425,410.5a28.1,28.1,0,0,0-13.4-5.7"/><path class="cls-2" d="M476,507.5a158.4,158.4,0,0,0,53.1-49.2,29.6,29.6,0,0,1,45.5-4.6l.5.5a29.2,29.2,0,0,1,7.3,29.6,193.2,193.2,0,0,1-58.9,88.6"/><path class="cls-2" d="M524.5,499.2a10.7,10.7,0,0,0,15.1-1.2"/><path class="cls-2" d="M524.5,499.2a10.7,10.7,0,0,1,1.2,15.1"/><path class="cls-2" d="M540.8,513.1a10.7,10.7,0,0,1-1.2-15.1"/><path class="cls-2" d="M540.8,513.1a10.7,10.7,0,0,0-15.1,1.2"/><text class="cls-6" transform="translate(163.8 937.9)">El Sensei</text><text class="cls-7" transform="translate(434.8 993.2)">s<tspan class="cls-8" x="37.4" y="0">e</tspan><tspan class="cls-9" x="78.5" y="0">ed</tspan><tspan class="cls-10" x="163" y="0">s</tspan></text><path class="cls-2" d="M226,578.4a212.3,212.3,0,0,0,356.9-18l-32.1,43.3a215,215,0,0,0,59.1-170.1L600.3,334l-1.8-18.7"/><rect class="cls-3" x="260.7" y="502.4" width="7.1" height="7.1"/><rect class="cls-3" x="529.9" y="501.6" width="5.7" height="10.76"/></svg>