<svg xmlns="http://www.w3.org/2000/svg" viewBox="0 0 650 800"><defs><style>.cls-1{isolation:isolate;}.cls-2{fill:#806bae;}.cls-3{fill:#f3f2f3;}.cls-4{fill:#d8d8d8;}.cls-5{fill:#ccc;}.cls-6{fill:#dfdfdf;}.cls-7{fill:#93c021;}.cls-8{fill:#ededed;mix-blend-mode:multiply;}</style></defs><g class="cls-1"><g id="Layer_1" data-name="Layer 1"><circle class="cls-2" cx="325" cy="405.3" r="241.9"/><polygon class="cls-3" points="125.8 606.2 120.8 623.5 123.9 634 131.9 646 138.3 654.8 147.7 665.3 175.5 681.9 195.7 693.5 214.9 700.4 243.4 710.5 263.8 715.1 283.6 718.1 311.5 717.6 321.5 715.2 331.1 712.2 339.7 707.3 345 702.3 349.2 696.1 353.1 685.1 356.5 675.4 412.4 516.8 515.5 228.4 537.9 168.9 532.3 173.6 521.7 181.5 514.7 183.5 505.3 184.3 495.5 187 484.5 188.1 470.5 186.6 457.3 184.1 440.7 181.7 427.9 178.4 415.5 174.7 401 169.5 383.1 162.2 355.7 147.5 338.4 134.3 322.6 119.3 310.8 96.2 308 94.3 211.7 360.8 125.8 606.2"/><ellipse class="cls-4" cx="425.3" cy="123.5" rx="51.9" ry="120.2" transform="translate(166.3 482.8) rotate(-70.4)"/><polygon class="cls-5" points="539.3 161.6 443.3 127.4 507.4 111.2 505.4 106.3 437.9 123.3 445.3 75.9 439.7 74.8 432.4 121.3 369.4 59.2 365.3 62.4 424.4 120.7 313 81.1 311.3 85.8 420.2 124.6 331.6 125.7 332.2 130.9 429.5 129.6 405.5 170.7 410.6 173.4 435 131.6 484.5 188.1 488.9 185.1 442.9 132.6 537.6 166.3 539.3 161.6"/><path class="cls-6" d="M541.7,162.5c6.7-27.9-36.3-67.4-98.4-89.5S322.9,54.3,310.5,80.2h-.3L120.3,613.8c-10,28,33.9,69.3,97.8,92s124,18.5,133.9-9.5L542,162.6ZM441.6,77.7c60.9,21.7,103.1,59.9,94.1,85.3s-65.9,28.3-126.8,6.7-103.1-60-94-85.3S380.8,56,441.6,77.7Zm-95,616.7c-9.1,25.3-65.9,28.3-126.8,6.7s-103.1-60-94.1-85.3l183.7-516c7.6,25.7,46.2,56.2,97.8,74.6s100.8,19.1,123,4Z"/><path class="cls-7" d="M388.7,476.2h0a17.7,17.7,0,0,0-3.4-.7.1.1,0,0,0,.1-.1h0a18.3,18.3,0,0,0-4-.7l.9-.4h0a17.5,17.5,0,0,0-4.3-.7l1-.6h0a17.1,17.1,0,0,0-4.5-.6l1.1-.6h0s-3.4-.9-4.7-.6h0a3.8,3.8,0,0,0,1.1-.7h0s-3.8-1-4.9-.4H367l1.3-.8h0s-3.8-.8-5.3-.4l1.4-.8h0s-4.1-1-5.1-.3l1-.8h0s-3.9-.9-5.1-.3l.9-1H356s-3.9-.7-5.1-.1l1.2-1.3h0c-.3,0-4.7-.4-5.8.3l1.3-1.8h0c-.4,0-5.2.1-6.2.9l1.1-1.7h0a19.2,19.2,0,0,0-6.9,1.3c-.2-.1,1.9-2.2,1.9-2.2h0s-5.1-.2-6.6.8a7.4,7.4,0,0,1,.8-1.2h0s-4.1-.9-6.7.9l.9-1.3h0c-.3,0-5.9-.3-6.7.7l.4-.9h0a13.1,13.1,0,0,0-6.5.3c-.2-.1-.5-.1-.6-.3l-.4-.4c-.1-.1-.1-.1-.1-.2l6.4-.4c2.1.9,8.5-.4,9.8-.8s-.9-.7-.5-.8a10.5,10.5,0,0,0,8.9-.5s-.9-1.2-.7-1.3c2,1.4,10.2.4,9.9-.7l-.9-.7c2.5.7,8.2-1.4,8.2-1.4a4.8,4.8,0,0,0-.8-1.1c2.7.8,9.7-1.3,9.7-1.3a14.8,14.8,0,0,0-2.2-1.3c3.1.3,9.1-1.5,9.1-1.5a26.5,26.5,0,0,0-3-1.7c2.9,0,8-2.5,8-2.5a7.9,7.9,0,0,0-1.9-.8c2.6-.3,6.2-2.5,6.2-2.5a5.2,5.2,0,0,0-1.6-1c2.5-.4,6.7-3.6,6.7-3.6l-2-.3c2.3-.2,6.2-3.4,6.2-3.5h-2.2c2.2-.3,5.7-3.4,5.8-3.6h-2.2c2.1-.4,5.3-3.6,5.5-3.8H392c2.1-.5,5.1-3.6,5.2-3.8l-2.2.2c2-.7,4.5-3.6,4.6-3.8l-1.8.2a16.1,16.1,0,0,0,4-3.8l-1.5.3a17.5,17.5,0,0,0,3.4-3.7l-1.2.2a14.8,14.8,0,0,0,3-3.5l-1.3.3a16.9,16.9,0,0,0,1.1-3l-.4.2a31.9,31.9,0,0,0-3.5,2.1V406a35.4,35.4,0,0,0-3.6,2.1l-.8.4a2.7,2.7,0,0,0,.2-.9,20.3,20.3,0,0,0-4.7,3c.2-.8.3-1.4.3-1.4s-4,1.8-5.1,3.3a10.2,10.2,0,0,0,.4-1.6s-4.4,2-5.2,3.5h-.1a12.3,12.3,0,0,0,.4-1.8s-4.9,2.2-5.4,3.7h-.1a12.1,12.1,0,0,0,.4-1.9,22.9,22.9,0,0,0-4.4,2.5l-.2.2c-.2,0-.2.1-.3.2s-.3.3-.4.4v.2c0,.1-.1.3-.1.4a6.5,6.5,0,0,1,.2-1.7v-.2l-.7.3h-.2l-.4.2-.5.2-.4.3-.7.3-.4.3-.6.3-.4.3-.5.4-.3.3-.3.4c0,.1-.1.2-.1.3h-.1c0-.6.1-1.7.1-1.7s-4.4,1.8-5.8,3.4l.4-2.2h0l-3.2,1.8a17.2,17.2,0,0,0-3.3,2.6c-.1-.3-.1-.6-.2-.9a7.5,7.5,0,0,1-.1-1.1s-4.5,3-5.8,4.8a14.5,14.5,0,0,0-.8-2c0,.1-4.3,2.7-5.3,4.8a15.9,15.9,0,0,0-1.1-2c.1,0-4.7,3.7-4.6,6.6-.3-1-.6-2.9-.6-2.9l-.2.2c-1.2.7-5.9,3.8-5.8,6v-2.4s-5.8,3.6-6,5.8a4.8,4.8,0,0,0-.4-.8s-9.6,7.1-8.8,7.3l-1,.7a.8.8,0,0,1,.2-.4l2.2-3.4a16.4,16.4,0,0,0,7.2-7.3,2.6,2.6,0,0,0-2-1.5c2.5.2,7.4-7.6,7.4-7.6s-2.6-.9-2.4-1.2c2.4,1.2,7.6-7.8,7.6-7.8s-3.4-.5-3.2-.9c2.5,2,7.6-7.4,7.6-7.4a25.7,25.7,0,0,0-2.8-.6c2.3-.1,6.1-8.2,6.1-8.2h-2.2c2.4-.9,6.2-7.9,6.2-7.9a17.5,17.5,0,0,0-2.5.3c2.1-2.5,4.2-7.9,4.2-7.9l-2.1.4c1.9-2.3,3.5-8.3,3.5-8.3l-1.9.7c2-1.3,3.7-7.9,3.7-7.9l-2.3.9c2.1-1,3.7-8,3.7-8l-2.4,1.3c2-1.1,3.4-8,3.4-8a13.8,13.8,0,0,0-2.3,1.4h0c1.9-1.4,3.1-7.8,3.1-7.8a16.1,16.1,0,0,0-2.2,1.4h0c1.7-1.8,2.7-7.6,2.7-7.6a15.1,15.1,0,0,0-2,1.4c1.5-2.1,2.3-7.4,2.3-7.4a14.2,14.2,0,0,0-1.7,1.3c1.3-2.3,1.8-7,1.8-7l-1.4,1.1a23.1,23.1,0,0,0,1.4-6.5.1.1,0,0,1-.1.1,29.2,29.2,0,0,0,.9-5.5,23.2,23.2,0,0,0-3.2,3.1c-.1-.9-.2-1.5-.2-1.5h-.1a26.5,26.5,0,0,0-2.9,5.4l-.3-1.4h0a22.6,22.6,0,0,0-3,5.9c-.2-1-.4-1.7-.4-1.7h0s-2.6,3.9-3,6.5a16.3,16.3,0,0,0-.5-2h0s-2.8,4.5-2.9,7.1c-.3-1.3-.6-2.3-.6-2.3h-.1s-2.9,5.1-2.7,7.5a21.9,21.9,0,0,1-.8-2.3h0s-3,5.4-2.6,7.8l-.9-2.3h0s-3,5.6-2.5,8c-.5-.9-1-2.1-1-2.1h0s-2.9,5.9-2.4,8.2l-.9-1.9h-.1s-2.9,6.1-2.2,8.4l-1-1.6h0s-2.8,6.4-2,8.6l-1-1.3h0s-3.2,7.4-1.7,9.1a19.5,19.5,0,0,1-2.1-2.1h0s-2.2,8.4-.5,10h0l-.7-.6-1.8-1.2h-.1s-1.7,8.4.1,10.2l.4.2c0,.1-.5-.1-1-.4l-1.9-1.1h0s-1.5,9.4.7,10.4c0,.1,0,.1-.1.1l-1.6-.5-1.5-.6s-.6,9.1,1.3,10.5c-.1.2-2.5-1.3-2.5-1.3h0s-.7,9.6,1,11.3c0,.4-1.7-1.5-1.8-1.1a32.8,32.8,0,0,0,.2,10.3h0a4.4,4.4,0,0,0,.5,1.5,17.7,17.7,0,0,0-.1,2.3l-.2-.3c.8.3-2.2-11.2-2.2-11.2l-.8.3c1.2-1.8-1-8.3-1-8.3a21.9,21.9,0,0,0-2.3,2c1.6-1.9.6-7.4.6-7.4a7.7,7.7,0,0,0-2.7.8c1.9-2.2.4-8.3.4-8.3l-2.2,1.2c1.3-2.9-1-7.3-1-7.3a19.3,19.3,0,0,1-1.7,1.5c.7-3.1-1.9-6.9-1.9-7a4.9,4.9,0,0,1-1,.9c.1-2.1-2.3-6.8-2.3-6.9l-.9,1.3c-.1-2.1-2.7-6.6-2.7-6.7l-.7,1.8c.4-2.9-1.8-6.2-1.8-6.3a15.8,15.8,0,0,1-1.2,1.5c.3-1.7-2.1-7-2-7l-1,1.6c.6-1.5-1.9-6.3-1.8-6.3a4.2,4.2,0,0,0-.8,1.6h-.1c.3-1.7-1.8-6-1.8-6a11.1,11.1,0,0,0-.8,1.5c.1-1.9-1.8-5.8-1.8-5.8l-.6,1.3c-.1-1.9-1.8-5.3-1.8-5.3l-.4.8-.5-1a27,27,0,0,0-1.4-3.7h-.1a28.8,28.8,0,0,0-1.4-4,.3.3,0,0,1-.1-.2,12.7,12.7,0,0,0-1.1,3l-.8-1a17.9,17.9,0,0,0,.1,4.6l-.8-1a14.8,14.8,0,0,0,.4,5.1l-1.1-1.2a17.5,17.5,0,0,0,.7,5.5,9.9,9.9,0,0,0-1.3-1.4c0,.3.1,4.1,1.2,5.9a18.2,18.2,0,0,1-1.5-1.5c-.1.3.3,6,2.3,6.8v.2a22.7,22.7,0,0,0-2.5-2.3s.6,6.3,2.7,6.9v.3a19.3,19.3,0,0,0-2.6-2.3s1,6.7,3.2,7v.5a24.3,24.3,0,0,0-2.7-2.3s1.3,7,3.6,7.1c0,.2.1.4.1.6a28.8,28.8,0,0,0-2.8-2.1c-.1,0,1.2,5.1,2.9,7a7.4,7.4,0,0,0-1.9-.3s1.5,4.1,3.2,5.9l-2-.6s2.4,5.2,4.6,7a26.5,26.5,0,0,0-3.4-.6c0,.1,3.6,5.3,6.2,7a17.4,17.4,0,0,0-2.5-.4s4.1,6.1,6.7,7.1a2.8,2.8,0,0,0-1.4.4s3.1,5.2,5.5,6.3h-1.1c-1,.7,4,6.4,6.5,6.6l.3.5-.6-.2s3.4,6.2,5.9,6.6l.7.8c.7,1.2,3.6,5.6,5.9,6.2s2.1,2.1,3.2,3.1a6,6,0,0,1,.8.8l-1.3-.9-.2-.2h0l-1.4-1.1a21,21,0,0,0-3.2-1.6h0l-.3-.2c.2-1.3-4.3-4-4.3-4.1s-.7,1-.8.9-3.9-4.3-3.9-4.3-.8,1.5-1,1.3c1.4-1.1-3.4-4.5-3.4-4.5s-1.1,1.9-1.3,1.8c1.6-1.1-3.4-4.2-3.4-4.2s-.8.7-.8,1-4-3.8-4-3.8l-.4,1.4c-.4-1.2-4.2-3.6-4.2-3.6v1.5c-.5-1.2-4.2-2.9-4.2-2.9l.2,1c-.5-1.2-4.2-2.9-4.2-2.9l.3,1.3c-.3-1.2-4.2-3-4.2-3s.2.7.5,1.5h-.1c-.2-1.2-4.2-3-4.2-3l.5,1.4h-.1c-.5-1.1-4.1-2.7-4.1-2.7l.5,1.3h0c-.8-1.1-4-2.5-4-2.5a6.7,6.7,0,0,0,.4,1.2c-.9-1.1-3.8-2.4-3.8-2.4a5.5,5.5,0,0,0,.4,1,17.3,17.3,0,0,0-3.7-2.1l.3.9a15.6,15.6,0,0,0-3.5-2h0a24.6,24.6,0,0,0-3-1.6h0a18.9,18.9,0,0,0,1.2,2.2l-.9-.2a12.2,12.2,0,0,0,2.6,2.5h-.9a12.5,12.5,0,0,0,3,2.6h-1.1a13.5,13.5,0,0,0,3.3,2.7h-1.3s2.3,2.3,3.8,2.8h-1.5s2.6,2.4,4.1,2.7h-1.6s2.8,2.4,4.3,2.6h-1.5s2.9,2.4,4.4,2.6h-1.4s3.2,2.4,4.7,2.5l-1.3.2c0,.1,3.3,2.4,4.8,2.4l-1.1.3s3.5,2.3,5,2.2l-.9.3c-.1,0,3.8,2.4,5.2,2.1l-.8.4s4.5,2.6,5.6,1.9l-.8.4s5.2,2.7,6,1.5-.7.6-.7.6,5.2,2.5,6.1,1.4l-.4.5s5.1,2.3,6.2,1.3,0,.3,0,.3,5,2,6.2,1.3h.7c1,.4,4.8,1.6,6,1.1l3,.3h.3l-1.7.2h-.6c-.4-.1-.6.1-1.2.1h0l-2.1.4h-.5c-.7-.5-4,.4-4,.4h0c-.6-.6-4.1.3-4.1.3l.4.2h-.2c-.5-.8-4.1.1-4.1.1l.7.3h-.3c-.4-.8-4.1,0-4.1,0l.9.5h-.4c-.2-.9-4-.1-4-.1l1.1.6h-.4c-.2-.9-4-.1-4-.1a3.8,3.8,0,0,0,1.2.6h-.4c-.4-.8-4-.1-4-.1l1.3.6h-.3c-.2-.8-3.9-.1-3.9-.1a5,5,0,0,0,1.4.6h-.3c-.4-.8-3.9-.1-3.9-.1l1.5.7h-.3c-.5-.7-3.8,0-3.8,0l1.5.6h-.2c-.6-.7-3.8,0-3.8,0l1.5.6h-.1c-.7-.6-3.7.1-3.7.1l.9.4a10,10,0,0,0-3.1.3l.8.3a12.3,12.3,0,0,0-2.9.3l.8.4a9.5,9.5,0,0,0-2.7.3l.6.3a11.1,11.1,0,0,0-2.5.4l.7.2-1.5.7h0a14.4,14.4,0,0,0,2.5.3.1.1,0,0,1-.1.1,15.7,15.7,0,0,0,2.9.2l-.5.3a9.4,9.4,0,0,0,3.1.1l-.6.4a11.7,11.7,0,0,0,3.3,0,1.7,1.7,0,0,0-.6.5,10.7,10.7,0,0,0,3.4-.2h0l-.6.6s2.8.1,3.5-.4h0l-.7.6s3.2.1,3.6-.6h.1l-.7.8s3.6-.1,3.7-.9h.2a5,5,0,0,0-.8.8s3.9-.2,3.7-1h.3a2.5,2.5,0,0,0-.7.9s4.1-.4,3.5-1.3h.5l-.7,1s4.3-.6,3.5-1.5h.5a4.4,4.4,0,0,0-.6,1s4.4-.7,3.4-1.6h.6a4.5,4.5,0,0,0-.5.9s4.4-.9,3.4-1.7l.5-.2-.4.8s4.3-1,3.4-1.8l.5-.2-.3.7s4-1.1,3.4-1.9h.4a.8.8,0,0,0-.1.3s3.5-1,3.4-1.8l.2-.2h0s2.8-1,3.3-1.7l.3-.2.3-.3,1.3-1h0a4.8,4.8,0,0,1,1.1-.8h.1l.4-.2c-1.3,4.5-4.4,9.9-10,20.1-7.2,13.1-1.2,12.9.3,12.7h.3s1-9.8,10.7-32.3c0-.2.1-.3.2-.5v.3h0v.5c.1.3-.1,2.1,0,2.4s1.4,3.3,1.4,3.3h0l.2.3c-.6.5,1.4,3.6,1.4,3.6l.2-.4c.1.1.1.3.2.4s1.4,3.5,1.4,3.5l.2-.6.3.4c-1.2.1,1.5,3.6,1.5,3.6l.2-.9.3.5c-1.3,0,1.5,3.4,1.5,3.4a2.4,2.4,0,0,0,.2-1l.4.5c-1.4,0,1.6,3.4,1.6,3.4a3.5,3.5,0,0,0,.2-1.2l.3.5c-1.2.1,1.8,3.3,1.8,3.3a6.8,6.8,0,0,0,.1-1.2l.3.4c-1,.3,1.9,3.2,2,3.2v-1.2c0,.1.1.2.2.3s2.1,3,2.1,3a2.7,2.7,0,0,0,0-1h.1c-.4.6,2.3,2.9,2.3,2.9v-1h0c-.1.7,2.4,2.7,2.4,2.7a5.1,5.1,0,0,0-.1-.9h.1c.1.8,2.4,2.5,2.4,2.5a4.5,4.5,0,0,0-.1-.8h0a11.8,11.8,0,0,0,2.5,2.3,4.5,4.5,0,0,0-.1-.8,11.9,11.9,0,0,0,2.4,2.1,3.2,3.2,0,0,0-.1-.7,11.6,11.6,0,0,0,2.4,1.9,1.5,1.5,0,0,0-.2-.6,14,14,0,0,0,2.4,1.7h0l.9.6a7,7,0,0,0,1.2.8,5,5,0,0,0-.7-1.5l.7.2a9.5,9.5,0,0,0-1.7-1.9l.7.2a10.4,10.4,0,0,0-1.9-1.9l.8.2a9.6,9.6,0,0,0-2.1-2.1l1,.3a11.7,11.7,0,0,0-2.3-2.3l1,.3s-2-2.4-2.9-2.4h0l1.5.5s-2-2.5-2.9-2.4h-.1l1.5.4s-2.1-2.7-3-2.4-.1-.1-.1-.2l1.5.4s-2.3-2.7-3.1-2.4l-.2-.2,1.5.4s-2.3-2.9-3.1-2.4l-.2-.3,1.4.4s-2.4-3-3.1-2.5l-.3-.3a6.3,6.3,0,0,0,1.4.4s-2.5-3.1-3.2-2.5l-.2-.2h.1l1,.3s-2.4-3.1-3.1-2.6l-.3-.2,1,.2s-2.4-3-3.1-2.6-.2-.2-.2-.3l.7.2s-2.2-2.9-3-2.7a.2.2,0,0,1-.2-.2h.5s-2.2-2.8-3-2.7l-.2-.2h.2s-2-2.8-2.9-2.8l-.3-.4-1-1.2h.2l.9.5c.6,1.2,4.4,2.7,5.3,3l.7.3c.5,1.4,5.6,3,5.6,3s.1-.3.2-.2,5.6,2.8,5.6,2.8-.1-.6,0-.5,5.6,2.7,5.6,2.7-.3-.9-.2-.9,5.6,2.6,5.6,2.5a4.5,4.5,0,0,1-.3-.8c.4,1.3,5.6,2.2,5.6,2.2l-.5-.8c1,1.1,5.4,1.7,5.4,1.7l-.5-.9c1.1,1,5.3,1.4,5.3,1.4l-.7-.9c1.2,1,5.2,1.2,5.2,1.2a6.2,6.2,0,0,1-.8-1c1.2.9,5.1,1.1,5.1,1.1l-.9-1.1c1.2.9,5,.9,5,.9l-1.1-1c1.3.7,5,.6,5,.6l-1.2-1c1.3.7,4.8.5,4.8.5l-1.1-.9c1.4.6,4.6.3,4.6.3l-1.1-.8a15.7,15.7,0,0,0,4.3.1l-.9-.6a17.5,17.5,0,0,0,4-.2l-.8-.5a17.6,17.6,0,0,0,3.6-.3l-.8-.5a12.2,12.2,0,0,0,2.4-.9Zm-70.8-88.3Zm-3,7.6.3.2h0Zm-20.7,19.8Zm-19.1,25.2c-.1.1-.1.2-.2.1Zm-17.6,28.7h0Zm78,26.5Z"/><path class="cls-8" d="M247.9,709.4c69.2,13.5,245.5-520.6,245.5-520.6,24.5-4.7,25.7-2.9,36.8-10.4l-183.6,516c-7.6,21.4-49.3,26.9-98.7,15"/></g></g></svg>