<svg xmlns="http://www.w3.org/2000/svg" viewBox="0 0 90 90"><defs><style>.cls-1{fill:#ffd200;}</style></defs><g id="Layer_1" data-name="Layer 1"><path class="cls-1" d="M45,29.6A15.4,15.4,0,1,0,60.4,45,15.4,15.4,0,0,0,45,29.6ZM45,55A10,10,0,1,1,55,45,10,10,0,0,1,45,55ZM64.6,29A3.6,3.6,0,1,1,61,25.4,3.6,3.6,0,0,1,64.6,29Zm10.2,3.6c-.2-4.8-1.3-9-4.9-12.5s-7.7-4.6-12.5-4.9-19.8-.3-24.8,0-9,1.3-12.5,4.8-4.7,7.8-4.9,12.6-.3,19.8,0,24.8,1.3,9,4.9,12.5,7.7,4.6,12.5,4.9,19.8.3,24.8,0,9-1.3,12.5-4.9,4.7-7.7,4.9-12.5.3-19.8,0-24.8ZM68.4,62.7a10.3,10.3,0,0,1-5.7,5.7c-4,1.6-13.3,1.2-17.7,1.2s-13.7.3-17.7-1.2a10.6,10.6,0,0,1-5.7-5.7c-1.5-4-1.2-13.3-1.2-17.7s-.3-13.7,1.2-17.7a10.6,10.6,0,0,1,5.7-5.7c4-1.6,13.3-1.2,17.7-1.2s13.8-.3,17.7,1.2a10.6,10.6,0,0,1,5.7,5.7c1.6,4,1.2,13.3,1.2,17.7S70,58.7,68.4,62.7Z"/></g></svg>