<svg id="Layer_1" data-name="Layer 1" xmlns="http://www.w3.org/2000/svg" viewBox="0 0 622 600.8"><defs><style>.cls-1{fill:#ffd200;}.cls-2{fill:#ff4f4f;}.cls-3{fill:#fff;}.cls-4{fill:#00a03a;}.cls-5{fill:#ffd400;}</style></defs><g id="Layer_1-2" data-name="Layer 1"><path class="cls-1" d="M241,240.7A105.7,105.7,0,1,0,346.7,346.4,105.6,105.6,0,0,0,241,240.7ZM241,415a68.6,68.6,0,1,1,68.6-68.6A68.7,68.7,0,0,1,241,415ZM375.5,236.6a24.7,24.7,0,1,1-24.7-24.7h0A24.8,24.8,0,0,1,375.5,236.6Zm70,24.7c-1.4-32.9-9-61.7-33.7-85.7S359,144,326.1,142s-135.8-2.1-170.1,0-61.7,8.9-85.8,32.9S38,228.4,36.6,261.3s-2,135.8,0,170.1,8.9,61.8,33.6,85.8,52.9,31.5,85.8,33.6,135.8,2,170.1,0,61.7-8.9,85.7-33.6,32.3-52.9,33.7-85.8S447.5,295.6,445.5,261.3ZM401.6,467.8a70.8,70.8,0,0,1-39.1,39.1c-27.5,11-91.3,8.2-121.5,8.2s-93.9,2.1-121.4-8.2a73.4,73.4,0,0,1-39.1-39.1c-10.3-27.5-8.2-91.3-8.2-121.4s-2.1-94,8.2-121.4a72.7,72.7,0,0,1,39.1-39.1c27.5-11,91.3-8.3,121.4-8.3s94.7-2,121.5,8.3A72.7,72.7,0,0,1,401.6,225c10.9,27.4,8.2,91.2,8.2,121.4S412.5,440.3,401.6,467.8Z"/></g><circle class="cls-2" cx="427.9" cy="177.3" r="159.6"/><path class="cls-3" d="M358.6,119.6h9.2l33.9-2.5h67.5l30.4,2.4c.3,0,.9,1.6.9,1.6l2.3,24.3,1.9,26.1v9l-3.1,10.2-5.9,14.4c-.1.3-12.5,16.9-12.5,16.9l-3.4,3.3L467.4,235s-48.9,9.5-49.2,9.7-28.3-10.3-28.3-10.3l-4-3.4-12.2-10.4-14-22-3.4-10-2.5-14.7.7-10.6,1.2-17.9,2.3-23.7Z"/><path class="cls-4" d="M340.3,234.1a1.5,1.5,0,0,1-.7-.3,1.1,1.1,0,0,1-.3-1.1l.8-2.6c-2.5.9-5,1.6-7.5,2.3l-5.2,1.3a1,1,0,0,1-1.2-.8h0a1.1,1.1,0,0,1,0-1.5l3.9-3.5c2-1.7,4-3.4,6.1-5l-2.6-.8a1.1,1.1,0,0,1-.7-.8,1,1,0,0,1,.4-1,145.2,145.2,0,0,1,18-12.1l-2.8-.8a1,1,0,0,1-.7-.9.9.9,0,0,1,.5-1,143.5,143.5,0,0,1,14.7-7.3l4.9-2-1.3-.4h-.1l-1.8-.6a1,1,0,0,1-.7-.9,1.2,1.2,0,0,1,.7-1c4-1.6,9.9-3.5,16.2-5.3l2.7-.7h.1l5.1-1.2,5.2-1-1.2-.6h0l-1.7-.8a1.1,1.1,0,0,1-.5-1.1,1.2,1.2,0,0,1,.8-.9c4.4-.7,27.5-3,36.2-3.8a1.2,1.2,0,0,1,1,.5,1.3,1.3,0,0,1-.2,1.2c-5.4,6.7-20.2,24.6-23.3,27.8a1.1,1.1,0,0,1-1.2.2.9.9,0,0,1-.5-1v-1.9h0l.2-1.4L400,207l-3.9,3.6H396l-2.1,1.8c-5,4.2-9.8,8-13.4,10.5a.9.9,0,0,1-1.2,0,1.2,1.2,0,0,1-.4-1.1l.6-1.8h0l.4-1.3-4.4,3a132.2,132.2,0,0,1-14.3,8.1,1.1,1.1,0,0,1-1.1-.1,1.1,1.1,0,0,1-.3-1.1l.9-2.9a135,135,0,0,1-20.1,8.3Zm1.4-6.6a1.1,1.1,0,0,1,.7.3.9.9,0,0,1,.2,1l-.8,2.6a132.1,132.1,0,0,0,20.1-8.6,1.1,1.1,0,0,1,1.1.1.9.9,0,0,1,.3,1.1l-.8,2.9c4.1-2.1,8.1-4.5,11.9-6.9l6.8-4.8a1.3,1.3,0,0,1,1.2,0,1.3,1.3,0,0,1,.4,1.2l-1,3.2c3.1-2.4,6.9-5.4,10.8-8.7l2.2-1.9h0c1.3-1.1,2.5-2.3,3.7-3.5s4-4,5.7-5.9a1,1,0,0,1,1.8.7l-.3,3.3c4.7-5.4,14.4-17.1,19.6-23.5-8.3.7-23.4,2.2-30.4,3.1l2.8,1.6a.9.9,0,0,1,.5,1,1,1,0,0,1-.8.9,76.2,76.2,0,0,0-8.1,1.4l-5,1.1a.1.1,0,0,0-.1.1l-2.7.7c-4.9,1.4-9.6,2.8-13.2,4.2l3.1.9a1.1,1.1,0,0,1,.8,1,1.2,1.2,0,0,1-.7,1l-7.7,3a128.2,128.2,0,0,0-12.4,6l2.9.9a1,1,0,0,1,.7.9,1.2,1.2,0,0,1-.5,1,136.8,136.8,0,0,0-18.4,11.8l2.6.8a1.1,1.1,0,0,1,.8.8,1.2,1.2,0,0,1-.4,1c-2.7,2-5.2,4-7.6,6.1l-1.9,1.7,2.4-.7c3.1-.8,6.2-1.8,9.3-2.9Z"/><path class="cls-4" d="M515.5,234.1h-.4a133.9,133.9,0,0,1-20-8.3l.8,2.9a1.1,1.1,0,0,1-.3,1.1,1.1,1.1,0,0,1-1.1.1,132.2,132.2,0,0,1-14.3-8.1l-4.4-3,.4,1.3h.1l.5,1.8a1,1,0,0,1-.4,1.1.9.9,0,0,1-1.2,0c-3.5-2.5-8.4-6.3-13.4-10.5l-2.1-1.8h-.1l-3.8-3.6c-1.3-1.3-2.6-2.5-3.8-3.8l.2,1.4h0l.2,1.9a1.1,1.1,0,0,1-.6,1,1.1,1.1,0,0,1-1.2-.2c-3-3.2-17.9-21.1-23.3-27.8a1.1,1.1,0,0,1-.1-1.2,1.2,1.2,0,0,1,1-.5c8.6.8,31.8,3.1,36.1,3.8a1.1,1.1,0,0,1,.3,2l-1.6.8h-.1l-1.2.6,5.2,1,5.1,1.2h.1l2.7.7c6.3,1.8,12.2,3.7,16.3,5.3a1.1,1.1,0,0,1,.6,1,1,1,0,0,1-.7.9l-1.8.6h-.1l-1.3.4,4.9,2a134,134,0,0,1,14.7,7.3.9.9,0,0,1,.5,1,1,1,0,0,1-.7.9l-2.8.8a145.2,145.2,0,0,1,18,12.1,1,1,0,0,1,.4,1,1,1,0,0,1-.7.8l-2.6.8c2.1,1.6,4.1,3.3,6.1,5l3.9,3.5a1.1,1.1,0,0,1,.1,1.5h-.1a1,1,0,0,1-1.2.8l-5.1-1.3c-2.5-.7-5.1-1.4-7.6-2.3l.8,2.6a1.4,1.4,0,0,1-.2,1.1Zm-22.1-11.4h.4a136.5,136.5,0,0,0,20.1,8.6l-.8-2.6a1.1,1.1,0,0,1,1.3-1.3c3.1,1.1,6.2,2.1,9.3,2.9l2.4.7a15.4,15.4,0,0,0-1.9-1.7c-2.4-2.1-4.9-4.1-7.5-6.1a1,1,0,0,1-.4-1,.8.8,0,0,1,.7-.8l2.6-.8a135.8,135.8,0,0,0-18.3-11.8,1.1,1.1,0,0,1-.6-1,1.2,1.2,0,0,1,.8-.9l2.8-.9a117.8,117.8,0,0,0-12.4-6l-7.7-3a1,1,0,0,1-.6-1,1.1,1.1,0,0,1,.7-1l3.2-.9c-3.7-1.4-8.4-2.8-13.2-4.2l-2.8-.7h0l-5-1.1a82.7,82.7,0,0,0-8.2-1.4,1.1,1.1,0,0,1-.8-.9.9.9,0,0,1,.5-1l2.9-1.6c-7.1-.9-22.2-2.4-30.5-3.1,5.3,6.4,15,18.1,19.6,23.5l-.3-3.3a1.1,1.1,0,0,1,.6-1,1,1,0,0,1,1.2.3l5.7,5.9c1.2,1.2,2.4,2.4,3.7,3.5h.1l2.1,1.9c3.9,3.3,7.7,6.3,10.8,8.7l-.9-3.2a1,1,0,0,1,.4-1.2,1.3,1.3,0,0,1,1.2,0l6.7,4.8c3.8,2.4,7.8,4.8,12,6.9l-.9-2.9a1.1,1.1,0,0,1,.3-1.1Z"/><path class="cls-4" d="M327.2,232.7l5.1-1.3c2.6-.7,5.8-1.6,9.4-2.9l-1.4,4.5a140.1,140.1,0,0,0,22.1-9.3l-1.6,5.2a152.6,152.6,0,0,0,14.2-8.1l6.8-4.7-1.3,4.3h0l-.6,1.8c4-2.8,9.1-6.9,13.4-10.5l2.1-1.9h0l3.9-3.6a78.7,78.7,0,0,0,5.7-6l-.4,4.5h0l-.2,1.9c3-3.2,17.8-21,23.2-27.8-8.6.8-31.7,3.1-36,3.8l1.7.9h0l3.9,2.2c-2.5.3-5.3.8-8.2,1.4l-5.1,1.2h0l-2.7.7c-5.4,1.5-11.6,3.5-16.2,5.3l1.8.5h0l4.3,1.3-7.7,3a152.7,152.7,0,0,0-14.6,7.3L354,208a140.5,140.5,0,0,0-20.1,13.1l4.5,1.4c-3,2.2-5.5,4.3-7.6,6.1l-3.9,3.6"/><path class="cls-4" d="M528.8,232.2l-3.9-3.6c-2-1.8-4.6-3.9-7.6-6.1l4.5-1.4a138.9,138.9,0,0,0-20-13.1l5.1-1.6a141.8,141.8,0,0,0-14.6-7.3l-7.7-3,4.3-1.3h0l1.8-.5c-4.5-1.8-10.8-3.8-16.1-5.3l-2.8-.7h0l-5.1-1.2c-2.9-.6-5.6-1.1-8.2-1.4l4-2.2h0l1.6-.9c-4.3-.7-27.3-3-36-3.8,5.5,6.8,20.2,24.6,23.3,27.8l-.2-1.9h0l-.5-4.5c1.8,2,3.7,4,5.8,6a42.7,42.7,0,0,0,3.8,3.6h0l2.2,1.9c4.2,3.6,9.3,7.7,13.3,10.5l-.5-1.8h0l-1.3-4.3c2,1.5,4.3,3.1,6.8,4.7a139.7,139.7,0,0,0,14.1,8.1l-1.5-5.2a132.7,132.7,0,0,0,22.1,9.3l-1.4-4.5c3.5,1.3,6.7,2.2,9.3,2.9l5.1,1.3"/><path class="cls-5" d="M453.5,117.4h0c16.2.3,31.8,1.1,46.8,2.2l.6,6.6c8.6-.8,14.1-1.8,15.3-2.9l.2-.4-1-.9h0l-86-73.2v-.3l-.2.2c0-.1-.1-.1-.2-.2v.3L343.1,122h0l-1.1.9.3.4c1.2,1.1,6.6,2.1,15.2,2.9.2-2.2.5-4.4.7-6.6,15-1.1,30.6-1.9,46.8-2.2h0l24-.3h.4l24.1.3"/><path class="cls-4" d="M426.4,236.1l-5.6-.8h-2.4a1.4,1.4,0,0,0-.2-.6c-2.5-.6-4.9-1.5-7.3-2.2a50.8,50.8,0,0,1-5.1-1.7l-1.6-.6c-.6-.3-2.2-.7.1-.1a17.6,17.6,0,0,1-4-1.6l-1.3.8c-2.2,1.5-4.9,3.3-7.3,5.2a44.1,44.1,0,0,0-3.9,3l4.2-.4c-1.5,1.1-3,2.4-4.6,3.7s-5.8,5.4-8.3,8l3.5-.3a117.3,117.3,0,0,0-10.9,12.8l3.1-.2a91.1,91.1,0,0,0-6,8.6,91.1,91.1,0,0,0,8.6-6l-.2,3.1a109,109,0,0,0,12.8-11l-.3,3.6q1.9-1.8,3.9-3.9c-.9,2.2-1.8,4.3-2.6,6.4l4.1-1.8a121.1,121.1,0,0,0-6.1,19.2l3.5-1.6a97.3,97.3,0,0,0-2.4,12.4,123.7,123.7,0,0,0,7-10.5l1.4,3.6a130.1,130.1,0,0,0,9.3-17.8l1.6,4.1c1.7-3.9,3.4-8.2,4.9-12.8l.9-3.2h0l3.2-3.2c-.4,2.6-.7,5.4-1,8.3A129.8,129.8,0,0,0,417,275l3.8-3.8A138,138,0,0,0,423,295l3.3-3.3c.6,3.7,1.2,7,1.8,9.6s1,3.8,1.3,5.1V236.1h-3"/><path class="cls-4" d="M428.5,175.2h-1a11.1,11.1,0,0,1-5.7-2.9c-1.3-1-2.4-1.9-4-2a4.9,4.9,0,0,0-2.6.4,1.1,1.1,0,0,1-1.4-.5,1.1,1.1,0,0,1,.6-1.4,7.6,7.6,0,0,1,3.6-.6,9.5,9.5,0,0,1,5.1,2.5c1.4,1.1,2.7,2.2,4.7,2.4h1.5a1,1,0,0,1,1.1.9,1,1,0,0,1-.9,1.2Z"/><path class="cls-4" d="M413.3,176.4h-.2c-.9-.2-5-1.6-6.3-5.5s1.1-9.8,6.1-12a1.1,1.1,0,0,1,1.4.5,1,1,0,0,1-.5,1.3c-4,1.8-6.3,6.1-5.1,9.5s4.5,4.1,4.9,4.2a1,1,0,0,1,.7,1.3A.9.9,0,0,1,413.3,176.4Z"/><path class="cls-4" d="M429.3,307a.9.9,0,0,1-.9-.8c-.5-1.7-.9-3.4-1.3-5.1s-1.1-5.1-1.6-7.7l-1.9,1.9a1,1,0,0,1-1,.3c-.4-.2-.7-.5-.7-.8a143.8,143.8,0,0,1-2.2-21.6l-2.1,2.1a1.4,1.4,0,0,1-1.1.2,1,1,0,0,1-.6-.9,129.4,129.4,0,0,1,.4-16.5l.6-5.2-1,.9h0l-1.3,1.3a1.1,1.1,0,0,1-1.2.2,1.1,1.1,0,0,1-.6-1c.5-4.3,1.6-10.4,3-16.8l.6-2.8a1.1,1.1,0,0,1,1.3-.8.9.9,0,0,1,.7,1.2l-.6,2.8c-1.1,5-2,9.7-2.5,13.6l2.3-2.3a.9.9,0,0,1,1.2-.2,1.1,1.1,0,0,1,.6,1,73.5,73.5,0,0,0-1,8.2,127.3,127.3,0,0,0-.5,13.8L420,270a.9.9,0,0,1,1.1-.2,1.1,1.1,0,0,1,.7.9,130.6,130.6,0,0,0,1.8,21.7l1.9-1.9a.9.9,0,0,1,1.1-.2,1.1,1.1,0,0,1,.7.8c.4,3.2,1.1,6.4,1.8,9.5l1.2,5.1a1,1,0,0,1-.7,1.3Z"/><path class="cls-4" d="M390,290.7h-.4a1.1,1.1,0,0,1-.6-1.1c.5-3.4,1.1-6.9,1.9-10.5l-1.6.8a1.1,1.1,0,0,1-1.4-1.2,123.7,123.7,0,0,1,5.2-17l-1.8.8a1.1,1.1,0,0,1-1.1-.2.9.9,0,0,1-.2-1.1c.8-2.2,1.7-4.4,2.6-6.5s2-4.2,3-6.1l1.8-3.4-1.9.8a.9.9,0,0,1-1.1-.2,1.1,1.1,0,0,1-.2-1.2,77.6,77.6,0,0,1,4.5-7.4h0l4.5-6.8a1.1,1.1,0,0,1,1.4-.2,1,1,0,0,1,.3,1.4l-4.5,6.7h0c-1.1,1.6-2,3.2-2.8,4.5l1.9-.8a.8.8,0,0,1,1.1.3,1.1,1.1,0,0,1,.2,1.2c-1.2,1.9-2.3,3.9-3.4,6s-1.9,3.9-2.9,6.1-1.2,2.6-1.7,4l1.8-.8a.9.9,0,0,1,1.1.2.9.9,0,0,1,.2,1.1,129.5,129.5,0,0,0-5.5,17l1.6-.7a1,1,0,0,1,1.4,1.2c-.6,2.7-1.2,5.4-1.7,8,1.5-2.2,3-4.5,4.4-6.9a1.2,1.2,0,0,1,1-.5,1.3,1.3,0,0,1,.9.7l.6,1.6a118.8,118.8,0,0,0,8.1-15.9,1.1,1.1,0,0,1,1-.6.9.9,0,0,1,.9.6l.7,1.8a100.5,100.5,0,0,0,3.9-10.4c.3-1,.6-2,1-3.1a1.1,1.1,0,0,1,1-.8,1.1,1.1,0,0,1,1,1.1h0a.4.4,0,0,1-.1.3l-.9,3.2a136.9,136.9,0,0,1-5,12.9,1.2,1.2,0,0,1-1,.6,1.1,1.1,0,0,1-.9-.7l-.7-1.8a130.6,130.6,0,0,1-8.3,15.7,1.2,1.2,0,0,1-1,.5,1,1,0,0,1-.8-.7l-.7-1.6a95.1,95.1,0,0,1-6,8.7A.9.9,0,0,1,390,290.7Z"/><path class="cls-4" d="M368.7,270.4a.8.8,0,0,1-.7-.3,1.1,1.1,0,0,1-.2-1.3c1.4-2.2,3-4.6,4.7-6.9h-.8a1.1,1.1,0,0,1-1-.6.9.9,0,0,1,.1-1.1,119.4,119.4,0,0,1,9.1-10.9h-.8a1,1,0,0,1-1-.6.9.9,0,0,1,.2-1.1,105,105,0,0,1,8.4-8l1.9-1.6h-.8a1,1,0,0,1-1.1-.6,1.1,1.1,0,0,1,.4-1.2,38.6,38.6,0,0,1,3.9-3c2.2-1.7,4.9-3.6,7.4-5.2a1,1,0,0,1,1.4.2,1.1,1.1,0,0,1-.3,1.5c-2.5,1.6-5.1,3.5-7.3,5.1l-1.2.9h.8a1.1,1.1,0,0,1,1,.7,1,1,0,0,1-.3,1.2l-4.5,3.6q-3.3,2.9-6.3,6h.8a1.1,1.1,0,0,1,1,.6.9.9,0,0,1-.2,1.1,121.5,121.5,0,0,0-9.5,10.9h.8a1,1,0,0,1,1,.5.9.9,0,0,1-.1,1.1l-3.3,4.5q2.3-1.5,4.5-3.3a1.1,1.1,0,0,1,1.1,0,1,1,0,0,1,.6.9v.9a123.6,123.6,0,0,0,10.9-9.5,1.1,1.1,0,0,1,1.2-.2.9.9,0,0,1,.6,1v.8l1.9-2a1.1,1.1,0,0,1,1.5,1.5l-3.9,3.9a1.3,1.3,0,0,1-1.2.2,1.1,1.1,0,0,1-.6-1.1v-.8a119.1,119.1,0,0,1-11,9.2,1.4,1.4,0,0,1-1.1.1,1.2,1.2,0,0,1-.5-1v-.8c-2.3,1.7-4.6,3.2-6.9,4.7Z"/><path class="cls-4" d="M404.4,148a2.7,2.7,0,0,1-1.7-.6,23.7,23.7,0,0,0-15.5-5.3c-5.9,0-11.6,1.9-15.5,5.3a2.6,2.6,0,0,1-3.3-3.9,28.9,28.9,0,0,1,18.8-6.6c7.2,0,14.1,2.4,18.9,6.6a2.5,2.5,0,0,1,.3,3.6A2.7,2.7,0,0,1,404.4,148Z"/><path class="cls-4" d="M454.1,148a2.6,2.6,0,0,1-1.7-4.5,28.9,28.9,0,0,1,18.8-6.6c7.2,0,14.1,2.4,18.9,6.6a2.5,2.5,0,0,1,.3,3.6,2.7,2.7,0,0,1-3.7.3,23.7,23.7,0,0,0-15.5-5.3c-5.9,0-11.6,1.9-15.5,5.3A2.7,2.7,0,0,1,454.1,148Z"/><path class="cls-4" d="M429.4,196.2h-.1a46.8,46.8,0,0,1-12.1-1.6L407,192a1,1,0,0,1-.7-1.2.9.9,0,0,1,1.3-.7l10.1,2.6a47.4,47.4,0,0,0,11.6,1.5h.1a1,1,0,0,1,0,2Z"/><path class="cls-4" d="M429.4,228.4a68.6,68.6,0,0,1-20.6-3.1,69.6,69.6,0,0,1-26.9-15.6,1,1,0,0,1,1.4-1.5,67.5,67.5,0,0,0,46.1,18.1h0a1,1,0,0,1,1,1.1,1,1,0,0,1-1,1Z"/><path class="cls-4" d="M429.5,196.2h-.1a1,1,0,0,1,0-2h.1a48.2,48.2,0,0,0,11.7-1.5l10.1-2.6a1,1,0,0,1,.5,1.9l-10.1,2.6A47.6,47.6,0,0,1,429.5,196.2Z"/><path class="cls-4" d="M429.5,228.4h-.1a1.1,1.1,0,0,1-1-1,1.1,1.1,0,0,1,1-1.1h.1a67.5,67.5,0,0,0,46-18.1,1.1,1.1,0,0,1,1.5.1,1,1,0,0,1-.1,1.4A68.9,68.9,0,0,1,450,225.3,67.5,67.5,0,0,1,429.5,228.4Z"/><path class="cls-4" d="M429.4,236.7a69.7,69.7,0,0,1-31.1-7.3,1,1,0,0,1-.4-1.4.9.9,0,0,1,1.3-.4,67.3,67.3,0,0,0,30.2,7,1,1,0,0,1,1,1.1A1,1,0,0,1,429.4,236.7Z"/><path class="cls-4" d="M384.8,212a.9.9,0,0,1-.6-.3,69.1,69.1,0,0,1-21.3-31.9,11.4,11.4,0,0,1,2.9-11.6V168a11.8,11.8,0,0,1,9.3-3.3,11.7,11.7,0,0,1,8.5,5.1A54.4,54.4,0,0,0,402.2,187a1,1,0,0,1-1,1.8A58.4,58.4,0,0,1,382,171a9.3,9.3,0,0,0-7-4.2,9.2,9.2,0,0,0-7.6,2.7l-.2.2a9.2,9.2,0,0,0-2.3,9.4,67.4,67.4,0,0,0,20.6,31.1,1,1,0,0,1,.1,1.4A.9.9,0,0,1,384.8,212Z"/><path class="cls-4" d="M358.9,179.8a1,1,0,0,1-1-.7,15.5,15.5,0,0,1,3.9-15.8l.3-.3a15.5,15.5,0,0,1,12.6-4.5,16.1,16.1,0,0,1,11.8,7,1.1,1.1,0,0,1-.3,1.4,1,1,0,0,1-1.4-.2,14.1,14.1,0,0,0-10.3-6.2,13.7,13.7,0,0,0-11,4l-.2.2a13.5,13.5,0,0,0-3.4,13.8,1.2,1.2,0,0,1-.7,1.3Z"/><path class="cls-4" d="M374.3,177.9a.9.9,0,0,1-.7-.3,6.3,6.3,0,0,0-4.6-1.9,6,6,0,0,0-4.6,1.9,1.1,1.1,0,0,1-1.5-1.5,8.6,8.6,0,0,1,6.1-2.5,6.7,6.7,0,0,1,2.4.4,10.1,10.1,0,0,1-.3-2.5,8.2,8.2,0,0,1,2.5-6,1,1,0,0,1,1.4,0,1.1,1.1,0,0,1,0,1.5,6.4,6.4,0,0,0,0,9.1,1.1,1.1,0,0,1,.3.7,1.1,1.1,0,0,1-.3.8A1.1,1.1,0,0,1,374.3,177.9Z"/><path class="cls-4" d="M374.3,166.2c-.3,0-5.4-.7-8.7,3.2a9.4,9.4,0,0,0-1.9,7.4,7.9,7.9,0,0,1,6.3-2.1,7.6,7.6,0,0,1,4.3,2.1,8.8,8.8,0,0,1-1.7-6.8,7.9,7.9,0,0,1,1.7-3.8"/><path class="cls-4" d="M484.6,166.2c.2,0,5.3-.7,8.6,3.2a9.6,9.6,0,0,1,2,7.4,8.4,8.4,0,0,0-6.4-2.1,7.6,7.6,0,0,0-4.2,2.1,9.2,9.2,0,0,0,1.7-6.8,9,9,0,0,0-1.7-3.8"/><path class="cls-4" d="M357.5,127.2h-.1c-13.8-1.3-15.2-2.6-15.8-3.1a1.5,1.5,0,0,1-.6-1.2c0-1.1,1.2-1.6,1.7-1.8h0c2.2-.9,7.4-1.7,15.4-2.5,11.4-1,28.1-1.8,46.8-2.2h.1l24.4-.2a1.1,1.1,0,0,1,1.1,1,1,1,0,0,1-1.1,1c-8.2,0-16.4.1-24.4.3h0c-18.8.3-35.3,1.1-46.7,2.2-9.5.9-13.2,1.7-14.7,2.3,1.2.5,4.7,1.4,14,2.3a.9.9,0,0,1,.9,1.1A1,1,0,0,1,357.5,127.2Z"/><path class="cls-4" d="M342,123.9a1.1,1.1,0,0,1-.7-.3,1,1,0,0,1,.1-1.5l1-.9h.1l86.1-73.3a1,1,0,0,1,1.3,1.5l-86.1,73.4h-.1l-1,.9Z"/><path class="cls-4" d="M375.1,223.1a.9.9,0,0,1-.7-.3,77.3,77.3,0,0,1-21.3-61.3l4-42a1.2,1.2,0,0,1,1.2-1,1.2,1.2,0,0,1,.9,1.2l-4.1,42a75.7,75.7,0,0,0,20.7,59.7,1,1,0,0,1,0,1.4A.9.9,0,0,1,375.1,223.1Z"/><path class="cls-4" d="M416,161h-.2a1,1,0,0,1-.8-1.2,11.5,11.5,0,0,1,4.2-7.2,11,11,0,0,1,5.3-2.3.9.9,0,0,1,1.1.9,1,1,0,0,1-.8,1.2,8.4,8.4,0,0,0-4.3,1.8,9.6,9.6,0,0,0-3.5,5.9A1.1,1.1,0,0,1,416,161Z"/><path class="cls-4" d="M384.8,212a.9.9,0,0,1-.6-.3,69.1,69.1,0,0,1-21.3-31.9,11.4,11.4,0,0,1,2.9-11.6V168a11.8,11.8,0,0,1,9.3-3.3,11.7,11.7,0,0,1,8.5,5.1A54.4,54.4,0,0,0,402.2,187a1,1,0,0,1-1,1.8A58.4,58.4,0,0,1,382,171a9.3,9.3,0,0,0-7-4.2,9.2,9.2,0,0,0-7.6,2.7l-.2.2a9.2,9.2,0,0,0-2.3,9.4,67.4,67.4,0,0,0,20.6,31.1,1,1,0,0,1,.1,1.4A.9.9,0,0,1,384.8,212Z"/><path class="cls-4" d="M382,186.9a5,5,0,0,1-3.7-1.7,1.2,1.2,0,0,1,.1-1.5,1.1,1.1,0,0,1,1.5.2,2.8,2.8,0,0,0,3.9.2,1,1,0,0,1,1.4.2.9.9,0,0,1-.1,1.4A4.7,4.7,0,0,1,382,186.9Z"/><path class="cls-4" d="M384.1,191.3a1.1,1.1,0,0,1-.8-.3,4.9,4.9,0,0,1,.5-6.9,1,1,0,0,1,1.4.2.9.9,0,0,1-.1,1.4,2.8,2.8,0,0,0-.9,1.9,2.8,2.8,0,0,0,.6,2,1,1,0,0,1-.1,1.5Z"/><path class="cls-4" d="M378.7,190.9a1.1,1.1,0,0,1-.8-.3,1.1,1.1,0,0,1,.1-1.5,2.7,2.7,0,0,0,.3-3.9,1.2,1.2,0,0,1,.1-1.5,1.1,1.1,0,0,1,1.5.2,4.8,4.8,0,0,1,1.1,3.5,5.2,5.2,0,0,1-1.6,3.3Z"/><path class="cls-4" d="M384.1,191.3a1.1,1.1,0,0,1-.8-.3,3,3,0,0,0-1.9-1,2.4,2.4,0,0,0-2,.7,1.2,1.2,0,0,1-1.5-.1,1.1,1.1,0,0,1,.1-1.5,5.1,5.1,0,0,1,3.5-1.1,4.6,4.6,0,0,1,3.3,1.6,1,1,0,0,1-.1,1.5Z"/><path class="cls-4" d="M432.1,236.1l5.5-.8H440l.3-.6c2.5-.6,4.8-1.5,7.2-2.2a43.6,43.6,0,0,0,5.1-1.7l1.7-.6c.6-.3,2.1-.7-.2-.1a16.7,16.7,0,0,0,4.1-1.6l1.2.8c2.3,1.5,5,3.3,7.4,5.2a44.1,44.1,0,0,1,3.9,3l-4.2-.4c1.5,1.1,3,2.4,4.6,3.7s5.8,5.4,8.3,8l-3.6-.3a109,109,0,0,1,11,12.8l-3.1-.2a91.1,91.1,0,0,1,6,8.6,103.7,103.7,0,0,1-8.7-6l.3,3.1a101.4,101.4,0,0,1-12.8-11l.2,3.6-3.9-3.9c1,2.2,1.9,4.3,2.7,6.4l-4.1-1.8a121.1,121.1,0,0,1,6.1,19.2l-3.6-1.6c1.4,5.5,2.1,9.8,2.5,12.4a103.2,103.2,0,0,1-7-10.5l-1.4,3.6a119.8,119.8,0,0,1-9.3-17.8l-1.6,4.1c-1.7-3.9-3.4-8.2-4.9-12.8-.3-1.1-.7-2.1-1-3.2h0l-3.1-3.2c.4,2.6.7,5.4.9,8.3a113.9,113.9,0,0,1,.5,16.3l-3.8-3.8a148.7,148.7,0,0,1-2.2,23.8l-3.3-3.3c-.6,3.7-1.3,7-1.9,9.6a46.2,46.2,0,0,1-1.3,5.1V236.1h3.1"/><path class="cls-4" d="M429.9,175.2h-1a1.1,1.1,0,1,1,.3-2.1h1.5c2-.2,3.3-1.3,4.7-2.4a9.5,9.5,0,0,1,5.1-2.5,7.6,7.6,0,0,1,3.6.6,1.2,1.2,0,0,1,.6,1.4,1.1,1.1,0,0,1-1.4.5,4.9,4.9,0,0,0-2.6-.4c-1.6.1-2.7,1-4,2a11,11,0,0,1-5.8,2.9Z"/><path class="cls-4" d="M445.1,176.4a1,1,0,0,1-1-.7,1.2,1.2,0,0,1,.7-1.3c.4-.1,3.9-1.2,5-4.2s-1.1-7.7-5.1-9.5a1,1,0,1,1,.9-1.8c4.9,2.2,7.7,7.5,6.1,12s-5.5,5.3-6.3,5.5Z"/><path class="cls-4" d="M429.1,307h-.2a1.2,1.2,0,0,1-.8-1.3c.5-1.7.9-3.4,1.3-5.1s1.3-6.3,1.8-9.5a1,1,0,0,1,.7-.8.9.9,0,0,1,1.1.2l1.9,1.9a130.6,130.6,0,0,0,1.8-21.7,1,1,0,0,1,.7-.9.9.9,0,0,1,1.1.2l2.1,2.1a127.3,127.3,0,0,0-.5-13.8c-.2-2.8-.6-5.6-1-8.2a1.1,1.1,0,0,1,.6-1,.9.9,0,0,1,1.2.2l2.3,2.3c-.6-3.9-1.5-8.6-2.5-13.6a22.9,22.9,0,0,0-.7-2.8,1.1,1.1,0,0,1,.8-1.2,1.1,1.1,0,0,1,1.3.8l.6,2.8c1.4,6.4,2.5,12.5,3,16.8a1.1,1.1,0,0,1-.6,1,1.1,1.1,0,0,1-1.2-.2l-1.3-1.3h-.1l-.9-.9.6,5.2a150.9,150.9,0,0,1,.4,16.5,1.1,1.1,0,0,1-.7.9,1.5,1.5,0,0,1-1.1-.2l-2.1-2.1a131.7,131.7,0,0,1-2.1,21.6,1.3,1.3,0,0,1-.7.8.9.9,0,0,1-1-.3l-2-1.9c-.4,2.6-.9,5.2-1.5,7.7s-.8,3.4-1.3,5.1A1,1,0,0,1,429.1,307Z"/><path class="cls-4" d="M468.5,290.7a1.1,1.1,0,0,1-.9-.4c-2-2.7-4-5.6-5.9-8.7l-.7,1.6a1.1,1.1,0,0,1-.8.7,1.2,1.2,0,0,1-1-.5,118.4,118.4,0,0,1-8.4-15.7l-.6,1.8a1.2,1.2,0,0,1-1,.7,1,1,0,0,1-.9-.6,114.1,114.1,0,0,1-5-12.9c-.3-1.1-.6-2.1-1-3.2v-.3a1.1,1.1,0,0,1,1-1.1,1.1,1.1,0,0,1,1,.8,28.1,28.1,0,0,0,1,3.1c1.1,3.5,2.4,7,3.8,10.4l.7-1.8a1.1,1.1,0,0,1,1-.6.9.9,0,0,1,.9.6,132,132,0,0,0,8.1,15.9l.7-1.6a1.1,1.1,0,0,1,.9-.7,1.2,1.2,0,0,1,.9.5q2.3,3.6,4.5,6.9c-.5-2.6-1.1-5.3-1.8-8a1,1,0,0,1,.4-1,.8.8,0,0,1,1-.2l1.7.7a116.6,116.6,0,0,0-5.6-17,1.1,1.1,0,0,1,.3-1.1.9.9,0,0,1,1.1-.2l1.8.8c-.6-1.4-1.1-2.7-1.7-4s-1.9-4.2-2.9-6.1-2.2-4.1-3.4-6a1,1,0,0,1,.1-1.2,1,1,0,0,1,1.2-.3l1.9.8-2.8-4.5h0l-4.5-6.6a1,1,0,0,1,.3-1.4,1.1,1.1,0,0,1,1.4.2l4.5,6.7h0c1.8,2.8,3.3,5.3,4.5,7.4a1.1,1.1,0,0,1-.2,1.2,1,1,0,0,1-1.2.2l-1.8-.8,1.8,3.4c1,1.9,2,3.9,3,6.1s1.8,4.3,2.6,6.5a.8.8,0,0,1-.3,1.1,1.1,1.1,0,0,1-1.1.2l-1.7-.8a139.3,139.3,0,0,1,5.2,17,1,1,0,0,1-.4,1,1.1,1.1,0,0,1-1.1.2l-1.6-.8c.9,3.6,1.5,7.1,2,10.5a1.1,1.1,0,0,1-.6,1.1Z"/><path class="cls-4" d="M489.8,270.4h-.5c-2.3-1.5-4.7-3-7-4.7v.8a1.2,1.2,0,0,1-.5,1,1.1,1.1,0,0,1-1.1-.1,97.5,97.5,0,0,1-11-9.2v.8a1.1,1.1,0,0,1-.5,1.1,1.3,1.3,0,0,1-1.2-.2c-1.3-1.3-2.7-2.6-3.9-3.9a1.1,1.1,0,0,1,1.5-1.5,18,18,0,0,0,1.9,2v-.8a.9.9,0,0,1,.6-1,1.1,1.1,0,0,1,1.2.2,123.6,123.6,0,0,0,10.9,9.5v-.9a1.1,1.1,0,0,1,.5-.9,1.3,1.3,0,0,1,1.2,0,45.9,45.9,0,0,0,4.4,3.3l-3.2-4.5a.9.9,0,0,1-.1-1.1,1,1,0,0,1,1-.5h.8a121.5,121.5,0,0,0-9.5-10.9.9.9,0,0,1-.2-1.1,1.1,1.1,0,0,1,1-.6h.8c-2-2.1-4.2-4.1-6.3-6l-4.5-3.6a1.1,1.1,0,0,1-.4-1.2,1.2,1.2,0,0,1,1.1-.7h.8l-1.2-.9c-2.3-1.6-4.9-3.5-7.4-5.1a1.2,1.2,0,0,1-.2-1.5,1,1,0,0,1,1.4-.2c2.5,1.6,5.1,3.5,7.4,5.2l3.9,3a1,1,0,0,1,.3,1.2.9.9,0,0,1-1,.6h-.8l1.9,1.6a105,105,0,0,1,8.4,8,.9.9,0,0,1,.2,1.1,1,1,0,0,1-1,.6h-.9a106.1,106.1,0,0,1,9.2,10.9,1.1,1.1,0,0,1-.9,1.7H486c1.7,2.3,3.3,4.7,4.7,6.9a1.1,1.1,0,0,1-.2,1.3A.9.9,0,0,1,489.8,270.4Z"/><path class="cls-4" d="M429.1,236.7a1.1,1.1,0,0,1-1.1-1,1.1,1.1,0,0,1,1.1-1.1,66.6,66.6,0,0,0,30.1-7,1,1,0,0,1,1.4.4,1,1,0,0,1-.4,1.4A70,70,0,0,1,429.1,236.7Z"/><path class="cls-4" d="M473.6,212a.8.8,0,0,1-.7-.4.9.9,0,0,1,.1-1.4,67.4,67.4,0,0,0,20.6-31.1,9.2,9.2,0,0,0-2.3-9.4l-.2-.2a9.5,9.5,0,0,0-14.6,1.5,58.4,58.4,0,0,1-19.2,17.8,1,1,0,0,1-1.4-.4,1,1,0,0,1,.4-1.4,56.3,56.3,0,0,0,18.5-17.2,11.3,11.3,0,0,1,8.5-5.1,11.6,11.6,0,0,1,9.2,3.3l.2.2a11.4,11.4,0,0,1,2.9,11.6,69.9,69.9,0,0,1-21.3,31.9A.9.9,0,0,1,473.6,212Z"/><path class="cls-4" d="M499.6,179.8h-.3a1,1,0,0,1-.7-1.3,13.9,13.9,0,0,0-3.4-13.8l-.3-.2a13.7,13.7,0,0,0-21.2,2.2,1,1,0,0,1-1.4.2,1,1,0,0,1-.3-1.4,16.1,16.1,0,0,1,11.7-7,15.8,15.8,0,0,1,12.7,4.5l.2.3a15.8,15.8,0,0,1,4,15.8A1,1,0,0,1,499.6,179.8Z"/><path class="cls-4" d="M484.2,177.9a.9.9,0,0,1-.7-.3,1.1,1.1,0,0,1-.3-.8,1.1,1.1,0,0,1,.3-.7,6.5,6.5,0,0,0,0-9.1,1.1,1.1,0,0,1,0-1.5,1,1,0,0,1,1.4,0,8.7,8.7,0,0,1,2.2,8.5,6.4,6.4,0,0,1,2.4-.4,8.4,8.4,0,0,1,6,2.5,1.1,1.1,0,0,1,0,1.5,1,1,0,0,1-1.4,0,6.5,6.5,0,0,0-9.2,0A.9.9,0,0,1,484.2,177.9Z"/><path class="cls-4" d="M500.9,127.2a1.1,1.1,0,0,1-1-.9,1,1,0,0,1,1-1.1c9.3-.9,12.7-1.8,14-2.3-1.5-.6-5.2-1.4-14.7-2.3-11.4-1.1-28-1.9-46.7-2.2h0c-8-.2-16.2-.3-24.5-.3a1,1,0,0,1-1-1,1.1,1.1,0,0,1,1-1l24.5.2h0c18.8.4,35.5,1.2,46.9,2.2,8,.8,13.2,1.6,15.4,2.5h0c.5.2,1.7.7,1.7,1.8a1.5,1.5,0,0,1-.6,1.2c-.6.5-2.1,1.8-15.9,3.1Z"/><path class="cls-4" d="M516.4,123.9l-.6-.2-1.1-.9h0L428.6,49.4a.9.9,0,0,1-.1-1.4,1,1,0,0,1,1.4-.1L516,121.2h0l1.1.9a1.1,1.1,0,0,1,.1,1.5A1.1,1.1,0,0,1,516.4,123.9Z"/><path class="cls-4" d="M442.5,161a1.2,1.2,0,0,1-1.1-.9,9.4,9.4,0,0,0-3.4-5.9,8.8,8.8,0,0,0-4.3-1.8,1,1,0,0,1-.9-1.2,1.1,1.1,0,0,1,1.2-.9,11.5,11.5,0,0,1,5.3,2.3,12,12,0,0,1,4.2,7.2,1,1,0,0,1-.9,1.2Z"/><path class="cls-4" d="M473.6,212a.8.8,0,0,1-.7-.4.9.9,0,0,1,.1-1.4,67.4,67.4,0,0,0,20.6-31.1,9.2,9.2,0,0,0-2.3-9.4l-.2-.2a9.5,9.5,0,0,0-14.6,1.5,58.4,58.4,0,0,1-19.2,17.8,1,1,0,0,1-1.4-.4,1,1,0,0,1,.4-1.4,56.3,56.3,0,0,0,18.5-17.2,11.3,11.3,0,0,1,8.5-5.1,11.6,11.6,0,0,1,9.2,3.3l.2.2a11.4,11.4,0,0,1,2.9,11.6,69.9,69.9,0,0,1-21.3,31.9A.9.9,0,0,1,473.6,212Z"/><path class="cls-4" d="M476.5,186.9a4.7,4.7,0,0,1-3.2-1.2,1.1,1.1,0,0,1-.1-1.4,1.1,1.1,0,0,1,1.5-.2,2.5,2.5,0,0,0,2,.7,2.8,2.8,0,0,0,1.9-.9,1,1,0,0,1,1.4-.2,1,1,0,0,1,.1,1.5,4.7,4.7,0,0,1-3.3,1.7Z"/><path class="cls-4" d="M474.4,191.3l-.7-.2a1.2,1.2,0,0,1-.1-1.5,2.7,2.7,0,0,0-.3-3.9,1.1,1.1,0,0,1-.1-1.4,1.1,1.1,0,0,1,1.5-.2,5,5,0,0,1,.5,6.9A1.1,1.1,0,0,1,474.4,191.3Z"/><path class="cls-4" d="M479.8,190.9l-.7-.2a4.9,4.9,0,0,1-.5-6.8,1,1,0,0,1,1.4-.2,1,1,0,0,1,.1,1.5,2.9,2.9,0,0,0,.3,3.9,1.1,1.1,0,0,1,.2,1.5A1.1,1.1,0,0,1,479.8,190.9Z"/><path class="cls-4" d="M474.4,191.3l-.7-.2a1.2,1.2,0,0,1-.1-1.5,5,5,0,0,1,6.8-.5,1.1,1.1,0,0,1,.2,1.5,1.2,1.2,0,0,1-1.5.1,2.7,2.7,0,0,0-3.9.3A1.1,1.1,0,0,1,474.4,191.3Z"/><path class="cls-4" d="M429.2,245.7a76.2,76.2,0,0,1-62.2-32,1.1,1.1,0,0,1,.2-1.4,1,1,0,0,1,1.5.2,73.9,73.9,0,0,0,60.5,31.2,74.9,74.9,0,0,0,54.3-23.5l10.4-14.1.2-.2a75.7,75.7,0,0,0,9.2-44.2l-4-42a1,1,0,1,1,2-.2l4.1,42a77.3,77.3,0,0,1-21.3,61.3.7.7,0,0,1-.6.3,74.4,74.4,0,0,1-15.3,12A77.1,77.1,0,0,1,429.2,245.7Z"/><rect class="cls-4" x="380.2" y="186.1" width="2.5" height="2.52"/><rect class="cls-4" x="475.9" y="185.8" width="2" height="3.83"/></svg>