<svg xmlns="http://www.w3.org/2000/svg" viewBox="0 0 90 90"><defs><style>.cls-1{fill:#ffd200;}</style></defs><g id="Layer_1" data-name="Layer 1"><path class="cls-1" d="M60.2,37.9a9.9,9.9,0,0,1-7.6,3.3A10.4,10.4,0,0,1,45,37.9h-.2a9.8,9.8,0,0,1-3.3,2.3,8.1,8.1,0,0,1-4.4.9,8.7,8.7,0,0,1-4.9-1.4l-1.9-1.4a1.2,1.2,0,0,1-.5-.5l-.9.7A12.5,12.5,0,0,1,24,41a8.9,8.9,0,0,1-10.8-7.3,9.2,9.2,0,0,1,1-5.9c.7-1.3,1.6-2.6,2.4-3.8s3.1-4.9,4.7-7.4a2.8,2.8,0,0,1,1.6-1.4l1.4-.2H65.7a3.1,3.1,0,0,1,2.1.6,2.8,2.8,0,0,1,.9,1l6.7,10.5a9.2,9.2,0,0,1,1.4,6.3,9,9,0,0,1-3.1,5.8A9.3,9.3,0,0,1,69.8,41H66.6A10.2,10.2,0,0,1,62,39.4ZM45,20.6H25.6a.5.5,0,0,0-.4.2c-2,3.2-3.9,6.2-5.8,9.4a3.7,3.7,0,0,0-.5,1.1,3.6,3.6,0,0,0,.5,3,2.3,2.3,0,0,0,2.1,1.3A5.2,5.2,0,0,0,25.7,34a5,5,0,0,1,3.1-1.7,5.7,5.7,0,0,1,4.8,1.5,4,4,0,0,0,1.2,1,4.3,4.3,0,0,0,4.1.5,5.7,5.7,0,0,0,2.2-1.5,5.6,5.6,0,0,1,6.7-.8l1.7,1.4a4.7,4.7,0,0,0,5.8.4c.6-.4,1-1,1.6-1.4a5.3,5.3,0,0,1,5.4-.8A7.7,7.7,0,0,1,64.4,34l1.1,1a5.5,5.5,0,0,0,2.8.6,2.4,2.4,0,0,0,2.1-1,3.7,3.7,0,0,0,.2-4.5l-5.7-9.2c-.2-.2-.3-.3-.5-.3Z"/><path class="cls-1" d="M18.8,44.7a15,15,0,0,0,5.6.1v9.6H65.6V44.9h2.8a24,24,0,0,0,2.8-.3v.2c0,7.5.1,15,0,22.4a7.2,7.2,0,0,1-3.5,6.5,6.1,6.1,0,0,1-3.5,1.1H26.5a7.3,7.3,0,0,1-6-2.8A7.1,7.1,0,0,1,18.8,68V44.7ZM24.4,60h0v7.4a1.9,1.9,0,0,0,.5,1.4,2.2,2.2,0,0,0,1.6.5H63.7a2.9,2.9,0,0,0,1-.3,1.7,1.7,0,0,0,.9-1.7V60Z"/></g></svg>