<?xml version="1.0" encoding="UTF-8"?>
<svg id="Layer_1" data-name="Layer 1" xmlns="http://www.w3.org/2000/svg" xmlns:xlink="http://www.w3.org/1999/xlink" viewBox="0 0 119.32 30.97">
  <defs>
    <style>
      .cls-1, .cls-2 {
        opacity: .1;
      }

      .cls-1, .cls-3, .cls-4 {
        fill: #f4fafd;
      }

      .cls-5 {
        fill: url(#linear-gradient);
      }

      .cls-6 {
        clip-path: url(#clippath);
      }

      .cls-7 {
        fill: #e6f4f8;
      }

      .cls-8 {
        fill: #e6e5e5;
      }

      .cls-9 {
        fill: #dff2f9;
      }

      .cls-10 {
        fill: #d7d6d7;
      }

      .cls-11 {
        clip-path: url(#clippath-1);
      }

      .cls-12 {
        clip-path: url(#clippath-4);
      }

      .cls-13 {
        clip-path: url(#clippath-3);
      }

      .cls-14 {
        clip-path: url(#clippath-2);
      }

      .cls-15 {
        clip-path: url(#clippath-7);
      }

      .cls-16 {
        clip-path: url(#clippath-8);
      }

      .cls-17 {
        clip-path: url(#clippath-6);
      }

      .cls-18 {
        clip-path: url(#clippath-5);
      }

      .cls-19 {
        clip-path: url(#clippath-9);
      }

      .cls-20 {
        fill: url(#linear-gradient-8);
      }

      .cls-21 {
        fill: url(#linear-gradient-9);
      }

      .cls-22 {
        fill: url(#linear-gradient-3);
      }

      .cls-23 {
        fill: url(#linear-gradient-4);
      }

      .cls-24 {
        fill: url(#linear-gradient-2);
      }

      .cls-25 {
        fill: url(#linear-gradient-6);
      }

      .cls-26 {
        fill: url(#linear-gradient-7);
      }

      .cls-27 {
        fill: url(#linear-gradient-5);
      }

      .cls-28 {
        fill: url(#linear-gradient-10);
      }

      .cls-29 {
        fill: url(#linear-gradient-11);
      }

      .cls-30 {
        isolation: isolate;
      }

      .cls-4 {
        opacity: .3;
      }
    </style>
    <clipPath id="clippath">
      <path class="cls-10" d="M16.3,22.49l-1.37,.45c-.47,.15-.95,.23-1.44,.23-.58,0-1.05-.2-1.4-.6-.35-.4-.52-.94-.52-1.61l1.37-.45c0,.68,.17,1.22,.52,1.61,.35,.4,.81,.6,1.4,.6,.49,0,.97-.07,1.44-.23Z"/>
    </clipPath>
    <clipPath id="clippath-1">
      <path class="cls-10" d="M16.93,27.3l-1.37,.45s.02,0,.03-.01c.91-.3,1.58-.63,2-.99l1.37-.45c-.43,.36-1.09,.69-2,.99-.01,0-.02,0-.03,.01Z"/>
    </clipPath>
    <clipPath id="clippath-2">
      <path class="cls-10" d="M39.07,23.06l-1.37,.45c-.23,.07-.49,.11-.79,.11-.58,0-1.34-.12-2.27-.35-.93-.23-1.72-.51-2.38-.83l1.37-.45c.65,.32,1.44,.59,2.38,.83,.93,.23,1.69,.35,2.27,.35,.3,0,.56-.03,.79-.11Z"/>
    </clipPath>
    <clipPath id="clippath-3">
      <path class="cls-10" d="M34.67,11.38l1.37-.45c.98-.32,2.13-.48,3.45-.47l-1.37,.45c-1.31,0-2.46,.15-3.45,.47Z"/>
    </clipPath>
    <clipPath id="clippath-4">
      <path class="cls-10" d="M37.5,15.73l1.37-.45c-.05,.02-.11,.04-.16,.06-.32,.13-.47,.31-.47,.54,0,.14,.16,.29,.47,.48,.32,.18,.73,.36,1.25,.55,1.68,.59,3.06,1.32,4.13,2.17,1.07,.85,1.6,1.96,1.6,3.31,0,1.74-.57,3.09-1.72,4.04-.5,.42-1.11,.74-1.82,.98l-1.37,.45c.71-.23,1.32-.56,1.82-.98,1.15-.96,1.72-2.3,1.72-4.04,0-1.36-.53-2.46-1.6-3.31-1.07-.85-2.44-1.58-4.13-2.17-.52-.18-.93-.37-1.25-.55-.32-.18-.47-.34-.47-.48,0-.23,.16-.41,.47-.54,.05-.02,.1-.04,.16-.06Z"/>
    </clipPath>
    <clipPath id="clippath-5">
      <path class="cls-10" d="M38.12,10.91l1.37-.45c.97,0,2.03,.14,3.18,.41,1.16,.27,2.15,.73,2.98,1.39l-1.37,.45c-.83-.66-1.82-1.12-2.98-1.39-1.16-.27-2.22-.4-3.18-.41Z"/>
    </clipPath>
    <clipPath id="clippath-6">
      <path class="cls-10" d="M90.03,2.94l1.37-.45c.32-.1,.66-.16,1.02-.15,.92,0,1.71,.34,2.38,1.01,.66,.67,.99,1.47,.99,2.4s-.33,1.68-.99,2.34c-.39,.38-.82,.65-1.3,.81l-1.37,.45c.48-.16,.91-.43,1.3-.81,.66-.65,.99-1.43,.99-2.34s-.33-1.73-.99-2.4c-.66-.67-1.46-1.01-2.38-1.01-.36,0-.7,.05-1.02,.15Z"/>
    </clipPath>
    <clipPath id="clippath-7">
      <path class="cls-10" d="M104.82,16.4l1.37-.45c-.47,.15-.87,.43-1.19,.82-.53,.65-.79,1.56-.79,2.71s.25,2.02,.74,2.68c.49,.66,1.2,.99,2.12,.99,.42,0,.8-.05,1.13-.16l-1.37,.45c-.33,.11-.71,.16-1.13,.16-.92,0-1.63-.34-2.12-.99-.5-.66-.74-1.55-.74-2.68,0-1.15,.26-2.06,.79-2.71,.32-.4,.71-.67,1.19-.82Z"/>
    </clipPath>
    <clipPath id="clippath-8">
      <path class="cls-10" d="M102.29,11.75l1.37-.45c1.08-.35,2.24-.53,3.48-.52,1.82,0,3.42,.35,4.82,1.04,1.39,.68,2.48,1.7,3.27,3.03l-1.37,.45c-.79-1.34-1.88-2.35-3.27-3.03-1.39-.69-3-1.03-4.82-1.04-1.25,0-2.41,.17-3.48,.52Z"/>
    </clipPath>
    <clipPath id="clippath-9">
      <path class="cls-10" d="M110.77,27.63l-1.37,.45c.36-.12,.7-.25,1.04-.4,1.43-.65,2.55-1.62,3.37-2.9,.82-1.28,1.23-2.82,1.23-4.61,0-1.9-.39-3.52-1.18-4.86l1.37-.45c.79,1.34,1.18,2.96,1.18,4.86,0,1.79-.41,3.32-1.23,4.61-.82,1.28-1.94,2.25-3.37,2.9-.34,.15-.68,.29-1.04,.4Z"/>
    </clipPath>
    <linearGradient id="linear-gradient" x1="4286.63" y1="-7071.96" x2="4293.54" y2="-7079.72" gradientTransform="translate(-4246.49 7080.81) rotate(.24)" gradientUnits="userSpaceOnUse">
      <stop offset="0" stop-color="#90278e" stop-opacity=".9"/>
      <stop offset="1" stop-color="#ec297b" stop-opacity=".81"/>
    </linearGradient>
    <linearGradient id="linear-gradient-2" x1="4295.01" y1="-7081.93" x2="4295.82" y2="-7082.84" xlink:href="#linear-gradient"/>
    <linearGradient id="linear-gradient-3" x1="4296.04" y1="-7082.46" x2="4296.66" y2="-7083.16" xlink:href="#linear-gradient"/>
    <linearGradient id="linear-gradient-4" x1="6588.77" y1="-6742.8" x2="6589.4" y2="-6743.5" gradientTransform="translate(4382.93 8399.22) rotate(-162.89) scale(1 -1)" xlink:href="#linear-gradient"/>
    <linearGradient id="linear-gradient-5" x1="8134.62" y1="-5929.75" x2="8135.85" y2="-5931.13" gradientTransform="translate(3515.64 9473.48) rotate(-146.12) scale(1 -1)" xlink:href="#linear-gradient"/>
    <linearGradient id="linear-gradient-6" x1="4292.85" y1="-7054.86" x2="4291.3" y2="-7085.78" gradientTransform="translate(-4246.49 7080.81) rotate(.24)" gradientUnits="userSpaceOnUse">
      <stop offset="0" stop-color="#8ad6f7"/>
      <stop offset=".81" stop-color="#86d0f3" stop-opacity=".19"/>
      <stop offset="1" stop-color="#86cff3" stop-opacity="0"/>
    </linearGradient>
    <linearGradient id="linear-gradient-7" x1="4291.59" y1="-7081.62" x2="4291.21" y2="-7089.02" gradientTransform="translate(-7013.01 -4279.99) rotate(90)" xlink:href="#linear-gradient-6"/>
    <linearGradient id="linear-gradient-8" x1="5742.29" y1="-6996.15" x2="5747.16" y2="-7001.62" gradientTransform="translate(-3837.01 8170.29) rotate(-13.73)" xlink:href="#linear-gradient"/>
    <linearGradient id="linear-gradient-9" x1="5746.19" y1="-6994.93" x2="5748.7" y2="-6997.75" gradientTransform="translate(-3837.01 8170.29) rotate(-13.73)" xlink:href="#linear-gradient"/>
    <linearGradient id="linear-gradient-10" x1="6138.21" y1="-6887.95" x2="6141.84" y2="-6892.03" gradientTransform="translate(4567.31 8065.53) rotate(-167.49) scale(1 -1)" xlink:href="#linear-gradient"/>
    <linearGradient id="linear-gradient-11" x1="4304.46" y1="-7094.64" x2="4310.02" y2="-7094.64" xlink:href="#linear-gradient"/>
  </defs>
  <g>
    <g class="cls-30">
      <polygon class="cls-10" points="2.91 12 4.28 11.55 6.81 11.56 5.44 12.01 2.91 12"/>
      <polygon class="cls-10" points="11.57 16.89 12.94 16.44 12.94 20.51 11.57 20.96 11.57 16.89"/>
      <g>
        <path class="cls-10" d="M16.3,22.49l-1.37,.45c-.47,.15-.95,.23-1.44,.23-.58,0-1.05-.2-1.4-.6-.35-.4-.52-.94-.52-1.61l1.37-.45c0,.68,.17,1.22,.52,1.61,.35,.4,.81,.6,1.4,.6,.49,0,.97-.07,1.44-.23Z"/>
        <g class="cls-6">
          <g class="cls-30">
            <path class="cls-10" d="M11.57,20.96l1.37-.45c0,.1,0,.2,.01,.29l-1.37,.45c0-.09-.01-.19-.01-.29"/>
            <path class="cls-10" d="M11.58,21.25l1.37-.45c.01,.13,.03,.25,.05,.36l-1.37,.45c-.02-.12-.04-.24-.05-.36"/>
            <path class="cls-10" d="M11.63,21.61l1.37-.45c.08,.36,.22,.67,.43,.93l-1.37,.45c-.21-.25-.36-.56-.43-.93"/>
            <path class="cls-10" d="M12.06,22.54l1.37-.45s.02,.02,.03,.03c.04,.05,.08,.09,.13,.13l-1.37,.45s-.09-.09-.13-.13c0-.01-.02-.02-.03-.03"/>
            <path class="cls-10" d="M12.22,22.7l1.37-.45s.08,.07,.13,.11l-1.37,.45s-.09-.07-.13-.11"/>
            <path class="cls-10" d="M12.35,22.81l1.37-.45s.08,.06,.12,.08l-1.37,.45s-.08-.05-.12-.08"/>
            <path class="cls-10" d="M12.46,22.89l1.37-.45s.07,.04,.11,.07l-1.37,.45s-.07-.04-.11-.07"/>
            <path class="cls-10" d="M12.57,22.96l1.37-.45s.07,.04,.11,.05l-1.37,.45s-.08-.03-.11-.05"/>
            <path class="cls-10" d="M12.68,23.01l1.37-.45s.08,.03,.12,.05l-1.37,.45s-.08-.03-.12-.05"/>
            <path class="cls-10" d="M12.8,23.06l1.37-.45s.08,.03,.12,.04l-1.37,.45s-.08-.02-.12-.04"/>
            <path class="cls-10" d="M12.92,23.1l1.37-.45s.09,.02,.14,.03l-1.37,.45s-.09-.02-.14-.03"/>
            <path class="cls-10" d="M13.06,23.13l1.37-.45c.05,.01,.1,.02,.16,.03l-1.37,.45c-.05,0-.11-.01-.16-.03"/>
            <path class="cls-10" d="M13.22,23.15l1.37-.45c.06,0,.13,.01,.19,.01l-1.37,.45c-.07,0-.13,0-.19-.01"/>
            <path class="cls-10" d="M13.41,23.17l1.37-.45s.05,0,.08,0c.1,0,.19,0,.29,0l-1.37,.45c-.1,0-.19,0-.29,0-.03,0-.05,0-.08,0"/>
            <path class="cls-10" d="M13.78,23.16l1.37-.45c.18-.01,.35-.03,.53-.06l-1.37,.45c-.18,.03-.35,.05-.53,.06"/>
            <path class="cls-10" d="M14.31,23.1l1.37-.45c.21-.04,.42-.09,.62-.16l-1.37,.45c-.21,.07-.41,.12-.62,.16"/>
          </g>
        </g>
      </g>
      <polygon class="cls-10" points="15.85 22.54 17.22 22.09 18.97 26.3 17.6 26.75 15.85 22.54"/>
      <g>
        <path class="cls-10" d="M16.93,27.3l-1.37,.45s.02,0,.03-.01c.91-.3,1.58-.63,2-.99l1.37-.45c-.43,.36-1.09,.69-2,.99-.01,0-.02,0-.03,.01Z"/>
        <g class="cls-11">
          <g class="cls-30">
            <path class="cls-10" d="M17.6,26.75l1.37-.45c-.43,.36-1.09,.69-2,.99-.01,0-.02,0-.03,.01l-1.37,.45s.02,0,.03-.01c.91-.3,1.58-.63,2-.99"/>
          </g>
        </g>
      </g>
      <polygon class="cls-10" points="5.44 7.57 6.81 7.12 12.94 6.3 11.57 6.75 5.44 7.57"/>
      <polygon class="cls-10" points="11.57 6.75 12.94 6.3 12.94 11.59 11.57 12.04 11.57 6.75"/>
      <polygon class="cls-10" points="15.85 12.06 17.22 11.61 17.79 16.46 16.42 16.91 15.85 12.06"/>
      <polygon class="cls-10" points="11.57 12.04 12.94 11.59 17.22 11.61 15.85 12.06 11.57 12.04"/>
      <path class="cls-8" d="M11.57,6.75v5.29s4.28,.02,4.28,.02l.57,4.85-4.85-.02v4.07c0,.68,.17,1.22,.52,1.61,.35,.4,.81,.6,1.4,.6,.81,0,1.59-.21,2.36-.63l1.75,4.21c-.43,.36-1.09,.69-2,.99-.91,.3-1.75,.45-2.51,.45-1.35,0-2.61-.26-3.77-.76-1.17-.5-2.11-1.25-2.81-2.23-.71-.99-1.06-2.18-1.06-3.58v-4.75s-2.53-.01-2.53-.01v-4.85s2.53,.01,2.53,.01V7.57s6.13-.82,6.13-.82Z"/>
    </g>
    <g>
      <polygon class="cls-8" points="28.45 16.19 28.78 21.04 19.32 20.99 18.95 16.14 28.45 16.19"/>
      <polygon class="cls-10" points="28.45 16.19 29.82 15.74 30.16 20.59 28.78 21.04 28.45 16.19"/>
      <polygon class="cls-10" points="18.95 16.14 20.32 15.69 29.82 15.74 28.45 16.19 18.95 16.14"/>
    </g>
    <g class="cls-30">
      <g>
        <path class="cls-10" d="M39.07,23.06l-1.37,.45c-.23,.07-.49,.11-.79,.11-.58,0-1.34-.12-2.27-.35-.93-.23-1.72-.51-2.38-.83l1.37-.45c.65,.32,1.44,.59,2.38,.83,.93,.23,1.69,.35,2.27,.35,.3,0,.56-.03,.79-.11Z"/>
        <g class="cls-14">
          <g class="cls-30">
            <path class="cls-10" d="M32.25,22.45l1.37-.45c.09,.04,.19,.09,.28,.13l-1.37,.45c-.1-.04-.19-.09-.28-.13"/>
            <path class="cls-10" d="M32.54,22.58l1.37-.45c.22,.1,.44,.19,.69,.27l-1.37,.45c-.24-.09-.47-.18-.69-.27"/>
            <path class="cls-10" d="M33.22,22.85l1.37-.45c.29,.11,.61,.21,.94,.3l-1.37,.45c-.33-.09-.65-.19-.94-.3"/>
            <path class="cls-10" d="M34.17,23.15l1.37-.45c.15,.04,.3,.08,.46,.12,.26,.06,.5,.12,.74,.17l-1.37,.45c-.23-.05-.48-.1-.74-.17-.16-.04-.31-.08-.46-.12"/>
            <path class="cls-10" d="M35.37,23.44l1.37-.45c.3,.06,.58,.11,.83,.14l-1.37,.45c-.26-.03-.53-.08-.83-.14"/>
            <path class="cls-10" d="M36.2,23.57l1.37-.45c.2,.02,.38,.04,.55,.05l-1.37,.45c-.17,0-.35-.02-.55-.05"/>
            <path class="cls-10" d="M36.75,23.62l1.37-.45c.05,0,.1,0,.15,0,.07,0,.14,0,.21,0l-1.37,.45c-.07,0-.14,0-.21,0-.05,0-.1,0-.15,0"/>
            <path class="cls-10" d="M37.11,23.62l1.37-.45c.11,0,.21-.02,.31-.04l-1.37,.45c-.1,.02-.2,.03-.31,.04"/>
            <path class="cls-10" d="M37.42,23.58l1.37-.45c.1-.02,.19-.04,.27-.07l-1.37,.45c-.09,.03-.18,.05-.27,.07"/>
          </g>
        </g>
      </g>
      <g>
        <path class="cls-10" d="M34.67,11.38l1.37-.45c.98-.32,2.13-.48,3.45-.47l-1.37,.45c-1.31,0-2.46,.15-3.45,.47Z"/>
        <g class="cls-13">
          <g class="cls-30">
            <path class="cls-10" d="M34.67,11.38l1.37-.45c.37-.12,.76-.22,1.17-.29l-1.37,.45c-.41,.07-.81,.17-1.17,.29"/>
            <path class="cls-10" d="M35.84,11.09l1.37-.45c.43-.08,.88-.13,1.35-.16l-1.37,.45c-.47,.03-.92,.08-1.35,.16"/>
            <path class="cls-10" d="M37.19,10.93l1.37-.45c.3-.02,.61-.03,.92-.02l-1.37,.45c-.32,0-.62,0-.92,.02"/>
          </g>
        </g>
      </g>
      <g>
        <path class="cls-10" d="M37.5,15.73l1.37-.45c-.05,.02-.11,.04-.16,.06-.32,.13-.47,.31-.47,.54,0,.14,.16,.29,.47,.48,.32,.18,.73,.36,1.25,.55,1.68,.59,3.06,1.32,4.13,2.17,1.07,.85,1.6,1.96,1.6,3.31,0,1.74-.57,3.09-1.72,4.04-.5,.42-1.11,.74-1.82,.98l-1.37,.45c.71-.23,1.32-.56,1.82-.98,1.15-.96,1.72-2.3,1.72-4.04,0-1.36-.53-2.46-1.6-3.31-1.07-.85-2.44-1.58-4.13-2.17-.52-.18-.93-.37-1.25-.55-.32-.18-.47-.34-.47-.48,0-.23,.16-.41,.47-.54,.05-.02,.1-.04,.16-.06Z"/>
        <g class="cls-12">
          <g class="cls-30">
            <path class="cls-10" d="M37.5,15.73l1.37-.45c-.05,.02-.11,.04-.16,.06-.12,.05-.22,.11-.3,.18l-1.37,.45c.07-.07,.17-.13,.3-.18,.05-.02,.1-.04,.16-.06"/>
            <path class="cls-10" d="M37.04,15.97l1.37-.45s-.04,.04-.05,.05l-1.37,.45s.03-.04,.05-.05"/>
            <path class="cls-10" d="M36.99,16.02l1.37-.45s-.02,.03-.03,.04l-1.37,.45s.02-.03,.03-.04"/>
            <path class="cls-10" d="M36.96,16.06l1.37-.45s-.02,.02-.02,.03l-1.37,.45s.01-.02,.02-.03"/>
            <path class="cls-10" d="M36.94,16.1l1.37-.45s-.01,.02-.02,.03l-1.37,.45s.01-.02,.02-.03"/>
            <path class="cls-10" d="M36.92,16.13l1.37-.45s0,.02-.01,.03l-1.37,.45s0-.02,.01-.03"/>
            <path class="cls-10" d="M36.9,16.16l1.37-.45s0,.02-.01,.03l-1.37,.45s0-.02,.01-.03"/>
            <path class="cls-10" d="M36.89,16.19l1.37-.45s0,.02,0,.03l-1.37,.45s0-.02,0-.03"/>
            <path class="cls-10" d="M36.88,16.22l1.37-.45s0,.02,0,.03l-1.37,.45s0-.02,0-.03"/>
            <path class="cls-10" d="M36.88,16.25l1.37-.45s0,.02,0,.03l-1.37,.45s0-.02,0-.03"/>
            <path class="cls-10" d="M36.87,16.28l1.37-.45s0,.03,0,.04l-1.37,.45s0-.03,0-.04"/>
            <path class="cls-10" d="M36.87,16.32l1.37-.45s0,0,0,0h0s-1.37,.46-1.37,.46c0,0,0,0,0-.01h0"/>
            <path class="cls-10" d="M36.87,16.35l1.37-.45s0,.02,0,.02l-1.37,.45s0-.02,0-.02"/>
            <path class="cls-10" d="M36.87,16.37l1.37-.45s.03,.09,.08,.14l-1.37,.45s-.07-.1-.08-.14"/>
            <path class="cls-10" d="M36.95,16.51l1.37-.45s.04,.04,.06,.07l-1.37,.45s-.04-.04-.06-.07"/>
            <path class="cls-10" d="M37.01,16.58l1.37-.45s.05,.05,.09,.07l-1.37,.45s-.06-.05-.09-.07"/>
            <path class="cls-10" d="M37.1,16.65l1.37-.45s.08,.06,.13,.09l-1.37,.45s-.09-.06-.13-.09"/>
            <path class="cls-10" d="M37.23,16.74l1.37-.45s.07,.04,.11,.07c.04,.02,.08,.04,.12,.07l-1.37,.45s-.08-.04-.12-.07c-.04-.02-.07-.04-.11-.07"/>
            <path class="cls-10" d="M37.46,16.87l1.37-.45c.12,.07,.26,.13,.41,.2l-1.37,.45c-.15-.07-.29-.13-.41-.2"/>
            <path class="cls-10" d="M37.87,17.07l1.37-.45c.2,.09,.43,.18,.68,.27l-1.37,.45c-.25-.09-.48-.18-.68-.27"/>
            <path class="cls-10" d="M38.55,17.34l1.37-.45s.02,0,.03,.01c.02,0,.04,.02,.07,.02l-1.37,.45s-.04-.02-.07-.02c-.01,0-.02,0-.03-.01"/>
            <path class="cls-10" d="M38.65,17.38l1.37-.45c.45,.16,.89,.33,1.29,.52l-1.37,.45c-.41-.18-.84-.35-1.29-.52"/>
            <path class="cls-10" d="M39.95,17.9l1.37-.45c.36,.16,.69,.32,1.02,.5l-1.37,.45c-.32-.17-.66-.34-1.02-.5"/>
            <path class="cls-10" d="M40.97,18.39l1.37-.45c.3,.16,.58,.33,.85,.5l-1.37,.45c-.27-.17-.55-.34-.85-.5"/>
            <path class="cls-10" d="M41.82,18.89l1.37-.45c.26,.17,.51,.34,.74,.52l-1.37,.45c-.23-.18-.48-.35-.74-.52"/>
            <path class="cls-10" d="M42.56,19.41l1.37-.45c.05,.04,.11,.08,.16,.12,.1,.08,.2,.16,.29,.25l-1.37,.45c-.09-.09-.19-.17-.29-.25-.05-.04-.1-.08-.16-.12"/>
            <path class="cls-10" d="M43,19.78l1.37-.45c.14,.13,.27,.26,.38,.4l-1.37,.45c-.12-.14-.24-.27-.38-.4"/>
            <path class="cls-10" d="M43.39,20.18l1.37-.45c.42,.51,.7,1.08,.84,1.73l-1.37,.45c-.13-.65-.41-1.22-.84-1.73"/>
            <path class="cls-10" d="M44.22,21.91l1.37-.45c.04,.17,.06,.35,.08,.54l-1.37,.45c-.01-.18-.04-.36-.08-.54"/>
            <path class="cls-10" d="M44.3,22.45l1.37-.45c.01,.13,.02,.26,.02,.39,0,.04,0,.08,0,.13l-1.37,.45s0-.08,0-.13c0-.13,0-.26-.02-.39"/>
            <path class="cls-10" d="M44.32,22.97l1.37-.45c0,.21-.01,.4-.03,.6l-1.37,.45c.02-.19,.03-.39,.03-.6"/>
            <path class="cls-10" d="M44.28,23.57l1.37-.45c-.02,.16-.04,.32-.07,.48l-1.37,.45c.03-.16,.05-.31,.07-.48"/>
            <path class="cls-10" d="M44.21,24.05l1.37-.45c-.02,.14-.05,.27-.09,.41l-1.37,.45c.03-.13,.06-.27,.09-.41"/>
            <path class="cls-10" d="M44.13,24.45l1.37-.45c-.03,.12-.07,.24-.11,.36l-1.37,.45c.04-.12,.07-.24,.11-.36"/>
            <path class="cls-10" d="M44.02,24.81l1.37-.45c-.04,.11-.08,.22-.12,.33l-1.37,.45c.05-.11,.09-.22,.12-.33"/>
            <path class="cls-10" d="M43.9,25.14l1.37-.45c-.04,.11-.09,.21-.14,.31l-1.37,.45c.05-.1,.1-.21,.14-.31"/>
            <path class="cls-10" d="M43.75,25.45l1.37-.45c-.05,.1-.11,.21-.17,.3l-1.37,.45c.06-.1,.12-.2,.17-.3"/>
            <path class="cls-10" d="M43.58,25.76l1.37-.45c-.06,.11-.13,.21-.21,.31l-1.37,.45c.07-.1,.14-.2,.21-.31"/>
            <path class="cls-10" d="M43.37,26.07l1.37-.45c-.08,.11-.17,.23-.27,.33l-1.37,.45c.1-.11,.18-.22,.27-.33"/>
            <path class="cls-10" d="M43.11,26.4l1.37-.45c-.12,.14-.25,.27-.4,.39l-1.37,.45c.14-.13,.27-.26,.4-.39"/>
            <path class="cls-10" d="M42.71,26.79l1.37-.45s-.07,.06-.11,.1c-.5,.42-1.11,.74-1.82,.98l-1.37,.45c.71-.23,1.32-.56,1.82-.98,.04-.03,.07-.06,.11-.1"/>
          </g>
        </g>
      </g>
      <path class="cls-8" d="M38.12,10.91c.97,0,2.03,.14,3.18,.41,1.16,.27,2.15,.73,2.98,1.39l-1.72,3.89c-.67-.3-1.36-.54-2.07-.72-.71-.18-1.35-.28-1.94-.28-.49,0-.9,.06-1.21,.2-.32,.13-.47,.31-.47,.54,0,.14,.16,.29,.47,.48,.32,.18,.73,.36,1.25,.55,1.68,.59,3.06,1.32,4.13,2.17,1.07,.85,1.6,1.96,1.6,3.31,0,1.74-.57,3.09-1.72,4.04-1.15,.95-2.84,1.43-5.09,1.42-.97,0-2.16-.17-3.59-.49-1.43-.32-2.56-.82-3.39-1.47l1.72-3.89c.65,.32,1.44,.59,2.38,.83,.93,.23,1.69,.35,2.27,.35,.4,0,.74-.06,1.01-.2s.4-.32,.4-.54c0-.14-.15-.3-.45-.49-.3-.19-.69-.37-1.16-.53-1.71-.62-3.1-1.35-4.19-2.19-1.09-.84-1.63-1.94-1.63-3.3,0-1.72,.64-3.06,1.92-4.03,1.28-.97,3.05-1.44,5.32-1.43Z"/>
      <g>
        <path class="cls-10" d="M38.12,10.91l1.37-.45c.97,0,2.03,.14,3.18,.41,1.16,.27,2.15,.73,2.98,1.39l-1.37,.45c-.83-.66-1.82-1.12-2.98-1.39-1.16-.27-2.22-.4-3.18-.41Z"/>
        <g class="cls-18">
          <g class="cls-30">
            <path class="cls-10" d="M38.12,10.91l1.37-.45c.12,0,.23,0,.35,0l-1.37,.45c-.12,0-.24,0-.35,0"/>
            <path class="cls-10" d="M38.47,10.92l1.37-.45c.35,.01,.71,.04,1.08,.09l-1.37,.45c-.37-.04-.73-.07-1.08-.09"/>
            <path class="cls-10" d="M39.55,11l1.37-.45c.4,.05,.8,.11,1.23,.2l-1.37,.45c-.42-.08-.83-.15-1.23-.2"/>
            <path class="cls-10" d="M40.77,11.2l1.37-.45c.17,.03,.35,.07,.53,.11,.14,.03,.27,.07,.4,.1l-1.37,.45c-.13-.04-.27-.07-.4-.1-.18-.04-.36-.08-.53-.11"/>
            <path class="cls-10" d="M41.7,11.42l1.37-.45c.2,.05,.39,.12,.57,.18l-1.37,.45c-.19-.07-.38-.13-.57-.18"/>
            <path class="cls-10" d="M42.28,11.6l1.37-.45c.18,.06,.35,.13,.52,.21l-1.37,.45c-.17-.07-.34-.14-.52-.21"/>
            <path class="cls-10" d="M42.79,11.81l1.37-.45c.16,.07,.32,.15,.48,.23l-1.37,.45c-.16-.08-.32-.16-.48-.23"/>
            <path class="cls-10" d="M43.27,12.04l1.37-.45c.16,.08,.31,.17,.46,.27l-1.37,.45c-.15-.1-.3-.19-.46-.27"/>
            <path class="cls-10" d="M43.73,12.31l1.37-.45c.16,.1,.31,.21,.46,.32l-1.37,.45c-.15-.11-.3-.22-.46-.32"/>
            <path class="cls-10" d="M44.19,12.63l1.37-.45s.06,.05,.09,.07l-1.37,.45s-.06-.05-.09-.07"/>
          </g>
        </g>
      </g>
      <polygon class="cls-10" points="44.28 12.7 45.65 12.25 43.94 16.15 42.56 16.6 44.28 12.7"/>
    </g>
    <g class="cls-30">
      <polygon class="cls-10" points="53.14 22.72 54.52 22.27 54.52 27.56 53.14 28.01 53.14 22.72"/>
      <polygon class="cls-10" points="54.26 21.87 55.63 21.43 54.52 22.27 53.14 22.72 54.26 21.87"/>
      <polygon class="cls-10" points="53.14 4.06 54.51 3.61 54.51 15.82 53.14 16.27 53.14 4.06"/>
      <polygon class="cls-10" points="47.01 4.41 48.38 3.96 54.51 3.61 53.14 4.06 47.01 4.41"/>
      <polygon class="cls-10" points="58.57 18.64 59.94 18.19 65.47 27.61 64.09 28.06 58.57 18.64"/>
      <polygon class="cls-8" points="53.14 4.06 53.14 16.27 59.24 11.11 62.91 15.37 58.57 18.64 64.09 28.06 57.49 28.03 54.26 21.87 53.14 22.72 53.14 28.01 47.01 27.98 47.01 4.41 53.14 4.06"/>
      <polygon class="cls-10" points="62.91 15.37 64.29 14.92 59.94 18.19 58.57 18.64 62.91 15.37"/>
      <polygon class="cls-10" points="59.24 11.11 60.61 10.66 64.29 14.92 62.91 15.37 59.24 11.11"/>
    </g>
    <polygon class="cls-8" points="88.01 28.18 88.01 11.73 94.14 11.76 94.15 28.21 88.01 28.18"/>
    <polygon class="cls-10" points="88.01 11.73 89.38 11.28 95.52 11.31 94.14 11.76 88.01 11.73"/>
    <polygon class="cls-10" points="94.14 11.76 95.52 11.31 95.52 27.76 94.15 28.21 94.14 11.76"/>
    <g>
      <path class="cls-8" d="M91.04,9.5c-.9,0-1.67-.34-2.32-.99-.65-.66-.98-1.44-.98-2.34s.33-1.72,.98-2.39c.65-.67,1.43-.99,2.32-.99s1.71,.34,2.38,1.01c.66,.67,.99,1.47,.99,2.4s-.33,1.68-.99,2.34c-.66,.65-1.46,.98-2.38,.97Z"/>
      <g>
        <path class="cls-10" d="M90.03,2.94l1.37-.45c.32-.1,.66-.16,1.02-.15,.92,0,1.71,.34,2.38,1.01,.66,.67,.99,1.47,.99,2.4s-.33,1.68-.99,2.34c-.39,.38-.82,.65-1.3,.81l-1.37,.45c.48-.16,.91-.43,1.3-.81,.66-.65,.99-1.43,.99-2.34s-.33-1.73-.99-2.4c-.66-.67-1.46-1.01-2.38-1.01-.36,0-.7,.05-1.02,.15Z"/>
        <g class="cls-17">
          <g class="cls-30">
            <path class="cls-10" d="M90.03,2.94l1.37-.45c.13-.04,.27-.08,.41-.1l-1.37,.45c-.14,.03-.27,.06-.41,.1"/>
            <path class="cls-10" d="M90.43,2.84l1.37-.45c.13-.02,.25-.04,.38-.05l-1.37,.45c-.13,0-.26,.02-.38,.05"/>
            <path class="cls-10" d="M90.82,2.79l1.37-.45c.07,0,.15,0,.23,0,.04,0,.08,0,.12,0l-1.37,.45s-.08,0-.12,0c-.08,0-.15,0-.23,0"/>
            <path class="cls-10" d="M91.16,2.79l1.37-.45c.1,0,.2,.01,.3,.02l-1.37,.45c-.1-.01-.2-.02-.3-.02"/>
            <path class="cls-10" d="M91.46,2.81l1.37-.45c.09,.01,.17,.02,.26,.04l-1.37,.45c-.08-.02-.17-.03-.26-.04"/>
            <path class="cls-10" d="M91.71,2.85l1.37-.45c.08,.02,.15,.03,.23,.06l-1.37,.45c-.08-.02-.15-.04-.23-.06"/>
            <path class="cls-10" d="M91.94,2.91l1.37-.45c.07,.02,.15,.04,.22,.07l-1.37,.45c-.07-.03-.14-.05-.22-.07"/>
            <path class="cls-10" d="M92.16,2.98l1.37-.45c.07,.03,.14,.05,.21,.08l-1.37,.45c-.07-.03-.14-.06-.21-.08"/>
            <path class="cls-10" d="M92.37,3.06l1.37-.45c.07,.03,.14,.07,.21,.1l-1.37,.45c-.07-.04-.14-.07-.21-.1"/>
            <path class="cls-10" d="M92.58,3.16l1.37-.45c.07,.04,.15,.08,.22,.13l-1.37,.45c-.07-.05-.14-.09-.22-.13"/>
            <path class="cls-10" d="M92.8,3.29l1.37-.45c.08,.05,.16,.11,.24,.17l-1.37,.45c-.08-.06-.16-.11-.24-.17"/>
            <path class="cls-10" d="M93.03,3.46l1.37-.45c.09,.07,.18,.15,.27,.23l-1.37,.45c-.09-.08-.18-.16-.27-.23"/>
            <path class="cls-10" d="M93.31,3.69l1.37-.45s.08,.07,.11,.11c.08,.08,.15,.16,.22,.24l-1.37,.45c-.07-.08-.14-.16-.22-.24-.04-.04-.08-.08-.11-.11"/>
            <path class="cls-10" d="M93.64,4.04l1.37-.45c.36,.43,.59,.91,.7,1.44l-1.37,.45c-.11-.53-.34-1.01-.7-1.44"/>
            <path class="cls-10" d="M94.34,5.48l1.37-.45c.03,.14,.05,.28,.06,.42l-1.37,.45c-.01-.14-.03-.28-.06-.42"/>
            <path class="cls-10" d="M94.4,5.9l1.37-.45c0,.1,.01,.2,.01,.3,0,.02,0,.04,0,.06l-1.37,.45s0-.04,0-.06c0-.1,0-.2-.01-.3"/>
            <path class="cls-10" d="M94.41,6.25l1.37-.45c0,.1,0,.2-.02,.29l-1.37,.45c0-.1,.02-.19,.02-.29"/>
            <path class="cls-10" d="M94.4,6.55l1.37-.45c0,.08-.02,.17-.04,.25l-1.37,.45c.01-.08,.03-.17,.04-.25"/>
            <path class="cls-10" d="M94.36,6.8l1.37-.45c-.01,.08-.03,.15-.05,.23l-1.37,.45c.02-.07,.04-.15,.05-.23"/>
            <path class="cls-10" d="M94.31,7.02l1.37-.45c-.02,.07-.04,.14-.06,.21l-1.37,.45c.02-.07,.04-.14,.06-.21"/>
            <path class="cls-10" d="M94.25,7.24l1.37-.45c-.02,.07-.05,.14-.08,.21l-1.37,.45c.03-.07,.05-.14,.08-.21"/>
            <path class="cls-10" d="M94.17,7.44l1.37-.45c-.03,.07-.06,.14-.1,.21l-1.37,.45c.03-.07,.07-.14,.1-.21"/>
            <path class="cls-10" d="M94.08,7.65l1.37-.45c-.04,.07-.08,.14-.12,.21l-1.37,.45c.04-.07,.08-.14,.12-.21"/>
            <path class="cls-10" d="M93.96,7.86l1.37-.45c-.05,.08-.1,.15-.15,.23l-1.37,.45c.05-.07,.11-.15,.15-.23"/>
            <path class="cls-10" d="M93.81,8.09l1.37-.45c-.06,.09-.14,.18-.21,.26l-1.37,.45c.08-.08,.15-.17,.21-.26"/>
            <path class="cls-10" d="M93.6,8.35l1.37-.45c-.06,.06-.11,.12-.17,.18-.05,.05-.1,.09-.14,.13l-1.37,.45s.1-.09,.14-.13c.06-.06,.12-.12,.17-.18"/>
            <path class="cls-10" d="M93.28,8.66l1.37-.45c-.35,.31-.74,.54-1.16,.68l-1.37,.45c.42-.14,.81-.36,1.16-.68"/>
          </g>
        </g>
      </g>
    </g>
    <g>
      <path class="cls-10" d="M104.82,16.4l1.37-.45c-.47,.15-.87,.43-1.19,.82-.53,.65-.79,1.56-.79,2.71s.25,2.02,.74,2.68c.49,.66,1.2,.99,2.12,.99,.42,0,.8-.05,1.13-.16l-1.37,.45c-.33,.11-.71,.16-1.13,.16-.92,0-1.63-.34-2.12-.99-.5-.66-.74-1.55-.74-2.68,0-1.15,.26-2.06,.79-2.71,.32-.4,.71-.67,1.19-.82Z"/>
      <g class="cls-15">
        <g class="cls-30">
          <path class="cls-10" d="M104.82,16.4l1.37-.45c-.33,.11-.62,.28-.88,.5l-1.37,.45c.26-.23,.55-.39,.88-.5"/>
          <path class="cls-10" d="M103.94,16.91l1.37-.45c-.08,.07-.15,.14-.22,.22l-1.37,.45c.07-.08,.14-.15,.22-.22"/>
          <path class="cls-10" d="M103.72,17.13l1.37-.45s-.06,.07-.09,.1c-.03,.04-.06,.08-.09,.11l-1.37,.45s.06-.08,.09-.11c.03-.03,.06-.07,.09-.1"/>
          <path class="cls-10" d="M103.54,17.34l1.37-.45c-.05,.07-.1,.14-.14,.21l-1.37,.45c.04-.07,.09-.14,.14-.21"/>
          <path class="cls-10" d="M103.4,17.55l1.37-.45c-.04,.07-.08,.14-.12,.21l-1.37,.45c.04-.07,.08-.14,.12-.21"/>
          <path class="cls-10" d="M103.28,17.76l1.37-.45c-.04,.07-.07,.15-.1,.23l-1.37,.45c.03-.08,.07-.15,.1-.23"/>
          <path class="cls-10" d="M103.18,17.99l1.37-.45c-.03,.08-.07,.16-.09,.25l-1.37,.45c.03-.09,.06-.17,.09-.25"/>
          <path class="cls-10" d="M103.08,18.24l1.37-.45c-.03,.09-.06,.19-.08,.28l-1.37,.45c.02-.1,.05-.19,.08-.28"/>
          <path class="cls-10" d="M103,18.52l1.37-.45c-.03,.11-.05,.22-.07,.33l-1.37,.45c.02-.11,.04-.23,.07-.33"/>
          <path class="cls-10" d="M102.93,18.86l1.37-.45c-.02,.13-.04,.27-.06,.41l-1.37,.45c.01-.14,.03-.28,.06-.41"/>
          <path class="cls-10" d="M102.87,19.27l1.37-.45c-.02,.18-.03,.36-.03,.55l-1.37,.45c0-.19,.01-.37,.03-.55"/>
          <path class="cls-10" d="M102.84,19.82l1.37-.45s0,.08,0,.12c0,.19,0,.38,.02,.56l-1.37,.45c-.01-.18-.02-.37-.02-.56,0-.04,0-.08,0-.12"/>
          <path class="cls-10" d="M102.86,20.5l1.37-.45c.02,.24,.05,.46,.09,.67l-1.37,.45c-.04-.21-.08-.44-.09-.67"/>
          <path class="cls-10" d="M102.95,21.17l1.37-.45c.12,.57,.33,1.06,.63,1.45,.03,.04,.06,.07,.09,.11l-1.37,.45s-.06-.07-.09-.11c-.3-.4-.51-.88-.63-1.45"/>
          <path class="cls-10" d="M103.67,22.73l1.37-.45c.07,.08,.14,.16,.21,.23l-1.37,.45c-.07-.07-.15-.14-.21-.23"/>
          <path class="cls-10" d="M103.88,22.95l1.37-.45c.06,.05,.11,.1,.17,.15l-1.37,.45c-.06-.05-.12-.1-.17-.15"/>
          <path class="cls-10" d="M104.05,23.1l1.37-.45c.05,.04,.11,.08,.16,.11l-1.37,.45c-.05-.04-.11-.07-.16-.11"/>
          <path class="cls-10" d="M104.21,23.21l1.37-.45c.05,.03,.1,.06,.16,.09l-1.37,.45c-.05-.03-.11-.06-.16-.09"/>
          <path class="cls-10" d="M104.37,23.31l1.37-.45c.05,.03,.1,.05,.16,.08l-1.37,.45c-.05-.02-.11-.05-.16-.08"/>
          <path class="cls-10" d="M104.53,23.38l1.37-.45c.05,.02,.11,.05,.16,.07l-1.37,.45c-.06-.02-.11-.04-.16-.07"/>
          <path class="cls-10" d="M104.69,23.45l1.37-.45c.06,.02,.12,.04,.18,.06l-1.37,.45c-.06-.02-.12-.04-.18-.06"/>
          <path class="cls-10" d="M104.87,23.51l1.37-.45c.06,.02,.13,.03,.2,.05l-1.37,.45c-.07-.01-.13-.03-.2-.05"/>
          <path class="cls-10" d="M105.07,23.55l1.37-.45c.08,.02,.15,.03,.23,.04l-1.37,.45c-.08,0-.16-.02-.23-.04"/>
          <path class="cls-10" d="M105.3,23.59l1.37-.45c.09,.01,.19,.02,.29,.02l-1.37,.45c-.1,0-.19-.01-.29-.02"/>
          <path class="cls-10" d="M105.58,23.61l1.37-.45s.08,0,.12,0c.1,0,.19,0,.28,0l-1.37,.45c-.09,0-.19,0-.28,0-.04,0-.08,0-.12,0"/>
          <path class="cls-10" d="M105.98,23.61l1.37-.45c.15,0,.3-.03,.44-.05l-1.37,.45c-.14,.03-.29,.04-.44,.05"/>
          <path class="cls-10" d="M106.42,23.56l1.37-.45c.14-.03,.28-.06,.41-.1l-1.37,.45c-.13,.04-.27,.08-.41,.1"/>
        </g>
      </g>
    </g>
    <g>
      <path class="cls-10" d="M102.29,11.75l1.37-.45c1.08-.35,2.24-.53,3.48-.52,1.82,0,3.42,.35,4.82,1.04,1.39,.68,2.48,1.7,3.27,3.03l-1.37,.45c-.79-1.34-1.88-2.35-3.27-3.03-1.39-.69-3-1.03-4.82-1.04-1.25,0-2.41,.17-3.48,.52Z"/>
      <g class="cls-16">
        <g class="cls-30">
          <path class="cls-10" d="M102.29,11.75l1.37-.45c.44-.14,.89-.26,1.36-.34l-1.37,.45c-.47,.08-.92,.2-1.36,.34"/>
          <path class="cls-10" d="M103.65,11.41l1.37-.45c.43-.08,.87-.13,1.33-.16l-1.37,.45c-.45,.03-.9,.08-1.33,.16"/>
          <path class="cls-10" d="M104.97,11.26l1.37-.45c.26-.02,.53-.02,.79-.02,.15,0,.3,0,.45,0l-1.37,.45c-.15,0-.3,0-.45,0-.27,0-.53,0-.79,.02"/>
          <path class="cls-10" d="M106.22,11.24l1.37-.45c.37,.01,.73,.04,1.08,.08l-1.37,.45c-.35-.04-.71-.07-1.08-.08"/>
          <path class="cls-10" d="M107.3,11.33l1.37-.45c.3,.04,.59,.08,.88,.14l-1.37,.45c-.29-.06-.58-.1-.88-.14"/>
          <path class="cls-10" d="M108.18,11.47l1.37-.45c.26,.05,.51,.11,.76,.18l-1.37,.45c-.25-.07-.5-.13-.76-.18"/>
          <path class="cls-10" d="M108.94,11.65l1.37-.45c.23,.06,.46,.14,.68,.22l-1.37,.45c-.22-.08-.45-.15-.68-.22"/>
          <path class="cls-10" d="M109.62,11.87l1.37-.45c.22,.08,.43,.16,.63,.25l-1.37,.45c-.21-.09-.42-.18-.63-.25"/>
          <path class="cls-10" d="M110.25,12.12l1.37-.45c.11,.05,.23,.1,.34,.16,.09,.04,.17,.09,.25,.13l-1.37,.45c-.08-.04-.17-.09-.25-.13-.11-.05-.22-.11-.34-.16"/>
          <path class="cls-10" d="M110.84,12.41l1.37-.45c.19,.1,.36,.2,.54,.32l-1.37,.45c-.17-.11-.35-.22-.54-.32"/>
          <path class="cls-10" d="M111.38,12.72l1.37-.45c.18,.12,.36,.24,.53,.37l-1.37,.45c-.17-.13-.35-.26-.53-.37"/>
          <path class="cls-10" d="M111.91,13.09l1.37-.45c.19,.15,.38,.3,.55,.47l-1.37,.45c-.18-.16-.36-.32-.55-.47"/>
          <path class="cls-10" d="M112.46,13.56l1.37-.45c.23,.21,.44,.44,.64,.68l-1.37,.45c-.2-.24-.41-.47-.64-.68"/>
          <path class="cls-10" d="M113.1,14.24l1.37-.45c.28,.33,.53,.69,.75,1.07l-1.37,.45c-.23-.38-.48-.74-.75-1.07"/>
        </g>
      </g>
    </g>
    <path class="cls-8" d="M113.85,15.31c.79,1.34,1.18,2.96,1.18,4.86,0,1.79-.41,3.32-1.23,4.61-.82,1.28-1.94,2.25-3.37,2.9-1.43,.65-3.03,.97-4.8,.96-2.74-.01-4.95-.76-6.62-2.25-1.67-1.49-2.51-3.65-2.51-6.47,0-1.79,.41-3.34,1.23-4.66,.82-1.32,1.93-2.32,3.34-3,1.4-.68,2.97-1.02,4.7-1.01,1.82,0,3.42,.35,4.82,1.04,1.39,.68,2.48,1.7,3.27,3.03Zm-5.93,7.43c.52-.59,.77-1.45,.77-2.61s-.25-2.06-.76-2.78c-.51-.73-1.21-1.09-2.11-1.1-.94,0-1.68,.32-2.21,.97-.53,.65-.79,1.56-.79,2.71,0,1.13,.25,2.02,.74,2.68,.49,.66,1.2,.99,2.12,.99s1.71-.29,2.22-.87"/>
    <g>
      <path class="cls-10" d="M110.77,27.63l-1.37,.45c.36-.12,.7-.25,1.04-.4,1.43-.65,2.55-1.62,3.37-2.9,.82-1.28,1.23-2.82,1.23-4.61,0-1.9-.39-3.52-1.18-4.86l1.37-.45c.79,1.34,1.18,2.96,1.18,4.86,0,1.79-.41,3.32-1.23,4.61-.82,1.28-1.94,2.25-3.37,2.9-.34,.15-.68,.29-1.04,.4Z"/>
      <g class="cls-19">
        <g class="cls-30">
          <path class="cls-10" d="M113.85,15.31l1.37-.45c.44,.76,.76,1.6,.96,2.54l-1.37,.45c-.19-.94-.51-1.78-.96-2.54"/>
          <path class="cls-10" d="M114.81,17.85l1.37-.45c.09,.42,.15,.85,.18,1.3l-1.37,.45c-.04-.45-.1-.89-.18-1.3"/>
          <path class="cls-10" d="M115,19.15l1.37-.45c.03,.33,.04,.67,.04,1.01,0,.06,0,.12,0,.19l-1.37,.45c0-.06,0-.12,0-.19,0-.35-.01-.68-.04-1.01"/>
          <path class="cls-10" d="M115.03,20.35l1.37-.45c0,.3-.02,.6-.05,.89l-1.37,.45c.03-.29,.05-.58,.05-.89"/>
          <path class="cls-10" d="M114.98,21.24l1.37-.45c-.02,.25-.06,.49-.1,.72l-1.37,.45c.04-.24,.08-.48,.1-.72"/>
          <path class="cls-10" d="M114.88,21.96l1.37-.45c-.04,.21-.08,.42-.14,.62l-1.37,.45c.05-.2,.1-.41,.14-.62"/>
          <path class="cls-10" d="M114.75,22.59l1.37-.45c-.05,.19-.1,.38-.17,.56l-1.37,.45c.06-.18,.12-.37,.17-.56"/>
          <path class="cls-10" d="M114.58,23.15l1.37-.45c-.06,.18-.12,.35-.2,.52l-1.37,.45c.07-.17,.14-.34,.2-.52"/>
          <path class="cls-10" d="M114.38,23.67l1.37-.45c-.07,.17-.15,.34-.23,.5l-1.37,.45c.08-.16,.16-.33,.23-.5"/>
          <path class="cls-10" d="M114.15,24.16l1.37-.45c-.09,.17-.18,.33-.27,.49l-1.37,.45c.1-.16,.19-.32,.27-.49"/>
          <path class="cls-10" d="M113.88,24.65l1.37-.45s-.05,.08-.07,.12c-.09,.14-.19,.28-.29,.42l-1.37,.45c.1-.14,.19-.28,.29-.42,.03-.04,.05-.08,.07-.12"/>
          <path class="cls-10" d="M113.52,25.19l1.37-.45c-.14,.2-.3,.39-.46,.57l-1.37,.45c.16-.18,.31-.37,.46-.57"/>
          <path class="cls-10" d="M113.06,25.76l1.37-.45c-.2,.22-.41,.43-.63,.63l-1.37,.45c.22-.2,.43-.41,.63-.63"/>
          <path class="cls-10" d="M112.43,26.39l1.37-.45c-.58,.52-1.25,.94-2,1.29-.34,.15-.68,.29-1.04,.4l-1.37,.45c.36-.12,.7-.25,1.04-.4,.75-.34,1.41-.77,2-1.29"/>
        </g>
      </g>
    </g>
  </g>
  <path class="cls-5" d="M67.38,19.08c.38-.53,1.03-.77,1.66-.96,.51-.16,1.04-.3,1.58-.25,.33,.03,.65,.13,.96,.25,.76,.29,1.49,.66,2.17,1.12,.4,.27,.79,.57,1.24,.73,.34,.12,.7,.16,1.06,.14,1.38-.06,2.61-.9,3.62-1.85,1.01-.95,1.9-2.04,3.05-2.81l-2.71,11.29-1.39,1.17-8.22-.03-1.51-1.3-1.49-7.49Z"/>
  <path class="cls-24" d="M79.02,17.51c-.15,0-.27-.11-.37-.23-.13-.17-.26-.35-.33-.55s-.09-.43,0-.63c.04-.11,.12-.21,.22-.26s.24-.05,.33,.02c.11,.08,.13,.24,.11,.37s-.09,.26-.12,.39c-.09,.31-.03,.66,.16,.92"/>
  <path class="cls-22" d="M79.63,16.73c.03-.12,.01-.36,0-.49s0-.26,.07-.36,.24-.14,.33-.05c.05,.06,.06,.14,.04,.22s-.06,.14-.11,.2c-.11,.16-.22,.32-.34,.48"/>
  <path class="cls-23" d="M69.56,16.35c0-.12,.1-.35,.14-.47s.08-.25,.04-.36-.19-.2-.3-.14c-.07,.04-.1,.12-.1,.19s.02,.15,.04,.22c.06,.19,.12,.37,.18,.56"/>
  <path class="cls-27" d="M68.81,15.65c.03-.58-.28-1.02-.55-1.33-.13-.15-.3-.29-.49-.35-.11-.03-.23-.03-.32,.03-.07,.05-.12,.14-.14,.23-.02,.08-.02,.17,.01,.25,.04,.1,.13,.18,.22,.23s.2,.08,.31,.12c.2,.07,.4,.17,.57,.3s.31,.31,.38,.51"/>
  <path class="cls-25" d="M83.71,11.31c0,.81-2.5,11.53-4,15.75-.69,1.95-3.47,.92-5.22,.83-3.34-.18-3.89,1.43-5.21-.88-2.68-4.67-3.76-14.99-3.75-15.78,0-1.18,4.08-2.13,9.1-2.11,5.02,.02,9.09,1,9.08,2.18Z"/>
  <path class="cls-4" d="M84.18,11.36c0-.23-.15-.45-.42-.67h0s0,0,0,0c-.51-.39-1.46-.74-2.7-1.01,0,0,0,0,0,0h0c-1.66-.36-3.85-.58-6.25-.59-5.18-.02-9.39,.96-9.4,2.19,0,.1,.03,.2,.08,.3l4.17,16.03,9.76,.13,4.68-16.09c.05-.1,.09-.2,.09-.3Z"/>
  <ellipse class="cls-26" cx="74.7" cy="11.29" rx="2.26" ry="9.48" transform="translate(63.09 85.94) rotate(-89.76)"/>
  <path class="cls-1" d="M67.44,14.03l2.93,12.07c.08,.34,.38,.57,.73,.57h1.93s-2.43-12.28-2.43-12.28c0,0-1.67,.02-3.16-.37Z"/>
  <g class="cls-2">
    <path class="cls-3" d="M76.27,21.79c.36,0,.37-.56,0-.57s-.37,.56,0,.57h0Z"/>
  </g>
  <g class="cls-2">
    <path class="cls-3" d="M77.68,21.01c.36,0,.37-.56,0-.57s-.37,.56,0,.57h0Z"/>
  </g>
  <g class="cls-2">
    <path class="cls-3" d="M77.44,22.78c.36,0,.37-.56,0-.57s-.37,.56,0,.57h0Z"/>
  </g>
  <g class="cls-2">
    <path class="cls-3" d="M77.23,21.77c.24,0,.24-.38,0-.38s-.24,.38,0,.38h0Z"/>
  </g>
  <g class="cls-2">
    <path class="cls-3" d="M78.13,22.08c.24,0,.24-.38,0-.38s-.24,.38,0,.38h0Z"/>
  </g>
  <g class="cls-2">
    <path class="cls-3" d="M78.56,21.02c.12,0,.12-.19,0-.19s-.12,.19,0,.19h0Z"/>
  </g>
  <path class="cls-9" d="M83.48,11.36c-.05,.57-1.56,.89-1.95,1-1.37,.37-2.79,.54-4.2,.64-3.06,.21-6.28,.15-9.28-.58-.5-.12-2.18-.42-2.36-1.03-.15-.52,1.16-.87,1.49-.98,2.79-.88,5.91-.93,8.81-.82,1.71,.07,3.43,.23,5.09,.63,.46,.11,2.35,.47,2.4,1.13,.05,.6,.99,.61,.94,0-.06-.84-.86-1.27-1.56-1.56-1.48-.61-3.13-.84-4.71-1-3.67-.38-7.88-.44-11.41,.76-.71,.24-1.79,.63-1.99,1.46-.21,.84,.61,1.39,1.26,1.7,1.3,.62,2.8,.85,4.21,1.03,2.13,.27,4.3,.33,6.45,.22,1.88-.09,3.84-.28,5.64-.86,.85-.28,2.04-.72,2.13-1.75,.05-.6-.89-.61-.94,0Z"/>
  <path class="cls-7" d="M83.49,11.23c-.69,2.55-1.38,5.11-2.07,7.66-.48,1.79-.97,3.58-1.45,5.37-.22,.82-.33,1.89-.71,2.65s-1.66,.51-2.34,.51c-.81,0-1.62,0-2.43-.01-.61,0-.61,.94,0,.94,1.41,0,2.98,.23,4.36,0,1.28-.22,1.42-1.55,1.69-2.57,.99-3.66,1.97-7.31,2.96-10.97,.3-1.1,.6-2.21,.89-3.31,.16-.59-.75-.84-.91-.25h0Z"/>
  <path class="cls-9" d="M64.72,11.4c.73,2.8,1.46,5.6,2.19,8.41,.47,1.82,.95,3.63,1.42,5.45,.22,.83,.34,2.17,1.06,2.74,.66,.51,1.7,.35,2.48,.35h2.61c.61,.01,.61-.93,0-.93-.65,0-1.31,0-1.96,0-.6,0-1.57,.19-2.14,0-.96-.33-1.01-1.82-1.22-2.64-.93-3.55-1.85-7.1-2.78-10.65-.26-.98-.51-1.97-.77-2.95-.15-.59-1.06-.34-.91,.25h0Z"/>
  <path class="cls-20" d="M79.05,10.3c.22-1.17,.53-2.35,1.12-3.38s1.53-1.92,2.67-2.24c.22-.06,.46-.11,.69-.1,.19,0,.38,.06,.56,.12,.27,.1,.54,.26,.67,.52,.07,.13,.09,.27,.1,.42,.02,.38-.09,.76-.31,1.08-.25,.35-.61,.6-1,.78s-.8,.3-1.2,.45c-1.02,.38-2.49,1.62-3.3,2.36"/>
  <path class="cls-21" d="M83.11,10.55c.34-1.14,1.26-1.78,2-2.17,.37-.2,.78-.35,1.19-.32,.22,.02,.46,.1,.59,.29,.11,.15,.13,.35,.11,.53-.02,.17-.08,.34-.19,.47-.15,.17-.37,.26-.6,.29s-.45,.02-.68,.02c-.44,0-.89,.04-1.31,.18-.42,.14-.81,.38-1.1,.71"/>
  <path class="cls-28" d="M67.67,11.05c-.19-.87-.43-1.74-.89-2.5-.46-.76-1.17-1.4-2.03-1.63-.17-.04-.34-.07-.52-.06-.14,.01-.28,.05-.41,.1-.2,.08-.4,.2-.49,.4-.05,.1-.06,.21-.07,.31,0,.28,.08,.57,.25,.8,.19,.26,.47,.44,.76,.56s.6,.21,.9,.32c.77,.27,1.88,1.17,2.5,1.7"/>
  <path class="cls-29" d="M87.9,5.1c.21,.2,.59,.37,.87,.37,.19,0,.39-.03,.54,.07,.12,.09,.17,.24,.2,.39s.04,.3,.13,.43,.26,.21,.39,.13c.11-.07,.14-.21,.15-.34,.02-.15,.04-.3,.01-.45-.02-.13-.08-.26-.09-.4-.02-.2,.05-.42,.19-.57,.04-.04,.09-.08,.14-.08,.12,0,.19,.16,.3,.17,.11,0,.19-.12,.19-.24s-.03-.23,0-.34c.06-.17,.26-.23,.44-.26s.38-.04,.49-.18c.09-.1,.11-.25,.2-.36,.12-.14,.33-.16,.51-.21,.35-.08,.67-.3,.87-.6,.01-.02,.03-.04,.02-.06,0-.03-.03-.1-.05-.11-.59-.18-1.17-.2-1.79-.07s-1.28,.38-1.87,.61c-.23,.09-.4,.2-.62,.35s-.43,.33-.6,.54c-.13,.17-.33,.44-.45,.72-.11,.23-.13,.24-.19,.46"/>
</svg>