<?xml version="1.0" encoding="UTF-8"?>
<svg id="Layer_1" data-name="Layer 1" xmlns="http://www.w3.org/2000/svg" viewBox="0 0 50 55">
  <defs>
    <style>
      .cls-1 {
        fill: #fff;
      }
    </style>
  </defs>
  <path class="cls-1" d="M37.71,37.89h-4.72c-.34,0-.61,.27-.61,.61v4.78c0,.34-.27,.61-.61,.61h-3.18c-.34,0-.61-.27-.61-.61v-4.78c0-.34-.27-.61-.61-.61h-4.72c-.34,0-.61,.27-.61,.61v4.72c0,.34-.27,.61-.61,.61h-3.18c-.34,0-.61-.27-.61-.61v-4.72c0-.34-.27-.61-.61-.61h-4.78c-.34,0-.61,.27-.61,.61v10.66c0,.34,.27,.61,.61,.61h25.46c.34,0,.61-.27,.61-.61v-10.66c0-.34-.27-.61-.61-.61Z"/>
  <path class="cls-1" d="M37.74,30.47h-4.72s0,0,0,0h0c-.34,0-.61,.27-.61,.61h0v4.72h0c0,.34,.27,.61,.61,.61h4.72c.34,0,.61-.27,.61-.61h0v-4.72h0c0-.34-.27-.61-.61-.61h0s0,0,0,0Z"/>
  <path class="cls-1" d="M12.25,36.41H30.32c.34,0,.61-.27,.61-.61v-4.72c0-.34-.27-.61-.61-.61h-12.15c-.34,0-.61-.27-.61-.61V5.84c0-.34-.27-.61-.61-.61h-4.71c-.34,0-.61,.27-.61,.61v29.96c0,.34,.27,.61,.61,.61Z"/>
  <path class="cls-1" d="M37.78,17.13h-9.18c-.32,0-.58-.26-.58-.58v-4.75c0-.32,.26-.58,.58-.58h9.01c.32,0,.58-.26,.58-.58V5.8c0-.32-.26-.58-.58-.58h-14.96c-.35,0-.63,.28-.63,.63V28.41c0,.32,.26,.58,.58,.58h4.84c.32,0,.58-.26,.58-.58v-4.81c0-.32,.26-.58,.58-.58h9.18c.32,0,.58-.26,.58-.58v-4.73c0-.32-.26-.58-.58-.58Z"/>
</svg>