<svg xmlns="http://www.w3.org/2000/svg" xmlns:xlink="http://www.w3.org/1999/xlink" viewBox="0 0 250 90"><defs><style>.cls-1{fill:none;}.cls-2{isolation:isolate;}.cls-3{fill:#f3f2f3;}.cls-4{fill:#d8d8d8;}.cls-5{fill:#ccc;}.cls-6{fill:#dfdfdf;}.cls-7{fill:#93c021;}.cls-8{fill:#e3e2e2;}.cls-9{clip-path:url(#clip-path);}.cls-10{fill:#dcdcdc;}.cls-11{fill:#ddd;}.cls-12{fill:#e0e0e0;}.cls-13{fill:#e1e0e0;}.cls-14{fill:#e6e5e5;}.cls-15{clip-path:url(#clip-path-2);}.cls-16{fill:#dddede;}.cls-17{clip-path:url(#clip-path-3);}.cls-18{fill:#e3e4e3;}.cls-19{fill:#e7e6e6;}.cls-20{fill:#e8e7e7;}.cls-21{clip-path:url(#clip-path-4);}.cls-22{clip-path:url(#clip-path-5);}.cls-23{fill:#e8e8e8;}.cls-24{clip-path:url(#clip-path-6);}.cls-25{clip-path:url(#clip-path-7);}.cls-26{clip-path:url(#clip-path-8);}.cls-27{clip-path:url(#clip-path-9);}.cls-28{clip-path:url(#clip-path-10);}.cls-29{clip-path:url(#clip-path-11);}.cls-30{clip-path:url(#clip-path-12);}.cls-31{fill:#ededed;mix-blend-mode:multiply;}</style><clipPath id="clip-path"><path class="cls-1" d="M39.52,26.05l3.79-1.52a3.05,3.05,0,0,0-1.18.84,4.29,4.29,0,0,0-1,3l-3.8,1.52a4.39,4.39,0,0,1,1-3A3.08,3.08,0,0,1,39.52,26.05Z"/></clipPath><clipPath id="clip-path-2"><path class="cls-1" d="M33.47,17.77l3.79-1.52A17.8,17.8,0,0,1,43.94,15l-3.79,1.52A17.8,17.8,0,0,0,33.47,17.77Z"/></clipPath><clipPath id="clip-path-3"><path class="cls-1" d="M40.15,16.52,43.94,15a14.69,14.69,0,0,1,4.66.85,11.51,11.51,0,0,1,3.72,1.85l-3.79,1.52a11.58,11.58,0,0,0-3.73-1.85A14.64,14.64,0,0,0,40.15,16.52Z"/></clipPath><clipPath id="clip-path-4"><path class="cls-1" d="M114.08,49.85l-3.8,1.52a8.44,8.44,0,0,1-3.19.63,3.27,3.27,0,0,1-2.6-1.1,4.31,4.31,0,0,1-1-3l3.79-1.52a4.32,4.32,0,0,0,1,3,3.25,3.25,0,0,0,2.59,1.1A8.52,8.52,0,0,0,114.08,49.85Z"/></clipPath><clipPath id="clip-path-5"><path class="cls-1" d="M116,58.49,112.16,60a9.39,9.39,0,0,0,2.57-1.43l3.8-1.52A9.71,9.71,0,0,1,116,58.49Z"/></clipPath><clipPath id="clip-path-6"><path class="cls-1" d="M134.46,40.59l3.79-1.52a15.29,15.29,0,0,0-3.78,2.13l-3.79,1.52A15.29,15.29,0,0,1,134.46,40.59Z"/></clipPath><clipPath id="clip-path-7"><path class="cls-1" d="M132.7,31.31l3.8-1.52a14,14,0,0,1,5.18-1.13l-3.79,1.52A14,14,0,0,0,132.7,31.31Z"/></clipPath><clipPath id="clip-path-8"><path class="cls-1" d="M188.34,49.85l-3.79,1.52a8.47,8.47,0,0,1-3.19.63,3.29,3.29,0,0,1-2.6-1.1,4.41,4.41,0,0,1-1-3l3.8-1.52a4.36,4.36,0,0,0,1,3,3.29,3.29,0,0,0,2.6,1.1A8.44,8.44,0,0,0,188.34,49.85Z"/></clipPath><clipPath id="clip-path-9"><path class="cls-1" d="M190.24,58.48,186.45,60A9.21,9.21,0,0,0,189,58.58l3.79-1.52A9.21,9.21,0,0,1,190.24,58.48Z"/></clipPath><clipPath id="clip-path-10"><path class="cls-1" d="M206,38.78l3.8-1.52a4.74,4.74,0,0,0-1.93,1.43,7.85,7.85,0,0,0-1.45,5,8.06,8.06,0,0,0,1.39,4.95,4.68,4.68,0,0,0,3.94,1.82,6.35,6.35,0,0,0,2.4-.42l-3.79,1.52a6.35,6.35,0,0,1-2.4.42A4.67,4.67,0,0,1,204,50.18a8,8,0,0,1-1.39-5,7.79,7.79,0,0,1,1.45-5A4.71,4.71,0,0,1,206,38.78Z"/></clipPath><clipPath id="clip-path-11"><path class="cls-1" d="M200.45,30.5l3.8-1.52a20,20,0,0,1,7.51-1.38,20.3,20.3,0,0,1,8.94,1.88,14,14,0,0,1,6.08,5.58L223,36.58A14,14,0,0,0,216.9,31,20.27,20.27,0,0,0,208,29.12,20,20,0,0,0,200.45,30.5Z"/></clipPath><clipPath id="clip-path-12"><path class="cls-1" d="M219.65,58.3l-3.79,1.52c.29-.11.57-.24.85-.36a14.23,14.23,0,0,0,6.23-5.39,15.43,15.43,0,0,0,2.26-8.53,17.3,17.3,0,0,0-2.22-9l3.8-1.52A17.4,17.4,0,0,1,229,44a15.51,15.51,0,0,1-2.25,8.53,14.2,14.2,0,0,1-6.24,5.39C220.22,58.06,219.94,58.19,219.65,58.3Z"/></clipPath></defs><g class="cls-2"><g id="Layer_1" data-name="Layer 1"><polygon class="cls-3" points="69.81 57.43 69.88 58.6 70.3 59.18 71.05 59.75 71.63 60.14 72.44 60.58 74.51 61 76 61.27 77.34 61.27 79.3 61.27 80.65 61.1 81.94 60.86 83.64 60.22 84.2 59.85 84.72 59.46 85.15 58.97 85.36 58.54 85.48 58.07 85.48 57.31 85.48 56.64 85.44 45.69 85.47 25.73 85.55 21.59 85.3 22 84.83 22.72 84.44 22.99 83.88 23.25 83.34 23.63 82.69 23.93 81.8 24.15 80.94 24.29 79.86 24.5 79 24.58 78.16 24.62 77.16 24.62 75.9 24.56 73.9 24.26 72.55 23.83 71.25 23.25 70.02 22.09 69.81 22.03 69.72 40.49 69.81 57.43"/><ellipse class="cls-4" cx="77.64" cy="21.27" rx="7.83" ry="3.38"/><polygon class="cls-5" points="85.47 21.11 78.83 21.11 82.41 18.72 82.18 18.46 78.41 20.98 77.83 17.91 77.46 17.96 78.03 20.98 72.81 18.54 72.63 18.82 77.53 21.11 69.82 21.11 69.82 21.44 77.36 21.44 71.95 23.45 72.09 23.75 78.04 21.55 77.46 24.59 77.83 24.65 78.42 21.55 82.69 23.93 82.9 23.66 78.92 21.44 85.47 21.44 85.47 21.11"/><path class="cls-6" d="M85.64,21.11c-.19-1.85-3.7-3.34-8-3.34s-7.8,1.49-8,3.34h0V58c0,1.94,3.6,3.51,8,3.51s8-1.57,8-3.51V21.11Zm-8-3c4.21,0,7.63,1.42,7.63,3.18s-3.42,3.18-7.63,3.18S70,23,70,21.28,73.44,18.1,77.65,18.1ZM85.28,58c0,1.76-3.42,3.18-7.63,3.18S70,59.78,70,58V22.34c1,1.42,4.06,2.45,7.64,2.45s6.6-1,7.63-2.45Z"/><path class="cls-7" d="M83.1,43.71h0l-.22,0h0a1.46,1.46,0,0,0-.26,0l0-.05h0a1.08,1.08,0,0,0-.28.05l0-.05h0a.85.85,0,0,0-.29.06l0-.06h0a.94.94,0,0,0-.3.07h0l.06-.07h0a.82.82,0,0,0-.32.08h0a.35.35,0,0,0,.06-.08h0a1.12,1.12,0,0,0-.33.1l.07-.08h0s-.27,0-.32.09l0-.07h0a.82.82,0,0,0-.32.08l0-.07h0a.93.93,0,0,0-.32.1l0-.1h0a1.15,1.15,0,0,0-.35.14,1,1,0,0,0,0-.14h0s-.31.12-.35.19,0-.13,0-.13h0a1.3,1.3,0,0,0-.39.24,1.34,1.34,0,0,1,.07-.18h0a1.22,1.22,0,0,0-.39.19l0-.09h0a.64.64,0,0,0-.4.2l0-.1h0s-.37.11-.4.19v-.06h0a.77.77,0,0,0-.39.16h-.05l0,0h0l.38-.17a1.6,1.6,0,0,0,.59-.26s-.07,0,0,0a.68.68,0,0,0,.53-.22s-.08-.06-.07-.07c.16,0,.64-.19.6-.26l-.08,0a1.18,1.18,0,0,0,.48-.27.26.26,0,0,0-.08,0,1.54,1.54,0,0,0,.57-.29l-.17,0a2.34,2.34,0,0,0,.54-.29l-.23,0a1.59,1.59,0,0,0,.44-.33.47.47,0,0,0-.13,0,1.35,1.35,0,0,0,.32-.3.35.35,0,0,0-.12,0,1.52,1.52,0,0,0,.33-.37l-.13,0c.14-.06.31-.35.31-.35l-.14,0a1,1,0,0,0,.28-.35l-.14,0a1.06,1.06,0,0,0,.26-.35l-.14.06a1.25,1.25,0,0,0,.23-.35l-.13.06a1,1,0,0,0,.2-.34l-.11.06a1,1,0,0,0,.17-.32l-.1,0a.88.88,0,0,0,.14-.31l-.07,0a.94.94,0,0,0,.1-.29l-.07,0a.65.65,0,0,0,0-.21l0,0-.17.21h0a1.77,1.77,0,0,0-.17.2l0,.05a.28.28,0,0,1,0-.06,1.21,1.21,0,0,0-.23.29.45.45,0,0,0,0-.1,1.38,1.38,0,0,0-.24.31.45.45,0,0,0,0-.1s-.23.21-.25.32h0a.68.68,0,0,0,0-.12s-.26.24-.25.35h0a.68.68,0,0,0,0-.12,1.26,1.26,0,0,0-.22.25h0v0s0,0,0,0h0v0a.53.53,0,0,0,0-.11v0l0,0h0l0,0,0,0,0,0,0,0,0,0,0,0,0,0a.08.08,0,0,0,0,0v0a0,0,0,0,0,0,0v0h0l0-.1a1.3,1.3,0,0,0-.28.33s0-.15,0-.15h0l-.16.19a1.11,1.11,0,0,0-.15.23l0,0,0-.07a2.38,2.38,0,0,0-.25.42l-.09-.1a1.29,1.29,0,0,0-.22.41.58.58,0,0,0-.11-.1s-.21.33-.14.51L79,42.1v0c-.06.07-.28.36-.23.49l0-.15s-.28.35-.24.49l0,0a4,4,0,0,0-.38.64.18.18,0,0,0,0,.07v0l.06-.26a1.08,1.08,0,0,0,.29-.61.16.16,0,0,0-.15,0c.15,0,.28-.63.28-.63s-.18,0-.17,0c.17,0,.29-.65.29-.65s-.21,0-.21,0c.19.07.3-.63.3-.63l-.18,0c.14,0,.19-.64.19-.64l-.13.06a1.86,1.86,0,0,0,.21-.62.85.85,0,0,0-.15.07,2.54,2.54,0,0,0,.08-.58l-.12.07a1.86,1.86,0,0,0,0-.58l-.1.08a1.36,1.36,0,0,0,0-.57l-.12.11c.11-.11,0-.57,0-.57l-.12.13c.1-.12,0-.57,0-.57a.88.88,0,0,0-.11.14h0c.09-.12,0-.55,0-.55a1.41,1.41,0,0,0-.1.14h0a1.21,1.21,0,0,0,0-.52.8.8,0,0,0-.08.13,1.61,1.61,0,0,0,0-.5l-.07.11a1.57,1.57,0,0,0,0-.47l-.07.1a1.46,1.46,0,0,0,0-.43h0a1.52,1.52,0,0,0-.06-.36,1.83,1.83,0,0,0-.13.26l0-.08h0a1.81,1.81,0,0,0-.06.39l0-.08h0a1.46,1.46,0,0,0,0,.43l-.07-.1h0a1.57,1.57,0,0,0,0,.47l-.07-.11h0a1.3,1.3,0,0,0,0,.49.63.63,0,0,0-.09-.12h0a1.25,1.25,0,0,0,0,.52l-.1-.13h0a1.18,1.18,0,0,0,0,.53l-.11-.12h0a1.27,1.27,0,0,0,0,.54l-.1-.1h0a1.36,1.36,0,0,0,0,.55l-.1-.09h0s0,.44,0,.56l-.1-.07h0s0,.45.06.57l-.08-.06h0s0,.53.1.6l-.18-.08h0s.06.55.19.62h0l-.14,0h0s.08.55.23.62h0l-.14,0h0s.12.61.28.62H76.7s.17.57.32.62a1.08,1.08,0,0,1-.19,0h0s.17.61.31.68-.14-.06-.13,0a2,2,0,0,0,.23.63h0a.19.19,0,0,0,.07.08.83.83,0,0,0,0,.15l0,0c.06,0-.38-.64-.38-.64l0,0c0-.14-.24-.49-.24-.49a1.53,1.53,0,0,0-.1.17c.06-.15-.12-.46-.12-.46a.53.53,0,0,0-.15.1c.07-.17-.16-.51-.16-.51L76,42c0-.2-.22-.43-.22-.43a.81.81,0,0,1-.07.14.74.74,0,0,0-.27-.39.28.28,0,0,1,0,.07,1.44,1.44,0,0,0-.3-.37s0,.06,0,.1a1.44,1.44,0,0,0-.31-.35.55.55,0,0,0,0,.12.68.68,0,0,0-.24-.34l0,.11c0-.11-.29-.38-.29-.38l0,.12c0-.11-.25-.35-.25-.35a.68.68,0,0,0,0,.12h0c0-.12-.25-.33-.25-.33a.45.45,0,0,0,0,.1,1.38,1.38,0,0,0-.24-.31.45.45,0,0,0,0,.1,1.21,1.21,0,0,0-.23-.29.18.18,0,0,1,0,0l0,0A2.45,2.45,0,0,0,73,39.2h0c-.06-.09-.15-.18-.18-.22h0a.65.65,0,0,0,0,.21l-.07,0a.94.94,0,0,0,.1.29l-.07,0a1,1,0,0,0,.14.31l-.1,0A1.09,1.09,0,0,0,73,40l-.11-.06a1,1,0,0,0,.2.34l-.13-.06s.16.36.29.37h0L73,40.47s.18.37.32.36v0a1.31,1.31,0,0,0-.21-.08s.2.39.35.36v0l-.22-.08s.23.4.38.36l0,0-.22-.07a1.33,1.33,0,0,0,.33.37.35.35,0,0,0-.12,0,1.6,1.6,0,0,0,.32.3.47.47,0,0,0-.13,0,1.59,1.59,0,0,0,.44.33l-.23,0a2.44,2.44,0,0,0,.53.29l-.16,0a1.71,1.71,0,0,0,.57.29.26.26,0,0,0-.08,0,1.18,1.18,0,0,0,.48.27l-.08,0c0,.07.39.31.55.26l0,0h0s.34.3.51.28l.06,0c.07.05.34.26.49.25l.27.12.06,0-.1,0v0h0l-.11,0a1.26,1.26,0,0,0-.22,0h0c0-.08-.35-.15-.35-.16s0,.08,0,.08-.33-.19-.33-.19,0,.11,0,.11-.31-.2-.3-.2,0,.14,0,.13-.3-.18-.29-.18,0,.06,0,.08a1,1,0,0,0-.33-.15.41.41,0,0,0,0,.1,1.25,1.25,0,0,0-.34-.13.92.92,0,0,0,0,.09c0-.06-.32-.09-.32-.09l0,.06c-.05-.06-.32-.08-.32-.08l0,.07c0-.07-.32-.09-.32-.09a.35.35,0,0,0,.06.08h0c0-.07-.32-.09-.32-.09l.06.07h0a.82.82,0,0,0-.32-.08l.06.07h0a.94.94,0,0,0-.3-.07l.05.06a.85.85,0,0,0-.29-.06l0,.06a.86.86,0,0,0-.28-.06l.05.05a1.46,1.46,0,0,0-.26,0h0l-.22,0h0a.84.84,0,0,0,.12.1h-.06a.77.77,0,0,0,.22.1h-.06a1,1,0,0,0,.24.1l-.07,0a1,1,0,0,0,.27.09l-.09,0a1,1,0,0,0,.29.09l-.09,0a.78.78,0,0,0,.31.07l-.09,0a.78.78,0,0,0,.31.07l-.09,0a.8.8,0,0,0,.33.06l-.08,0a.9.9,0,0,0,.34,0l-.07.05a.94.94,0,0,0,.34,0l-.06,0a.9.9,0,0,0,.36,0l-.05,0a.85.85,0,0,0,.37,0l0,0s.33.06.39,0l0,0s.38.06.4,0,0,.05,0,.05.37,0,.4,0v0s.36,0,.41,0h0s.34,0,.4,0h.05a.87.87,0,0,0,.39-.07l.19,0h0l-.1.05h0s0,0-.07,0h0l-.12.07h0c-.06,0-.24.11-.24.11h0s-.25.1-.25.1h0s-.25.09-.25.09h0s-.25.09-.25.09h.05s-.25.09-.25.09H76s-.25.08-.25.08h.06s-.24.09-.24.09h.07s-.24.08-.24.08h.08c0-.05-.24.08-.24.08h.09s-.24.08-.24.08h.1c-.05,0-.23.08-.23.08a.29.29,0,0,0,.1,0h0c-.06,0-.23.08-.23.08h.07a.74.74,0,0,0-.19.08h.06a.92.92,0,0,0-.17.08h0l-.16.09h0a.45.45,0,0,0-.14.08h0s-.07.06-.07.07h0l.16,0h0a1.06,1.06,0,0,0,.19-.05l0,0a.78.78,0,0,0,.19-.06l0,0a.8.8,0,0,0,.2-.08l0,.05a.78.78,0,0,0,.2-.09h0l0,.05s.18-.05.2-.1h0l0,0s.2-.06.21-.11h0l0,.06s.21-.09.2-.13h0l0,.07s.23-.1.2-.15h0a.26.26,0,0,0,0,.07s.25-.12.19-.16h0a.14.14,0,0,0,0,.07s.25-.13.18-.16l0,0,0,.07s.26-.14.18-.17l0,0a.21.21,0,0,0,0,.06s.25-.15.17-.18l0,0a.21.21,0,0,0,0,.06s.24-.15.17-.18l0,0a0,0,0,0,0,0,0s.22-.15.16-.19l0,0v0s.2-.14.17-.19h0a.76.76,0,0,0,.16-.18h0l0,0a.41.41,0,0,0,0-.09h0l0-.07h0v0a6.26,6.26,0,0,1-.17,1.45c-.16,1,.21.82.3.77h0a8.13,8.13,0,0,1-.06-2.21v0h0a0,0,0,0,1,0,0s0,.13.06.14.16.18.16.18h0c0,.05.17.19.17.19v0h0s.17.19.17.19v0l0,0c-.07,0,.17.18.17.18a.28.28,0,0,0,0-.06l0,0c-.08,0,.17.18.17.18a.26.26,0,0,0,0-.07l0,0c-.09,0,.17.17.17.17a.17.17,0,0,0,0-.07l0,0c-.08,0,.18.16.18.16l0-.07h0s.19.16.19.16a.14.14,0,0,0,0-.07h0s.2.14.2.14l0-.07h0s.21.13.21.13a.28.28,0,0,0,0-.06h0s.2.12.2.12l0-.06h0s.2.1.2.1a.1.1,0,0,0,0-.05h0a.53.53,0,0,0,.2.09l0-.05a.53.53,0,0,0,.2.08l0,0a.62.62,0,0,0,.19.06l0,0a.85.85,0,0,0,.18.05h0l.06,0h.1a.31.31,0,0,0-.08-.07h0a.64.64,0,0,0-.14-.08h0a.73.73,0,0,0-.16-.08h.06a1.18,1.18,0,0,0-.18-.08h.06a.57.57,0,0,0-.18-.09h.06s-.17-.1-.22-.08h.1s-.19-.11-.24-.08h.1s-.19-.12-.24-.09H80s-.2-.12-.24-.08h.09s-.21-.13-.25-.08h.08s-.22-.13-.25-.08l0,0h.09s-.22-.13-.25-.08h.06s-.22-.13-.25-.09h0s-.21-.13-.25-.09h0s-.2-.13-.24-.1h0s-.19-.13-.24-.11h0s-.19-.12-.24-.11h0L78,44.75h.08a.87.87,0,0,0,.39.07h0c.06.07.4,0,.4,0h0c0,.08.41,0,.41,0s0,0,0,0,.4,0,.4,0,0-.05,0-.05.4,0,.4,0l0,0c.06.07.39,0,.39,0l0,0c.08,0,.37,0,.36,0a.11.11,0,0,0,0,0,.9.9,0,0,0,.36,0l-.06,0a.94.94,0,0,0,.34,0l-.07-.05a.86.86,0,0,0,.34,0l-.08,0a.8.8,0,0,0,.33-.06l-.09,0a.9.9,0,0,0,.32-.07l-.1,0a.78.78,0,0,0,.31-.07l-.09,0a1,1,0,0,0,.29-.09l-.09,0a1,1,0,0,0,.27-.09l-.07,0a1,1,0,0,0,.24-.1h-.06a.77.77,0,0,0,.22-.1H83a.71.71,0,0,0,.12-.11Zm-6.27-3.87Zm0,.53h0ZM76,42Zm-.62,2s0,0,0,0Zm-.45,2.15h0Zm5.36-.08Z"/><g class="cls-2"><polygon class="cls-6" points="21.01 31.44 24.8 29.92 29.8 29.92 26.01 31.44 21.01 31.44"/><polygon class="cls-8" points="37.41 40.4 41.2 38.88 41.31 73.48 37.51 75 37.41 40.4"/><polygon class="cls-8" points="37.38 29.87 41.17 28.35 41.17 29.92 37.38 31.44 37.38 29.87"/><g class="cls-2"><g class="cls-9"><g class="cls-2"><path class="cls-10" d="M39.52,26.05l3.79-1.52a3.05,3.05,0,0,0-1.18.84,4.59,4.59,0,0,0-.33.44L38,27.33a3.28,3.28,0,0,1,.32-.44,3.08,3.08,0,0,1,1.19-.84"/><path class="cls-11" d="M38,27.33l3.79-1.52a3.93,3.93,0,0,0-.26.5l-3.79,1.52a3,3,0,0,1,.26-.5"/><path class="cls-6" d="M37.75,27.83l3.79-1.52a2.48,2.48,0,0,0-.17.48l-3.8,1.52a3.41,3.41,0,0,1,.18-.48"/><path class="cls-12" d="M37.57,28.31l3.8-1.52c0,.18-.09.36-.13.54l-3.79,1.52a5.23,5.23,0,0,1,.12-.54"/><path class="cls-13" d="M37.45,28.85l3.79-1.52c0,.22-.05.44-.06.67l-3.8,1.52c0-.23,0-.45.07-.67"/><path class="cls-8" d="M37.38,29.52,41.18,28c0,.11,0,.23,0,.35l-3.8,1.52c0-.12,0-.24,0-.35"/></g></g></g><polygon class="cls-14" points="45.75 31.44 49.55 29.92 50.63 38.88 46.84 40.4 45.75 31.44"/><polygon class="cls-6" points="37.38 31.44 41.17 29.92 49.55 29.92 45.75 31.44 37.38 31.44"/><g class="cls-2"><g class="cls-15"><g class="cls-2"><path class="cls-10" d="M33.47,17.77l3.79-1.52c.35-.14.71-.27,1.07-.39l-3.8,1.52c-.36.12-.71.25-1.06.39"/><path class="cls-11" d="M34.53,17.38l3.8-1.52a17.28,17.28,0,0,1,2.6-.62l-3.79,1.52a17.7,17.7,0,0,0-2.61.62"/><path class="cls-6" d="M37.14,16.76l3.79-1.52A18.63,18.63,0,0,1,43.31,15l-3.79,1.52a18.63,18.63,0,0,0-2.38.23"/><path class="cls-12" d="M39.52,16.53,43.31,15h.63l-3.79,1.52h-.63"/></g></g></g><polygon class="cls-16" points="48.53 19.21 52.32 17.7 49.09 25.47 45.3 26.99 48.53 19.21"/><g class="cls-2"><g class="cls-17"><g class="cls-2"><path class="cls-12" d="M40.15,16.52,43.94,15c.32,0,.65,0,1,0l-3.79,1.52c-.33,0-.66,0-1,0"/><path class="cls-13" d="M41.13,16.56,44.92,15a15.54,15.54,0,0,1,1.58.24L42.7,16.8a15.36,15.36,0,0,0-1.57-.24"/><path class="cls-8" d="M42.7,16.8l3.8-1.52a16.6,16.6,0,0,1,2.08.56l-3.79,1.52a16.73,16.73,0,0,0-2.09-.56"/><path class="cls-18" d="M44.79,17.36l3.79-1.52h0a17.81,17.81,0,0,1,2.11.84l-3.79,1.52a18,18,0,0,0-2.12-.84h0"/><path class="cls-19" d="M46.92,18.21l3.79-1.52a9.36,9.36,0,0,1,1.29.76L48.21,19a9.36,9.36,0,0,0-1.29-.76"/><path class="cls-20" d="M48.21,19,52,17.45a2.72,2.72,0,0,1,.32.25l-3.79,1.52a3.92,3.92,0,0,0-.32-.25"/></g></g></g><path class="cls-3" d="M40.15,16.52a14.64,14.64,0,0,1,4.65.85,11.58,11.58,0,0,1,3.73,1.85L45.3,27a8.91,8.91,0,0,0-4.38-1.19,3.28,3.28,0,0,0-2.59,1.09,4.39,4.39,0,0,0-1,3v1.57h8.37l1.09,9H37.41l.1,34.6H26.14L26,40.4H21l0-9h5V28.62A11,11,0,0,1,28,22a12,12,0,0,1,5.2-4.1A17.7,17.7,0,0,1,40.15,16.52Z"/></g><g class="cls-2"><polygon class="cls-3" points="63.05 30.18 63.14 60.58 51.78 60.58 51.68 30.18 63.05 30.18"/><polygon class="cls-8" points="63.05 30.18 66.84 28.66 66.93 59.06 63.14 60.58 63.05 30.18"/><polygon class="cls-6" points="51.68 30.18 55.48 28.66 66.84 28.66 63.05 30.18 51.68 30.18"/></g><g class="cls-2"><polygon class="cls-6" points="87.41 31.44 91.2 29.92 95.89 29.92 92.09 31.44 87.41 31.44"/><polygon class="cls-8" points="103.49 40.4 107.29 38.88 107.31 46.4 103.52 47.92 103.49 40.4"/><g class="cls-2"><g class="cls-21"><g class="cls-2"><path class="cls-8" d="M103.52,47.92l3.79-1.52c0,.16,0,.31,0,.46l-3.8,1.52c0-.15,0-.3,0-.46"/><path class="cls-18" d="M103.53,48.38l3.8-1.52a5.36,5.36,0,0,0,.1.73l-3.8,1.52a5.36,5.36,0,0,1-.1-.73"/><path class="cls-19" d="M103.63,49.11l3.8-1.52a5.44,5.44,0,0,0,.2.72l-3.79,1.52a4.27,4.27,0,0,1-.21-.72"/><path class="cls-20" d="M103.84,49.83l3.79-1.52a3.55,3.55,0,0,0,.66,1.07,3.05,3.05,0,0,0,.53.49L105,51.39a3.52,3.52,0,0,1-.54-.49,3.74,3.74,0,0,1-.65-1.07"/><path class="cls-19" d="M105,51.39l3.79-1.52a2.82,2.82,0,0,0,.44.26l-3.79,1.52a2.43,2.43,0,0,1-.44-.26"/><path class="cls-18" d="M105.47,51.65l3.79-1.52a2.27,2.27,0,0,0,.39.16l-3.8,1.52a2.54,2.54,0,0,1-.38-.16"/><path class="cls-8" d="M105.85,51.81l3.8-1.52.39.11-3.79,1.52-.4-.11"/><path class="cls-13" d="M106.25,51.92,110,50.4a3.47,3.47,0,0,0,.45.06L106.7,52a3.06,3.06,0,0,1-.45-.06"/><path class="cls-12" d="M106.7,52l3.79-1.52.39,0h.27L107.36,52h-.27l-.39,0"/><path class="cls-6" d="M107.36,52l3.79-1.52a7.6,7.6,0,0,0,1.07-.1l-3.79,1.52a7.74,7.74,0,0,1-1.07.1"/><path class="cls-11" d="M108.43,51.89l3.79-1.52a8.63,8.63,0,0,0,1.29-.31l-3.8,1.52a8.23,8.23,0,0,1-1.28.31"/><path class="cls-10" d="M109.71,51.58l3.8-1.52.57-.21-3.8,1.52q-.28.12-.57.21"/></g></g></g><polygon class="cls-20" points="111.46 50.81 115.25 49.29 118.53 57.06 114.73 58.58 111.46 50.81"/><g class="cls-2"><g class="cls-22"><g class="cls-2"><path class="cls-10" d="M114.73,58.58l3.8-1.52A9.71,9.71,0,0,1,116,58.49L112.16,60a9.39,9.39,0,0,0,2.57-1.43"/></g></g></g><polygon class="cls-16" points="92.07 23.23 95.86 21.71 107.23 20.14 103.44 21.66 92.07 23.23"/><polygon class="cls-8" points="103.44 21.66 107.23 20.14 107.26 29.92 103.47 31.44 103.44 21.66"/><polygon class="cls-14" points="111.4 31.44 115.19 29.92 116.28 38.88 112.49 40.4 111.4 31.44"/><polygon class="cls-6" points="103.47 31.44 107.26 29.92 115.19 29.92 111.4 31.44 103.47 31.44"/><path class="cls-3" d="M103.44,21.66l0,9.78h7.93l1.09,9h-9l0,7.52a4.31,4.31,0,0,0,1,3,3.27,3.27,0,0,0,2.6,1.1,8.87,8.87,0,0,0,4.37-1.19l3.27,7.77A11.54,11.54,0,0,1,111,60.43a14.84,14.84,0,0,1-4.65.84,17.53,17.53,0,0,1-7-1.38,12,12,0,0,1-5.23-4.1,11,11,0,0,1-2-6.61l0-8.78H87.44l0-9H92.1l0-8.21Z"/></g><g class="cls-2"><polygon class="cls-6" points="119.27 30.25 123.06 28.73 128.75 28.73 124.95 30.25 119.27 30.25"/><polygon class="cls-8" points="130.68 42.72 134.47 41.2 134.52 59.06 130.73 60.58 130.68 42.72"/><polygon class="cls-23" points="124.95 30.25 128.75 28.73 131.51 32.42 127.71 33.95 124.95 30.25"/><g class="cls-2"><g class="cls-24"><g class="cls-2"><path class="cls-10" d="M134.46,40.59l3.79-1.52a15.29,15.29,0,0,0-3.78,2.13l-3.79,1.52a15.29,15.29,0,0,1,3.78-2.13"/></g></g></g><path class="cls-3" d="M137.89,30.18l2.33,9.16a15,15,0,0,0-4.93.94,15.87,15.87,0,0,0-4.61,2.44l0,17.86H119.36l-.09-30.33H125l2.76,3.69a25.48,25.48,0,0,1,5-2.63A14,14,0,0,1,137.89,30.18Z"/><polygon class="cls-19" points="137.88 30.18 141.68 28.66 144.02 37.81 140.22 39.34 137.88 30.18"/><g class="cls-2"><g class="cls-25"><g class="cls-2"><path class="cls-10" d="M132.7,31.31l3.8-1.52c.41-.16.81-.31,1.2-.44l-3.79,1.52c-.4.13-.8.28-1.21.44"/><path class="cls-11" d="M133.91,30.87l3.79-1.52a16.49,16.49,0,0,1,2.21-.54l-3.8,1.52a16.36,16.36,0,0,0-2.2.54"/><path class="cls-6" d="M136.11,30.33l3.8-1.52a10.45,10.45,0,0,1,1.45-.14l-3.8,1.52a10.6,10.6,0,0,0-1.45.14"/><path class="cls-12" d="M137.56,30.19l3.8-1.52h.32l-3.79,1.52h-.33"/></g></g></g></g><g class="cls-2"><polygon class="cls-3" points="156.19 30.18 156.28 60.58 144.9 60.58 144.81 30.18 156.19 30.18"/><polygon class="cls-8" points="156.19 30.18 159.98 28.66 160.07 59.06 156.28 60.58 156.19 30.18"/><polygon class="cls-6" points="144.81 30.18 148.6 28.66 159.98 28.66 156.19 30.18 144.81 30.18"/></g><g class="cls-2"><polygon class="cls-6" points="161.68 31.44 165.47 29.92 170.15 29.92 166.36 31.44 161.68 31.44"/><polygon class="cls-8" points="177.76 40.4 181.55 38.88 181.58 46.4 177.78 47.92 177.76 40.4"/><g class="cls-2"><g class="cls-26"><g class="cls-2"><path class="cls-8" d="M177.78,47.92l3.8-1.52c0,.16,0,.31,0,.45l-3.79,1.52c0-.14,0-.29,0-.45"/><path class="cls-18" d="M177.8,48.37l3.79-1.52a5.36,5.36,0,0,0,.1.73L177.9,49.1a5.36,5.36,0,0,1-.1-.73"/><path class="cls-19" d="M177.9,49.1l3.79-1.52a3.79,3.79,0,0,0,.21.72l-3.79,1.52a3.79,3.79,0,0,1-.21-.72"/><path class="cls-20" d="M178.11,49.82l3.79-1.52a3.66,3.66,0,0,0,.65,1.08,3.11,3.11,0,0,0,.54.49l-3.8,1.52a3.05,3.05,0,0,1-.53-.49,3.66,3.66,0,0,1-.65-1.08"/><path class="cls-19" d="M179.29,51.39l3.8-1.52a2.82,2.82,0,0,0,.44.26l-3.79,1.52a2.51,2.51,0,0,1-.45-.26"/><path class="cls-18" d="M179.74,51.65l3.79-1.52a3.2,3.2,0,0,0,.39.16l-3.79,1.52a2.27,2.27,0,0,1-.39-.16"/><path class="cls-8" d="M180.13,51.81l3.79-1.52.4.11-3.8,1.52-.39-.11"/><path class="cls-13" d="M180.52,51.92l3.8-1.52a3.11,3.11,0,0,0,.44.06L181,52a3.47,3.47,0,0,1-.45-.06"/><path class="cls-12" d="M181,52l3.79-1.52.39,0h.27L181.62,52h-.26L181,52"/><path class="cls-6" d="M181.62,52l3.8-1.52a7.6,7.6,0,0,0,1.07-.1l-3.79,1.52a7.89,7.89,0,0,1-1.08.1"/><path class="cls-11" d="M182.7,51.89l3.79-1.52a8.63,8.63,0,0,0,1.29-.31L184,51.58a8.23,8.23,0,0,1-1.28.31"/><path class="cls-10" d="M184,51.58l3.8-1.52c.19-.06.37-.13.56-.21l-3.79,1.52q-.28.12-.57.21"/></g></g></g><polygon class="cls-20" points="185.73 50.81 189.52 49.29 192.8 57.06 189.01 58.58 185.73 50.81"/><g class="cls-2"><g class="cls-27"><g class="cls-2"><path class="cls-10" d="M189,58.58l3.79-1.52a9.21,9.21,0,0,1-2.56,1.42L186.45,60A9.21,9.21,0,0,0,189,58.58"/></g></g></g><polygon class="cls-16" points="166.34 23.23 170.13 21.71 181.5 20.14 177.7 21.66 166.34 23.23"/><polygon class="cls-8" points="177.7 21.66 181.5 20.14 181.53 29.92 177.73 31.44 177.7 21.66"/><polygon class="cls-14" points="185.67 31.44 189.46 29.92 190.55 38.88 186.76 40.4 185.67 31.44"/><polygon class="cls-6" points="177.73 31.44 181.53 29.92 189.46 29.92 185.67 31.44 177.73 31.44"/><path class="cls-3" d="M177.7,21.66l0,9.78h7.94l1.09,9h-9l0,7.52a4.41,4.41,0,0,0,1,3,3.29,3.29,0,0,0,2.6,1.1,8.87,8.87,0,0,0,4.37-1.19L189,58.58a11.72,11.72,0,0,1-3.72,1.85,14.85,14.85,0,0,1-4.66.84,17.55,17.55,0,0,1-7-1.38,12.18,12.18,0,0,1-5.24-4.1,11.09,11.09,0,0,1-2-6.61l0-8.78H161.7l0-9h4.69l0-8.21Z"/></g><g class="cls-2"><g class="cls-2"><g class="cls-28"><g class="cls-2"><path class="cls-10" d="M206,38.78l3.8-1.52a4.74,4.74,0,0,0-1.93,1.43,5.88,5.88,0,0,0-.36.51l-3.79,1.52a5.88,5.88,0,0,1,.36-.51A4.71,4.71,0,0,1,206,38.78"/><path class="cls-11" d="M203.67,40.72l3.79-1.52A5.92,5.92,0,0,0,207,40l-3.8,1.52a6,6,0,0,1,.44-.83"/><path class="cls-6" d="M203.23,41.55,207,40a6,6,0,0,0-.3.84l-3.8,1.52q.13-.44.3-.84"/><path class="cls-12" d="M202.93,42.39l3.8-1.52a9.6,9.6,0,0,0-.22,1l-3.79,1.52a9.59,9.59,0,0,1,.21-1"/><path class="cls-13" d="M202.72,43.35l3.79-1.52a11.53,11.53,0,0,0-.12,1.21l-3.8,1.52a9.34,9.34,0,0,1,.13-1.21"/><path class="cls-8" d="M202.59,44.56l3.8-1.52c0,.22,0,.44,0,.67s0,.59,0,.88l-3.79,1.52c0-.29,0-.58,0-.88s0-.45,0-.67"/><path class="cls-18" d="M202.61,46.11l3.79-1.52a11.25,11.25,0,0,0,.19,1.35l-3.8,1.52a9.56,9.56,0,0,1-.18-1.35"/><path class="cls-19" d="M202.79,47.46l3.8-1.52A7.73,7.73,0,0,0,207,47.2l-3.79,1.52a7.73,7.73,0,0,1-.37-1.26"/><path class="cls-20" d="M203.16,48.72,207,47.2a6.4,6.4,0,0,0,.81,1.46,4.73,4.73,0,0,0,1,.94l-3.79,1.52a4.27,4.27,0,0,1-1-.94,5.72,5.72,0,0,1-.81-1.46"/><path class="cls-19" d="M204.93,51.12l3.79-1.52a4.06,4.06,0,0,0,.63.38l-3.8,1.52a4,4,0,0,1-.62-.38"/><path class="cls-18" d="M205.55,51.5l3.8-1.52a5.31,5.31,0,0,0,.55.23l-3.79,1.52a5.48,5.48,0,0,1-.56-.23"/><path class="cls-8" d="M206.11,51.73l3.79-1.52a5.47,5.47,0,0,0,.58.15l-3.8,1.52a5.29,5.29,0,0,1-.57-.15"/><path class="cls-13" d="M206.68,51.88l3.8-1.52a6.37,6.37,0,0,0,.65.09L207.33,52c-.22,0-.44,0-.65-.09"/><path class="cls-12" d="M207.33,52l3.8-1.52a5.3,5.3,0,0,0,.57,0H212L208.18,52h-.27a5.49,5.49,0,0,1-.58,0"/><path class="cls-6" d="M208.18,52,212,50.47a9.15,9.15,0,0,0,.94-.08l-3.8,1.52a8.72,8.72,0,0,1-.93.08"/><path class="cls-11" d="M209.11,51.91l3.8-1.52a5.54,5.54,0,0,0,.87-.21L210,51.7a6,6,0,0,1-.88.21"/><path class="cls-10" d="M210,51.7l3.79-1.52.32-.12-3.79,1.52-.32.12"/></g></g></g><g class="cls-2"><g class="cls-29"><g class="cls-2"><path class="cls-10" d="M200.45,30.5l3.8-1.52c.38-.15.76-.29,1.15-.42l-3.8,1.52c-.38.13-.77.27-1.15.42"/><path class="cls-11" d="M201.6,30.08l3.8-1.52a19.33,19.33,0,0,1,2.89-.69l-3.8,1.52a19.63,19.63,0,0,0-2.89.69"/><path class="cls-6" d="M204.49,29.39l3.8-1.52a21.78,21.78,0,0,1,2.73-.26l-3.79,1.52a22.12,22.12,0,0,0-2.74.26"/><path class="cls-12" d="M207.23,29.13,211,27.61h.74c.74,0,1.47,0,2.18.09l-3.79,1.52q-1.07-.09-2.19-.09h-.73"/><path class="cls-13" d="M210.15,29.21l3.79-1.52a19.47,19.47,0,0,1,2.48.36l-3.79,1.52a19.74,19.74,0,0,0-2.48-.36"/><path class="cls-8" d="M212.63,29.57l3.79-1.52a19.17,19.17,0,0,1,2.2.58l-3.8,1.52a18.47,18.47,0,0,0-2.19-.58"/><path class="cls-18" d="M214.82,30.15l3.8-1.52a16.48,16.48,0,0,1,2.08.85l.05,0L217,31l-.06,0a15.89,15.89,0,0,0-2.08-.85"/><path class="cls-19" d="M217,31l3.79-1.52a14.59,14.59,0,0,1,2.14,1.28L219.1,32.3A15.14,15.14,0,0,0,217,31"/><path class="cls-20" d="M219.1,32.3l3.79-1.52a14.14,14.14,0,0,1,3.89,4.28L223,36.58a14.11,14.11,0,0,0-3.88-4.28"/></g></g></g><path class="cls-3" d="M223,36.58a17.3,17.3,0,0,1,2.22,9,15.43,15.43,0,0,1-2.26,8.53,14.23,14.23,0,0,1-6.23,5.39,21.1,21.1,0,0,1-8.9,1.81q-7.6,0-12.29-4.1t-4.69-11.94a16,16,0,0,1,2.26-8.62A14.76,14.76,0,0,1,199.25,31,19.63,19.63,0,0,1,208,29.12,20.27,20.27,0,0,1,216.9,31,14,14,0,0,1,223,36.58ZM212,50.37a7,7,0,0,0,1.42-4.83A8.84,8.84,0,0,0,212,40.4a4.52,4.52,0,0,0-3.91-2A5,5,0,0,0,204,40.21a7.79,7.79,0,0,0-1.45,5,8,8,0,0,0,1.39,5A4.67,4.67,0,0,0,207.91,52,5.16,5.16,0,0,0,212,50.37"/><g class="cls-2"><g class="cls-30"><g class="cls-2"><path class="cls-20" d="M223,36.58l3.8-1.52a14.57,14.57,0,0,1,1,2.1L224,38.68a13.63,13.63,0,0,0-1-2.1"/><path class="cls-19" d="M224,38.68l3.79-1.52a16,16,0,0,1,.78,2.65l-3.79,1.52a18.12,18.12,0,0,0-.78-2.65"/><path class="cls-18" d="M224.79,41.33l3.79-1.52a19.33,19.33,0,0,1,.35,2.61l-3.79,1.52a21.08,21.08,0,0,0-.35-2.61"/><path class="cls-8" d="M225.14,43.94l3.79-1.52c0,.52.06,1,.06,1.6,0,.36,0,.71,0,1.06l-3.8,1.52c0-.35,0-.7,0-1.06,0-.55,0-1.08-.06-1.6"/><path class="cls-13" d="M225.17,46.6l3.8-1.52a19,19,0,0,1-.22,2.07L225,48.67a16.86,16.86,0,0,0,.21-2.07"/><path class="cls-12" d="M225,48.67l3.79-1.52a16.86,16.86,0,0,1-.4,1.8l-3.8,1.52a16.87,16.87,0,0,0,.41-1.8"/><path class="cls-6" d="M224.55,50.47l3.8-1.52a15.72,15.72,0,0,1-.61,1.71l-3.8,1.52a13.86,13.86,0,0,0,.61-1.71"/><path class="cls-11" d="M223.94,52.18l3.8-1.52a13.77,13.77,0,0,1-1,1.86L223,54a13.71,13.71,0,0,0,1-1.86"/><path class="cls-10" d="M223,54l3.79-1.52v0a14.2,14.2,0,0,1-6.24,5.39c-.28.12-.56.25-.85.36l-3.79,1.52c.29-.11.57-.24.85-.36a14.23,14.23,0,0,0,6.23-5.39l0,0"/></g></g></g></g><path class="cls-31" d="M79.56,61.1c4.54-.68,3.69-37.32,3.69-37.32,1.4-.82,1.52-.73,2-1.44V58c0,1.48-2.43,2.73-5.72,3.08"/></g></g></svg>