<svg xmlns="http://www.w3.org/2000/svg" viewBox="0 0 90 90"><defs><style>.cls-1{fill:#ffd200;}</style></defs><g id="Layer_1" data-name="Layer 1"><path class="cls-1" d="M78.3,29.5V27.7a7.7,7.7,0,0,0-2.6-5.3,7.9,7.9,0,0,0-6-2.4H19.4A8.5,8.5,0,0,0,14,22.6a8.4,8.4,0,0,0-2.3,6V60.3a13.3,13.3,0,0,0,0,2A8.2,8.2,0,0,0,13,66.1,8.4,8.4,0,0,0,20.3,70H70.6a8.9,8.9,0,0,0,3.9-1.2,8.5,8.5,0,0,0,3.8-7.3Zm-62.5-.9a3.8,3.8,0,0,1,.6-2.4,3.7,3.7,0,0,1,3.2-2H69.8a4.4,4.4,0,0,1,2.5.6,3.7,3.7,0,0,1,1.8,2.9,2.8,2.8,0,0,1,.1.9v4.7c0,.2-.1.3-.3.4L55.7,47l-6.8,5a6.4,6.4,0,0,1-3.3,1.3,5.5,5.5,0,0,1-3.7-.8c-1.3-.8-2.5-1.8-3.8-2.7l-22-16a.7.7,0,0,1-.3-.6C15.8,31.6,15.9,30.1,15.8,28.6Zm58.4,33a4.4,4.4,0,0,1-.9,2.7,3.9,3.9,0,0,1-2.8,1.5H20.2a4.4,4.4,0,0,1-2.9-.9,4,4,0,0,1-1.4-2.7,1.3,1.3,0,0,1-.1-.6V38.8l2.5,1.8L38.7,55.4a9.3,9.3,0,0,0,4.4,2,9.9,9.9,0,0,0,8.1-1.9L72,40.3l2.1-1.5c.1.1.1.1.1.2Z"/></g></svg>