<svg id="Layer_1" data-name="Layer 1" xmlns="http://www.w3.org/2000/svg" viewBox="0 0 722.4 600.8"><defs><style>.cls-1{fill:#ffd200;}.cls-2{fill:#ff4f4f;}.cls-3{fill:#fff;}.cls-4{fill:#00a03a;}.cls-5{fill:#ffd400;}</style></defs><g id="Layer_1-2" data-name="Layer 1"><path class="cls-1" d="M541.1,260.3V247.2a55.7,55.7,0,0,0-18.8-38.3A56.9,56.9,0,0,0,479,191.6H115.4a61,61,0,0,0-55.7,62.2V482.9a115.3,115.3,0,0,0,0,14.4,59.8,59.8,0,0,0,9.4,27.5A61,61,0,0,0,121.9,553H485.5a65.1,65.1,0,0,0,28.1-8.7,61.2,61.2,0,0,0,27.5-52.8ZM89.4,253.8a27.2,27.2,0,0,1,4.3-17.4A26.7,26.7,0,0,1,116.8,222H479.7a31.5,31.5,0,0,1,18,4.3,26.9,26.9,0,0,1,13.1,20.9,24.7,24.7,0,0,1,.7,6.6v33.9c0,1.5-.7,2.2-2.2,2.9L377.8,386.7l-49.2,36.2a46.3,46.3,0,0,1-23.8,9.4,40,40,0,0,1-26.8-5.8c-9.4-5.8-18-13-27.4-19.5L91.5,291.3a4.8,4.8,0,0,1-2.1-4.3C89.4,275.4,90.1,264.6,89.4,253.8ZM511.5,492.3a32.6,32.6,0,0,1-6.5,19.5,28,28,0,0,1-20.3,10.8H121.2a31.7,31.7,0,0,1-21-6.5,28.9,28.9,0,0,1-10.1-19.5,9.1,9.1,0,0,1-.7-4.3V327.5l18,13,147.5,107a67,67,0,0,0,31.8,14.4,71.4,71.4,0,0,0,58.5-13.7L495.6,338.3l15.2-10.8c.7.7.7.7.7,1.4Z"/></g><circle class="cls-2" cx="522.1" cy="230.4" r="159.6"/><path class="cls-3" d="M452.8,172.6h9.3l33.9-2.4h67.5l30.4,2.4c.2,0,.8,1.6.8,1.6l2.3,24.3,1.9,26.1v9l-3.1,10.2s-5.6,14-5.8,14.3S577.5,275,577.5,275l-3.5,3.3-12.4,9.8s-48.8,9.4-49.2,9.7-28.3-10.3-28.3-10.3l-3.9-3.4L468,273.7l-14.1-22-3.4-10L448,227l.8-10.6,1.1-17.9,2.3-23.8Z"/><path class="cls-4" d="M434.5,287.1a1.1,1.1,0,0,1-.7-.3.9.9,0,0,1-.3-1l.8-2.6-7.5,2.3-5.1,1.3a1.2,1.2,0,0,1-1.3-.8h0a1,1,0,0,1,0-1.4l4-3.6c1.9-1.7,4-3.3,6.1-4.9l-2.6-.8c-.4-.2-.7-.5-.7-.8a.9.9,0,0,1,.3-1,146.3,146.3,0,0,1,18.1-12.1l-2.9-.9a1.1,1.1,0,0,1-.7-.8,1.2,1.2,0,0,1,.5-1,155.5,155.5,0,0,1,14.7-7.4l4.9-1.9-1.3-.4h0l-1.8-.6a1,1,0,0,1-.7-.9.8.8,0,0,1,.6-1c4-1.6,10-3.5,16.2-5.3l2.7-.7h.1l5.2-1.2,5.2-.9-1.2-.7H487l-1.6-.9a1.1,1.1,0,0,1-.6-1,1.2,1.2,0,0,1,.9-.9c4.3-.8,27.5-3.1,36.1-3.8a.9.9,0,0,1,1,.5,1.1,1.1,0,0,1-.1,1.1c-5.5,6.8-20.3,24.7-23.3,27.9a1.1,1.1,0,0,1-1.2.2,1.1,1.1,0,0,1-.6-1.1l.2-1.8h0v-1.3c-1.2,1.2-2.4,2.5-3.7,3.7s-2.5,2.5-3.8,3.7h-.1l-2.1,1.8c-5,4.3-9.9,8.1-13.5,10.6a1.1,1.1,0,0,1-1.1,0,1,1,0,0,1-.4-1.2l.5-1.8h0l.4-1.3-4.3,3c-4.6,2.9-9.4,5.6-14.3,8.1a.9.9,0,0,1-1.1-.2,1,1,0,0,1-.4-1l.9-2.9a141.6,141.6,0,0,1-20.1,8.3Zm1.4-6.6a.9.9,0,0,1,.7.3,1.1,1.1,0,0,1,.3,1.1l-.8,2.6a141.8,141.8,0,0,0,20-8.6,1.1,1.1,0,0,1,1.2.1,1.1,1.1,0,0,1,.3,1.1l-.9,2.9c4.1-2.2,8.1-4.5,11.9-7s4.7-3.1,6.8-4.7a.9.9,0,0,1,1.2,0,.9.9,0,0,1,.4,1.1l-1,3.2c3.2-2.3,7-5.3,10.8-8.6l2.2-1.9h.1l3.7-3.5q3-3,5.7-6a1.1,1.1,0,0,1,1.2-.2,1,1,0,0,1,.6,1l-.3,3.2c4.6-5.3,14.3-17,19.6-23.5-8.3.8-23.5,2.3-30.5,3.2l2.9,1.5a1,1,0,0,1,.5,1.1,1,1,0,0,1-.9.8l-8.1,1.5-5,1.1h0l-2.8.8c-4.9,1.4-9.5,2.8-13.2,4.1l3.2,1a1,1,0,0,1,.7,1,1.2,1.2,0,0,1-.7,1c-2.5.8-5.1,1.8-7.7,2.9s-8.3,3.8-12.4,6.1l2.9.9a.8.8,0,0,1,.7.8.9.9,0,0,1-.5,1,147.1,147.1,0,0,0-18.3,11.9l2.6.8a1,1,0,0,1,.7.8,1,1,0,0,1-.4,1c-2.6,1.9-5.2,4-7.6,6.1l-1.8,1.6,2.4-.6c3-.8,6.2-1.8,9.3-2.9Z"/><path class="cls-4" d="M609.7,287.1h-.3a146.6,146.6,0,0,1-20.1-8.3l.9,2.9a1,1,0,0,1-.3,1,1.1,1.1,0,0,1-1.2.2,163.4,163.4,0,0,1-14.2-8.1l-4.4-3,.4,1.3h0l.5,1.8a1.1,1.1,0,0,1-.3,1.2,1.3,1.3,0,0,1-1.2,0c-3.6-2.5-8.5-6.3-13.5-10.6l-2.1-1.8h-.1L550,260l-3.7-3.7v1.3h0l.2,1.8a1,1,0,0,1-.6,1.1.9.9,0,0,1-1.1-.2c-3.1-3.2-17.9-21.1-23.4-27.9a1.1,1.1,0,0,1-.1-1.1.9.9,0,0,1,1-.5c8.6.7,31.8,3,36.1,3.8a1.1,1.1,0,0,1,.9.9,1.1,1.1,0,0,1-.6,1l-1.6.9h-.1l-1.2.7,5.2.9,5.2,1.2h.1l2.7.7c6.3,1.8,12.2,3.7,16.2,5.3a1,1,0,0,1,.7,1,1.2,1.2,0,0,1-.8.9l-1.8.6h0l-1.3.4,4.9,1.9a144.4,144.4,0,0,1,14.7,7.4,1.2,1.2,0,0,1,.5,1,1,1,0,0,1-.7.8l-2.9.9a146.3,146.3,0,0,1,18.1,12.1,1.2,1.2,0,0,1,.4,1,1.5,1.5,0,0,1-.8.8l-2.6.8c2.1,1.6,4.2,3.2,6.1,4.9l4,3.6a1,1,0,0,1,0,1.4h0a1.1,1.1,0,0,1-1.2.8l-5.2-1.3-7.5-2.3.8,2.6a1.1,1.1,0,0,1-1,1.3Zm-22.1-11.3h.5a141.8,141.8,0,0,0,20,8.6l-.8-2.6a1.1,1.1,0,0,1,.3-1.1,1.4,1.4,0,0,1,1.1-.2c3,1.1,6.2,2.1,9.2,2.9l2.4.6-1.8-1.6c-2.4-2.1-5-4.2-7.6-6.1a1,1,0,0,1-.4-1,1.1,1.1,0,0,1,.7-.8l2.6-.8a140,140,0,0,0-18.3-11.9.9.9,0,0,1-.5-1,.8.8,0,0,1,.7-.8l2.9-.9a129.3,129.3,0,0,0-12.4-6.1c-2.6-1.1-5.2-2.1-7.7-2.9a1.2,1.2,0,0,1-.7-1,1,1,0,0,1,.7-1l3.2-1c-3.7-1.3-8.3-2.7-13.2-4.1l-2.7-.8h-.1l-5-1.1-8.1-1.5a1.1,1.1,0,0,1-.9-.8,1.1,1.1,0,0,1,.6-1.1l2.8-1.5c-7-.9-22.2-2.4-30.4-3.2,5.2,6.5,14.9,18.2,19.6,23.5l-.4-3.2a1,1,0,0,1,.7-1,.9.9,0,0,1,1.1.2q2.7,3,5.7,6l3.8,3.5h0l2.2,1.9c3.8,3.3,7.6,6.3,10.8,8.6l-1-3.2a.9.9,0,0,1,.4-1.1.9.9,0,0,1,1.2,0c2.1,1.6,4.4,3.2,6.8,4.7s7.8,4.8,11.9,7l-.9-2.9a1,1,0,0,1,.4-1.1C587.1,275.8,587.4,275.8,587.6,275.8Z"/><path class="cls-4" d="M421.4,285.8l5.1-1.3c2.7-.7,5.8-1.7,9.4-2.9l-1.4,4.5a145.9,145.9,0,0,0,22.1-9.3L455,282a149.5,149.5,0,0,0,14.2-8.1c2.5-1.6,4.7-3.2,6.8-4.8l-1.3,4.3h0l-.5,1.8a162.2,162.2,0,0,0,13.3-10.4l2.2-1.9h0l3.8-3.6,5.8-6-.5,4.5h0l-.2,1.8c3.1-3.1,17.8-20.9,23.3-27.7-8.7.8-31.7,3-36,3.8l1.6.9h0l4,2.1-8.2,1.5-5.1,1.1h0l-2.8.8c-5.3,1.5-11.6,3.5-16.1,5.2l1.8.6h0l4.3,1.3a77.2,77.2,0,0,0-7.8,3,116.9,116.9,0,0,0-14.6,7.3l5.2,1.5a147.4,147.4,0,0,0-20,13.2l4.5,1.4c-3,2.2-5.6,4.3-7.6,6.1l-3.9,3.5"/><path class="cls-4" d="M623.1,285.2l-3.9-3.5c-2.1-1.8-4.7-3.9-7.7-6.1l4.5-1.4A141.3,141.3,0,0,0,596,261l5.2-1.5a116.9,116.9,0,0,0-14.6-7.3,77.2,77.2,0,0,0-7.8-3l4.3-1.3h0l1.8-.6c-4.5-1.7-10.8-3.7-16.1-5.2l-2.8-.8h0l-5.1-1.1-8.2-1.5,4-2.1h0l1.7-.9c-4.3-.8-27.4-3-36.1-3.8,5.5,6.8,20.3,24.6,23.3,27.7l-.2-1.8h0l-.4-4.5q2.6,2.8,5.7,6l3.8,3.6h0l2.2,1.9c4.3,3.6,9.4,7.7,13.4,10.4l-.6-1.8h0l-1.3-4.3c2.1,1.6,4.3,3.2,6.8,4.8a163,163,0,0,0,14.2,8.1l-1.6-5.2a145.9,145.9,0,0,0,22.1,9.3l-1.4-4.5c3.6,1.2,6.7,2.2,9.4,2.9l5.1,1.3"/><path class="cls-5" d="M547.7,170.4h.1c16.1.4,31.7,1.1,46.8,2.2l.6,6.7c8.6-.9,14-1.8,15.2-2.9l.3-.4-1.1-.9h0l-85.9-73.2v-.3h-.4v.3l-85.9,73.2h-.1l-1,.9.2.4c1.2,1.1,6.7,2,15.3,2.9l.6-6.7c15-1.1,30.6-1.8,46.8-2.2h.1c8.1-.2,16.1-.2,24-.2h.4c7.8,0,15.9,0,24,.2"/><path class="cls-4" d="M520.7,289.1l-5.6-.8-2.4.2-.3-.7c-2.5-.5-4.8-1.4-7.2-2.1a50.8,50.8,0,0,1-5.1-1.7l-1.7-.7c-.6-.3-2.1-.6.2,0a16.8,16.8,0,0,1-4.1-1.7l-1.2.8c-2.3,1.5-4.9,3.4-7.4,5.2l-3.9,3,4.2-.3c-1.4,1.1-3,2.3-4.5,3.7a90.7,90.7,0,0,0-8.3,7.9l3.5-.3a119.4,119.4,0,0,0-11,12.9l3.1-.3a103.7,103.7,0,0,0-6,8.7,103.7,103.7,0,0,0,8.7-6l-.3,3.1a119.4,119.4,0,0,0,12.9-11l-.3,3.6c1.3-1.3,2.6-2.5,3.9-3.9a66.2,66.2,0,0,0-2.6,6.4l4-1.8a120.3,120.3,0,0,0-6.1,19.1l3.6-1.5c-1.4,5.4-2.1,9.8-2.5,12.3a101.3,101.3,0,0,0,7.1-10.4l1.3,3.6a116.6,116.6,0,0,0,9.3-17.9l1.6,4.2c1.7-3.9,3.4-8.2,4.9-12.8.4-1.1.7-2.2,1-3.2h0l3.2-3.2c-.4,2.6-.8,5.3-1,8.3a152.5,152.5,0,0,0-.5,16.3l3.9-3.9a140.4,140.4,0,0,0,2.1,23.9l3.4-3.3c.5,3.7,1.2,6.9,1.8,9.6s.9,3.8,1.3,5.1V289.1a7.6,7.6,0,0,1-3,0"/><path class="cls-4" d="M522.8,228.3h-1a10.2,10.2,0,0,1-5.7-2.8c-1.4-1-2.5-1.9-4.1-2.1a5,5,0,0,0-2.6.5,1,1,0,0,1-.8-1.9,7.6,7.6,0,0,1,3.6-.6,8.8,8.8,0,0,1,5.1,2.5c1.4,1.1,2.7,2.2,4.7,2.4h1.5a1,1,0,0,1,1.2.9,1,1,0,0,1-.9,1.1Z"/><path class="cls-4" d="M507.6,229.5h-.3c-.8-.3-4.9-1.7-6.3-5.6s1.2-9.7,6.2-12a1,1,0,0,1,.8,1.9c-4,1.8-6.2,6.1-5.1,9.4s4.6,4.2,5,4.3a1.1,1.1,0,0,1,.7,1.3A1.2,1.2,0,0,1,507.6,229.5Z"/><path class="cls-4" d="M523.6,360.1a1,1,0,0,1-1-.8c-.5-1.7-.9-3.4-1.3-5.1s-1.1-5.1-1.5-7.7l-1.9,1.9a1.4,1.4,0,0,1-1.1.2,1.1,1.1,0,0,1-.7-.8,141.1,141.1,0,0,1-2.1-21.6l-2.1,2.1a1.2,1.2,0,0,1-1.1.3,1.2,1.2,0,0,1-.7-1,127.8,127.8,0,0,1,.5-16.4c.1-1.8.3-3.5.5-5.2l-.9.9h-.1l-1.3,1.3a1.1,1.1,0,0,1-1.2.2.9.9,0,0,1-.5-1.1c.5-4.3,1.5-10.4,2.9-16.8.2-.9.5-1.9.7-2.8a.9.9,0,0,1,1.2-.7,1,1,0,0,1,.8,1.2c-.2.9-.4,1.8-.7,2.8-1,4.9-1.9,9.7-2.5,13.6l2.4-2.4a.9.9,0,0,1,1.1-.2,1.1,1.1,0,0,1,.6,1.1c-.4,2.6-.7,5.4-1,8.2a125.5,125.5,0,0,0-.5,13.8l2.1-2.2a1.6,1.6,0,0,1,1.2-.2,1.3,1.3,0,0,1,.6,1,132.4,132.4,0,0,0,1.8,21.7l2-1.9a.9.9,0,0,1,1-.3,1.1,1.1,0,0,1,.7.8q.8,4.9,1.8,9.6c.4,1.7.8,3.4,1.3,5.1a1,1,0,0,1-.7,1.2Z"/><path class="cls-4" d="M484.2,343.8h-.3a1,1,0,0,1-.7-1.1c.5-3.3,1.2-6.9,2-10.4l-1.6.7a1.1,1.1,0,0,1-1.1-.1,1,1,0,0,1-.3-1,123.3,123.3,0,0,1,5.1-17l-1.7.7a1.1,1.1,0,0,1-1.1-.1,1.3,1.3,0,0,1-.3-1.2c.8-2.1,1.7-4.3,2.7-6.4s1.9-4.2,2.9-6.2l1.8-3.4-1.8.9a1.3,1.3,0,0,1-1.2-.3.9.9,0,0,1-.1-1.2c1.1-2,2.6-4.5,4.4-7.3h0l4.5-6.7a.9.9,0,0,1,1.4-.2,1,1,0,0,1,.3,1.4c-1.4,2-3,4.4-4.4,6.6h-.1c-1,1.6-2,3.1-2.8,4.5l1.9-.8a1,1,0,0,1,1.3,1.4c-1.1,2-2.3,4-3.4,6.1l-2.9,6c-.5,1.4-1.1,2.7-1.7,4.1l1.8-.8a.9.9,0,0,1,1.1.2,1.1,1.1,0,0,1,.3,1.1,125.2,125.2,0,0,0-5.6,17l1.7-.7a1.1,1.1,0,0,1,1.1.1,1.1,1.1,0,0,1,.3,1.1c-.7,2.7-1.3,5.4-1.8,8a81.8,81.8,0,0,0,4.5-6.9,1,1,0,0,1,1-.5.9.9,0,0,1,.8.6l.7,1.7a118.8,118.8,0,0,0,8.1-15.9,1,1,0,0,1,.9-.7,1.1,1.1,0,0,1,1,.7l.7,1.8c1.4-3.4,2.7-6.9,3.8-10.4a28.1,28.1,0,0,0,1-3.1,1,1,0,0,1,1-.8,1,1,0,0,1,1,1h0v.3c-.3,1.1-.7,2.2-1,3.2a126.3,126.3,0,0,1-4.9,12.9,1.1,1.1,0,0,1-1,.6.9.9,0,0,1-.9-.6l-.7-1.8a118.4,118.4,0,0,1-8.4,15.7.8.8,0,0,1-.9.4.9.9,0,0,1-.9-.6l-.6-1.7c-2,3.1-4,6.1-6,8.8A1,1,0,0,1,484.2,343.8Z"/><path class="cls-4" d="M462.9,323.5a1.1,1.1,0,0,1-.7-.3,1.3,1.3,0,0,1-.2-1.3c1.5-2.3,3-4.6,4.7-6.9h-.8a.9.9,0,0,1-1-.5,1.1,1.1,0,0,1,.1-1.1,119.1,119.1,0,0,1,9.2-11h-.8a1.1,1.1,0,0,1-1.1-.6,1.1,1.1,0,0,1,.2-1.1,106.4,106.4,0,0,1,8.4-8.1l1.9-1.6H482a1,1,0,0,1-1-.7.8.8,0,0,1,.3-1.1l3.9-3.1,7.4-5.2a1.1,1.1,0,0,1,1.5.3,1.1,1.1,0,0,1-.3,1.4l-7.4,5.2-1.1.9h.7a1.1,1.1,0,0,1,1.1.7,1.1,1.1,0,0,1-.4,1.2,49.4,49.4,0,0,0-4.4,3.6c-2.2,1.9-4.3,3.8-6.4,5.9h.8a.8.8,0,0,1,1,.6.9.9,0,0,1-.2,1.1,109,109,0,0,0-9.5,10.9h.9a1,1,0,0,1,.9.6,1.1,1.1,0,0,1,0,1.1q-1.8,2.3-3.3,4.5,2.3-1.5,4.5-3.3a1.1,1.1,0,0,1,1.1-.1,1.2,1.2,0,0,1,.5,1v.8a121.5,121.5,0,0,0,10.9-9.5.9.9,0,0,1,1.1-.2,1.1,1.1,0,0,1,.6,1v.9l2-2a1,1,0,0,1,1.4,1.4,47.8,47.8,0,0,1-3.9,3.9.9.9,0,0,1-1.1.2,1,1,0,0,1-.6-1v-.8a120.4,120.4,0,0,1-10.9,9.2,1.1,1.1,0,0,1-1.1,0,1.1,1.1,0,0,1-.6-1v-.8c-2.3,1.7-4.7,3.3-6.9,4.7Z"/><path class="cls-4" d="M498.7,201a2.7,2.7,0,0,1-1.7-.6,25.3,25.3,0,0,0-31,0,2.5,2.5,0,0,1-3.6-.2,2.6,2.6,0,0,1,.2-3.7,30.6,30.6,0,0,1,37.7,0,2.7,2.7,0,0,1,.3,3.7A2.7,2.7,0,0,1,498.7,201Z"/><path class="cls-4" d="M548.3,201a2.7,2.7,0,0,1-1.9-.8,2.6,2.6,0,0,1,.2-3.7,30.6,30.6,0,0,1,37.7,0,2.7,2.7,0,0,1,.3,3.7,2.5,2.5,0,0,1-3.6.2,25.3,25.3,0,0,0-31,0A2.7,2.7,0,0,1,548.3,201Z"/><path class="cls-4" d="M523.7,249.3h-.1a47,47,0,0,1-12.2-1.6l-10.1-2.6a1,1,0,0,1-.8-1.2,1.1,1.1,0,0,1,1.3-.8l10.1,2.6a48.2,48.2,0,0,0,11.7,1.5h.1a1.1,1.1,0,0,1,1,1.1A1.1,1.1,0,0,1,523.7,249.3Z"/><path class="cls-4" d="M523.6,281.5a70.7,70.7,0,0,1-20.5-3.1,71.5,71.5,0,0,1-26.9-15.6,1,1,0,0,1-.1-1.5,1.1,1.1,0,0,1,1.5,0,68,68,0,0,0,26.1,15.1,66.6,66.6,0,0,0,19.9,3h.1a1.1,1.1,0,0,1,1,1,1.1,1.1,0,0,1-1,1.1Z"/><path class="cls-4" d="M523.8,249.3h-.1a1.1,1.1,0,0,1-1.1-1,1.1,1.1,0,0,1,1.1-1.1h.1a48,48,0,0,0,11.6-1.5l10.1-2.6a1.1,1.1,0,0,1,1.3.8,1,1,0,0,1-.8,1.2l-10.1,2.6A46.8,46.8,0,0,1,523.8,249.3Z"/><path class="cls-4" d="M523.7,281.5h0a1.1,1.1,0,0,1-1.1-1.1,1.1,1.1,0,0,1,1.1-1h0a67.8,67.8,0,0,0,20-3,68.7,68.7,0,0,0,26.1-15.1,1,1,0,0,1,1.4,0,1.1,1.1,0,0,1,0,1.5,73,73,0,0,1-26.9,15.6A71.9,71.9,0,0,1,523.7,281.5Z"/><path class="cls-4" d="M523.7,289.8a69.4,69.4,0,0,1-31.1-7.3,1.1,1.1,0,0,1-.5-1.4,1.1,1.1,0,0,1,1.4-.5,67.1,67.1,0,0,0,30.2,7.1,1.1,1.1,0,0,1,1,1A1.1,1.1,0,0,1,523.7,289.8Z"/><path class="cls-4" d="M479.1,265a.8.8,0,0,1-.7-.2,70.2,70.2,0,0,1-21.3-32,11.2,11.2,0,0,1,2.9-11.5l.2-.2a11.5,11.5,0,0,1,17.7,1.8,56.7,56.7,0,0,0,18.6,17.2,1,1,0,0,1,.3,1.4,1.1,1.1,0,0,1-1.4.4A59.7,59.7,0,0,1,476.2,224a9.5,9.5,0,0,0-7-4.2,9.7,9.7,0,0,0-7.6,2.7v.2a9.2,9.2,0,0,0-2.4,9.5,67.4,67.4,0,0,0,20.6,31,1.1,1.1,0,0,1,.2,1.5A1.1,1.1,0,0,1,479.1,265Z"/><path class="cls-4" d="M453.1,232.9a1,1,0,0,1-.9-.7,15.7,15.7,0,0,1,3.9-15.9l.2-.2a15.9,15.9,0,0,1,24.4,2.5,1,1,0,0,1-.3,1.4,1,1,0,0,1-1.4-.3,14,14,0,0,0-10.2-6.1,13.7,13.7,0,0,0-11,4l-.3.2a13.8,13.8,0,0,0-3.4,13.8,1,1,0,0,1-.7,1.3Z"/><path class="cls-4" d="M468.5,230.9a1.1,1.1,0,0,1-.7-.3,6.6,6.6,0,0,0-4.6-1.9,6.8,6.8,0,0,0-4.6,1.9,1,1,0,1,1-1.4-1.4,8.4,8.4,0,0,1,6-2.5,9.3,9.3,0,0,1,2.4.3,9.3,9.3,0,0,1-.3-2.4,8.4,8.4,0,0,1,2.5-6,1.1,1.1,0,0,1,1.5,0,1,1,0,0,1,0,1.4,6.5,6.5,0,0,0,0,9.2,1,1,0,0,1,0,1.4A1.3,1.3,0,0,1,468.5,230.9Z"/><path class="cls-4" d="M468.5,219.3a9.8,9.8,0,0,0-8.6,3.2,9.5,9.5,0,0,0-2,7.4,7.9,7.9,0,0,1,6.3-2.1,7.6,7.6,0,0,1,4.3,2.1,9.4,9.4,0,0,1-1.7-6.9,9.1,9.1,0,0,1,1.7-3.7"/><path class="cls-4" d="M578.8,219.3a9.7,9.7,0,0,1,8.6,3.2,9.1,9.1,0,0,1,2,7.4,7.9,7.9,0,0,0-6.3-2.1,7.6,7.6,0,0,0-4.3,2.1,8.9,8.9,0,0,0,1.7-6.9,9.1,9.1,0,0,0-1.7-3.7"/><path class="cls-4" d="M451.8,180.3h-.1c-13.8-1.3-15.3-2.6-15.8-3.1a1.7,1.7,0,0,1-.6-1.2c0-1.1,1.1-1.7,1.6-1.9h.1c2.2-.9,7.3-1.8,15.3-2.5,11.5-1.1,28.1-1.8,46.9-2.2h.1c7.9-.2,16.1-.2,24.4-.2a1,1,0,0,1,0,2l-24.4.2h-.1c-18.7.4-35.3,1.2-46.7,2.2-9.5.9-13.2,1.8-14.7,2.4,1.3.5,4.7,1.3,14.1,2.2a1.2,1.2,0,0,1,.9,1.2A1.1,1.1,0,0,1,451.8,180.3Z"/><path class="cls-4" d="M436.3,177a.9.9,0,0,1-.8-.4,1,1,0,0,1,.1-1.4l1.1-.9h0l86.1-73.4a1.1,1.1,0,0,1,1.5.2,1,1,0,0,1-.2,1.4L438,175.8h0l-1,.8A1.1,1.1,0,0,1,436.3,177Z"/><path class="cls-4" d="M469.4,276.2a1.1,1.1,0,0,1-.8-.3,77.4,77.4,0,0,1-21.3-61.3l4.1-42.1a1,1,0,0,1,1.1-.9,1,1,0,0,1,.9,1.1l-4,42.1a74.8,74.8,0,0,0,20.7,59.6,1.1,1.1,0,0,1-.7,1.8Z"/><path class="cls-4" d="M510.3,214.1h-.2a.9.9,0,0,1-.9-1.1,11.7,11.7,0,0,1,4.3-7.2,11.1,11.1,0,0,1,5.2-2.3,1,1,0,0,1,1.2.9.9.9,0,0,1-.9,1.1,10.3,10.3,0,0,0-4.3,1.9,9.9,9.9,0,0,0-3.4,5.9A1.1,1.1,0,0,1,510.3,214.1Z"/><path class="cls-4" d="M479.1,265a.8.8,0,0,1-.7-.2,70.2,70.2,0,0,1-21.3-32,11.2,11.2,0,0,1,2.9-11.5l.2-.2a11.5,11.5,0,0,1,17.7,1.8,56.7,56.7,0,0,0,18.6,17.2,1,1,0,0,1,.3,1.4,1.1,1.1,0,0,1-1.4.4A59.7,59.7,0,0,1,476.2,224a9.5,9.5,0,0,0-7-4.2,9.7,9.7,0,0,0-7.6,2.7v.2a9.2,9.2,0,0,0-2.4,9.5,67.4,67.4,0,0,0,20.6,31,1.1,1.1,0,0,1,.2,1.5A1.1,1.1,0,0,1,479.1,265Z"/><path class="cls-4" d="M476.2,239.9a4.6,4.6,0,0,1-3.6-1.6,1,1,0,0,1,.1-1.5,1,1,0,0,1,1.4.1,2.7,2.7,0,0,0,3.9.3,1.1,1.1,0,1,1,1.4,1.6A4.6,4.6,0,0,1,476.2,239.9Z"/><path class="cls-4" d="M478.3,244.4a.9.9,0,0,1-.8-.4,4.9,4.9,0,0,1,.5-6.8,1.1,1.1,0,1,1,1.4,1.6,2.7,2.7,0,0,0-1,1.9,3.1,3.1,0,0,0,.7,2,1,1,0,0,1-.1,1.4A1.1,1.1,0,0,1,478.3,244.4Z"/><path class="cls-4" d="M472.9,244a.9.9,0,0,1-.7-.4.9.9,0,0,1,.1-1.4,2.8,2.8,0,0,0,.3-3.9,1,1,0,0,1,.1-1.5,1,1,0,0,1,1.4.1,4.6,4.6,0,0,1,1.2,3.5,4.7,4.7,0,0,1-1.7,3.3A.9.9,0,0,1,472.9,244Z"/><path class="cls-4" d="M478.3,244.4a.9.9,0,0,1-.8-.4,2.6,2.6,0,0,0-1.9-.9,2.5,2.5,0,0,0-2,.6,1,1,0,0,1-1.3-1.5,4.4,4.4,0,0,1,3.5-1.2,4.9,4.9,0,0,1,3.3,1.7,1,1,0,0,1-.1,1.4A1.1,1.1,0,0,1,478.3,244.4Z"/><path class="cls-4" d="M526.3,289.1l5.6-.8,2.4.2.3-.7c2.4-.5,4.8-1.4,7.2-2.1a50.8,50.8,0,0,0,5.1-1.7l1.6-.7c.7-.3,2.2-.6-.1,0a16.1,16.1,0,0,0,4-1.7l1.3.8,7.4,5.2,3.8,3-4.1-.3,4.5,3.7a90.7,90.7,0,0,1,8.3,7.9l-3.5-.3A117.2,117.2,0,0,1,581,314.5l-3.1-.3c2.9,3.8,4.9,6.9,6.1,8.7a78.5,78.5,0,0,1-8.7-6l.2,3.1a130.2,130.2,0,0,1-12.8-11l.3,3.6c-1.3-1.3-2.6-2.5-3.9-3.9.9,2.2,1.8,4.3,2.6,6.4l-4-1.8a129.8,129.8,0,0,1,6,19.1l-3.5-1.5a96.6,96.6,0,0,1,2.4,12.3c-1.5-2-4.1-5.6-7-10.4l-1.4,3.6a117.1,117.1,0,0,1-9.2-17.9l-1.6,4.2a100.4,100.4,0,0,1-4.9-12.8c-.4-1.1-.7-2.2-1-3.2h0l-3.2-3.2c.4,2.6.7,5.3,1,8.3a129.4,129.4,0,0,1,.4,16.3l-3.8-3.9a129.9,129.9,0,0,1-2.2,23.9l-3.3-3.3q-.9,5.6-1.8,9.6c-.5,2.1-1,3.8-1.3,5.1V289.1a7.6,7.6,0,0,0,3,0"/><path class="cls-4" d="M524.2,228.3h-1a1,1,0,0,1,.2-2h1.5c2-.2,3.3-1.3,4.7-2.4a9.5,9.5,0,0,1,5.1-2.5,8.2,8.2,0,0,1,3.7.6,1.1,1.1,0,1,1-.9,1.9,4.8,4.8,0,0,0-2.6-.5,8.6,8.6,0,0,0-4,2.1,11,11,0,0,1-5.7,2.8Z"/><path class="cls-4" d="M539.4,229.5a1,1,0,0,1-1-.7,1,1,0,0,1,.7-1.3c.4-.1,3.9-1.2,4.9-4.3s-1.1-7.6-5.1-9.4a1.1,1.1,0,0,1-.5-1.4,1.1,1.1,0,0,1,1.4-.5c5,2.3,7.7,7.6,6.2,12s-5.5,5.3-6.3,5.6Z"/><path class="cls-4" d="M523.4,360.1h-.3a.9.9,0,0,1-.7-1.2c.5-1.8.9-3.4,1.3-5.1s1.3-6.3,1.8-9.6a.9.9,0,0,1,.7-.8,1,1,0,0,1,1,.3l1.9,1.9a144.5,144.5,0,0,0,1.9-21.7,1.1,1.1,0,0,1,.6-1,1.4,1.4,0,0,1,1.1.2l2.1,2.2c.1-4.7-.1-9.3-.4-13.8-.3-2.8-.6-5.6-1-8.2a1,1,0,0,1,.5-1.1,1.1,1.1,0,0,1,1.2.2l2.4,2.4c-.6-3.9-1.5-8.7-2.6-13.6l-.6-2.8a1,1,0,0,1,.8-1.2.9.9,0,0,1,1.2.7l.6,2.8c1.4,6.4,2.5,12.5,3,16.8a1,1,0,0,1-.6,1.1.9.9,0,0,1-1.1-.2l-1.4-1.3h0l-1-.9c.3,1.7.4,3.4.6,5.2a127.9,127.9,0,0,1,.4,16.4,1.1,1.1,0,0,1-.6,1,1.1,1.1,0,0,1-1.1-.3l-2.1-2.1a141.2,141.2,0,0,1-2.2,21.6.8.8,0,0,1-.7.8,1.2,1.2,0,0,1-1-.2l-1.9-1.9-1.5,7.7c-.4,1.7-.9,3.4-1.3,5.1A1.1,1.1,0,0,1,523.4,360.1Z"/><path class="cls-4" d="M562.7,343.8a.9.9,0,0,1-.8-.4,96.9,96.9,0,0,1-6-8.8l-.6,1.7a1,1,0,0,1-.9.6,1,1,0,0,1-1-.4,130.6,130.6,0,0,1-8.3-15.7l-.7,1.8a.9.9,0,0,1-.9.6,1,1,0,0,1-1-.6,106.5,106.5,0,0,1-4.9-12.9,29.9,29.9,0,0,1-1-3.2c0-.1-.1-.2-.1-.3a1.1,1.1,0,0,1,1.1-1,1,1,0,0,1,1,.8l.9,3.1a100.5,100.5,0,0,0,3.9,10.4l.7-1.8a1,1,0,0,1,.9-.7,1.2,1.2,0,0,1,1,.7,118.8,118.8,0,0,0,8.1,15.9l.6-1.7a1.1,1.1,0,0,1,.9-.6,1,1,0,0,1,1,.5c1.4,2.4,2.9,4.7,4.4,6.9-.5-2.6-1-5.3-1.7-8a1.1,1.1,0,0,1,.3-1.1,1.1,1.1,0,0,1,1.1-.1l1.6.7a124.8,124.8,0,0,0-5.5-17,.9.9,0,0,1,.2-1.1,1.1,1.1,0,0,1,1.2-.2l1.7.8c-.5-1.4-1.1-2.7-1.7-4.1s-1.9-4.1-2.9-6l-3.3-6.1a.9.9,0,0,1,.1-1.2,1,1,0,0,1,1.2-.2l1.8.8c-.8-1.4-1.7-2.9-2.8-4.5h0l-4.4-6.6a1,1,0,0,1,1.6-1.2c1.5,2,3.1,4.4,4.5,6.7h.1c1.8,2.8,3.3,5.3,4.4,7.3a1,1,0,0,1-.1,1.2,1.3,1.3,0,0,1-1.2.3l-1.9-.9,1.8,3.4c1,2,2,4,3,6.2s1.8,4.3,2.6,6.4a1.1,1.1,0,0,1-.2,1.2,1.1,1.1,0,0,1-1.1.1l-1.8-.7a111.3,111.3,0,0,1,5.2,17,1,1,0,0,1-.3,1,1.1,1.1,0,0,1-1.1.1l-1.6-.7a99.3,99.3,0,0,1,1.9,10.4.9.9,0,0,1-.6,1.1Z"/><path class="cls-4" d="M584,323.5l-.5-.2c-2.3-1.4-4.6-3-6.9-4.7v.8a.9.9,0,0,1-.5,1,1.1,1.1,0,0,1-1.1,0,137.4,137.4,0,0,1-11-9.2v.8a1.1,1.1,0,0,1-.6,1,.9.9,0,0,1-1.1-.2,48.9,48.9,0,0,1-4-3.9.9.9,0,0,1,.1-1.4,1,1,0,0,1,1.4,0l1.9,2v-.9a1,1,0,0,1,.6-1,.9.9,0,0,1,1.1.2,109,109,0,0,0,10.9,9.5v-.8a1.1,1.1,0,0,1,1.7-.9q2.3,1.8,4.5,3.3-1.5-2.2-3.3-4.5a1.1,1.1,0,0,1,.9-1.7h.8a109,109,0,0,0-9.5-10.9.9.9,0,0,1-.2-1.1,1,1,0,0,1,1-.6h.9c-2.1-2.1-4.2-4-6.4-5.9s-3-2.5-4.5-3.6a1.1,1.1,0,0,1-.3-1.2,1,1,0,0,1,1-.7h.8l-1.2-.9c-2.2-1.7-4.8-3.5-7.3-5.2a1,1,0,0,1-.3-1.4,1,1,0,0,1,1.4-.3l7.4,5.2,4,3.1a1.1,1.1,0,0,1,.3,1.1,1.1,1.1,0,0,1-1.1.7h-.8l1.9,1.6a106.4,106.4,0,0,1,8.4,8.1.9.9,0,0,1,.2,1.1,1.1,1.1,0,0,1-1,.6h-.8a118,118,0,0,1,9.1,11,.9.9,0,0,1,.1,1.1.9.9,0,0,1-1,.5h-.8c1.7,2.3,3.3,4.6,4.7,6.9a1.1,1.1,0,0,1-.1,1.3A1.1,1.1,0,0,1,584,323.5Z"/><path class="cls-4" d="M523.3,289.8a1,1,0,0,1-1-1.1,1,1,0,0,1,1-1,67.1,67.1,0,0,0,30.2-7.1,1.1,1.1,0,1,1,.9,1.9A69.7,69.7,0,0,1,523.3,289.8Z"/><path class="cls-4" d="M567.9,265a1.1,1.1,0,0,1-.8-.3,1.1,1.1,0,0,1,.1-1.5,67.6,67.6,0,0,0,20.7-31,9.6,9.6,0,0,0-2.4-9.5l-.2-.2a9.5,9.5,0,0,0-7.5-2.7,9.6,9.6,0,0,0-7.1,4.2,57.7,57.7,0,0,1-19.2,17.9,1.1,1.1,0,0,1-1.4-.4,1,1,0,0,1,.4-1.4A55.4,55.4,0,0,0,569,222.9a11.7,11.7,0,0,1,8.6-5.1,11.3,11.3,0,0,1,9.2,3.3l.2.2a11.4,11.4,0,0,1,2.8,11.5,70,70,0,0,1-21.2,32A1,1,0,0,1,567.9,265Z"/><path class="cls-4" d="M593.8,232.9h-.3a1.2,1.2,0,0,1-.7-1.3,13.4,13.4,0,0,0-3.4-13.8l-.2-.2a13.7,13.7,0,0,0-21.2,2.1,1.1,1.1,0,0,1-1.5.3,1,1,0,0,1-.2-1.4,15.8,15.8,0,0,1,24.3-2.5l.3.3a15.4,15.4,0,0,1,3.9,15.8A1,1,0,0,1,593.8,232.9Z"/><path class="cls-4" d="M578.4,230.9a1.1,1.1,0,0,1-.7-.3.9.9,0,0,1-.3-.7,1.1,1.1,0,0,1,.3-.7,6.6,6.6,0,0,0,0-9.2,1,1,0,0,1,0-1.4,1.1,1.1,0,0,1,1.5,0,8.3,8.3,0,0,1,2.1,8.4,9.9,9.9,0,0,1,2.4-.3,8.6,8.6,0,0,1,6.1,2.5,1,1,0,0,1,0,1.4,1.1,1.1,0,0,1-1.5,0,6.4,6.4,0,0,0-9.1,0A1.1,1.1,0,0,1,578.4,230.9Z"/><path class="cls-4" d="M595.2,180.3a1,1,0,0,1-1-.9,1,1,0,0,1,.9-1.2c9.4-.9,12.8-1.7,14-2.2-1.4-.6-5.2-1.5-14.6-2.4-11.4-1-28-1.8-46.8-2.2h0l-24.4-.2a1,1,0,0,1,0-2c8.3,0,16.5,0,24.4.2h.1c18.8.4,35.4,1.1,46.8,2.2,8,.7,13.2,1.6,15.4,2.5h.1c.4.2,1.6.8,1.6,1.9a1.7,1.7,0,0,1-.6,1.2c-.5.5-2,1.8-15.8,3.1Z"/><path class="cls-4" d="M610.7,177a.9.9,0,0,1-.7-.3l-1-.8h-.1l-86.1-73.3a1,1,0,0,1-.1-1.4,1,1,0,0,1,1.4-.2l86.1,73.4h.1l1,.9a1,1,0,0,1,.2,1.4A.9.9,0,0,1,610.7,177Z"/><path class="cls-4" d="M536.7,214.1a1.1,1.1,0,0,1-1-.9,9.6,9.6,0,0,0-3.5-5.9,9.8,9.8,0,0,0-4.3-1.9.9.9,0,0,1-.8-1.1,1,1,0,0,1,1.1-.9,11,11,0,0,1,5.3,2.3,11.5,11.5,0,0,1,4.2,7.2.9.9,0,0,1-.8,1.1Z"/><path class="cls-4" d="M567.9,265a1.1,1.1,0,0,1-.8-.3,1.1,1.1,0,0,1,.1-1.5,67.6,67.6,0,0,0,20.7-31,9.6,9.6,0,0,0-2.4-9.5l-.2-.2a9.5,9.5,0,0,0-7.5-2.7,9.6,9.6,0,0,0-7.1,4.2,57.7,57.7,0,0,1-19.2,17.9,1.1,1.1,0,0,1-1.4-.4,1,1,0,0,1,.4-1.4A55.4,55.4,0,0,0,569,222.9a11.7,11.7,0,0,1,8.6-5.1,11.3,11.3,0,0,1,9.2,3.3l.2.2a11.4,11.4,0,0,1,2.8,11.5,70,70,0,0,1-21.2,32A1,1,0,0,1,567.9,265Z"/><path class="cls-4" d="M570.7,239.9a5.1,5.1,0,0,1-3.1-1.1,1,1,0,0,1-.1-1.5,1,1,0,0,1,1.4-.1,3.1,3.1,0,0,0,2,.7,2.6,2.6,0,0,0,1.9-1,1.1,1.1,0,1,1,1.6,1.4,5,5,0,0,1-3.3,1.6Z"/><path class="cls-4" d="M568.7,244.4a.9.9,0,0,1-.7-.3,1,1,0,0,1-.1-1.4,2.8,2.8,0,0,0-.3-3.9,1,1,0,0,1-.1-1.5,1,1,0,0,1,1.4-.1,4.8,4.8,0,0,1,.5,6.8A.9.9,0,0,1,568.7,244.4Z"/><path class="cls-4" d="M574,244a.7.7,0,0,1-.6-.3,4.8,4.8,0,0,1-.6-6.8,1.1,1.1,0,1,1,1.6,1.4,2.7,2.7,0,0,0,.3,3.9,1,1,0,0,1,.1,1.4A.9.9,0,0,1,574,244Z"/><path class="cls-4" d="M568.7,244.4a.9.9,0,0,1-.7-.3,1,1,0,0,1-.1-1.4,4.7,4.7,0,0,1,3.3-1.7,4.6,4.6,0,0,1,3.5,1.2,1,1,0,0,1,.1,1.4.9.9,0,0,1-1.4.1,2.9,2.9,0,0,0-4,.3A.9.9,0,0,1,568.7,244.4Z"/><path class="cls-4" d="M523.5,298.8a76,76,0,0,1-35.6-8.8,77.3,77.3,0,0,1-26.7-23.2,1.1,1.1,0,0,1,.3-1.5,1,1,0,0,1,1.4.3,75.4,75.4,0,0,0,26,22.6,74.5,74.5,0,0,0,88.8-14.9l10.5-14.1a.2.2,0,0,1,.2-.2,75.9,75.9,0,0,0,9.2-44.2l-4.1-42.1a1.2,1.2,0,0,1,1-1.1c.5-.1,1,.4,1.1.9l4,42.1a77.1,77.1,0,0,1-21.3,61.3l-.5.3a81.7,81.7,0,0,1-15.4,12A76.8,76.8,0,0,1,523.5,298.8Z"/><rect class="cls-4" x="474.4" y="239.1" width="2.5" height="2.52"/><rect class="cls-4" x="570.2" y="238.9" width="2" height="3.83"/></svg>