<?xml version="1.0" encoding="UTF-8"?><svg id="Layer_1" xmlns="http://www.w3.org/2000/svg" viewBox="0 0 150.3 111.1"><defs><style>.cls-1{fill:#fda;}.cls-2{fill:#ffe559;}.cls-3{fill:#fff;}.cls-4{fill:#da1e37;}.cls-5{fill:#231f20;}.cls-6{fill:#60cae1;}</style></defs><g><path class="cls-2" d="M75.8,39.5v-7.4l1.2-6.2,3.9-6.1,5.1-3.7,5-1.6s4.7-.5,4.9-.5,4.6,.4,4.6,.4l3.9,1.4,6.7,4.9,2.7,4.5,.9,3.8,.5,6.8v10.1l.5,10.8v3.2s1.3,.1,1.4,.3,3.5,2.2,3.5,2.2l1.2,4.2s-.9,2.4-.9,2.6-1.9,2-1.9,2l-2.6,.7-.7,.6-.2,3.2-.2,3.2-1.8,5.3-2.2,7.1-1,2.3-1.6,.3-2.7,.4,.6-1.9,1.3-5.1v-8.9l-.7-5.9-2.7-3.1-2.9-2.2-4.6-.2-8.1,.2-7.9-.3-5.8-.2-3.1-1.4-1.2-3.5,1-2,1.8-1.7,1.5-.7,1.5-.3,3.3,.7,2.9-.4,3.6-1.4,1.1-1.4,3.1,2.5,4.3,1.6,4.3-.2,3.7-2.3,3.4-3.9,.4-3.3-.8-5.1-2.6-2.1-3.1-2.7h-6.4l-3.8,1.6-2.1,2.1h-.5l-1-1.4-2.2-1-2.6-.9-2.8-.2-3,.6Z"/><path class="cls-1" d="M76.2,66.7h4.8c0-.1,12.8,0,13.2,0s7.4,.3,7.4,.3l2.9,2.2,2.7,3.1,.7,5.2-.2,3.6,.2,7.9-2,4.3-1.9,2-1.3,.7-2.3,.8-3.1,.5h-2.1s-2.4-.1-2.5,0-3.5,0-3.5,0l-2.7-.5-1.8-1.1-1.6-2.4-1-2.6,.3-1.8,1.4-1-.5-5.9-5-.6-3.2-.3s-1.5-1-1.5-1.1-.8-2.4-.8-2.4v-2.3l1.8-1.4,1.4-7Z"/><path class="cls-3" d="M82.7,81.3l7.1-.4,4.7-1.5,3.2-1.2s2.9,0,3,0,1.7,1.5,1.7,1.5c0,0,.5,2.1,.5,2.3s0,2.9,0,3.2-1.1,2-1.1,2c0,0-2,1.2-2.1,1.4s-2.8,.5-3,.5-4.1,0-4.2,0-3.6-.1-3.6-.1c0,0-3.2-.2-3.3-.2s-1.6-1.1-1.6-1.1l-.5-3.8v-2.1l-.8-.6Z"/><path class="cls-3" d="M86.6,96.6l-.5,2.8s0,3.2,.2,3.5,.6,1.7,.6,1.7l2.4,.4,2.1-.7,1.4-2.4,1.2-3.8-.4-.8-7.1-.7Z"/><path class="cls-3" d="M97.8,97.6l1.9,3.3s1.1,2.4,1.5,2.6,1.6,1.4,1.8,1.4,3-.4,3-.4c0,0,2.7-1.4,2.9-1.5s.7-1.8,.7-1.8l.5-4.6v-2.6h-1.8l-3.4,.2-1.4,1.6-2.9,.8-2.7,.9Z"/><circle class="cls-3" cx="79.9" cy="48.3" r="9.2"/><circle class="cls-3" cx="96.2" cy="48.6" r="10"/><g><path class="cls-5" d="M122.5,64.4c-.8-3-3.5-4.8-6.3-4.9,0-.1,0-.2,0-.4,.6-1.3,1.1-2.5,1.7-3.8,.4,1.2,.9,2.4,1.3,3.6,.4,1,1.9,.6,1.6-.4-.7-1.8-1.4-3.7-2-5.5-.2-.6-1.2-.9-1.5-.2l-1.1,2.4c0-7.2,0-14.5,0-21.7,0-7.1-3.7-13.7-9.5-17.5,0-3.9-1.5-7.8-5.9-8.4-1.4-.2-2.9,0-4.2,.5-1.2-.5-2.6-.7-4.2-.4-3.3,.6-5.2,3.7-5.3,6.9-2.3,1-4.4,2.4-6.2,4.2-3.3,3.3-5.3,7.6-5.9,12.1-.3,2.7-.2,5.5-.2,8.2-.9,.5-1.8,1.2-2.5,2.1-4.1,4.7-3,11.6,1.7,15.2-2.1,1-3.5,3.3-3.5,5.7,0,2.9,1.7,5.2,4.8,5.3,0,0,.1,0,.2,0-.3,1.9-.7,3.8-1.1,5.7-1.9,.4-2.2,2.4-2.2,4.2,.1,5.4,6.3,5.1,10.6,4.9,.1,1.6,.3,3.3,.4,4.9-.9,.3-1.6,1.2-1.8,2.1-.3,1.5,.3,3.3,1,4.6,.8,1.4,1.8,2.3,3,2.9,0,1.9,0,3.7,0,5.6,0,2.6,1.7,3.4,4.1,3.4s2,.1,2.8-.4c.8-.6,.9-1.4,1.1-2.2,.4-1.7,.9-3.4,1.3-5.2,.8,0,1.7,0,2.4,0s.3,0,.4,0c.9,1.9,1.7,3.9,2.7,5.8,1.1,2.2,3.6,1.8,5.7,1.7,2.6-.1,4.9-2.5,5-5.1,0-2.2,0-4.4,0-6.6,.4-.4,.8-.9,1.1-1.7,.8-2,1.4-4.2,2-6.2,.6-2,1.4-3.9,1.9-5.9,.6-2.3,.4-4.8,.4-7.1,4-.6,7.4-4.1,6.3-8.3ZM101,9.3c2.9,.6,3.8,3.1,4,5.7-.4-.2-.8-.4-1.1-.6-1-.4-2.1-.8-3.1-1.1-.4-1.7-1.2-3.1-2.4-4.1,.9-.1,1.8-.1,2.6,0Zm-4.5,.6c1.1,.7,1.9,1.8,2.4,3.1-1.5-.2-3-.3-4.4-.2,.2-1.3,1-2.3,2.1-2.9Zm-4.4-.5c.9-.3,1.8-.3,2.6-.2-1.1,.9-1.8,2.1-1.9,3.7-1.4,.2-2.7,.5-4,.9,.2-2,1.3-3.9,3.3-4.5Zm-18.6,33c3.6-4.2,10.1-3.8,13.5,.4-1.9,3.3-2,7.5-.2,10.9-2.4,3.1-6.7,3.9-10.2,2.4,0,0-.1,0-.2-.1,0,0-.1,0-.2,0-4.9-2.7-6.3-9.2-2.6-13.4Zm13.6,6c0-5.1,4.2-9.3,9.3-9.3s9.2,4.2,9.3,9.3c-.1,5.1-4.2,9.3-9.3,9.3s-9.3-4.2-9.3-9.3Zm13.7,38.4c-.2-2.6-.3-5.2-.5-7.8,.7,.2,1.3,.7,1.7,1.5,.6,1.3,.3,3.6-.2,4.8-.3,.6-.6,1.1-1,1.5Zm-2.1-8l.5,9.1c-.7,.3-1.4,.5-2.2,.5-.2,0-.5,0-.7,0l-1-8.6c1.1-.4,2.3-.8,3.4-.9Zm-4.9,1.6c.3,2.7,.6,5.3,.9,8-1.3,0-2.6,0-3.9,0-.2-2.2-.4-4.5-.7-6.7,.8-.2,1.7-.4,2.5-.8,.3-.1,.7-.3,1.1-.5Zm-5.2,1.6l.6,6.4c-.6,0-1.2,0-1.8,0-.4,0-.7,0-1.1,0-.5-.1-.9-.6-1.4-.9-.1-1.8-.3-3.5-.4-5.3,.1,0,.2,0,.3,0,1.3,0,2.5,0,3.8-.2Zm3.6,19.2c-.2,.7-.3,1.6-.6,2.2-.4,.8-1,.7-1.8,.7s-2.5,.2-2.8-1.3c0-.5,0-1.1,0-1.7v-3.7c1.8,.5,3.9,.6,5.9,.6l-.8,3.2Zm2.8-4.9c-2.2,0-4.8,.3-7-.1-2.1-.4-3.9-2-4.6-4-.3-.8-.8-2.4,0-3.1,0,0,.4-.1,.6-.2,.3,.3,.6,.5,1,.7,1.8,.9,4.3,.5,6.2,.5s3.9,0,5.8,0c1.1,0,2.2-.3,3.2-.8,.3-.1,.3-.2,.5-.3,1.6-1.1,2.8-2.8,3.1-4.8,.4-2.8-.3-6-3.6-6.7-2.1-.4-4.2,.3-6.2,1.2,0,0,0,0,0,0-.7,.3-1.3,.6-1.9,.8-2.6,1.1-5.1,1.1-7.9,1.1s-4.6,0-6.9,0c-1.8,0-3.4-1.3-3.4-3.2,0-1-.2-2.6,1.3-2.6s.7-.3,.8-.6c.5-2.2,.9-4.4,1.2-6.6,3.3,0,6.7,0,10,0s7.9,0,11.9,0c3.7,0,6.9,2.5,7.7,6.1,.4,1.9,.2,4.1,.2,6.1,0,4.6,.8,10-2.3,13.6-.3,.3-.3,.3-.5,.5-.5,.4-1,.9-1.6,1.2-2.4,1.4-5,1.2-7.6,1.2Zm13.6,6c-.8,.8-1.9,1.5-3,1.5-.9,0-2.1,.2-3,0-.9-.2-1.1-1.1-1.5-1.9-.6-1.4-1.3-2.7-1.9-4.1,2-.3,3.9-.9,5.5-2.3,.2-.2,.5-.4,.7-.6,1.3,0,2.6,0,3.8-.3v4.6c0,1.1,.1,2.2-.7,3.1Zm6.9-31c-.2,0-.3,0-.4,.1-.2,.1-.4,.3-.4,.7,0,2.2,.3,4.7-.2,6.9-.4,1.8-1.1,3.5-1.7,5.3-.7,2.3-1.4,4.6-2.2,6.9-.4,1.2-1,2.1-2.4,2.2-.4,0-.9,0-1.3,0,1.2-1.8,1.8-3.9,1.9-6.1,0-4.1,.3-8.4,0-12.5-.3-3.5-2.5-6.7-5.8-8.1-1.6-.7-3.3-.8-5.1-.8h-21.5c-.4,0-.7,0-1.1,0-2.2-.1-3.2-1.8-3.1-3.9,0-2,1.6-4.2,3.8-4.4,4.1,1.7,8.8,.9,11.8-2.5,2.5,3.2,6.6,4.8,10.7,4.1,5.2-.9,8.9-5.6,9-10.8,0-4.5-2.8-8.6-7.1-10.3-4.3-1.6-9.4-.3-12.3,3.3h0c-2.9-3.2-7.5-4.4-11.4-3,0-1.7,0-3.3,0-5,0-4.1,1.3-8.1,3.8-11.4,4.4-5.9,11.9-8.7,19-7.3,0,.4,0,.8,0,1.2,0,1.1,1.6,1,1.6,0,0-.3,0-.5,0-.8,.5,.1,1,.3,1.5,.5,.9,.3,1.8,.8,2.6,1.2,0,.1,0,.3,0,.4,0,.9,1,1,1.4,.5,5,3.6,8.1,9.5,8.1,15.8,0,4.3,0,8.6,0,13v9.9c-.9-1.2-1.7-2.4-2.6-3.6-.3-.4-1.1-.6-1.4,0-.9,1.9-1.7,3.8-2.6,5.7-.4,1,1,1.8,1.4,.8,.7-1.5,1.4-3,2.1-4.5,1,1.5,2.1,2.9,3.1,4.4v.4c-.8,.2-1.5,.5-2.3,.9-.9,.6,0,2,.8,1.4,2.9-1.8,6.9-.6,7.8,2.9,.9,3.5-2.3,6.2-5.5,6.4Z"/><path class="cls-5" d="M118,62.5c-2.1-.8-4.1,.8-5.3,2.4-.6,.8,.8,1.7,1.4,.8-.1,.1,.1-.1,.2-.2,.2-.2,.4-.5,.7-.7,.6-.5,1.3-1,2.1-.9,.9,.2,1.4,1,1.3,1.8,0,.3,0,.5-.2,.8,0,.1-.2,.4,0,.2-.4,1,1,1.8,1.4,.8,.9-1.9,.5-4.2-1.6-5.1Z"/><path class="cls-5" d="M93.6,52.4c.8,.6,1.8,1,2.9,1,2.1,0,3.9-1.4,4.4-3.3-.3,0-.5,.1-.8,.1-1.5,0-2.7-1.2-2.7-2.7s.7-2.2,1.8-2.6c-.8-.5-1.7-.8-2.6-.8-2.6,0-4.6,2.1-4.6,4.6l3.4,.3-1.6,3.3Z"/><path class="cls-5" d="M76.4,52.4c.8,.6,1.8,1,2.9,1,2.1,0,3.9-1.4,4.4-3.3-.3,0-.5,.1-.8,.1-1.5,0-2.7-1.2-2.7-2.7s.7-2.2,1.8-2.6c-.8-.5-1.7-.8-2.6-.8-2.6,0-4.6,2.1-4.6,4.6l3.4,.3-1.6,3.3Z"/></g></g><g><path class="cls-6" d="M70.5,85.9l-7.2-6.1v-22.6c0-3.9-3.2-7.1-7.1-7.1H31.5c-3.9,0-7.1,3.2-7.1,7.1v29.8c0,3.9,3.2,7.1,7.1,7.1h24.2c3.9,0,7.1-3.2,7.1-7.1h0l7.7-1.2Z"/><path class="cls-5" d="M71,85.5l-5.7-4.8c-.4-.3-.7-.7-1.2-1-.7-.4,0,0-.1,.1,.2-.1,0-1.7,0-1.9v-17.8c0-2,.2-4-.6-5.9-1.3-3-4.2-4.7-7.4-4.7-5.3,0-10.7,0-16,0h-7.4c-2.7,0-5.2,.7-7,2.9s-1.7,3.9-1.7,6.1v25.6c0,1.5-.1,3.1,.2,4.6,.8,3.6,4,6,7.7,6.1s10.2,0,15.2,0h7.8c2.6,0,5.1-.5,7-2.7s1.9-3.2,1.9-5.1l-.5,.7,7.7-1.2c.9-.1,.5-1.4-.4-1.3l-7.7,1.2c-.3,0-.5,.4-.5,.7,0,3.7-3.1,6.4-6.7,6.4s-3.9,0-5.8,0h-16.6c-2.6,0-5-.4-6.7-2.7-1.2-1.7-1.2-3.6-1.2-5.6v-16.6c0-3.9-.1-7.7,0-11.6,.1-3.7,3.2-6.2,6.8-6.2s4,0,5.9,0h16.7c2.4,0,4.6,.2,6.4,2.1s1.6,4.1,1.6,6.4v19.7c0,.5,0,.9,.2,1.3,.5,.6,1.3,1.1,1.9,1.6l3.5,3,1.8,1.5c.7,.6,1.6-.4,1-1Z"/></g><g><g><rect class="cls-4" x="28.1" y="62.7" width="10.7" height="1.6" transform="translate(-38.2 68.3) rotate(-66)"/><path class="cls-5" d="M32.2,69.2l-2.1-.9,4.6-10.4,2.1,.9-4.6,10.4Zm-1.2-1.3l.9,.4,4.1-9.2-.9-.4-4.1,9.2Z"/></g><g><rect class="cls-4" x="39.6" y="58.7" width="1.6" height="9.8"/><path class="cls-5" d="M41.6,68.8h-2.3v-10.4h2.3v10.4Zm-1.6-.7h1v-9.1h-1v9.1Z"/></g><g><rect class="cls-4" x="39.3" y="75.7" width="1.6" height="9.8"/><path class="cls-5" d="M41.2,85.8h-2.3v-10.4h2.3v10.4Zm-1.6-.7h1v-9.1h-1v9.1Z"/></g><g><polygon class="cls-4" points="48.3 68.8 46.9 68.1 51.1 59.5 46.6 59.5 46.6 62.7 45 62.7 45 57.9 53.7 57.9 48.3 68.8"/><path class="cls-5" d="M48.5,69.2l-2-1,4.1-8.4h-3.6v3.2h-2.3v-5.5h9.6l-5.7,11.7Zm-1.2-1.3l.9,.4,5-10.2h-7.9v4.2h1v-3.2h5.3l-4.3,8.8Z"/></g><g><polygon class="cls-4" points="30 86.5 28.5 85.8 32.7 77.2 28.2 77.2 28.2 80.4 26.6 80.4 26.6 75.6 35.3 75.6 30 86.5"/><path class="cls-5" d="M30.1,87l-2-1,4.1-8.4h-3.6v3.2h-2.3v-5.5h9.6l-5.7,11.7Zm-1.2-1.3l.9,.4,5-10.2h-7.9v4.2h1v-3.2h5.3l-4.3,8.8Z"/></g><g><rect class="cls-4" x="54.7" y="62.5" width="5.6" height="1.6"/><path class="cls-5" d="M60.7,64.5h-6.3v-2.3h6.3v2.3Zm-5.6-.7h5v-1h-5v1Z"/></g><g><rect class="cls-4" x="43.7" y="79.8" width="5.6" height="1.6"/><path class="cls-5" d="M49.6,81.7h-6.3v-2.3h6.3v2.3Zm-5.6-.7h5v-1h-5v1Z"/></g><g><rect class="cls-4" x="50.6" y="81.3" width="6.6" height="1.6" transform="translate(-31.4 33.5) rotate(-27.1)"/><path class="cls-5" d="M51.2,84.7l-1-2,6.5-3.3,1,2-6.5,3.3Zm-.2-1.7l.4,.9,5.3-2.7-.4-.9-5.3,2.7Z"/></g><g><rect class="cls-4" x="35.5" y="78.7" width="1.6" height="3.3"/><path class="cls-5" d="M37.5,82.3h-2.3v-4h2.3v4Zm-1.6-.7h1v-2.7h-1v2.7Z"/></g><g><rect class="cls-4" x="51.3" y="76" width="1.6" height="3.3"/><path class="cls-5" d="M53.2,79.7h-2.3v-4h2.3v4Zm-1.6-.7h1v-2.7h-1v2.7Z"/></g><g><rect class="cls-4" x="59.5" y="75" width="1.6" height="7"/><path class="cls-5" d="M61.5,82.3h-2.3v-7.7h2.3v7.7Zm-1.6-.7h1v-6.4h-1v6.4Z"/></g><g><circle class="cls-4" cx="60.2" cy="83.9" r=".9"/><path class="cls-5" d="M60.2,85.1c-.7,0-1.2-.5-1.2-1.2s.5-1.2,1.2-1.2,1.2,.5,1.2,1.2-.5,1.2-1.2,1.2Zm0-1.8c-.3,0-.6,.3-.6,.6s.3,.6,.6,.6,.6-.3,.6-.6-.3-.6-.6-.6Z"/></g></g></svg>