<?xml version="1.0" encoding="UTF-8"?><svg id="Layer_1" xmlns="http://www.w3.org/2000/svg" xmlns:xlink="http://www.w3.org/1999/xlink" viewBox="0 0 150.3 111.1"><defs><style>.cls-1,.cls-2{fill:none;}.cls-3{clip-path:url(#clippath);}.cls-4{fill:#f8dee0;}.cls-5{fill:#060a10;}.cls-6{fill:#f5b1a1;}.cls-7{fill:#f69ca2;}.cls-8{fill:#edebeb;}.cls-9{fill:#f49aa0;}.cls-10{fill:#fff;}.cls-11{fill:#ed1c24;}.cls-12{fill:#f1f2f2;}.cls-13{fill:#818ea3;}.cls-14{fill:#8b7368;}.cls-15{fill:#8dc63f;}.cls-16{fill:#8bc641;}.cls-17{fill:#bcbec0;}.cls-18{fill:#d8dad9;}.cls-19{fill:#d8d7d7;}.cls-20{fill:#c7c8c8;}.cls-21{fill:#dddcdb;}.cls-22{fill:#d2d4d4;}.cls-23{fill:#d0ebf1;}.cls-24{fill:#d6d8d7;}.cls-25{fill:#d9dbd9;}.cls-26{fill:#e0e0df;}.cls-27{fill:#d3d6d5;}.cls-28{fill:#d3d5d4;}.cls-29{fill:#d5d7d6;}.cls-30{fill:#dfdedd;}.cls-31{fill:#25363d;}.cls-32{fill:#231f20;}.cls-33{fill:#414042;}.cls-34{fill:#0b1722;}.cls-35{fill:#a3a6a6;}.cls-36{fill:#a34342;}.cls-37{fill:#86b13f;}.cls-38{fill:#59a7b2;}.cls-39{fill:#394a51;}.cls-40{fill:#3d4756;}.cls-41{fill:#3c4957;}.cls-42{fill:#6fcae8;}.cls-43{clip-path:url(#clippath-1);}.cls-44{clip-path:url(#clippath-4);}.cls-45{clip-path:url(#clippath-3);}.cls-46{clip-path:url(#clippath-2);}.cls-47{clip-path:url(#clippath-7);}.cls-48{clip-path:url(#clippath-8);}.cls-49{clip-path:url(#clippath-6);}.cls-50{clip-path:url(#clippath-5);}.cls-51{clip-path:url(#clippath-9);}.cls-52{clip-path:url(#clippath-10);}.cls-53{clip-path:url(#clippath-11);}.cls-54{fill:#d67746;}.cls-54,.cls-2{stroke:#231f20;stroke-miterlimit:10;}.cls-55{fill:url(#radial-gradient);opacity:.4;}.cls-56{isolation:isolate;}</style><radialGradient id="radial-gradient" cx="80.3" cy="2.5" fx="73.4" fy="-11.2" r="54.2" gradientTransform="translate(0 1) rotate(0)" gradientUnits="userSpaceOnUse"><stop offset=".4" stop-color="#fff"/><stop offset="1" stop-color="#27aae1" stop-opacity=".6"/></radialGradient><clipPath id="clippath"><path class="cls-1" d="M82.5,76.3h.2c0,0,0,0,0,0,0,0,0,0,0,.2h-.2s0,0,0,0c0,0,0,0,0,0Z"/></clipPath><clipPath id="clippath-1"><path class="cls-1" d="M82.2,75.9h.2c.1-.1,.2-.2,.4-.2h-.2c-.1,0-.3,.1-.4,.2Z"/></clipPath><clipPath id="clippath-2"><path class="cls-1" d="M82.6,75.8h.2c0,0,.2,0,.3,0,0,0,.2,0,.2,.1h-.2s-.1,0-.2,0c0,0-.2,0-.3,0Z"/></clipPath><clipPath id="clippath-3"><path class="cls-1" d="M86.8,77.7h-.2c0,.1-.1,.1-.2,.1s-.1,0-.1,0c0,0,0,0,0-.2h.2s0,0,0,0c0,0,0,0,.1,0s.1,0,.2,0Z"/></clipPath><clipPath id="clippath-4"><path class="cls-1" d="M86.9,78.2h-.2c0,0,.1,0,.1,0h.2c0,0,0,0-.1,0Z"/></clipPath><clipPath id="clippath-5"><path class="cls-1" d="M88,77.2h.2c0,0-.2,0-.2,0h-.2c0,0,.1,0,.2,0Z"/></clipPath><clipPath id="clippath-6"><path class="cls-1" d="M87.9,76.6h.2c.1-.1,.2-.2,.3-.2h-.2c0,0-.2,.1-.3,.2Z"/></clipPath><clipPath id="clippath-7"><path class="cls-1" d="M91.1,77.7h-.2c0,.1-.1,.1-.2,.1s-.1,0-.1,0c0,0,0,0,0-.2h.2s0,0,0,0c0,0,0,0,.1,0s.1,0,.2,0Z"/></clipPath><clipPath id="clippath-8"><path class="cls-1" d="M91.2,78.2h-.2c0,0,.1,0,.1,0h.2c0,0,0,0-.1,0Z"/></clipPath><clipPath id="clippath-9"><path class="cls-1" d="M92.1,77.1h.2c0,0,0,0-.1,0,0,0,0,.2,0,.3s0,.2,0,.3c0,0,.1,.1,.2,.1s0,0,.1,0h-.2c0,.1,0,.1-.1,.1,0,0-.2,0-.2-.1,0,0,0-.2,0-.3s0-.2,0-.3c0,0,0,0,.1,0Z"/></clipPath><clipPath id="clippath-10"><path class="cls-1" d="M91.8,76.6h.2c.1-.1,.3-.2,.4-.2s.4,0,.5,.1c.1,0,.3,.2,.3,.3h-.2c0,0-.2-.2-.3-.2-.1,0-.3-.1-.5-.1s-.3,0-.4,0Z"/></clipPath><clipPath id="clippath-11"><path class="cls-1" d="M92.9,78.2h-.2c0,0,0,0,0,0,.2,0,.3-.2,.4-.3,0-.1,.1-.3,.1-.5s0-.4-.1-.5h.2c0,0,.1,.2,.1,.4s0,.4-.1,.5c0,.1-.2,.2-.4,.3,0,0,0,0,0,0Z"/></clipPath></defs><g><path class="cls-39" d="M46.7,59.8c-.1-.8-.9-1.4-1.7-1.4s-1.5,.7-1.6,1.5c0-.9-1.1-1.7-2-1.5s-1.6,1.2-1.3,2.1c-.4-.8-1.4-1.1-2.2-.7s-1,1.5-.5,2.2c-.8-.7-2.1-.7-2.9,0-.8,.7-.7,2.2,.2,2.7-.8-.4-1.7,.2-2,1s0,1.7,.2,2.4c-.9-.2-1.8,.4-2.1,1.2s.2,1.9,1,2.2c-.9,0-1.5,1-1.2,1.8s1.3,1.3,2.1,1.2c-.5,.3-.8,1-.6,1.6s.8,1,1.5,1c-.6,.3-.8,1.3-.3,1.8s1.4,.5,1.8,0c-.7,.6-1,1.6-.4,2.3s1.9,.4,2-.5l-3.1-4.7-.9-3.1v-3l1.3-3.8,2.2-3.1,2.5-1.6,2.7-1.2,3.6-.4h1.8Z"/><path class="cls-39" d="M47.2,59.6c-.8-2.3-3.7-2.3-4.3,.1h1c-.7-2.8-4.7-2.1-4.3,.8l1-.3c-1.6-2.3-4.8-.5-3.6,2.1l.7-.7c-1.2-.8-2.9-.8-3.8,.4s-.5,2.4,.5,3.2l.5-.9c-2.6-.7-3,2.3-2.4,4.1l.5-.7c-2.7-.2-3.6,3.1-1.4,4.4l.3-1c-1.1,.1-1.9,.9-1.8,2.1s1.5,2,2.7,2l-.4-.9c-1.5,1.3-.7,3.3,1.2,3.5l-.4-.9c-1.9,1.6,.4,4.1,2.3,2.5l-.8-.8c-.9,1-1.4,3,.3,3.5s2.4-.4,2.1-1.6-1.6-2.5-2.3-3.5-.9-1.8-1.3-3.1c-.7-2.3-.2-5.1,.9-7.4s2.4-3.5,4.5-4.7c.7-.4,1.5-.6,2.2-.9,.1,0,.2-.1,.4-.2,.2,0-.3,0,0,0s.7,0,1-.1c1.4-.2,2.8-.3,4.2-.4,.7,0,.7-1.1,0-1.1-3.8,.3-8.2,.7-11,3.7-2.9,3.2-4.1,7.9-2.9,12,.3,1.1,.6,1.8,1.3,2.7l1.5,2.3c.2,.3,.3,.5,.5,.8,.8,1.2-.9-.8-.4-1.3s-.2-1.2-.8-.8l-.8-1c.4-.3,0-.9-.4-.9l-.5-1.7c.4-.3,0-.9-.4-.9-1.1,.1-1.4-.5-.9-1.9,.5,0,.8-.7,.3-1-.9-1.8-.6-2.6,.8-2.4,.3,0,.6-.4,.5-.7-.5-1-.1-2,1.1-2.8,.5,.1,1-.5,.5-.9-.8-.6-.8-1.3,0-2.2,.7-.3,1.4-.2,2,.2,.5,.3,.9-.3,.7-.7l1.8-1c.3,.4,1.1,.3,1-.3l2.2-.5c.1,.5,.9,.5,1,0h2.2c.2,.5,1.2,.2,1-.4Z"/></g><path class="cls-12" d="M103.3,81.8v1.1l-1,1.2s-.9,.5-1.4,.5-2.1,.4-2.1,.4l-2.6-.6-1.4-1.2-1.2,1-3.3,2.4-3.2,1.2-2.8,.7-1.6,.3-.2-1.1,1.1-1.4v-2l-1-1.5-1-.2-1.2,1-3.8,1.2-4.8,.2-3-.5-2.7-1.4-1.5-3.1-1.1-2.8-2-.3-.3-.4-.4,.7v1.6l-.6,1.2-.8,1.2-2,.2-2.9-2.3-2.9-2.9-.7,1.3v4l.7,3.4-1.5-.4-3-4.4-3-.5-1.8,1.1-3.3,.8-2.4-1-1.8-3v-5.5l1.1-3.1,2.1-3,2.4-2,3.7-1.6,2.9-.3,.4-1.5,.8-3.4,2.3-2.6,3.2-.7,1.7,.7,1,1.8,.8-.7,1-.6,10.7,9,2.5-.6,2.5,.2,1.8,1,2.5,4.1,4,1.6,4.6,.9,5-.2,4.1-.3,1.5-.6,5.9,11.6Z"/><polygon class="cls-17" points="78.1 68.8 79.5 72.7 80.6 77.3 81.3 80 84.4 79.8 93.8 79.6 109.2 69.2 110.6 65.1 111.5 60.6 111.4 59.1 107.6 64.5 105.2 67 102.2 67.4 98.8 68.4 97.7 70.1 95.8 70.8 91.8 71.1 89.9 71.3 85.3 71.3 82.8 70.2 79.8 69.3 78.1 68.8"/><path class="cls-7" d="M67.5,52.1l.4-1.1,1-.9,.8-.9h3.2l.9,.3,1.1,.8,2.6,2.4,.5,1.6,1.1-.5,1.4-.2h1.5l1.2,.6s.9,.8,1.1,.9,1,1.5,1.1,1.6,1,2,1,2c0,0,.4,1.1,.4,1.2s.6,2.5,.6,2.5v.8l-.2,.6-1.9,.8-2,1.4h-2.1l-2.6-1.1-3.9-2.3-2.9-2.6-2-2.3-1.4-2.5-1.2-2.5v-.8Z"/><path class="cls-6" d="M57.4,24l-.5,3.1-.2,2.7s.4,3.7,.4,3.8,0,2.3,0,2.3l.8,1.5,.5,4.3,.2,1.4-1.2,.7s-1.1,1.4-1.2,1.5-.3,1.1-.3,1.1l.6,2.9,1.2,2.2,2.9,3.7,2.5,2.5,2.2,.7,.3,.8,1.3,2.3,1.4,1.7,1.8,.5,1.2-.3,2.3,.7,2,1,.8,1.2,1.6,2,1.2,.3h4.9l3-.3,6.7-1.3,4.4-1.6,3.7-1.8,3.6-2.1,3.8-2.5,.4-.9-1.4-7-.6-6.8-.5,.4-.7,1.8-1,2.5s-.5,1.6-.5,1.6-1.3,2.3-1.3,2.3l-1.5,3.2-3.5,4.5-2.6,2.5-2.3,1.4-2.1,.6-1.8,.7-.8,.3-3,.4-3.6-.4-2.6-.7-3.5-1.6-1.8-1.2-2.6-2.3-2.8-3.7-2.4-4.9-1.2-3.9-.6-4.8v-2.7l.9-4.7,1.1-4,.9,1.4,1.2,1.4,1.5,1.5,1.5,1.5,3.8,2.8,3.1,1.8,5.9,3.1,3.5,1.8,4.9,2.1,1.4,.4,1.4,.2h1.1l1.1-.3,.9-.4,1.3-1,1.6-2.3,1.8-2.8,.9-1.7,1.2-2.7,.7-2.1,.3-1.8v-1.7l-.9,1.1-1,.8-.6,.5-.6,1.4-1.2,1.7-2.1,2-2.4,1.7-1.6,.5-1.9,.3-2.3,.3-4.1-.6-1.5-.4-2.3-.6-3.2-1.6-1.7-1-1.3-1.1-1.4-1.3-.8-1.2-.5-1v-.6l-.2-.3v-1.6l.2-.4v-.3l.2-.3v-.2l.2-.2h0v-.2h.3v-.2h.2v-.3l-1.5-2.9-.5-2.9v-2.5l.3-2-1.3-.6-1.8-.3-2.5-.3-1.6-.3-2-.5-1.5,.3-1.5,.3h-.2l.6,.4,1.4,.5-.9,.3-3.1,.6,.3,.9,.6,2.4s0,.3-.1,.3-.3-.3-.3-.3l-1.6-1.8h-.3v2.7l-.3,3-.5-.4-1-2.6Z"/><path class="cls-9" d="M78.9,12.7l3.5-1.1h3.2l2.5,.5,4.4,1.8,3.2,2.4,2.7,3,3.4,3.1,1.6,2.4,2.1,5.2-.5,2.8-.8,2.9-1.6,2.7-2.1,2-2.4,1.7-2.1,.6-2.6,.4h-2.4l-2.3-.4-3.1-.8-3.2-1.3-3.5-2.1-1.4-1.2-.8-.9-.5-.7-.4-.7-.3-.7v-2.8l.3-.4,.2-.4,.2-.3,.2-.2h.3v-.4l-.6-.9s-.2-.2-.1-.2-.5-1.1-.5-1.1l-.4-1-.5-1.2v-1.1l-.2-1,.4-3.4,.5-2.6,2.1-3.5,1.2-1.2Z"/><path class="cls-4" d="M78,19.5s-.8,12.2,17,19.3c0,0,8.4-1.2,9.2-11.3,.1-1.4-.7-2.3-1.6-3.4-2.4-3.2-8.1-10-14.5-11.9s-10.2,7.3-10.2,7.3Z"/><path class="cls-4" d="M95,38.8s-2.9,.9-9.7-5.5c-6.8-6.4,.3-3.3,.3-3.3l9.4,8.8Z"/><path class="cls-14" d="M88.6,27.2l.6-.6,1.2-.3,.9,.2,.7,.4,1.5,1.2s.8,1,.9,1.1,1.1,1.6,1.1,1.7,.5,1.4,.5,1.4v1.8l-.2,1.4-.9,.5-1,.2h-.4v-.7l.5-1.7-.2-1.5-.5-1.4-1-1.6-1.2-.8-1-.5-1.4-.4h-.3l.2-.5Z"/><path class="cls-14" d="M95.5,22.8l.9-.4h1.6l1.1,.3,1.2,1,.6,1,.7,.8,.7,1.2,.6,1.8v2.6s-.5,.4-.6,.5-1.1,.4-1.1,.4h-.7l-.3-.3s.4-.7,.4-.8,0-1.4,0-1.4l-.5-1.7-1.1-2.2-1.2-1.2-1.1-.8-1.2-.4v-.4Z"/><polygon class="cls-5" points="88.4 27.8 88.1 28.8 88.1 29.9 88.6 31.1 89.4 32.8 90.6 34.3 91.7 35.2 93.4 36.1 93.7 35.5 93.9 34.1 93.9 32.4 92.9 30.1 91.3 28.7 89.4 27.7 88.4 27.8"/><polygon class="cls-5" points="95.2 23.1 95 24.2 95.1 25.6 95.7 27.1 96.1 28.2 97.5 30.3 99 31.2 99.5 31.7 100.1 31.7 100.6 30.9 100.5 28.9 99.6 26.6 99 25.5 97.8 24.4 96.7 23.6 95.5 23.3 95.2 23.1"/><polygon class="cls-38" points="78.9 68.6 80.8 70 82.8 70.7 86.8 71.3 90.7 71.1 94.5 71 96.9 70.6 97.7 70.1 98.8 68.4 99.9 68 101 67.6 102.8 67.1 104.7 67.1 105.2 67 107.6 64.5 110.9 59.8 112.7 57.1 112 56.1 108.8 59.3 104.5 62.1 96.2 66.1 89 68 84.2 68.5 78.9 68.6"/><polygon class="cls-39" points="112.7 57.1 111.9 58.4 111.8 59.1 111.5 60.6 111 63.7 111.9 65 112.5 67.1 111.8 68.3 111.1 68.9 109.7 69.6 108.9 69.8 109 71.6 108.6 73.6 108.6 74.7 108 76.6 107.3 78.2 109.2 78.2 111.2 77.6 113.7 76.6 116.5 74 117.6 71.8 118.7 68.1 118.5 65.2 117.8 63.2 115.8 59.8 113.9 57.7 113 56.8 112.7 57.1"/><path class="cls-41" d="M66.7,91.9l-.6,1.2-1,.3h-.8l-.5-.7-.8-1.3h-1.7l-.5,.5-1,.5-1.7,1.7-1,1.7v6.5l1.4,2.1,1.4,2.4,1.9,1.1s3.1,.3,3.3,.2,6.1-4.4,6.1-4.4l3-3,3.2-4.4,.9-2.3,.4-1.7s-2,.4-2.2,.5-5.1,.2-5.1,.2l-3.6-.6-1.3-.5Z"/><polygon class="cls-41" points="88.7 88.5 88.2 89.8 87.6 93.1 86.8 94.7 86.1 94.1 84.9 93.4 83.9 93.7 82.7 93.6 81.6 93.7 80.7 94.1 80.2 94.5 79.5 95.4 79.2 98.5 79.2 99.7 79.9 101.9 81.6 104.3 82.9 105.4 85.2 105.7 86.8 105.3 89.4 103.6 92.1 100.4 93.9 97.8 97.9 90.9 96.5 90.9 91.2 89.5 88.7 88.5"/><polygon class="cls-17" points="58.2 55.1 57.2 55.7 56.5 56.4 55.7 57.6 55.3 58.9 55.3 60.8 55.9 62.5 57.4 65.1 58.5 66.5 63.9 70.5 65.1 68.6 68 64.5 69.5 63.8 67.5 63.1 60.8 57.6 58.2 55.1"/><path class="cls-39" d="M61,58.3l-.6,.9-.9,2.2s-.4,3-.4,3.1-.5,2-.5,2l1.3,1.3,4.1,2.7-.7-2.3,.7-4,1.2-2.3,.4-.5-4.5-3.2Z"/><polygon class="cls-32" points="66.2 34.7 65.7 36.8 65.3 39.3 65.3 42.6 65.4 46.1 66 48.8 66.9 51.7 67.5 52.1 68.4 50.6 69.8 49.1 71.5 49 73.4 49.2 76.6 51.4 77.6 52.7 78.1 54.3 79.6 53.7 81.3 53.5 82.2 53.7 84.5 55.2 85.6 56.8 86.6 58.8 87.3 60.9 87.6 62.5 87.8 63.3 89.3 62.5 92.3 60.5 91.3 53.7 88.9 54.1 66.2 34.7"/><polygon class="cls-14" points="104.5 42 101.4 47 102.3 51.1 91.3 53.7 92.3 60.5 99 54.9 99.8 59.3 102.8 54.9 104.8 50.2 104.5 42"/><polygon class="cls-40" points="57.5 65.7 57 68.9 59.1 71.3 59.9 67.3 57.5 65.7"/><polygon class="cls-40" points="81.3 80 81.3 82 82.6 82.7 95.8 82 95.3 80.7 93.8 79.6 81.3 80"/><polygon class="cls-15" points="64.6 81.1 66.4 83.4 69.9 84.9 74.9 84.9 78.6 84.1 81.6 82.5 83 83.5 83.5 85.4 82.5 87.6 81.3 88.1 76.5 88.7 72.9 88.7 69.5 88.5 66 87.3 64.3 85.8 63.6 83.7 63.9 81.8 64.6 81.1"/><polygon class="cls-15" points="63.7 85.4 63.2 86.8 63.4 88.7 64.3 90.5 65.8 91.5 69.8 92.9 77.3 93.1 80.2 92.1 81.9 90.6 82.7 88.7 82.5 87.6 76.5 88.7 67.5 87.9 63.7 85.4"/><polygon class="cls-15" points="94.8 83.2 96.2 84.4 98.8 85 100.4 84.6 102.3 84.1 103.4 82.3 104.4 81.3 105 82.1 105.5 83.2 105.1 85.1 104.2 86.6 101.6 87.7 98.8 87.8 95.3 87.5 92.9 86.6 91.7 85.7 94.8 83.2"/><polygon class="cls-15" points="88.6 87.4 88.7 88.5 91.1 88.9 94.6 90.4 98.8 90.9 101.1 90.5 102.1 89.3 102.3 87.8 95.9 87.6 91.7 85.7 88.6 87.4"/><path class="cls-15" d="M51.7,76.2s-1.1,1.9-1,2.1,.5,3.2,.5,3.2l.5,2.8s1,1.7,1.1,2,1.6,1.5,1.7,1.6,2.1,.1,2.2,.3,1.6-.4,1.7-.5,1.1-1.3,1.1-1.3l.4-1.3,1-1.4,1.3-1.5,.3-2.4-1.1-1.2-.6,1.3-1.4,1.3-2,.2-2.2-1.6-3.6-3.6Z"/><path class="cls-15" d="M47.7,65.3l-1.3,1.3-1.4,2.2-1.2,3.5-.2,3.2,.2,3.5,1.2,2,1.4,.9,.9-.2v-1.2s-1-2.5-1.1-2.6-.4-3.6-.4-3.6l.9-2.7,1.8-3.5-.8-2.9Z"/><path class="cls-15" d="M47.4,59.8v1.7s-1.4,.3-1.5,.4-2.1,.4-2.2,.6-4.7,2.3-4.7,2.3l-2,2.1-1.8,3.1-.7,4.4v2l-1.1-1.3-.6-5.1,.8-3.5,3.7-4.2,3.3-1.8,2.1-.4,2.6-.2,2-.2Z"/><polygon class="cls-12" points="99.9 68 98 69.6 95.8 73.6 94.1 77.4 93.8 79.6 95.3 80.7 97.7 82.6 99.8 82.7 101.4 82.9 104.4 81.3 108 76.6 108.6 73.6 108.7 70.8 107.9 68.6 106.2 67.3 104.7 67.1 99.9 68"/><polygon class="cls-17" points="105.8 67.2 105.3 67.6 104.6 67.7 103.7 68 102.9 68.2 101.9 68.8 101 70 99.4 72.4 98 75.7 97.5 77.9 97.4 79.4 97.7 81.5 98 82.4 96.9 82.1 95.3 80.7 93.9 78.8 94.6 76.2 96.2 73 97.7 70.1 99.4 67.9 101.7 67.5 104.7 67.1 105.8 67.2"/><path class="cls-55" d="M50.9,19.7l-1,1.8-1.5,4.3-.7,3.6s-.2,1.5,0,1.7,.8,4.5,.9,4.6,2.3,7.6,2.3,7.6l2.5,4.9,2.7,4.6,3.3,3.9,5.9,4.8,3.3,2.6,2.5-.6,2.5,.2,1.8,1.4,1.8,2.1,1.3,2.3,2.8,.8,5.2,1,6.2-.2,3.3-.4,1.5-.6,.7-1.2,1.4-.9,2.3-.6,2.5-.3,1.6-1.2,4.7-6.1,2.4-4.5,1.5-4.8-.3-5.9-1.1-5.3-1.4-3.8-3.6-6.6-4-5.9-5-6-6.4-5.3s-3.6-2-4-2-6.9-2-6.9-2l-4.5-.4-5.2-.4-5.4,.8-5.7,1.1-1.4,.5-5.7,5.5-3.2,4.9Z"/><path class="cls-16" d="M105.3,78.5h0s0,0-.1,0h0s0,0-.2,0c0,0,0,0,0,0h0s-.1,0-.2,0c0,0,0,0,0,0h0s-.1,0-.2,0c0,0,0,0,0,0h0s-.1,0-.2,0h0s0,0,0,0h0s-.1,0-.2,0h0s0,0,0,0h0s-.2,0-.2,0h0s-.2,0-.2,0c0,0,0,0,0,0h0s-.2,0-.2,0c0,0,0,0,0,0h0s-.2,0-.2,0c0,0,0,0,0,0h0s-.2,0-.2,0c0,0,0,0,0,0h0s-.2,0-.3,0c0,0,0,0,0,0h0s-.1,0-.3,0c0,0,0-.1,0-.1h0s-.2,0-.3,0c0,0,0,0,0,0h0s-.2,0-.3,0c0,0,0,0,0,0h0s-.2,0-.3,0h0c0,0-.1,0-.3,0,0,0,0,0,0,0,0,0,0,0,0,0h0c0,0,.2,0,.3,0,0,0,.4,0,.4,0,0,0,0,0,0,0,.2,0,.4,0,.4,0,0,0,0,0,0,0,0,0,.4,0,.4,0,0,0,0,0,0,0,0,0,.3,0,.3,0,0,0,0,0,0,0,.1,0,.4,0,.4,0,0,0,0,0,0,0,.1,0,.4,0,.4,0,0,0,0,0-.1,0,.1,0,.3-.2,.3-.2,0,0,0,0,0,0,.1,0,.3-.1,.3-.1,0,0,0,0,0,0,.1,0,.3-.2,.3-.2,0,0,0,0,0,0,0,0,.3-.2,.3-.2,0,0,0,0,0,0,0,0,.3-.2,.3-.2,0,0,0,0,0,0,0,0,.2-.2,.2-.2,0,0,0,0,0,0,0,0,.2-.2,.2-.2,0,0,0,0,0,0,0,0,.2-.2,.2-.2,0,0,0,0,0,0,0,0,.2-.2,.2-.2,0,0,0,0,0,0,0,0,.2-.2,.2-.2,0,0,0,0,0,0,0,0,.1-.2,.1-.2,0,0,0,0,0,0,0,0,0-.2,0-.2h0s-.1,0-.2,.1h0s0,0-.2,.1h0s0,0,0,0c0,0-.2,0-.2,.2,0,0,0,0,0,0,0,0-.2,.1-.2,.2,0,0,0,0,0,0,0,0-.2,.1-.2,.2h0s0,0,0,0c0,0-.2,.1-.2,.2h0c0,0,0,0,0,0,0,0-.1,0-.2,.1h0s0,0,0,0h0s0,0,0,0c0,0,0,0,0,0h-.2v.2h0s0,0,0,0c0,0-.2,.1-.3,.2,0,0,0-.1,0-.1h0s0,0-.1,.1c0,0-.1,.1-.2,.1,0,0,0,0,0,0,0,0,0,0,0,0,0,0-.2,.2-.3,.3,0,0,0,0,0,0,0,0-.2,.1-.2,.3,0,0,0-.1,0-.1,0,0-.2,.2-.2,.4,0,0,0-.1,0-.1h0c0,0-.3,.2-.3,.3h0c0-.1-.3,0-.3,.2,0,0,0,0,0,0,0,0-.4,.4-.4,.4,0,0,0,0,0,0h0c0,0,0-.1,.1-.2,.2-.1,.3-.4,.3-.4,0,0,0,0,0,0,0,0,.3-.4,.3-.4,0,0-.1,0,0,0,0,0,.4-.4,.4-.4,0,0-.1,0-.1,0,0,0,.4-.4,.4-.4,0,0,0,0-.1,0,0,0,.3-.4,.3-.4,0,0,0,0,0,0,.1,0,.3-.4,.3-.4,0,0,0,0-.1,0,.1-.1,.2-.4,.2-.4,0,0,0,0,0,0,0-.1,.2-.4,.2-.4,0,0,0,0,0,0,0,0,.2-.4,.2-.4,0,0,0,0,0,0,0,0,.2-.4,.2-.4,0,0,0,0-.1,0,0,0,.2-.4,.2-.4,0,0,0,0-.1,0h0c0,0,.2-.4,.2-.4,0,0,0,0,0,0h0c0,0,.2-.4,.2-.4,0,0,0,0,0,0,0-.1,.1-.4,.1-.4,0,0,0,0,0,0,0-.1,.1-.4,.1-.4,0,0,0,0,0,0,0-.1,0-.3,0-.3h0c0-.1,0-.3,0-.3,0,0,0,0-.1,.2,0,0,0,0,0,0h0s-.1,.2-.2,.3c0,0,0,0,0,0h0s-.1,.2-.2,.3c0,0,0,0,0,0h0s-.1,.2-.2,.3c0,0,0-.1,0-.1h0s-.1,.2-.2,.4c0,0,0-.1,0-.1h0s-.2,.3-.2,.4c0,0,0-.1,0-.1h0s-.2,.3-.2,.4c0,0,0-.1,0-.1h0s-.2,.3-.1,.4c0,0,0-.1,0-.1h0s-.2,.3-.1,.4c0,0,0,0,0,0h0s-.2,.3-.1,.4c0,0,0,0,0,0h0s-.2,.3-.1,.4c0,0,0,0,0,0h0s-.2,.4-.1,.5c0,0,0-.1,0-.1h0s-.1,.4,0,.5h0s0,0,0,0c0,0,0,0,0,0h0s-.1,.4,0,.5h0s0,0,0,0c0,0,0,0,0,0h0s-.1,.5,0,.5h0s0,0,0,0c0,0,0,0,0,0,0,0,0,.5,0,.5,0,0,0,0,0,0h0s0,.5,0,.6c0,0,0,0,0,0,0,0,0,.4,0,.5h0s0,0,0,0c0,0,0,0,0,.1h0s0-.6,0-.6c0,0,0,0,0,0,0,0,0-.4,0-.4,0,0,0,0-.1,.1,0,0,0-.4,0-.4,0,0,0,0-.1,0,0-.1,0-.4,0-.4,0,0,0,0,0,0,0-.2,0-.4,0-.4,0,0,0,0,0,0,0-.2,0-.4,0-.4,0,0,0,0,0,0,0-.1,0-.3,0-.3,0,0,0,0,0,0,0-.1,0-.3,0-.3,0,0,0,0,0,0,0-.1,0-.3,0-.3h0s0-.3,0-.3h0s0-.2,0-.2c0,0,0,0,0,0h0c0,0,0-.3,0-.3,0,0,0,0,0,0,0,0,0-.3,0-.3,0,0,0,0,0,0,0,0,0-.3,0-.3,0,0,0,0,0,0h0c0-.1,0-.2,0-.2h0c0,0,0-.2,0-.2h0s0,0,0,.1c0,0,0,0,0,0,0,0,0,.1,0,.2,0,0,0,0,0,0,0,0,0,.2,0,.3,0,0,0,0,0,0,0,0,0,.2,0,.3,0,0,0,0,0,0,0,0,0,.2,0,.3,0,0,0,0,0,0,0,0,0,.3,0,.3h0c0,0,0-.1,0-.1,0,0,0,.3,0,.3h0s0,0,0,0c0,0,0,.3,0,.3,0,0,0,0,0,0,0,0,0-.1,0-.1,0,0,0,.4,.1,.4h0c0,0-.1,0-.1,0,0,0,0,.3,0,.4,0,0,0,0,0,0,0,0,0,.2,0,.3,0,0,0,0,0,0,0,0,0,.3,.1,.3,0,0-.1,0-.1,0,0,0,.1,.3,.2,.3,0,0-.1,0-.1,0,0,0,.1,.3,.2,.3,0,0,0,0,0,0,0,0,0,.3,.2,.3,0,0,0,0,0,0,0,0,.1,.3,.2,.3h0s.1,.3,.2,.3h0c0,0,.1,.3,.2,.3,0,0,0,.1,.1,.2h0s0,0,0,0c0,0-.1,0-.1,0h0c0,0-.1-.2-.1-.2,0,0,0,0,0,0,0,0-.1-.2-.1-.2,0,0,0,0,0,0,0,0-.1-.2-.1-.2,0,0,0,0,0,0,0,0-.1-.2-.1-.2,0,0,0,0,0,0,0,0-.1-.2-.1-.2,0,0,0,0,0,0,0,0-.2-.2-.2-.2,0,0,0,0,0,0,0,0-.2-.1-.2-.1,0,0,0,0,0,0,0,0-.2-.1-.2-.1,0,0,0,0,0,0,0,0-.2-.1-.2-.1,0,0,0,0,0,0h0c0,0-.2-.1-.2-.1,0,0,0,0,0,0h0c0,0-.2-.1-.2-.1,0,0,0,0,0,0h0c0,0-.1-.1-.1-.1,0,0,0,0,0,0,0,0-.1-.1-.1-.1,0,0,0,0,0,0,0,0-.1-.1-.1-.1,0,0,0,0,0,0,0,0-.1,0-.1,0h0s-.1,0-.1,0h0s0,0,0,.1c0,0,0,0,0,0,0,0,0,0,0,.1,0,0,0,0,0,0,0,0,0,0,.1,.1,0,0,0,0,0,0,0,0,0,0,.1,.1,0,0,0,0,0,0,0,0,0,.1,.1,.1,0,0,0,0,0,0,0,0,0,.1,.2,.1h0s0,.1,.2,.1c0,0,0,0,0,0,0,0,.1,.1,.2,.1,0,0,0,0,0,0,0,0,.1,.1,.2,.1,0,0,0,0,0,0,0,0,.1,.1,.2,.1h0s.1,.1,.2,.1c0,0,0,0,0,0,0,0,.1,.1,.2,0h0s.2,.1,.2,0c0,0,0,0,0,0,0,0,.2,.1,.2,0h0s.2,.1,.2,0c0,0,0,0,0,0,0,0,.2,.1,.2,0h0s.2,.1,.2,0h0s.2,0,.2,0c0,0,0,0,.1,0h0s0,0,0,0h0s0,0,0,0h0s0,0,0,0h0s-.2,0-.2,0h0s-.2,0-.2,0h0s-.2,0-.2,0c0,0,0,0,0,0h0s-.2,0-.2,0c0,0,0,0,0,0h0s-.2,0-.2,0c0,0,0,0,0,0h0s-.2,0-.2,0c0,0,0,0,0,0h0s-.2,0-.2,0c0,0,0,0,0,0h0s-.2,0-.2,0c0,0,0,0,0,0h0s-.2,0-.2,0c0,0,0,0,0,0h0s-.2,0-.2,0c0,0,0,0,0,0h0s-.2,0-.2,0c0,0,0,0,0,0h0s-.2,0-.2,0c0,0,0,0,0,0,0,0-.1,0-.1,0,0,0,0,0,0,0,0,0-.1,0-.1,0,0,0,0,0,0,0,0,0-.1,0-.1,0h0s-.1,0-.1,0h0s0,0,0,0h0s0,0,0,0h0s0,0,.1,0h0s0,0,.1,0c0,0,0,0,0,0,0,0,0,0,.1,0,0,0,0,0,0,0,0,0,.1,0,.1,0h0s0,0,0,0c0,0,.1,0,.1,0h0s0,0,0,0c0,0,.1,0,.2,0h0s0,0,0,0c0,0,.1,0,.2,0h0s0,0,0,0c0,0,.2,0,.2,0h0s0,0,0,0c0,0,.2,0,.2,0h0s0,0,0,0c0,0,.2,0,.2,0h0s0,0,0,0c0,0,.2,0,.1,0h0s0,0,0,0c0,0,.2,0,.1,0h0s0,0,0,0c0,0,.2,0,.1-.1h0s0,0,0,0c0,0,.2,0,.2-.1h0s.1,0,.2,0h0s.1,0,.1-.1h0s0,0,0,0h0s0,0,0,0h0c0,.2-.2,.5-.5,1-.4,.7-.1,.7,0,.7h0s0-.5,.6-1.7h0s0,0,0,0h0s0,0,0,0c0,0,0,.1,0,.1,0,0,0,.2,0,.2h0s0,.2,0,.2h0s0,.2,0,.2c0,0,0,0,0,0h0s0,.2,0,.2c0,0,0,0,0,0h0c0,0,0,.2,0,.2,0,0,0,0,0,0h0c0,0,0,.2,0,.2,0,0,0,0,0,0h0c0,0,0,.2,0,.2,0,0,0,0,0,0h0s0,.2,0,.2c0,0,0,0,0,0h0s0,.2,0,.2c0,0,0,0,0,0h0s0,.1,0,.1c0,0,0,0,0,0h0s0,.1,0,.1c0,0,0,0,0,0h0s0,.1,0,.1c0,0,0,0,0,0h0s0,.1,0,.1c0,0,0,0,0,0,0,0,0,.1,0,.1,0,0,0,0,0,0,0,0,0,0,0,0,0,0,0,0,0,0,0,0,0,0,0,0h0s0,0,0,0c0,0,0,0,0,0,0,0,0,0,0,0h0s0,0,0,0h0s0,0,0,0c0,0,0,0,0,0,0,0,0,0,0-.1,0,0,0,0,0,0,0,0,0,0,0-.1,0,0,0,0,0,0,0,0,0-.1-.1-.1h0s0,0,0,0c0,0,0-.1-.1-.1h0s0,0,0,0c0,0,0-.1-.1-.1h0s0,0,0,0c0,0,0-.1-.1-.1h0s0,0,0,0c0,0,0-.1-.1-.1h0s0,0,0,0c0,0,0-.1-.1-.1h0s0,0,0,0c0,0,0-.1-.1-.1h0s0,0,0,0c0,0,0-.1-.1-.1h0s0,0,0,0c0,0,0-.1-.1-.1h0s0,0,0,0c0,0,0-.1-.1-.1h0s0-.1-.1-.1h0s0-.1-.1-.1h0s0,0,0,0h0c0,0,.2,.2,.2,.2h0c0,0,.2,.1,.2,.1,0,0,0,0,0,0,0,0,.2,.1,.2,.1h0s.2,0,.2,0c0,0,0,0,0,0,0,0,.2,.1,.2,.1,0,0,0,0,0,0,0,0,.2,0,.2,0,0,0,0,0,0,0,0,0,.2,0,.2,0,0,0,0,0,0,0,0,0,.2,0,.2,0h0s.2,0,.2,0c0,0,0,0,0,0,0,0,.2,0,.2,0,0,0,0,0,0,0,0,0,.2,0,.2,0h0s.2,0,.2,0h0c0,0,.2,0,.2,0,0,0,0,0,0,0,0,0,.2,0,.2,0,0,0,0,0,0,0,0,0,.2,0,.2,0,0,0,0,0,0,0,0,0,.2,0,.2,0,0,0,0,0,0,0,0,0,.2,0,.2,0,0,0,0,0,0,0,0,0,0,0,.1,0h0Zm-2.4-4.3h0Zm-.2,.4h0Zm-1,1.1h0Zm-.9,1.3h0Zm-.9,1.5h0Zm3,1.1h0Z"/><g><polygon class="cls-8" points="84.3 78.1 84.3 78.2 84.3 78.2 84.4 78.3 84.4 78.3 84.4 78.3 84.6 78.3 84.6 78.4 84.7 78.4 84.8 78.4 84.9 78.3 85 78.3 85.1 78.3 85.1 78.3 85.1 78.3 85.2 78.2 85.2 78.2 85.2 78.2 85.2 78.1 85.2 78.1 85.2 77.5 85.2 76.3 85.2 76.1 85.2 76.1 85.2 76.1 85.1 76.2 85.1 76.2 85.1 76.2 85 76.2 85 76.2 84.9 76.2 84.9 76.2 84.8 76.2 84.8 76.2 84.7 76.2 84.6 76.2 84.5 76.2 84.4 76.2 84.4 76.2 84.3 76.1 84.3 76.1 84.3 77.2 84.3 78.1"/><ellipse class="cls-18" cx="84.7" cy="76.1" rx=".2" ry=".5" transform="translate(8.6 160.7) rotate(-89.9)"/><polygon class="cls-20" points="85.2 76 84.8 76 85 75.9 85 75.9 84.8 76 84.7 75.9 84.7 75.9 84.8 76 84.5 75.9 84.4 75.9 84.7 76 84.3 76 84.3 76.1 84.7 76.1 84.4 76.2 84.4 76.2 84.8 76.1 84.7 76.2 84.7 76.2 84.8 76.1 85 76.2 85 76.2 84.8 76.1 85.2 76.1 85.2 76"/><path class="cls-29" d="M85.2,76c0-.1-.2-.2-.5-.2s-.4,0-.5,.2h0v2.1c0,.1,.2,.2,.5,.2s.5,0,.5-.2v-2.1h0Zm-.5-.2c.2,0,.4,0,.4,.2s-.2,.2-.4,.2-.4,0-.4-.2,.2-.2,.4-.2Zm.4,2.3c0,.1-.2,.2-.4,.2s-.4,0-.4-.2v-2.1c0,0,.2,.1,.4,.1s.4,0,.4-.1v2.1Z"/><path class="cls-16" d="M85,77.3h0s0,0,0,0h0s0,0,0,0h0s0,0,0,0h0s0,0,0,0h0s0,0,0,0h0s0,0,0,0h0s0,0,0,0h0s0,0,0,0h0s0,0,0,0h0s0,0,0,0h0s0,0,0,0h0s0,0,0,0h0s0,0,0,0h0s0,0,0,0h0s0,0,0,0h0s0,0,0,0c0,0,0,0,0,0,0,0,0,0,0,0h0s0,0,0,0h0s0,0,0,0h0s0,0,0,0h0s0,0,0,0h0s0,0,0,0h0s0,0,0,0h0s0,0,0,0h0s0,0,0,0h0s0,0,0,0h0s0,0,0,0h0s0,0,0,0h0s0,0,0,0h0s0,0,0,0h0s0,0,0,0h0s0,0,0,0h0s0,0,0,0h0s0,0,0,0h0s0,0,0,0h0s0,0,0,0h0s0,0,0,0h0s0,0,0,0h0s0,0,0,0c0,0,0,0,0,0,0,0,0,0,0,0h0s0,0,0,0h0s0,0,0,0h0s0,0,0,0h0s0,0,0,0h0s0,0,0,0h0s0,0,0,0h0s0,0,0,0h0s0,0,0,0h0s0,0,0,0h0s0,0,0,0h0s0,0,0,0h0s0,0,0,0h0s0,0,0,0h0s0,0,0,0h0s0,0,0,0h0s0,0,0,0h0s0,0,0,0h0s0,0,0,0h0s0,0,0,0h0s0,0,0,0h0s0,0,0,0h0s0,0,0,0h0s0,0,0,0h0s0,0,0,0h0s0,0,0,0h0s0,0,0,0h0s0,0,0,0h0s0,0,0,0h0s0,0,0,0h0s0,0,0,0h0s0,0,0,0h0s0,0,0,0h0s0,0,0,0h0s0,0,0,0h0s0,0,0,0h0s0,0,0,0h0s0,0,0,0h0s0,0,0,0h0s0,0,0,0h0s0,0,0,0h0s0,0,0,0h0s0,0,0,0h0s0,0,0,0h0s0,0,0,0h0s0,0,0,0h0s0,0,0,0h0s0,0,0,0h0s0,0,0,0h0s0,0,0,0h0s0,0,0,0h0s0,0,0,0h0s0,0,0,0h0s0,0,0,0h0s0,0,0,0h0s0,0,0,0h0s0,0,0,0c0,0,0,0,0,0,0,0,0,0,0,0h0s0,0,0,0h0s0,0,0,0h0s0,0,0,0h0s0,0,0,0h0s0,0,0,0h0s0,0,0,0h0s0,0,0,0h0s0,0,0,0h0s0,0,0,0h0s0,0,0,0h0s0,0,0,0h0s0,0,0,0h0s0,0,0,0h0s0,0,0,0h0s0,0,0,0h0s0,0,0,0h0s0,0,0,0h0s0,0,0,0h0s0,0,0,0h0s0,0,0,0h0s0,0,0,0h0s0,0,0,0h0s0,0,0,0h0s0,0,0,0h0s0,0,0,0h0s0,0,0,0h0s0,0,0,0h0s0,0,0,0h0c0,0,0,0,0,0h0s0,0,0,0h0s0,0,0,0h0s0,0,0,0h0s0,0,0,0c0,0,0,0,0,0h0s0,0,0-.1h0c0,0,0,0,0,0h0s0,0,0,0h0s0,0,0,0h0c0,0,0,0,0,0h0s0,0,0,0h0s0,0,0,0h0s0,0,0,0h0s0,0,0,0h0s0,0,0,0h0s0,0,0,0h0s0,0,0,0h0s0,0,0,0h0s0,0,0,0h0s0,0,0,0h0s0,0,0,0h0s0,0,0,0h0s0,0,0,0h0Zm-.4-.2h0Zm0,0h0Zm0,0h0Zm0,.1h0Zm0,.1h0Zm.3,0h0Z"/><g><g class="cls-56"><polygon class="cls-29" points="81.5 76.6 81.7 76.5 82 76.5 81.8 76.6 81.5 76.6"/><polygon class="cls-18" points="82.4 77.2 82.6 77.1 82.6 79.1 82.4 79.1 82.4 77.2"/><polygon class="cls-18" points="82.4 76.5 82.6 76.5 82.6 76.6 82.4 76.6 82.4 76.5"/><g class="cls-56"><g class="cls-3"><g class="cls-56"><path class="cls-22" d="M82.5,76.3h.2c0,0,0,0,0,0,0,0,0,0,0,0h-.2c0,0,0,0,0,0,0,0,0,0,0,0"/><path class="cls-28" d="M82.5,76.4h.2c0,0,0,0,0,0h-.2c0,0,0,0,0,0"/><path class="cls-29" d="M82.4,76.4h0"/><path class="cls-24" d="M82.4,76.5h0"/><path class="cls-19" d="M82.4,76.5h.2c0,0,0,0,0,0h-.2c0,0,0,0,0,0"/><path class="cls-18" d="M82.4,76.5h.2c0,0,0,0,0,0h-.2c0,0,0,0,0,0"/></g></g></g><polygon class="cls-21" points="82.9 76.6 83.1 76.6 83.2 77.1 83 77.2 82.9 76.6"/><polygon class="cls-29" points="82.4 76.6 82.6 76.6 83.1 76.6 82.9 76.6 82.4 76.6"/><g class="cls-56"><g class="cls-43"><g class="cls-56"><path class="cls-22" d="M82.2,75.9h.2c0,0,0-.1,0-.1h-.2c0,0,0,.1,0,.1"/><path class="cls-28" d="M82.3,75.8h.2c0-.1,0-.1,.2-.1h-.2c0,0-.1,.1-.2,.1"/><path class="cls-29" d="M82.4,75.8h.2c0,0,0,0,.1-.1h-.2c0,0,0,0-.1,.1"/><path class="cls-24" d="M82.5,75.8h.2c0,0,0,0,0,0h-.2c0,0,0,0,0,0"/></g></g></g><polygon class="cls-27" points="83.1 75.9 83.3 75.8 83.1 76.3 82.9 76.4 83.1 75.9"/><g class="cls-56"><g class="cls-46"><g class="cls-56"><path class="cls-24" d="M82.6,75.8h.2c0,0,0,0,0,0h-.2c0,0,0,0,0,0"/><path class="cls-19" d="M82.6,75.8h.2c0,0,0,0,0,0h-.2c0,0,0,0,0,0"/><path class="cls-18" d="M82.7,75.8h.2c0,0,0,0,.1,0h-.2c0,0,0,0-.1,0"/><path class="cls-25" d="M82.8,75.8h.2c0,0,0,0,.1,0h-.2c0,0,0,0-.1,0h0"/><path class="cls-30" d="M83,75.9h.2c0,0,0,0,0,0h-.2c0,0,0,0,0,0"/><path class="cls-26" d="M83,75.9h0"/></g></g></g><path class="cls-8" d="M82.6,75.8c0,0,.2,0,.3,0,0,0,.2,0,.2,.1l-.2,.4c0,0-.2,0-.3,0s-.1,0-.1,0c0,0,0,0,0,.2h.5v.6h-.5v2h-.7v-2h-.3v-.5h.3v-.2c0-.1,0-.3,.1-.4,0-.1,.2-.2,.3-.2,.1,0,.3,0,.4,0Z"/></g><g class="cls-56"><polygon class="cls-8" points="83.9 76.6 83.9 78.3 83.2 78.3 83.2 76.6 83.9 76.6"/><polygon class="cls-18" points="83.9 76.6 84.1 76.5 84.1 78.2 83.9 78.3 83.9 76.6"/><polygon class="cls-29" points="83.2 76.6 83.5 76.5 84.1 76.5 83.9 76.6 83.2 76.6"/></g><g class="cls-56"><polygon class="cls-29" points="85.3 76.6 85.5 76.6 85.8 76.6 85.6 76.6 85.3 76.6"/><polygon class="cls-18" points="86.2 77.2 86.4 77.1 86.4 77.5 86.2 77.6 86.2 77.2"/><g class="cls-56"><g class="cls-45"><g class="cls-56"><path class="cls-18" d="M86.2,77.6h0"/><path class="cls-25" d="M86.2,77.6h.2c0,0,0,0,0,0h-.2c0,0,0,0,0,0"/><path class="cls-30" d="M86.2,77.7h.2c0,0,0,0,0,0h-.2c0,0,0,0,0,0"/><path class="cls-26" d="M86.2,77.7h.2c0,0,0,0,0,0,0,0,0,0,0,0h-.2c0,0,0,0,0,0,0,0,0,0,0,0"/><path class="cls-30" d="M86.3,77.8h.2c0,0,0,0,0,0h-.2c0,0,0,0,0,0"/><path class="cls-25" d="M86.3,77.8h0"/><path class="cls-18" d="M86.4,77.8h0"/><path class="cls-19" d="M86.4,77.8h0"/><path class="cls-24" d="M86.4,77.8h.2c0,0,0,0,0,0h-.2c0,0,0,0,0,0h0"/><path class="cls-29" d="M86.4,77.8h.2c0,0,0,0,0,0h-.2c0,0,0,0,0,0"/><path class="cls-28" d="M86.5,77.8h.2c0,0,0,0,0-.1h-.2c0,0,0,.1,0,.1"/><path class="cls-22" d="M86.6,77.8h0"/></g></g></g><polygon class="cls-26" points="86.7 77.8 86.9 77.7 87.1 78.1 86.9 78.2 86.7 77.8"/><g class="cls-56"><g class="cls-44"><g class="cls-56"><path class="cls-22" d="M86.9,78.2h.2c0,0,0,0-.1,0h-.2c0,0,.1,0,.1,0"/></g></g></g><polygon class="cls-27" points="85.6 76.2 85.8 76.1 86.4 76 86.2 76.1 85.6 76.2"/><polygon class="cls-18" points="86.2 76.1 86.4 76 86.4 76.6 86.2 76.6 86.2 76.1"/><polygon class="cls-21" points="86.7 76.6 86.9 76.6 87 77.1 86.7 77.2 86.7 76.6"/><polygon class="cls-29" points="86.2 76.6 86.4 76.6 86.9 76.6 86.7 76.6 86.2 76.6"/><path class="cls-8" d="M86.2,76.1v.6h.5v.5h-.5v.4c0,0,0,.1,0,.2,0,0,0,0,.1,0s.2,0,.3,0l.2,.4s-.1,0-.2,.1c0,0-.2,0-.3,0-.1,0-.3,0-.4,0-.1,0-.2-.1-.3-.2,0-.1-.1-.2-.1-.4v-.5h-.3v-.5h.3v-.5h.7Z"/></g><g class="cls-56"><polygon class="cls-29" points="87.1 76.6 87.4 76.5 87.7 76.5 87.5 76.6 87.1 76.6"/><polygon class="cls-18" points="87.8 77.3 88 77.2 88 78.2 87.8 78.3 87.8 77.3"/><polygon class="cls-26" points="87.5 76.6 87.7 76.5 87.8 76.7 87.6 76.8 87.5 76.6"/><g class="cls-56"><g class="cls-50"><g class="cls-56"><path class="cls-22" d="M88,77.2h.2c0,0-.2,0-.2,0h-.2c0,0,.1,0,.2,0"/></g></g></g><path class="cls-8" d="M88.2,76.6v.5s0,0-.1,0c-.1,0-.2,0-.3,.1v1h-.7v-1.7h.3l.2,.2c0,0,.2-.1,.3-.2s.2,0,.3,0Z"/><polygon class="cls-30" points="88.2 76.6 88.4 76.5 88.6 77 88.3 77.1 88.2 76.6"/><g class="cls-56"><g class="cls-49"><g class="cls-56"><path class="cls-22" d="M87.9,76.6h.2c0,0,0-.1,0-.1h-.2c0,0,0,.1,0,.1"/><path class="cls-28" d="M88,76.6h.2c0-.1,0-.1,.1-.1h-.2c0,0,0,.1-.1,.1"/><path class="cls-29" d="M88.1,76.6h.2c0,0,0,0,0,0h-.2c0,0,0,0,0,0"/><path class="cls-24" d="M88.2,76.6h.2c0,0,0,0,0,0h-.2c0,0,0,0,0,0"/></g></g></g></g><g class="cls-56"><polygon class="cls-8" points="89.3 76.6 89.3 78.3 88.6 78.3 88.6 76.6 89.3 76.6"/><polygon class="cls-18" points="89.3 76.6 89.5 76.5 89.5 78.2 89.3 78.3 89.3 76.6"/><polygon class="cls-29" points="88.6 76.6 88.8 76.5 89.5 76.5 89.3 76.6 88.6 76.6"/></g><g class="cls-56"><polygon class="cls-29" points="89.6 76.6 89.8 76.6 90.1 76.6 89.8 76.6 89.6 76.6"/><polygon class="cls-18" points="90.5 77.2 90.7 77.1 90.7 77.5 90.5 77.6 90.5 77.2"/><g class="cls-56"><g class="cls-47"><g class="cls-56"><path class="cls-18" d="M90.5,77.6h0"/><path class="cls-25" d="M90.5,77.6h.2c0,0,0,0,0,0h-.2c0,0,0,0,0,0"/><path class="cls-30" d="M90.5,77.7h.2c0,0,0,0,0,0h-.2c0,0,0,0,0,0"/><path class="cls-26" d="M90.5,77.7h.2c0,0,0,0,0,0,0,0,0,0,0,0h-.2c0,0,0,0,0,0,0,0,0,0,0,0"/><path class="cls-30" d="M90.6,77.8h.2c0,0,0,0,0,0h-.2c0,0,0,0,0,0"/><path class="cls-25" d="M90.6,77.8h0"/><path class="cls-18" d="M90.6,77.8h0"/><path class="cls-19" d="M90.7,77.8h0"/><path class="cls-24" d="M90.7,77.8h.2c0,0,0,0,0,0h-.2c0,0,0,0,0,0h0"/><path class="cls-29" d="M90.7,77.8h.2c0,0,0,0,0,0h-.2c0,0,0,0,0,0"/><path class="cls-28" d="M90.8,77.8h.2c0,0,0,0,0-.1h-.2c0,0,0,.1,0,.1"/><path class="cls-22" d="M90.9,77.8h0"/></g></g></g><polygon class="cls-26" points="91 77.8 91.2 77.7 91.4 78.1 91.1 78.2 91 77.8"/><g class="cls-56"><g class="cls-48"><g class="cls-56"><path class="cls-22" d="M91.1,78.2h.2c0,0,0,0-.1,0h-.2c0,0,.1,0,.1,0"/></g></g></g><polygon class="cls-27" points="89.8 76.2 90.1 76.1 90.7 76 90.5 76.1 89.8 76.2"/><polygon class="cls-18" points="90.5 76.1 90.7 76 90.7 76.6 90.5 76.6 90.5 76.1"/><polygon class="cls-21" points="91 76.6 91.2 76.6 91.2 77.1 91 77.2 91 76.6"/><polygon class="cls-29" points="90.5 76.6 90.7 76.6 91.2 76.6 91 76.6 90.5 76.6"/><path class="cls-8" d="M90.5,76.1v.6h.5v.5h-.5v.4c0,0,0,.1,0,.2,0,0,0,0,.1,0s.2,0,.3,0l.2,.4s-.1,0-.2,.1c0,0-.2,0-.3,0-.1,0-.3,0-.4,0-.1,0-.2-.1-.3-.2,0-.1-.1-.2-.1-.4v-.5h-.3v-.5h.3v-.5h.7Z"/></g><g class="cls-56"><g class="cls-56"><g class="cls-51"><g class="cls-56"><path class="cls-22" d="M92.1,77.1h.2c0,0,0,0-.1,0,0,0,0,0,0,0h-.2c0,0,0,0,0,0,0,0,0,0,.1,0"/><path class="cls-28" d="M92,77.2h.2c0,0,0,0,0,0h-.2c0,0,0,0,0,0"/><path class="cls-29" d="M92,77.2h.2c0,0,0,0,0,0h-.2c0,0,0,0,0,0"/><path class="cls-24" d="M91.9,77.3h.2c0,0,0,0,0,0h-.2c0,0,0,0,0,0"/><path class="cls-19" d="M91.9,77.3h.2c0,0,0,0,0,0h-.2c0,0,0,0,0,0"/><path class="cls-18" d="M91.9,77.4h.2c0,0,0,0,0,0s0,0,0,0h-.2c0,0,0,0,0,0s0,0,0,0"/><path class="cls-25" d="M91.9,77.5h.2c0,0,0,0,0,0h-.2c0,0,0,0,0,0"/><path class="cls-30" d="M91.9,77.6h.2c0,0,0,0,0,0h-.2c0,0,0,0,0,0"/><path class="cls-26" d="M92,77.6h.2c0,0,0,0,0,0,0,0,0,0,0,0h-.2c0,0,0,0,0,0,0,0,0,0,0,0"/><path class="cls-30" d="M92.1,77.8h.2c0,0,0,0,0,0h-.2c0,0,0,0,0,0"/><path class="cls-25" d="M92.1,77.8h.2c0,0,0,0,0,0h-.2c0,0,0,0,0,0"/><path class="cls-18" d="M92.1,77.8h.2c0,0,0,0,0,0h-.2c0,0,0,0,0,0"/><path class="cls-19" d="M92.2,77.8h.2c0,0,0,0,0,0h-.2c0,0,0,0,0,0"/><path class="cls-24" d="M92.2,77.8h.3c0,0,0,0,0,0h-.2c0,0,0,0,0,0h0"/><path class="cls-29" d="M92.2,77.8h.2c0,0,0,0,0,0h-.2c0,0,0,0,0,0"/><path class="cls-28" d="M92.3,77.8h.2c0,0,0,0,0,0h-.2c0,0,0,0,0,0"/><path class="cls-22" d="M92.4,77.8h0"/></g></g></g><g class="cls-56"><g class="cls-52"><g class="cls-56"><path class="cls-22" d="M91.8,76.6h.2c0,0,0-.1,0-.1h-.2c0,0,0,.1,0,.1"/><path class="cls-28" d="M91.9,76.6h.2c0-.1,.1-.1,.2-.1h-.2c0,0-.1,.1-.2,.1"/><path class="cls-29" d="M92,76.5h.2c0,0,.1-.1,.2-.1h-.2c0,0-.1,0-.2,.1"/><path class="cls-24" d="M92.2,76.5h.2c0,0,0,0,0,0,0,0,0,0,.1,0h-.2c0,0,0,0-.1,0s0,0,0,0"/><path class="cls-19" d="M92.4,76.5h.2c0,0,0,0,.1,0h-.2c0,0,0,0-.1,0"/><path class="cls-18" d="M92.5,76.5h.2c0,0,0,0,.1,0h-.2c0,0,0,0-.1,0"/><path class="cls-25" d="M92.6,76.6h.2c0,0,0,0,.1,0h-.2c0,0,0,0-.1,0"/><path class="cls-30" d="M92.8,76.6h.2c0,0,0,0,.1,0h-.2c0,0,0,0-.1,0"/><path class="cls-26" d="M92.9,76.7h.2c0,0,.2,0,.2,.2h-.2c0,0-.1,0-.2-.2"/></g></g></g><path class="cls-8" d="M93.1,76.9c0,.1,.1,.3,.1,.5s0,.4-.1,.5c0,.1-.2,.2-.4,.3-.2,0-.3,.1-.5,.1-.3,0-.5,0-.7-.2-.2-.2-.3-.4-.3-.7s0-.4,.1-.5c0-.1,.2-.2,.4-.3,.2,0,.3-.1,.5-.1s.4,0,.5,.1c.1,0,.3,.2,.3,.3Zm-.6,.8c0,0,0-.2,0-.3s0-.2,0-.3c0,0-.1-.1-.2-.1s-.2,0-.2,.1c0,0,0,.2,0,.3s0,.2,0,.3c0,0,.1,.1,.2,.1s.2,0,.2,0"/><g class="cls-56"><g class="cls-53"><g class="cls-56"><path class="cls-26" d="M93.1,76.9h.2s0,0,0,0h-.2s0,0,0,0"/><path class="cls-30" d="M93.2,77.1h.2s0,0,0,0h-.2s0,0,0,0"/><path class="cls-25" d="M93.2,77.2h.2s0,0,0,0h-.2s0,0,0,0"/><path class="cls-18" d="M93.2,77.4h.2c0,0,0,0,0,0s0,0,0,0h-.2c0,0,0,0,0,0,0,0,0,0,0,0"/><path class="cls-19" d="M93.2,77.5h.2s0,0,0,0h-.2s0,0,0,0"/><path class="cls-24" d="M93.2,77.6h.2c0,0,0,0,0,0h-.2c0,0,0,0,0,0"/><path class="cls-29" d="M93.2,77.7h.2c0,0,0,0,0,0h-.2c0,0,0,0,0,0"/><path class="cls-28" d="M93.2,77.8h.2s0,0,0,0h-.2c0,0,0,0,0,0"/><path class="cls-22" d="M93.1,78h.2c0,0-.2,.2-.4,.2,0,0,0,0,0,0h-.2c0,0,0,0,0,0,.2,0,.3-.2,.4-.3h0"/></g></g></g></g></g></g><path class="cls-11" d="M81.8,74.7h.6c.5,0,.9-.4,.9-.9s-.4-.9-.9-.9h-.6c-.5,0-.9,.4-.9,.9s.4,.9,.9,.9h0Z"/><path class="cls-33" d="M85.2,74.7c2.1,0,4.1,0,6.2,0,1.1,0,1.1-1.8,0-1.8-2.1,0-4.1,0-6.2,0s-1.1,1.8,0,1.8h0Z"/><path class="cls-10" d="M66.2,34.7l22.7,19.4,13.4-3-.9-4.1-1.2,1.5-2,1s-2.5,.2-2.6,.3-2.3-.5-2.3-.5l-5.3-2.3-7-3.5-7.3-4.4-5.8-5.8-.9-1.4-.8,2.9Z"/><polygon class="cls-10" points="83.6 66.1 92.7 60.2 99 54.9 99.8 59.3 97 62.5 94.8 64 92.3 65.4 89.9 66 87.4 66.4 85.4 66.4 83.6 66.1"/><path class="cls-13" d="M71.5,97.4c-1.7,2.9-4.2,5.5-7.1,7.3,1,.5,1.8,.4,2.9,0,1.1-.4,2-1,2.9-1.7,.4-.3,.9-.7,1.3-1.1,.6-.6,1-1.3,1.5-2,.6-.9,.9-1.8,1.3-2.8"/><path class="cls-13" d="M91.6,95.7l-1.8,2.5c-1.1,1.5-2.2,3.1-3.9,4,.9,0,1.7-.4,2.5-.7,.3-.1,.6-.3,.9-.5,.3-.2,.5-.4,.8-.6,1.2-1.1,1.3-1,2.3-2.2,.2-.2,1.3-2.1,1.3-2.3"/><path class="cls-31" d="M111.2,63.5c1,1.2,1.9,2.8,1.1,4.4-.7,1.4-2.1,1.7-3.5,1.9s-.4,1.1,.3,1c1.9-.3,3.7-.9,4.4-2.9s-.3-3.7-1.5-5.2-1.2,.2-.8,.8h0Z"/><path class="cls-31" d="M112.9,57.6c-.3,.4-.7,.8-.9,1.2s0,.8,0,1.3-.1,1.2-.4,1.8-.3,.5-.2,.8,.4,.4,.7,.4h0c.3,0,.4-.4,.4-.7h0c-.1-.7-1.1-.4-1,.2h0l.4-.6h0l.7,.4c0,.3,0,.3,.1,0s.1-.3,.2-.4c.2-.4,.3-.8,.3-1.3s0-.7,0-1.1c0-.6,.3-.9,.7-1.3s-.3-1.3-.8-.8h0Z"/><path class="cls-31" d="M113.3,58.3c-.3,1.6-1,3-1.9,4.3s.5,1.1,.9,.5c1-1.4,1.7-2.9,2-4.5s-.9-1-1-.3h0Z"/><path class="cls-31" d="M112.6,58.7l-.4,1.2c0,.3,.1,.6,.4,.7s.6,0,.7-.4l.4-1.2c0-.3-.1-.6-.4-.7s-.6,0-.7,.4h0Z"/><path class="cls-35" d="M106.4,66.7c.2,.4,.6,.6,.8,.9s.5,.8,.7,1.2c.2,.6,1.3,.4,1-.3s-.4-.9-.7-1.3-.3-.4-.5-.6-.4-.3-.5-.5c-.3-.6-1.2,0-.9,.5h0Z"/><path class="cls-17" d="M83.6,83.9c1.9-.1,3.7,.3,5.6,.1,1.8-.1,3.5-.4,5.3-.7,.7-.1,.4-1.1-.3-1-1.9,.3-3.8,.7-5.7,.7s-3.2-.3-4.9-.2c-.7,0-.7,1.1,0,1.1h0Z"/><path class="cls-17" d="M87.3,83.5c1.1,0,2.2,0,3.3,0s.7-1.1,0-1.1c-1.1,0-2.2,0-3.3,0s-.7,1.1,0,1.1h0Z"/><path class="cls-17" d="M83.6,84.3c.3,.4,.4,.9,.2,1.4s-.5,.7-.7,1.1-.2,1.4,0,1.8,.6,.3,.8,.1h0c.2-.2,.2-.6,0-.8h0c-.5-.5-1.2,.2-.8,.7h0v-.7h.8c-.4-.5,.6-1.3,.8-2s0-1.6-.3-2.3-1.3,0-.9,.5h0Z"/><path class="cls-17" d="M82.5,88.2l.2,.4c.1,.3,.5,.3,.7,.2s.3-.5,.2-.7l-.2-.4c-.1-.3-.5-.3-.7-.2s-.3,.5-.2,.7h0Z"/><path class="cls-37" d="M50.9,78.2c.7,4.3,3.2,8.7,8.2,8.1,.7,0,.7-1.2,0-1.1-4.5,.6-6.5-3.4-7.1-7.3-.1-.7-1.1-.4-1,.3h0Z"/><path class="cls-37" d="M64.2,82.6c1.9,2.8,5.1,3.6,8.3,3.8,3.7,.2,7.4-.2,10.3-2.7s-.2-1.2-.8-.8c-2.5,2.1-5.7,2.5-8.9,2.4-3-.1-6.3-.5-8.1-3.3s-1.3,0-.9,.5h0Z"/><path class="cls-37" d="M63.4,86.9c1.7,2.3,4.6,2.7,7.3,3,3.9,.4,7.8,.2,11.6-.7s.4-1.2-.3-1c-3,.7-6.2,1-9.3,.8s-6.6-.3-8.4-2.7-1.3,0-.9,.5h0Z"/><path class="cls-37" d="M91.2,87c3,2.2,6.7,1.8,10.2,1.8l-.5-.5c-.3,2.5-9.9-.4-11.2-1.2l-.4,1c.9,.2,1.8,.2,2.4-.5s.1-1-.4-.9-.9,.2-1.3,.6,0,.9,.4,.9c1.6-.1,3,.3,4.4,.9v-1c-.9,0-1.8,0-2.8-.2s-1,.9-.3,1,1.8,.5,2.7,.8v-1c-.7,0-1.4-.1-2.2-.3-.7-.1-.9,.8-.3,1,1.9,.8,4,.9,6,1.2v-1c-.4,0-.8,0-1.3-.1v1c.7,0,4.9,.9,4.7-1.1-.2-1.7-4.8-1.3-5.9-1.3s-.7,.9-.1,1c1.4,.4,2.9,.6,4.4,.6v-1c-1.5,.3-2.7,.3-4,0s-1,.9-.3,1c1.5,.3,3,.3,4.5,0s.5-1.1-.1-1c-1.4,0-2.7-.2-4.1-.6v1c1.4,0,2.9,0,4.4,.4s-.7,0-1.1,0c-.8,0-1.6,0-2.4-.1s-.7,.9-.1,1,1.1,.2,1.7,.2,.8-.9,.1-1c-2-.3-4.1-.4-6-1.2l-.3,1c.9,.2,1.7,.3,2.7,.4s.7-.8,.1-1c-.9-.3-1.8-.6-2.7-.8l-.3,1c1.1,.2,2.1,.3,3.2,.3s.7-.8,.1-1c-1.5-.6-3-1-4.7-.9l.4,.9,.6-.3-.4-.9c-.4,.4-.9,.5-1.4,.3-.6-.1-.9,.6-.4,1,2.3,1.4,5.5,1.8,8.2,2.2s4.3,.5,4.6-1.9c0-.3-.3-.5-.5-.5-3.3,0-6.9,.4-9.6-1.7s-1.1,.5-.5,.9h0Z"/><path class="cls-37" d="M94.2,84.5c2.8,2.7,9.2,2.4,10.6-1.8,.2-.7-.8-.9-1-.3-1.1,3.4-6.6,3.4-8.8,1.3s-1.3,.3-.8,.8h0Z"/><path class="cls-17" d="M96,83.5c.4,.3,.7,.5,1.2,.7,.6,.3,1.1-.5,.5-.9s-1-.6-1.5-.8c-.5-.2-1.1,.4-.6,.8,.8,.8,2.2,.8,3.3,.9v-1c-.4,0-1.4-.3-1.7,.3s0,.9,.5,1.1c.7,.3,1.8,0,2.5-.1s2.2-.4,2.9-1.1-.3-1.3-.8-.8-2,.8-2.8,.9-1.2,0-1.3,.1v.6c.2,0,.5,0,.8,0,.6,0,.7-1,.1-1-.7-.1-2.3,0-2.8-.7l-.6,.8c.5,.2,1,.5,1.5,.8l.5-.9c-.4-.2-.8-.4-1.2-.7-.6-.4-1.1,.5-.5,.9h0Z"/><path class="cls-17" d="M60.3,69h-.3c.6,.2,1.2,.8,1.7,1.2l1.8,1.4,.4-1c-.6-.2-1-.7-1.5-1.1s-1.2-.7-1.8-1.2l-.6,.8c1.1,.8,2.1,1.6,2.9,2.7s1.3,0,.9-.5c-.9-1.2-2.1-2.2-3.3-3.1s-1.1,.4-.6,.8c.6,.6,1.4,.9,2,1.4s1,.9,1.7,1.1,.9-.6,.4-1l-2.3-1.7c-.5-.4-1.2-1.2-1.8-.9-.6,.2-.4,1.3,.3,1h0Z"/><path class="cls-17" d="M59.9,69.2c-.2,.8-.8,2.1-.4,3s1,.9,1.1,1.7,0,1.3,.3,2,1.2,.4,1-.3c-.3-1,0-2-.6-2.9s-.7-.6-.8-.9c-.2-.5,.3-1.7,.4-2.2s-.9-1-1-.3h0Z"/><path class="cls-17" d="M62.8,71.8c-.2,1.4-.8,3.1-.2,4.4l.7-.7c-.5,0-.9-.2-1.3-.4-.6-.3-1.1,.6-.5,.9s1,.4,1.5,.5,.8-.2,.7-.7c-.5-1.2,0-2.7,.2-3.9s-.9-1-1-.3h0Z"/><path class="cls-17" d="M61.1,74.3h-.2c.1,0,.2,.1,.3,.2s.2,.3,.4,.5c.3,.3,.6,.5,.9,.7,.6,.4,1.1-.5,.5-.9s-.7-.6-1-1-.6-.7-1.1-.6-.4,1.2,.3,1h0Z"/><path class="cls-17" d="M61.3,73.3h-.5c.1,.1,.4,.4,.5,.5,.2,.2,.4,.4,.6,.6s.3,.3,.5,.5,.4,.4,.4,.4c0,.7,1.1,.7,1.1,0s-1-1.4-1.5-1.9-1.1-1.4-1.9-.9,.2,1.2,.8,.8h0Z"/><path class="cls-17" d="M59.8,72.2c1.1,1,2.5,1.7,3.3,3s1.3,0,.9-.5c-.9-1.4-2.3-2.2-3.5-3.2-.5-.5-1.3,.3-.8,.8h0Z"/><path class="cls-17" d="M55.7,55.4c-1.8,.6-1.8,3.7-1.8,5.3s.8,4,2.6,5.2l-.2-.7c-.4,.8-.6,1.6-.6,2.5s1.1,.7,1.1,0c0-.7,.1-1.4,.5-1.9,.1-.3,0-.6-.2-.7-1.4-.9-2-2.4-2.1-4s0-4.2,1-4.5c.7-.2,.4-1.2-.3-1h0Z"/><path class="cls-17" d="M47.8,69.9c.5,1.1,.9,2.3,1.5,3.3s1.3,1.8,2,2.6,1.2-.2,.8-.8c-.7-.9-1.5-1.7-2-2.8s-.9-2-1.3-2.9-1.2,0-.9,.5h0Z"/><path class="cls-17" d="M50.5,75.3c-2.1,2.8-.8,5.9,.3,8.9s1.3,.4,1-.3c-1-2.7-2.3-5.5-.4-8.1s-.5-1.1-.9-.5h0Z"/><path class="cls-17" d="M46,62.7c.1,.8,.3,1.6,.6,2.4s1.2,.4,1-.3-.5-1.6-.6-2.4-1.1-.4-1,.3h0Z"/><path class="cls-17" d="M46.6,64.7c-2.1,1.7-3.3,4.1-3.8,6.8s-.9,6.1,.3,8.3,1.2,0,.9-.5c-.6-1.1-.5-2.9-.4-4.2s.1-2.7,.4-4c.5-2.2,1.6-4.2,3.4-5.7,.5-.4-.2-1.2-.8-.8h0Z"/><path class="cls-37" d="M47.1,60.8c-3.6-.6-7.5,1.5-10,4s-4.1,6.7-3.8,10.7c0,.7,1.1,.7,1.1,0-.2-3.5,.8-6.9,3.2-9.5,2.2-2.4,5.9-4.7,9.3-4.2s1-.9,.3-1h0Z"/><path class="cls-35" d="M57.5,56.3c.9,.7,1.4,1.9,2.5,2.3l-.2-.7h0c-.4,.7,.5,1.2,.9,.6h0c.1-.3,0-.7-.2-.8-1-.4-1.5-1.5-2.3-2.2s-1.3,.3-.8,.8h0Z"/><path class="cls-35" d="M65.4,62.9c.9,.5,1.7,1.1,2.5,1.7l.3-1h-.2c-.7,0-.7,1.1,0,1.1h.2c.6,0,.7-.7,.3-1-.8-.6-1.6-1.2-2.5-1.7-.6-.3-1.1,.6-.5,.9h0Z"/><path class="cls-31" d="M61.2,59.4c.7,0,.7-1.1,0-1.1s-.7,1.1,0,1.1h0Z"/><path class="cls-31" d="M60.7,59.5l3.8,2.9c.5,.4,1.1-.5,.5-.9l-3.8-2.9c-.5-.4-1.1,.5-.5,.9h0Z"/><path class="cls-35" d="M78.9,70.6c5.6,2.3,11.7,2.6,17.5,1.1,.7-.2,.4-1.2-.3-1-5.7,1.5-11.5,1.1-17-1.1-.6-.3-.9,.8-.3,1h0Z"/><path class="cls-35" d="M110.7,60.7c-1.2,2.2-2.8,4.1-4.8,5.6-.5,.4,0,1.3,.5,.9,2.2-1.6,3.9-3.6,5.2-5.9,.3-.6-.6-1.1-.9-.5h0Z"/><path class="cls-32" d="M111.4,59.5c-.3-.1,0,.1-.2,.4s-.1,.7-.2,1c-.2,1-.4,2-.7,2.9-.6,2.1-1.2,4.2-2.1,6.2s.6,1.2,.9,.5c1.1-2.5,1.9-5.2,2.6-7.9s1.2-3.6,.2-4.1-1.2,.6-.5,.9h0Z"/><path class="cls-32" d="M110.6,63.8c.5,.9,1.2,1.7,1.3,2.8,0,1.7-1.6,2.4-3,2.7s-.4,1.2,.3,1c1.6-.3,3.2-1.1,3.7-2.8s-.6-3-1.3-4.3-1.3,0-.9,.5h0Z"/><path class="cls-32" d="M112.6,57.1c3.6,3.5,6.6,7.7,5.2,12.9-1.2,4.8-5.6,7.9-10.5,7.8-.7,0-.7,1.1,0,1.1,5.1,0,9.8-3.1,11.3-8.1,1.8-5.8-1.3-10.6-5.3-14.5s-1.2,.3-.8,.8h0Z"/><path class="cls-32" d="M104.6,35.8c1.1-1,2.3-1.9,3.1-3.1l-.7-.2c-.4,4.7-2.4,8.9-4.9,12.8-1.3,2-2.9,3.9-5.4,4s-4.8-1-7-2.1c-4.1-1.9-8.2-4.1-12.2-6.2-2-1.1-3.8-2.5-5.5-4.1s-3.7-3.5-4.8-5.7-.8,0-.6,.4l.3,.6c.2,.4,.8,0,.6-.4l-.3-.6-.6,.4c1.1,2.3,3.1,4.1,4.9,5.8,1.9,1.8,3.9,3.3,6.2,4.5,4.7,2.5,9.5,5.3,14.6,7.2,1.9,.7,4.1,1.2,6.2,.5,1.8-.6,3-2.1,4-3.6,2.7-4.1,4.9-8.7,5.3-13.6,0-.4-.5-.5-.7-.2-.8,1.2-1.9,2.1-3,3s.2,.8,.5,.5h0Z"/><path class="cls-32" d="M64.9,18c3.4,.3,6.7,1.1,10.1,1.6s1-.9,.3-1c-3.5-.5-6.9-1.3-10.3-1.6-.7,0-.7,1,0,1.1h0Z"/><path class="cls-32" d="M56.9,23.2c-1.1,6.6-.5,13.5,1.4,19.9,.2,.7,1.2,.4,1-.3-1.8-6.2-2.5-12.9-1.4-19.3s-.9-1-1-.3h0Z"/><path class="cls-32" d="M67,55.2c.1,.6,.3,1.2,0,1.8-.1,.7-.7,1.2-1.3,1.5-.3,.1-.7,.2-1,.2-.2,0-.3,0-.5,0-.2,0-.4,0-.5-.2-.6-.3-1.1-.7-1.6-1.1-.5-.4-.9-.8-1.3-1.3-.4-.4-.9-.9-1.3-1.3-.8-.9-1.6-1.9-2.3-2.9-.7-1-1.3-2.1-1.7-3.4-.2-.6-.3-1.3-.2-2,0-.7,.2-1.4,.5-2,.3-.6,.9-1.1,1.4-1.4,.3-.2,.6-.3,.9-.4,.2,0,.3,0,.5,0,.2,0,.3,0,.5,0,.1,0,.3,0,.5,0,.2,0,.4,0,.5,.2,.3,.2,.5,.4,.7,.7,.2,.3,.2,.6,.3,.9,0,.3,0,.6,.1,.9-.1-.3-.2-.6-.3-.8-.1-.3-.2-.5-.4-.8-.2-.2-.4-.4-.6-.5-.2,0-.4,0-.7,0-.2,0-.3,0-.4,0-.1,0-.3,0-.4,.1-.2,.1-.5,.2-.7,.4-.4,.3-.8,.7-1,1.2-.2,.5-.3,1-.3,1.5,0,.5,.1,1.1,.3,1.6,.4,1,.9,2,1.6,3,.6,1,1.3,1.9,2.1,2.8,.4,.5,.8,.9,1.2,1.3,.4,.4,.8,.9,1.2,1.3,.4,.4,.8,.8,1.3,1.1,.1,0,.2,.1,.3,.2,0,0,.2,0,.3,0,.3,0,.5,0,.8,0,.5-.1,1-.4,1.2-.9,.2-.5,.3-1.1,.3-1.7Z"/><path class="cls-32" d="M64.5,58.8c.8,1.5,1.9,2.8,3,4.1s1.6,1.6,2.9,1.3,.4-1.2-.3-1c-1.1,.3-1.8-.9-2.3-1.6-.9-1-1.6-2.1-2.3-3.3s-1.3,0-.9,.5h0Z"/><path class="cls-38" d="M110.6,58.6c1.7-1.3,2.3-3.1,1.3-5.1s-1.9-3.1-3.5-3.1-.7,1.1,0,1.1c1,0,2,1.6,2.4,2.3,.9,1.6,.4,3-1,4.1-.5,.4,.2,1.2,.8,.8h0Z"/><path class="cls-32" d="M110.7,58.5c1.8-2.7,.4-5.5-1.9-7.2s-.9,.2-.8,.6l1.4,6.4c0,.2,.2,.3,.4,.4h.3v-.9c-9.4,6.9-20.1,11.1-31.8,10.2-.7,0-.7,1,0,1.1,11.9,.9,22.9-3.3,32.2-10.3,.3-.2,.4-.9-.1-1s.1,.6,0,.1,0-.4-.1-.6l-.5-2.3-.7-3.4-.8,.6c1.9,1.4,3,3.6,1.5,5.7-.4,.6,.5,1.1,.9,.5h0Z"/><path class="cls-36" d="M78,19.5c0,1.8,.4,3.6,1,5.2,.7,1.6,1.7,3.1,2.8,4.5,1.1,1.4,2.3,2.8,3.6,4,1.3,1.2,2.6,2.7,4.2,3.6-.8-.4-1-.6-1.7-1.1-.8-.5-2-1.7-2.6-2.3-1.4-1.2-2.6-2.6-3.7-4-1.1-1.4-2.2-2.9-2.8-4.6-.3-.9-.5-1.7-.7-2.6-.1-.9-.2-1.8-.1-2.7Z"/><path class="cls-36" d="M91.7,38c.4,.2,.8,.4,1.3,.5,.4,0,.9,.2,1.3,.2,.4,0,.9,0,1.3,0,.2,0,.4-.1,.6-.2,.2,0,.4-.1,.6-.2,.4-.1,.7-.4,1.1-.7,.2-.2,.3-.3,.5-.5,.1-.2,.2-.4,.3-.6,0,0,.1-.2,.2-.3,0,0,0-.2,0-.3,0-.2,0-.4,0-.6-.1-.4-.3-.8-.5-1.2,.3,.4,.5,.8,.7,1.2,0,.2,.1,.5,.1,.7,0,.1,0,.2,0,.4,0,0,0,.1,0,.2v.2c-.2,.2-.3,.4-.4,.6-.1,.2-.3,.4-.5,.5-.3,.3-.7,.6-1.2,.8-.5,.2-.9,.2-1.3,.3-.5,0-.9,0-1.4,0-.9-.1-1.8-.4-2.6-.9Z"/><path class="cls-36" d="M77.2,30.1c-.4,0-.8,.4-1,.8-.2,.4-.3,.8-.4,1.2,0,.4-.1,.8,0,1.3,0,.4,0,.8,.2,1.2,.6,1.6,1.9,2.8,3.2,3.8,1.3,1,2.8,1.9,4.4,2.5,1.6,.7,3.2,1.1,4.8,1.5,1.6,.4,3.3,.6,5,.6,1.7,0,3.3-.5,4.7-1.2,2.9-1.5,5.2-4.2,6.1-7.3l1,.3c-1,3.4-3.6,6.3-6.7,7.8-1.6,.8-3.3,1.2-5.1,1.2-1.7,0-3.5-.3-5.1-.7-1.7-.4-3.3-1-4.9-1.7-1.6-.7-3-1.6-4.4-2.7-.7-.5-1.3-1.1-1.8-1.8-.6-.7-1-1.4-1.3-2.2-.2-.4-.2-.8-.2-1.3,0-.4,0-.9,.1-1.3,0-.4,.2-.8,.4-1.2,.2-.4,.5-.7,1-.7Z"/><path class="cls-36" d="M77.5,15c-1.2,2-2,4.2-2.3,6.5-.3,2.3,0,4.7,1.1,6.7,.5,1,1.2,2,2,2.9,.7,.9,1.5,1.8,2.3,2.7,1.6,1.7,3.6,3.2,5.8,4-2.3-.8-4.3-2.2-6-3.8-.9-.8-1.7-1.7-2.4-2.6-.8-.9-1.5-1.9-2.1-2.9-.6-1.1-1-2.2-1.3-3.4-.2-1.2-.3-2.4-.2-3.7,.2-2.4,1-4.8,2.2-7l.9,.5Z"/><path class="cls-36" d="M77.5,15c1.3-2.5,5.2-3.1,7.7-2.9,3.7,.2,7.1,2.3,9.9,4.7,2.6,2.3,5.4,4.8,7.4,7.6,1,1.4,1.8,3,2.2,4.7,.5,2,.1,3.4-.5,5.2-.2,.6,.8,.9,1,.3,.7-1.8,1-3.3,.7-5.2s-1.2-3.7-2.3-5.2c-2.4-3.5-5.9-6.7-9.2-9.3-2.9-2.2-6.4-4-10.2-3.9-2.6,0-6.2,1-7.5,3.5s.6,1.2,.9,.5h0Z"/><path class="cls-32" d="M66.7,31.4c-1.6,5.8-2.7,11.6-.9,17.5,1.6,5.4,4.3,10.6,8.9,14,7.7,5.8,20.4,5.4,25.5-3.8,.2-.4-.4-.8-.6-.4-2.4,4.3-7,6.8-11.8,7.3-5,.5-9.9-1.3-13.6-4.6s-6.4-8.4-7.8-13.4c-1.5-5.5-.4-11.1,1.1-16.5,.1-.4-.6-.6-.7-.2h0Z"/><path class="cls-32" d="M83.8,66.4c5.4-3.4,10.8-6.8,15.4-11.3s-.2-.8-.5-.5c-4.6,4.4-9.9,7.7-15.3,11.2-.4,.2,0,.9,.4,.6h0Z"/><path class="cls-32" d="M98.7,55.2l.4,2.4c0,.5,0,1.2,.4,1.6s.2,.1,.3,0h.1c.1,0,.2-.2,.2-.3h0c0-.5-.6-.7-.7-.3h0l.2-.2h.2c-.1,0-.1-.6-.2-.8v-.8l-.5-2c0-.5-.8-.3-.7,.2h0Z"/><path class="cls-32" d="M107.3,43.2c-1.3,4-2.9,8-5,11.8-1.5,2.7-3.4,5.6-5.8,7.5s.2,.8,.5,.5c2.4-2,4.4-5,5.9-7.6,2.1-3.8,3.7-7.8,5-11.9,.1-.4-.5-.6-.7-.2h0Z"/><path class="cls-32" d="M107.2,43.3c.5,5.1,.6,10.3,2.3,15.2,.1,.4,.8,.2,.7-.2-1.6-4.8-1.8-10-2.2-15s-.8-.5-.7,0h0Z"/><path class="cls-54" d="M55.6,17.8h3.5c.4-2.4,1.2-4.8,2.4-6.9,0,1.6,0,3.3,.2,4.9,1-1,2.2-1.8,3.4-2.5l-1.9,4.1c1.9-1.4,4.3-2.1,6.7-2.2-2.2,1.7-4.9,2.8-7.8,3.2l3,.6-4.5,1c.7,1.3,1,2.7,1.1,4.2-.5-1.2-1.4-2.3-2.5-3.1,.1,2.1,0,4.2-.4,6.2-1-1.9-1.7-3.9-2.1-6,0-.3-.1-.6-.3-.8-.2-.1-.4-.2-.6-.2l-2.4-.5c1.5-.6,.7-1.5,2.2-2"/><path class="cls-32" d="M63.6,32c.5-.8,1.1-1.6,1.9-2.2,.4-.3,.8-.6,1.3-.7,.5-.2,1-.3,1.5-.3,.5,0,1,.2,1.5,.4,.5,.2,.9,.5,1.2,.9,.7,.7,1.2,1.5,1.6,2.5-.6-.8-1.2-1.5-1.9-2-.7-.6-1.5-.9-2.4-1-.9,0-1.7,.3-2.5,.7-.8,.5-1.5,1.1-2.2,1.8Z"/><path class="cls-32" d="M62.9,28.5c-.6-.6-1-1.3-1.2-2-.1-.4-.2-.8-.3-1.2,0-.4,0-.8,0-1.3,.1-.5,.5-.9,1-1,.4-.2,.9-.2,1.3-.1,.9,.2,1.5,.8,2,1.3-.7-.3-1.4-.7-2.1-.8-.7,0-1.4,.3-1.5,.8,0,.3,0,.6,0,1,0,.4,0,.7,.2,1.1,.2,.7,.4,1.4,.7,2.2Z"/><path class="cls-32" d="M66.5,22.8c-.3-.1-.6-.4-.8-.7-.2-.3-.3-.6-.4-1,0-.3-.1-.7,0-1.1,0,0,0-.2,0-.3,0-.1,.1-.2,.2-.3,.2-.2,.4-.3,.5-.3,.7-.3,1.4-.4,2.1-.2,.7,.1,1.3,.5,1.8,1-.6-.2-1.3-.4-1.9-.4-.6,0-1.2,0-1.8,.3-.1,0-.3,.1-.3,.2,0,0,0,0,0,.2,0,.3,0,.6,0,.9,0,.6,.2,1.2,.6,1.7Z"/><path class="cls-32" d="M67.1,27.1c.7,.7,1.6,1.4,2.4,1.9s1.1-.5,.5-.9c-.8-.5-1.5-1.1-2.2-1.8s-1.3,.3-.8,.8h0Z"/><path class="cls-32" d="M66.7,27.6l3.4,1.7c.6,.3,1.2-.6,.5-.9l-3.4-1.7c-.6-.3-1.2,.6-.5,.9h0Z"/><path class="cls-32" d="M68.3,23.6c.6,1,1.4,1.8,2.3,2.5,.6,.4,1.6,.8,2.1,0s-.7-1.8-1.3-2.4-1.7-1.8-2.8-1.6-.4,.3-.4,.5c.1,1.4,1.2,2.2,2.3,2.8s1-.3,.7-.7c-.5-.8-1.2-1.5-2-2.1s-1,.4-.6,.8c.9,1.1,1.9,2,3,2.8s1-.4,.6-.8c-.9-1.1-1.9-2.1-3.1-2.9l-.5,.9,.3,.2c.6,.3,1.1-.6,.5-.9l-.3-.2c-.6-.4-1.1,.5-.5,.9,1.1,.8,2.1,1.7,2.9,2.7l.6-.8c-1.1-.7-2-1.6-2.8-2.6l-.6,.8c.7,.4,1.2,1,1.6,1.7l.7-.7c-.7-.4-1.6-1-1.7-1.9l-.4,.5c.3,0,2.9,2.1,2.8,2.3s-1.2-.8-1.3-1c-.5-.4-.9-.9-1.2-1.5s-1.3,0-.9,.5h0Z"/><path class="cls-36" d="M81.7,35.2s0,0,0,0c0,0,0,0,0,0,0,0,0,.1,0,.2,0,.2,0,.3,0,.5,0,.4,.1,.7,.2,1.1,.1,.3,.2,.7,.4,1,.2,.3,.4,.6,.8,.7-.4,0-.7-.3-.9-.6-.3-.3-.5-.6-.6-1-.2-.3-.3-.7-.4-1.1,0-.2,0-.4-.1-.6,0,0,0-.2,0-.3,0,0,0-.1,0-.2,0,0,0-.2,.1-.3l.5,.5Z"/><path class="cls-32" d="M101.2,47.1c.2,1.4,.6,2.7,1,4.1l.2-.4c-4.6,.9-9.1,2-13.6,3.3-.4,.1-.3,.8,.2,.7,4.5-1.3,9-2.3,13.6-3.3,.2,0,.3-.3,.2-.4-.4-1.4-.7-2.7-1-4.1s-.8-.3-.7,.2h0Z"/><path class="cls-32" d="M66.1,34.9c7.5,6.6,15.4,12.7,22.6,19.7,.3,.3,.8-.2,.5-.5-7.1-7-15.1-13.1-22.6-19.7-.3-.3-.8,.2-.5,.5h0Z"/><path class="cls-32" d="M104.2,41.8c-.2,2.9-.1,5.8,.2,8.6s.8,.5,.7,0c-.4-2.9-.4-5.7-.2-8.6s-.7-.5-.7,0h0Z"/><path class="cls-32" d="M64.7,80.6c-2.4,1.1-1.9,4.3-.4,6,2.1,2.5,6.9,2.7,9.9,2.7s4.1-.2,6.2-.5,2.5-.4,3.1-1.5c1.3-2.4,.5-4.5-1.9-5.7-.6-.3-1.2,.6-.5,.9,1,.5,1.9,1,1.9,2.3s-.5,2.3-1.7,2.7c-2.1,.8-4.9,.7-7.1,.7s-4.6-.1-6.8-1-2.2-.9-2.8-2.1-.9-3,.6-3.7c.6-.3,0-1.2-.5-.9h0Z"/><path class="cls-32" d="M63.6,84.8c-1.7,1.7-.9,4.5,.6,6,2.1,2.1,5.4,2.8,8.4,2.8,2.7,0,6.4-.1,8.7-1.7,.9-.6,1.5-1.5,1.8-2.5s0-1.1-.4-1.9-1.2,0-.9,.5c1.8,3.8-6,4.4-8.3,4.5-2.1,0-4.3-.1-6.3-1-1.9-.9-5-3.8-2.8-6s-.3-1.2-.8-.8h0Z"/><path class="cls-32" d="M82.9,89.4c5.2-.6,10-3.1,13.4-7.1s-.3-1.3-.8-.8c-3.3,3.8-7.7,6.2-12.7,6.8-.7,0-.7,1.1,0,1.1h0Z"/><path class="cls-32" d="M81.9,83.1c4.7-.1,9.4,0,14-.6s.7-1.1,0-1.1c-4.7,.5-9.3,.5-14,.6-.7,0-.7,1.1,0,1.1h0Z"/><path class="cls-32" d="M81.1,80.5c4.3,0,8.5-.1,12.8-.3,.7,0,.7-1.1,0-1.1-4.3,.2-8.5,.3-12.8,.3-.7,0-.7,1.1,0,1.1h0Z"/><path class="cls-32" d="M106.9,67.7c0,0,0,0-.1,0,0,0-.1,0-.2,0-.1,0-.2,0-.3,0-.2,0-.4,0-.7,0-.4,0-.9,.2-1.3,.3-.4,.1-.8,.2-1.2,.4-.4,.2-.7,.4-1,.7-.6,.6-1,1.4-1.5,2.1-.5,.7-.9,1.5-1.3,2.3-.7,1.6-1.3,3.3-1.5,5-.1,.9-.1,1.7,0,2.6,0,.4,.2,.8,.4,1.2,.2,.4,.6,.7,1,.8-.4,0-.9-.3-1.1-.7-.3-.4-.5-.8-.6-1.2-.2-.9-.3-1.8-.2-2.7,0-1.8,.6-3.6,1.4-5.2,.4-.8,.8-1.6,1.4-2.4,.5-.7,1-1.5,1.7-2.1,.3-.3,.8-.6,1.2-.7,.4-.1,.9-.2,1.3-.3,.4,0,.9-.1,1.3-.1,.2,0,.5,0,.7,0,.1,0,.2,0,.3,0,0,0,.1,0,.2,0,0,0,.1,0,.1,0Z"/><path class="cls-23" d="M78.8,69.6c2.8,1.4,5.5,2.1,8.6,2.1,3.4,0,6.8-.3,10.2-.7,.7,0,.4-1.1-.3-1-3.1,.4-6.2,.7-9.3,.7-3.2,0-6.8-1-9.7-2.5s-.2,1.1,.4,1.4h0Z"/><path class="cls-23" d="M106.9,27.2c1.7,3.1,3.7,6.2,5.1,9.5s2.2,7.4,2.3,11.2c.3,7.4-4.5,13.2-9.1,18.4-.5,.5,.3,1.3,.8,.8,4.7-5.3,9.5-11.1,9.4-18.5s-.7-7.8-2-11.3-3.6-7.1-5.5-10.5c-.3-.6-1.3,0-.9,.5h0Z"/><path class="cls-32" d="M94.4,83.6c1.6,1.6,3.4,2.2,5.7,1.8,1.8-.3,3.9-1.4,3.8-3.5,0-.7-1.1-.7-1.1,0,0,2.1-2.8,2.5-4.3,2.5-1.4,0-2.4-.6-3.4-1.6s-1.2,.3-.8,.8h0Z"/><path class="cls-32" d="M91.7,86.3c2.8,2.4,8.1,2.8,11.4,1.3,2.6-1.2,4.3-4.7,1.6-6.7-.6-.4-1.1,.5-.5,.9,1.7,1.3,.5,3.4-.7,4.3s-2.7,1.1-4.2,1.1c-2.3,0-4.9,0-6.8-1.7-.5-.4-1.3,.3-.8,.8h0Z"/><path class="cls-32" d="M88.1,88.3c3,1.9,6.5,2.8,10,3.1s5.7-.8,4.6-3.8-1.3-.4-1,.3c.8,2.1-1.9,2.6-3.3,2.5-1.2,0-2.4-.3-3.6-.5-2.2-.5-4.2-1.2-6.1-2.5-.6-.4-1.1,.5-.5,.9h0Z"/><path class="cls-32" d="M88,88c-.4,2.8-1,5.6-1.7,8.3s.9,1,1,.3c.7-2.7,1.2-5.5,1.7-8.3,.1-.7-.9-1-1-.3h0Z"/><path class="cls-32" d="M87.2,94.7c-.9-1.4-2.6-2.7-4.1-1.1-1.4,1.6-.6,4.4,.4,6s1.3,0,.9-.5c-.6-1-1-2.2-1-3.4s.6-2.2,1.7-1.7,.8,.8,1.1,1.2,1.3,0,.9-.5h0Z"/><path class="cls-32" d="M83.6,93.2c-3.1-1-5.1,2-5.1,4.8,0,3.2,1.6,6.8,4.7,7.9,3.6,1.2,6.4-1.9,8.6-4.3,2.7-3.1,5-6.4,6.8-10.1s-.6-1.2-.9-.5c-2.2,4.6-5.2,9.1-9,12.5-1.3,1.1-2.8,2.1-4.6,1.7-1.7-.4-3-1.7-3.7-3.3-1-2.3-1.5-9,2.9-7.5,.7,.2,.9-.8,.3-1h0Z"/><path class="cls-32" d="M60.8,90.9c-3.4,1.9-5,5.6-4.5,9.4s2.5,7.8,6.3,8.3c4.1,.5,7.6-3,10.3-5.6,3.1-3,5.7-6.5,6.8-10.7s-.9-.9-1-.3c-.9,3.3-2.7,6.1-4.9,8.5-2.1,2.3-4.6,4.9-7.5,6.2-4.5,2.2-7.8-1.3-8.8-5.6s.4-7.6,3.8-9.4,0-1.3-.5-.9h0Z"/><path class="cls-32" d="M61.4,91.8c.7-.2,1.6,0,1.8,.7s-.2,.9-.5,1.3c-.5,.6-1,1-1.5,1.7s.6,1.1,.9,.5c.7-1.1,2.2-1.9,2.1-3.4s-1.9-2.2-3.2-1.8c-.7,.2-.4,1.2,.3,1h0Z"/><path class="cls-32" d="M61.2,96.2c.9,.5,1.5,1.3,1.6,2.3s1.1,.7,1.1,0c-.1-1.4-.9-2.6-2.1-3.3s-1.1,.6-.5,.9h0Z"/><path class="cls-32" d="M63.7,98.1c1-2,2.1-3.9,3.5-5.6s-.3-1.3-.8-.8c-1.5,1.8-2.7,3.7-3.7,5.8s.6,1.2,.9,.5h0Z"/><path class="cls-32" d="M64,93.8c.2-.1,.5,0,.7,0s.2,0,.2,.1,0,0,0,0c0,0,0,0,0,0,0-.3,0-.3,0-.2-.4,.6,.5,1.1,.9,.5s-.1-1.1-.6-1.4-1.3-.4-1.8,0c-.6,.3,0,1.3,.5,.9h0Z"/><path class="cls-32" d="M51.4,75.2c-1.3,1.6-1.1,4.4-.8,6.3,.3,2.3,1.1,4.9,3,6.4,1.5,1.2,3.6,1.4,5.2,.3,1-.7,2.2-2.4,1.2-3.6-.4-.5-1.2,.2-.8,.8s-.5,1.4-.7,1.6c-.7,.7-1.7,1-2.7,.9-1.7-.3-2.7-1.8-3.4-3.2-.6-1.3-.9-2.7-1-4.1s-.2-3.4,.6-4.5c.4-.5-.3-1.3-.8-.8h0Z"/><path class="cls-32" d="M51.5,76c-.3,4.1,2.3,9.1,6.8,9.5,1.9,.2,3.7-.7,4.3-2.5s.7-3.8-.9-4.8c-.6-.4-1.1,.5-.5,.9,1.7,1.1,.4,4.3-.9,5s-3.5,.1-4.8-.9c-2.2-1.7-3.1-4.5-2.9-7.2,0-.7-1-.7-1.1,0h0Z"/><path class="cls-32" d="M56.9,55.3c-2.8-3.9-8-1.7-9.4,2.2-1,2.6-.6,5.5,.1,8.1,.8,2.9,1.7,5.8,3,8.5s2.9,5.2,5.2,6.9,3.8,1.5,5-.2,.5-4.8,0-6.7c-.8-2.6-2.3-4.8-4.3-6.6-.5-.5-1.3,.3-.8,.8,2.7,2.4,5.1,6.5,4.7,10.3-.5,4.4-4.6,1.1-6-.6s-2.2-3.2-3-5c-1.6-3.5-3.2-7.9-3.3-11.9,0-2.1,.5-4.3,2.1-5.7s4.6-1.5,5.9,.4c.4,.6,1.3,0,.9-.5h0Z"/><path class="cls-32" d="M47.3,64.8c-3.2,3.1-4.8,7.5-4.3,11.9s.6,4,2,5.2c.9,.8,2.4,1,3-.3s-.6-1.2-.9-.5c-.7,1.5-2.2-1.3-2.4-1.8s-.4-1.3-.5-2c-.3-1.4-.3-2.9,0-4.4,.5-2.8,1.8-5.4,3.9-7.4s-.3-1.2-.8-.8h0Z"/><path class="cls-32" d="M48.1,68c-2.1,3.3-3.4,6.5-2.4,10.4,.8,3.3,3.2,6,6.2,7.5,.6,.3,1.2-.6,.5-.9-2.8-1.4-5-3.8-5.7-6.8s.4-6.6,2.3-9.6c.4-.6-.6-1.1-.9-.5h0Z"/><path class="cls-32" d="M47.1,59.5c-5.5-1-11.3,1.7-13.7,6.8-2.4,5.1-.9,11.4,3.3,15,.5,.4,1.3-.3,.8-.8-3.8-3.3-5.4-9-3.2-13.7s7.6-7.2,12.5-6.3c.7,.1,1-.9,.3-1h0Z"/><path class="cls-32" d="M57.3,55.1c-2.7,1.7-3.2,5-2,7.8,1.6,3.6,5.3,5.9,8.2,8.3s1.3-.3,.8-.8c-2.2-1.8-4.6-3.5-6.5-5.6-2.1-2.5-3.3-6.7,0-8.8,.6-.4,0-1.3-.5-.9h0Z"/><path class="cls-32" d="M56.9,65.5c0,1.1-.2,2.1-.4,3.2s.9,1,1,.3c.2-1.1,.4-2.3,.4-3.5s-1-.7-1.1,0h0Z"/><path class="cls-32" d="M59.2,67.8c-.1,1.3-.3,2.7-.5,4s.9,1,1,.3c.2-1.4,.4-2.8,.5-4.3s-1-.7-1.1,0h0Z"/><path class="cls-32" d="M67.8,52.7c.1-1.7,1.4-3.4,3.2-3.6s3.2,.8,4.4,1.9c2,1.9,3.6,4.9,4.2,7.6s.8,.3,.7-.2c-.8-3.6-3.3-8.1-6.8-9.6-3-1.2-6.1,.5-6.4,3.8s.7,.5,.7,0h0Z"/><path class="cls-32" d="M78.9,54.5c2.6-2,5.4,.6,6.6,2.8,1.1,1.8,1.5,3.9,1.9,6s.8,.3,.7-.2c-.6-3-1.4-6.1-3.7-8.4-1.7-1.6-4.1-2.2-6.1-.7s.1,.8,.5,.5h0Z"/><path class="cls-23" d="M59.9,9.8c9.7-3.2,20.8-3.3,30.3,.9,4.1,1.8,7.2,4.7,10.2,8s4.7,5.4,6.5,8.4c.3,.6,1.3,0,.9-.5-1.8-3.1-4.2-6-6.6-8.6-3.2-3.5-6.6-6.5-11-8.4-9.6-4.1-20.7-4-30.5-.8s-.4,1.2,.3,1h0Z"/><path class="cls-32" d="M60.5,58.2c-1.9,2.3-1.9,5.5-2.2,8.4,0,.7,1,.7,1.1,0,.3-2.5,.2-5.6,1.9-7.6s-.3-1.3-.8-.8h0Z"/><path class="cls-32" d="M64.9,61.6c-2.3,2.6-2.5,5.9-1.5,9.1,.2,.7,1.2,.4,1-.3-.8-2.8-.8-5.8,1.2-8,.5-.5-.3-1.3-.8-.8h0Z"/><path class="cls-32" d="M58.5,46.3c0,2.3,1,4.2,2.3,6s2.1,2.9,3.7,2,0-.8-.4-.6c-1.4,.8-3.2-2.3-3.7-3.2-.8-1.3-1.2-2.7-1.2-4.2s-.7-.5-.7,0h0Z"/><path class="cls-32" d="M58.7,46.6c1.6,.5,2.9,1.7,3.8,3.1s1.1,2.8,1.4,4.4,.8,.3,.7-.2c-.5-2-.7-3.5-1.9-5.2s-2.3-2.3-3.8-2.8-.6,.5-.2,.7h0Z"/><path class="cls-32" d="M94.6,29.6c.8,1.3,2.7,5.5,0,6.2-1.9,.5-3.9-1.6-4.8-3s-2.4-4.7-.4-6,4.2,1.4,5.2,2.8,.7,0,.5-.3c-1.1-1.6-3.5-4.1-5.8-3.1-2.6,1.2-1,5.2,0,6.8s3.5,4.1,5.7,3.1,1-5.2,0-6.9c-.2-.3-.6,0-.5,.3Z"/><path class="cls-32" d="M101.4,25.5c.8,1.3,2.7,5.5,0,6.2s-3.9-1.6-4.8-3-2.4-4.7-.4-6c1.9-1.2,4.2,1.4,5.2,2.8s.7,0,.5-.3c-1.1-1.6-3.5-4.1-5.8-3.1s-1,5.2,0,6.8c1.1,1.6,3.5,4.1,5.7,3.1,2.7-1.2,1-5.2,0-6.9-.2-.3-.6,0-.5,.3Z"/><path class="cls-32" d="M69.3,22.8c-.1-.3-.4-.5-.7-.5s-.6,.4-.6,.7,0,.5,.3,.7,.2,.1,.3,.2,0,0,.1,0,.1,0,0,0c.3,.1,.6,0,.7-.2s0-.6-.2-.7-.3-.2-.4-.1c0,0,0,0,0,0,0,0,0,0,.1,.1,0,0,0,0,0,0,0,0,0,0,0,.1l-.5,.3h-.2c0-.1,0-.1,0,0,.1,.3,.5,.3,.7,.2s.3-.5,.2-.7h0Z"/><path class="cls-32" d="M69.1,22.2c-.3-.2-.6-.1-.9,.1s-.2,.7,0,1c.3,.5,.7,1,1.2,1.3s1.1-.6,.5-.9-.8-.6-.8-1v.3h0l-.2,.2h-.3c.2,.1,.6,0,.7-.2s0-.6-.2-.7h0Z"/><path class="cls-32" d="M68.4,22.3c-1.6,1.1,1.4,3.1,2.2,3.5s1.2-.6,.5-.9-.9-.5-1.2-.8-.3-.3-.5-.4-.2-.2-.3-.3c-.1-.2,0-.2-.3,0,.6-.4,0-1.3-.5-.9h0Z"/><path class="cls-32" d="M68.9,23.1c.4-.3,1.9,1.8,2.2,2.1,.4,.5,1.2-.2,.8-.8s-1.1-1.3-1.8-1.9-1.1-.8-1.7-.3,0,1.3,.5,.9h0Z"/><path class="cls-32" d="M69.3,23.2h0c-.2-.1-.6,0-.7,.2-.2,.4,0,.8,.3,1.1s.4,.5,.7,.7,.5,.2,.8,0,.2-.6,0-.8c-.4-.3-.6-.6-.9-1v.5h0l-.7,.2h0c.6,.3,1.1-.6,.5-.9h0Z"/><path class="cls-32" d="M68.4,23.9c.5,.9,1.4,1.5,2.4,1.8s1-.9,.3-1c-.7-.2-1.3-.6-1.7-1.3s-1.3,0-.9,.5h0Z"/><path class="cls-32" d="M68.7,24.2c.2,.3,.5,.6,.9,.8s.6,0,.7-.2,0-.6-.2-.7-.1,0-.2-.1c0,0,0,0,0,0,0,0,0,0,0,0,0,0-.1,0-.1-.1,0,0,0,0,0,0,0,0,0,0,0,0-.2-.2-.5-.3-.7-.2s-.4,.5-.2,.7h0Z"/><path class="cls-32" d="M68.6,24.2c.3,.4,.7,.8,1.1,1.1s.5,.2,.8,0,.2-.6,0-.8c-.4-.4-.7-.7-1.1-1.1s-.6-.2-.8,0-.2,.5,0,.8h0Z"/><path class="cls-32" d="M68.6,24.3c.2,.2,.4,.4,.6,.6s.5,.5,.8,.5,.5-.1,.5-.4,0-.4-.1-.5-.4-.2-.6,0h0c-.2,.2-.3,.5-.2,.7s.5,.4,.7,.2h-.6v-.6h-.1l.5-.4h.2c-.2,0-.3-.2-.4-.3s-.3-.3-.5-.5-.6-.2-.8,0-.2,.5,0,.8h0Z"/><path class="cls-32" d="M68.5,27.9c.6,.5,1.2,1,1.6,1.6s.6,.2,.8,0,.2-.5,0-.8c-.5-.6-1.1-1.1-1.6-1.6s-1.3,.3-.8,.8h0Z"/><path class="cls-32" d="M69.1,28.2c.3,.3,.7,.6,.9,1,.2,.6,1.2,.4,1-.3s-.6-1.1-1.1-1.5-.5-.2-.8,0-.2,.6,0,.8h0Z"/><path class="cls-32" d="M67.4,26c-.7-.3-1.3,.4-1.3,1.1s.7,1.5,1.4,1.9,1.1-.4,.6-.8-.8-.9-.9-1.2l.5-.7h-.5l.3,.4c-.1,.2,0,.3,.1,.4,.1,.1,.3,.3,.4,.4,.3,.3,.5,.6,.7,1l.7-.7c-.5-.3-1.6-.8-2,0s.4,1.4,.9,1.7,.8,0,.8-.5-.1-.6-.3-1l-.7,.7,.7,.5c.3,.2,.7,0,.8-.3,.1-.5,0-.8-.2-1.2s-.7-.9-1-1.5l-.8,.6c.4,.4,.9,.6,1.2,1s.7,1.1,1,1.6l.8-.6c-.4-.4-.7-.8-.9-1.2l-.8,.6,1.4,1.2c.4,.4,1.2-.1,.8-.6-.9-1.2-2.1-2.2-3.5-2.9l-.3,1c.4,0,.8,.6,1,.8l.9,1c.5,.5,1.2-.2,.8-.8l-1.4-1.8-.6,.8c.3,.2,2.1,1.7,1.8,2s0,.6,.2,.7c.7,.3,1.3-.1,1.2-.9s-.4-.7-.7-1-.7-.8-1.2-1-.4,0-.5,.1h0c-.5,.5,.2,1.3,.8,.8h-.5c0,.1,.4,.6,.5,.6l.2,.2c.2,.3,.4,.3,.7,.2l.2,.7c.3-.6,.1-1.1-.2-1.6-.6-.7-1.2-1.4-2-1.9s-1,.4-.6,.8l1.4,1.8,.8-.8c-.7-.8-1.4-2.1-2.7-2.2-.5,0-.7,.8-.3,1,1.2,.6,2.3,1.4,3.1,2.5l.8-.6-1.4-1.2c-.4-.4-1.2,0-.8,.6s.7,1,1.1,1.4,1.2-.1,.8-.6-.7-1.2-1.1-1.7-.9-.7-1.3-1.1-1.1,.1-.8,.6,.3,.7,.5,1,.6,.7,.6,.9l.8-.3-.7-.5c-.5-.3-.9,.3-.7,.7v.4l.9-.5c-.2-.2-.3-.3-.5-.1,.2,0,.4,.2,.6,.3,.4,.3,1-.3,.7-.7-.5-.7-1.5-2.5-2.6-2.1s-.7,.5-.6,1,.8,.7,1.3,.6,.6-.3,.5-.7c-.2-.8-1.2-1-1.7-.3s.2,1.9,.8,2.5l.6-.8c-.3-.1-.5-.3-.7-.5s-.1-.4-.3-.5c.6,.3,.9-.8,.3-1h0Z"/><path class="cls-32" d="M69.1,35l-.6,1.1c-.2,.4,.4,.8,.6,.4l.6-1.1c.2-.4-.4-.8-.6-.4h0Z"/><path class="cls-32" d="M71.5,37.3c-.3,.4-.5,.8-.6,1.3s.5,.6,.7,.2,.3-.7,.6-1.1-.4-.7-.6-.4h0Z"/><path class="cls-32" d="M74.3,39.7c-.2,.3-.5,.7-.6,1.1s.4,.8,.6,.4,.4-.7,.6-1.1,0-.4-.1-.5-.4,0-.5,.1h0Z"/><path class="cls-32" d="M77.2,41.8l-.9,1.4c-.3,.4,.4,.7,.6,.4l.9-1.4c.3-.4-.4-.7-.6-.4h0Z"/><path class="cls-32" d="M79.9,43.3l-.7,2.4c-.1,.4,.6,.6,.7,.2l.7-2.4c.1-.4-.6-.6-.7-.2h0Z"/><path class="cls-32" d="M83.1,44.8c-.3,1.1-.7,2.1-1,3.2s.5,.6,.7,.2c.3-1.1,.8-2.1,1-3.2s-.6-.6-.7-.2h0Z"/><path class="cls-32" d="M86.9,46.6c-.7,1.4-1.1,2.9-1.6,4.3-.1,.4,.5,.6,.7,.2,.5-1.4,.9-2.8,1.5-4.1s-.4-.8-.6-.4h0Z"/><path class="cls-32" d="M89.9,48c-.2,1.2-.5,2.4-.8,3.6s-.6,1.8-.5,2.6,.3,.3,.4,.2h0c.2,0,.3-.2,.3-.4h0c0-.5-.7-.5-.7,0h0l.3-.3h0l.4,.3c0-.4,.2-1.1,.3-1.4s.2-.9,.3-1.4c.2-1,.4-2,.6-2.9s-.6-.6-.7-.2h0Z"/><path class="cls-32" d="M96,49.5h0c-.1,0-.3,0-.3,0-.2,.3-.2,.7-.2,1v1.6c0,.5,.7,.5,.7,0v-1.7c0,0,0-.4,0-.4h-.3c.4,.2,.6-.5,.2-.6h0Z"/><path class="cls-32" d="M89.7,62.7c.5,.6,1,1.2,1.5,1.8s.4,.5,.6,.8,.2,.3,.4,.4,.5,0,.5-.3h0c0-.3-.2-.4-.5-.4h0c-.4,.1-.3,.8,.2,.7h0l-.5-.3h0l.5-.3c.1,.1,.2,.1,0,0,0,0,0-.1,0-.2,0-.1-.2-.3-.3-.4-.2-.2-.4-.4-.5-.7-.5-.5-.9-1.1-1.4-1.6s-.8,.2-.5,.5h0Z"/><path class="cls-32" d="M93.9,59.5c.8,1.1,1.7,2.2,2.4,3.3s.9,0,.6-.4c-.8-1.2-1.7-2.3-2.6-3.4s-.8,.1-.5,.5h0Z"/><path class="cls-32" d="M88.7,28c3.7,.3,6.1,4.4,4.7,7.7-.1,.3,.3,.6,.5,.3,1.6-3.7-1-8.2-5.1-8.5s-.3,.5,0,.5h0Z"/><path class="cls-32" d="M95.6,23.5c1.7,.5,2.8,1.6,3.7,3.1s1.8,3.7,.7,5,.2,.6,.4,.4c1.2-1.5,.5-3.4-.2-4.9-.9-2-2.2-3.5-4.3-4.1-.3,0-.5,.4-.1,.5h0Z"/><path class="cls-32" d="M64.6,81.6c1.2,3.1,3.8,3.9,6.8,3.9,3.6,0,7.3,0,10.4-2.1,.6-.4,0-1.3-.5-.9-2.5,1.6-5.3,1.9-8.2,2-2.9,0-6.3,.1-7.6-3.1s-1.3-.4-1,.3h0Z"/><path class="cls-32" d="M60.7,76.7c.9,.6,2,1,3.2,1,.7,0,.7-1.1,0-1.1s-1.8-.3-2.6-.8-1.1,.5-.5,.9h0Z"/><path class="cls-32" d="M99.7,67.2c-1.1,.2-2,1.9-2.5,2.8-1.2,1.9-2.2,4-3.1,6.1-.8,1.9-1.1,3.6,.5,5.1,1.5,1.5,4.2,2.9,6.3,2.4s4.6-2.5,6-4.3c1.6-1.9,2.6-4.3,2.6-6.8s-.8-4.6-2.9-5.6c-2.2-1-4.8-.1-7,.4-.7,.2-.4,1.2,.3,1,1.8-.4,3.7-1.1,5.5-.7,2.7,.6,3.2,3.9,2.9,6.2s-1.4,3.9-2.7,5.4c-1.3,1.4-3.3,3.3-5.2,3.5s-4.9-1.3-5.7-2.9,.5-3.7,1.3-5.2,1.3-2.5,2-3.7,1.1-2.3,2-2.5c.7-.1,.4-1.1-.3-1h0Z"/><path class="cls-32" d="M108.9,53.7c.2,1.2,.5,2.3,.9,3.4s.9,.6,1,0c.1-.9,.2-1.8,.1-2.8s-1.1-.7-1.1,0,0,1.7,0,2.5h1c-.4-1.1-.7-2.2-.9-3.4s-1.2-.4-1,.3h0Z"/><path class="cls-23" d="M50.8,19.1c-5.2,7.7-3.3,17.4,.1,25.4,1.8,4.2,3.9,8.1,7.2,11.3,3.2,3.2,6.9,5.9,10.6,8.5,.6,.4,1.1-.5,.5-.9-3.4-2.4-6.8-4.9-9.8-7.7-3.2-3-5.4-6.6-7.2-10.6-3.5-8-5.9-17.7-.6-25.5,.4-.6-.5-1.1-.9-.5h0Z"/><path class="cls-32" d="M65.8,81.8c-1.6-3.5-2.1-7.4-1-11.2,.9-3.4,3.5-6.7,7.3-6.6,4.1,.1,5.5,4.5,6.5,7.8,1.2,3.6,1.8,7.3,2,11.1s1.1,.7,1.1,0c-.3-4.9-1.3-9.6-3.1-14.2s-3.5-6.3-7.6-5.8-6,3.4-7.1,6.6-1,8.8,.9,12.8,1.2,0,.9-.5h0Z"/><path class="cls-32" d="M47,61.4c-6.5,.2-12.1,5-12.9,11.5s0,5.9,2,7.8c2.3,2.3,5.5,1.1,7.9-.3,.6-.4,0-1.3-.5-.9-2.6,1.5-5.8,2.4-7.5-.7s-1.1-5.1-.5-7.4c1.4-5.3,6.2-8.8,11.5-8.9,.7,0,.7-1.1,0-1.1h0Z"/><path class="cls-32" d="M59.9,59.8c.3,.8,1,1.3,1.7,1.9,.8,.7,1.7,1.2,2.7,1.7,.4,.2,.8-.4,.4-.6-.7-.4-1.4-.8-2.1-1.3s-1.6-1.1-1.9-1.9-.9-.2-.7,.2h0Z"/><path class="cls-32" d="M59,63.7c1.2,1.2,2.6,2,4.2,2.5,.4,.1,.6-.5,.2-.7-1.5-.5-2.8-1.2-3.9-2.3-.3-.3-.8,.2-.5,.5h0Z"/><path class="cls-32" d="M91.1,54.1c.3,2,.5,4,.7,6s.7,.5,.7,0c-.1-2.1-.4-4.1-.7-6.2s-.8-.3-.7,.2h0Z"/><g><path class="cls-39" d="M59.8,9.3c-3.5,2.7-6.6,6-8.5,10,2.5-.5,4.9-1.5,6.7-3.3,1.8-1.8,2.3-4.2,1.9-6.7"/><path class="cls-39" d="M59.4,8.9c-3.5,2.8-6.6,6.1-8.6,10.1-.2,.4,.1,.9,.6,.8,5.5-1.1,9.7-4.8,8.9-10.7s-1.1-.4-1,.3c.7,5.3-3.4,8.4-8.2,9.4l.6,.8c2-4,5-7.2,8.5-9.9s-.2-1.2-.8-.8h0Z"/></g><line class="cls-2" x1="70.9" y1="76.5" x2="71.8" y2="84.9"/><line class="cls-2" x1="70.6" y1="73.8" x2="70.9" y2="76.5"/><line class="cls-2" x1="69.5" y1="63.8" x2="70.6" y2="73.8"/><g id="BJMaSZ"><g><path class="cls-34" d="M71.7,77.4c0,.1-.2,.2-.2,.3,0,0-.1,.1-.3,.1-.1,0-.2,0-.2-.2,0-.3-.2-.7-.1-1,0,0,0,0,0,0,0,0,0,0,0,0-.3,.2-.7,.4-1,.6-.1,0-.2,0-.4,0-.2,0-.3-.2-.3-.3,0,0,0-.2,.1-.3,0,0,0,0,0,0,0,0,0,0,0,0,0,0-.2,0-.3,0,0,0,0,0,0,0-.2,0-.5,0-.7,0-.2,0-.4,0-.5-.1-.2,0-.4-.1-.6-.2,0,0-.2-.1-.2-.2,0,0,0,0,0,0-.2-.1-.3-.3-.4-.5,0,0,0,0,0,0-.2-.2-.4-.5-.5-.8,0,0,0,0,0,0-.2-.2-.3-.4-.3-.7,0-.2,.2-.4,.4-.4,.8,.1,1.7,.2,2.5,.3,.5,0,.9,.1,1.4,.2,.2,0,.3,0,.4,.2,0,0,0,0,0,0,.2-.2,.4-.3,.6-.5,0,0,0,0,0-.1,0-.2,0-.5,.1-.7,0-.1,0-.2,.2-.3,.2-.2,.4-.2,.6,0,.1,.2,.2,.3,.3,.5,0,.1,0,.3,.1,.4,0,0,0,0,0,0,.1,0,.2,0,.3,.1,0,0,.1,0,.2,0,.4-.2,.7-.5,1.1-.6,0,0,.2,0,.3,0,.2,0,.3,0,.3,.2,0,0,0,0,.1,0,.3,0,.6-.2,.9-.3,.6-.2,1.1-.3,1.7-.5,.2,0,.4,0,.4,.3,0,.2,0,.5-.2,.7,0,0,0,0,0,.2,0,.3-.1,.5-.3,.8,0,0,0,0,0,.1,0,.2-.1,.4-.3,.6,0,0,0,0,0,0,0,.1,0,.2-.2,.3-.3,.2-.5,.3-.8,.4,0,0,0,0,0,0-.2,.2-.5,.2-.8,.3,0,0,0,0-.1,0-.1,0-.3,0-.5,.1,0,0-.2,0-.2,0,0,0-.2,0-.2,0-.3,0-.6,0-.9,.1,0,0,0,0,0,0,0,.3,0,.6,0,1,0,.1,0,.2-.2,.2-.1,0-.2,0-.3,0,0,0-.2-.1-.2-.2,0,0,0,0,0,0-.2,.2-.2,.2-.4,0Zm.5-2.9c0-.5,0-1-.2-1.4,0-.2-.1-.4-.3-.6-.1-.1-.2-.1-.3,0,0,0,0,.2-.1,.3,0,.3-.1,.6-.1,.9,0,.9,.1,1.8,.4,2.7,0,.3,.2,.6,.3,.8,0,0,0,0,0,0,0,0,0,0,0,0,0,0,0-.2,0-.3,.2-.8,.2-1.6,.2-2.4Zm-6.5-.9c0,.2,0,.3,.2,.4,0,0,.2,.1,.3,.1,.2,0,.4,0,.7,0,.6,0,1.2,0,1.8,0,.2,0,.4,0,.6,0,.2,0,.3,.1,.3,.3,0,.2,0,.3,.1,.5,0,.2,.2,.4,.3,.5,0,0,0,0,0,0,0,0,0,0,0,0h0c-.2-.4-.2-.9,0-1.3,0,0,0-.1,0-.2,0-.1-.2-.2-.3-.2-.4,0-.9,0-1.3-.1-.9-.1-1.7-.2-2.6-.3-.2,0-.1,0-.1,.1Zm8.3,.3c0,0,.1,0,.2,0,.4-.1,.9-.2,1.3-.3,.5-.1,1-.2,1.5-.3,.1,0,.2,0,.3-.1,.1-.2,.2-.3,.1-.5,0,0,0,0-.1,0-.9,.3-1.9,.6-2.8,.9,0,0,0,0,0,0-.1,.2-.3,.3-.4,.5Zm-3,.5c0-.2,0-.4,0-.6,0,0,0,0,0,0,0,0-.2,0-.2,.1-.7,.5-.7,1.4,0,1.9,0,0,.1,0,.2,0,.1,0,.2-.2,.4-.2,0,0,0,0,0,0,0-.4-.1-.7-.1-1.1Zm-1.5,.3c0-.1,0-.2-.2-.2-.2,0-.4-.1-.6-.1-.6,0-1.1,0-1.7,0-.3,0-.6,0-.9,0,0,0,0,0,0,0,0,0,0,0,0,0,0,.2,.2,.3,.3,.5,0,0,.1,0,.2,0,0,0,.1,0,.2,0,.4,0,.8-.1,1.2-.2,.4,0,.7-.1,1.1-.2,.2,0,.3,0,.5,0Zm4.5-.4c.2-.1,.3-.1,.5-.2,.5,0,1,0,1.5,0,.3,0,.6,0,1,0,0,0,.2,0,.2-.2,0-.1,.1-.3,.2-.4,0,0,0-.1,0-.2,0,0,0,0-.1,0-.5,.1-1,.2-1.4,.3-.4,0-.8,.1-1.1,.2-.2,0-.3,0-.5,.2,0,0-.1,0-.1,.2Zm-6.8,1.3s0,0,.1,0c.2,0,.4-.1,.6-.2,.6-.2,1.1-.4,1.7-.5,0,0,0,0,0,0,0,0,0-.1-.2-.1-.1,0-.3,0-.4,0-.5,0-1.1,.2-1.6,.3-.2,0-.5,0-.7,0,0,0,0,0,0,0,0,.2,.2,.3,.3,.4,0,0,.2,0,.3,0Zm7.4-1.4c-.1,0-.3,0-.4,0,0,0-.1,0-.2,.1,0,0,0,0,0,0,.4,0,.7,0,1.1,.1,.4,0,.9,.1,1.3,.2,.1,0,.2,0,.3,0,.1-.1,.2-.3,.3-.5,0,0,0,0,0,0,0,0,0,0-.1,0-.4,0-.8,0-1.1,0-.4,0-.7,0-1.1,0Zm1.3,1.2s0,0,0,0c.2,0,.3-.1,.5-.2,0,0,.1,0,.2-.1,0,0,0,0,0,0,0,0,0,0,0,0,0,0-.2,0-.2,0-.4,0-.8-.1-1.2-.2-.3,0-.6-.1-.9-.1-.2,0-.2,0-.2,.2,0,0,0,0,0,0,0,0,.2,0,.2,0,.4,.2,.9,.3,1.3,.5,0,0,.2,0,.3,0Zm-6.4-.4c0,0-.2,0-.3,0-.4,.1-.8,.3-1.1,.4-.3,.1-.6,.2-.9,.3,0,0,0,0,0,0,0,0,0,0,0,0,.2,0,.4,.2,.5,.2,.2,0,.4,0,.5,0,.4-.2,.8-.4,1.2-.7,0,0,.2,0,.3,0,0,0,0,0,0,0,0-.2,0-.2-.3-.2Zm3.1,.1s0,0,0,0c.5-.4,1-.8,1.4-1.3,.2-.2,.3-.3,.4-.5,0,0,0-.1,0-.2,0,0-.1,0-.2,0-.4,.1-.8,.4-1.2,.6,.1,.1,.2,.2,.4,0,0,0,0,0,0,0,0,0,0,0,.1,0,0,0,0,0,0,.1,0,.1-.2,.2-.2,.3-.2,.2-.4,.4-.7,.6-.1,0-.1,.2-.1,.3Zm-3,1.9s0,0,.1,0c.6-.2,1.1-.5,1.6-.9,0,0,0,0,0-.2,0,0,0,0,0,0-.2,.1-.4,.2-.5,.3,0,0-.2,.1-.3,.1,0,0,0,0-.1,0,0,0,0,0,0-.1,0,0,0,0,0-.1,.1-.1,.1-.1,0-.2,0,0,0,0,0,0-.2,.2-.5,.5-.7,.7,0,0-.1,.2-.2,.3,0,.1,0,.2,.1,.2Zm3.9-2.2s0,0,0,0c0,0,0,0,0,0,0,0,0,0,0,0-.2,.2-.5,.4-.7,.6,0,0,0,0,0,.1,0,.1,0,.3,0,.4,0,0,0,0,0,0,.1,.1,.2,.1,.3,0,0,0,0,0,0,0,.3-.3,.5-.6,.5-1.1Zm1.6,.9c.2,0,.3,0,.5-.1,0,0,0,0,0,0,0,0,0,0,0,0-.3,0-.5-.2-.8-.3-.2,0-.4-.2-.6-.2-.2,0-.3,0-.3,.2,0,0,0,0,0,0,0,0,.2,0,.2,0,.2,.1,.4,.2,.5,.3,.1,0,.2,.1,.4,.1Zm-6.3,.5c.2,0,.3,0,.4-.1,.2-.2,.3-.3,.5-.4,0,0,.1-.1,.2-.1,0,0,0,0,0,0,0-.2-.2-.2-.4-.1-.2,0-.4,.2-.6,.3-.2,.1-.5,.3-.7,.4,0,0,0,0,0,0,0,0,0,0,0,0,.2,0,.4,0,.5,0Zm2.4,.6c0,.3,0,.5,.1,.7,0,0,0,0,0,0,0,0,0,0,0,0,0,0,.1-.2,.2-.3,0,0,0-.2,0-.3,0-.3-.1-.5-.2-.7,0,0,0,0-.1,0-.2,.2-.2,.4-.2,.6Zm1.7,0c0-.2,0-.4-.3-.6,0,0,0,0-.1,0,0,.2,0,.4,0,.6,0,.2,0,.4,.2,.5,0,0,0,0,.1,0,0,0,0,0,.1,0,0,0,0,0,0-.1,0-.2,0-.4,0-.6Zm1.6-.9c0,0,.2,0,.3,0,0,0,0,0,0,0,0,0,0,0,0,0-.1,0-.3-.1-.4-.2-.1,0-.2-.1-.3-.2,0,0-.1,0-.2,0,0,0,0,.1-.1,.2,0,0,0,0,0,0,0,0,.1,0,.2,.1,.2,.2,.3,.2,.6,.2Zm-2-2.2c0,.3,0,.6,.1,1,.2-.2,.4-.3,.5-.5,0,0,0,0,0,0-.2-.2-.4-.3-.7-.4Zm-3,2.6c0,0,.1,0,.2,0,.1-.2,.3-.3,.4-.4,0,0,0,0,0,0,0-.1-.2-.2-.3,0-.2,.2-.4,.4-.7,.6,0,0,0,0,0,0,0,0,0,0,0,0,0,0,.2,0,.3,0Zm4.1-.8c.1,0,.2-.2,.2-.3,0-.2,.1-.3,.1-.5,0-.2,0-.4,0-.5-.1,0-.2,.2-.3,.3,0,0,0,0,0,.1,0,.2,0,.4,0,.6,0,0,0,.2,0,.3Zm0,.6c.1,0,.3,0,.4,0,0,0,0,0,0,0,0,0,0,0,0,0-.1,0-.2-.1-.3-.2,0,0,0,0-.1,0,0,0-.2,.1-.2,.2,0,0,0,0,0,.1,0,0,0,0,.1,0,0,0,.1,0,.2,0Z"/><path class="cls-12" d="M72.3,74.5c0,.8,0,1.6-.2,2.4,0,0,0,.2,0,.3,0,0,0,0,0,0,0,0,0,0,0,0-.1-.3-.2-.5-.3-.8-.3-.9-.4-1.8-.4-2.7,0-.3,0-.6,.1-.9,0,0,0-.2,.1-.3,.1-.1,.2-.2,.3,0,.2,.2,.2,.4,.3,.6,.1,.5,.2,1,.2,1.4Z"/><path class="cls-42" d="M65.7,73.6c0,0,0-.1,.1-.1,.9,.1,1.7,.2,2.6,.3,.4,0,.9,.1,1.3,.1,.1,0,.2,0,.3,.2,0,0,0,.1,0,.2-.2,.4-.2,.8,0,1.2h0s0,0,0,0c0,0,0,0,0,0-.1-.2-.2-.3-.3-.5,0-.2,0-.3-.1-.5,0-.2-.1-.3-.3-.3-.2,0-.4,0-.6,0-.6,0-1.2,0-1.8,0-.2,0-.4,0-.7,0-.1,0-.2,0-.3-.1,0-.1-.1-.3-.2-.4Z"/><path class="cls-42" d="M74,74c.2-.2,.3-.3,.4-.5,0,0,0,0,0,0,1-.3,1.9-.6,2.8-.9,0,0,.1,0,.1,0,0,.2,0,.4-.1,.5,0,0-.2,.1-.3,.1-.5,.1-1,.2-1.5,.3-.4,0-.9,.2-1.3,.3,0,0-.1,0-.2,0Z"/><path class="cls-42" d="M71,74.5c0,.4,0,.7,.1,1.1,0,0,0,0,0,0-.1,0-.2,.2-.4,.2,0,0-.1,0-.2,0-.6-.5-.6-1.4,0-1.9,0,0,.1-.1,.2-.1,0,0,0,0,0,0,0,.2,0,.4,0,.6Z"/><path class="cls-42" d="M69.5,74.7c-.2,0-.3,0-.5,0-.4,0-.7,0-1.1,.2-.4,0-.8,.2-1.2,.2,0,0-.1,0-.2,0,0,0-.1,0-.2,0-.1-.1-.2-.3-.3-.5,0,0,0,0,0,0,0,0,0,0,0,0,.3,0,.6,0,.9,0,.6,0,1.1,0,1.7,0,.2,0,.4,0,.6,.1,0,0,.2,0,.2,.2Z"/><path class="cls-42" d="M74,74.3c0,0,0-.1,.1-.2,.1-.1,.3-.2,.5-.2,.4,0,.8-.1,1.1-.2,.5,0,1-.2,1.4-.3,0,0,0,0,.1,0,0,0,0,.1,0,.2,0,.1,0,.3-.2,.4,0,0-.1,.1-.2,.2-.3,0-.6,0-1,0-.5,0-1,0-1.5,0-.2,0-.4,0-.5,.2Z"/><path class="cls-42" d="M67.1,75.6c0,0-.2,0-.3,0-.1-.1-.2-.3-.3-.4,0,0,0,0,0,0,.3,0,.5,0,.7,0,.5,0,1-.2,1.6-.3,.1,0,.3,0,.4,0,0,0,.1,0,.2,.1,0,0,0,0,0,0-.6,0-1.1,.3-1.7,.5-.2,0-.4,.1-.6,.2,0,0,0,0-.1,0Z"/><path class="cls-42" d="M74.5,74.3c.4,0,.7,0,1.1,0,.4,0,.8,0,1.1,0,0,0,0,0,.1,0,0,0,0,0,0,0,0,.2-.1,.4-.3,.5,0,0-.2,.1-.3,0-.4,0-.9-.2-1.3-.2-.4,0-.7-.1-1.1-.1,0,0,0,0,0,0,0,0,0-.1,.2-.1,.1,0,.3,0,.4,0Z"/><path class="cls-42" d="M75.8,75.4c-.1,0-.2,0-.3,0-.4-.2-.9-.3-1.3-.5,0,0-.2,0-.2,0,0,0,0,0,0,0,0-.2,0-.2,.2-.2,.3,0,.6,0,.9,.1,.4,0,.8,.2,1.2,.2,0,0,.2,0,.2,0,0,0,0,0,0,0,0,0,0,0,0,0,0,0-.1,0-.2,.1-.2,0-.3,.2-.5,.2,0,0,0,0,0,0Z"/><path class="cls-42" d="M69.4,75c.2,0,.2,0,.3,.2,0,0,0,0,0,0-.1,0-.2,0-.3,0-.4,.2-.8,.4-1.2,.7-.2,0-.3,.1-.5,0-.2,0-.4-.1-.5-.2,0,0,0,0,0,0,0,0,0,0,0,0,.3,0,.6-.2,.9-.3,.4-.1,.8-.3,1.1-.4,0,0,.2,0,.3,0Z"/><path class="cls-42" d="M72.5,75.1c0-.1,0-.2,.1-.3,.2-.2,.5-.4,.7-.6,0,0,.2-.2,.2-.3,0,0,0,0,0-.1,0,0,0,0-.1,0,0,0,0,0,0,0-.2,.1-.3,0-.4,0,.4-.2,.8-.5,1.2-.6,0,0,.1,0,.2,0,0,0,0,.1,0,.2-.1,.2-.3,.4-.4,.5-.4,.5-.9,.9-1.4,1.3,0,0,0,0,0,0Z"/><path class="cls-42" d="M69.5,77.1c-.1,0-.2,0-.1-.2,0-.1,.1-.2,.2-.3,.2-.3,.4-.5,.7-.7,0,0,0,0,0,0,.1,.1,.1,.1,0,.2,0,0,0,0,0,.1,0,0,0,0,0,.1,0,0,0,0,.1,0,.1,0,.2,0,.3-.1,.2-.1,.4-.2,.5-.3,0,0,0,0,0,0,0,0,0,.1,0,.2-.5,.4-1,.7-1.6,.9,0,0-.1,0-.1,0Z"/><path class="cls-42" d="M73.4,74.8c0,.4-.2,.8-.5,1.1,0,0,0,0,0,0-.2,.1-.2,.1-.3,0,0,0,0,0,0,0,0-.1,0-.3,0-.4,0,0,0,0,0-.1,.2-.2,.5-.4,.7-.6,0,0,0,0,0,0,0,0,0,0,0,0,0,0,0,0,0,0Z"/><path class="cls-42" d="M75,75.7c-.1,0-.3,0-.4-.1-.2-.1-.4-.2-.5-.3,0,0-.1,0-.2,0,0,0,0,0,0,0,0-.2,.2-.2,.3-.2,.2,0,.4,.2,.6,.2,.2,0,.5,.2,.8,.3,0,0,0,0,0,0,0,0,0,0,0,0-.2,0-.3,.1-.5,.1Z"/><path class="cls-42" d="M68.7,76.2c-.1,0-.3,0-.5,0,0,0,0,0,0,0,0,0,0,0,0,0,.2-.1,.5-.3,.7-.4,.2-.1,.4-.2,.6-.3,.2,0,.3,0,.4,.1,0,0,0,0,0,0,0,0-.2,0-.2,.1-.2,.1-.3,.3-.5,.4,0,0-.2,.1-.4,.1Z"/><path class="cls-12" d="M71.1,76.8c0-.2,0-.4,.2-.6,0,0,0,0,.1,0,0,.2,.2,.5,.2,.7,0,.1,0,.2,0,.3,0,0-.1,.2-.2,.3,0,0,0,0,0,0,0,0,0,0,0,0,0-.2,0-.4-.1-.7Z"/><path class="cls-12" d="M72.8,76.8c0,.2,0,.4,0,.6,0,0,0,.1,0,.1,0,0,0,0-.1,0,0,0,0,0-.1,0-.2-.1-.2-.3-.2-.5,0-.2,0-.4,0-.6,0,0,0,0,.1,0,.2,.2,.3,.4,.3,.6Z"/><path class="cls-42" d="M74.4,75.9c-.3,0-.4,0-.6-.2,0,0,0-.1-.2-.1,0,0,0,0,0,0,0,0,0-.1,.1-.2,0,0,.1,0,.2,0,.1,0,.2,.1,.3,.2,.1,0,.3,.2,.4,.2,0,0,0,0,0,0,0,0,0,0,0,0,0,0-.2,0-.3,0Z"/><path class="cls-42" d="M72.4,73.7c.3,0,.5,.2,.7,.4,0,0,0,0,0,0-.2,.2-.3,.3-.5,.5,0-.3,0-.6-.1-1Z"/><path class="cls-42" d="M69.4,76.3c0,0-.2,0-.3,0,0,0,0,0,0,0,0,0,0,0,0,0,.3-.1,.4-.4,.7-.6,0,0,.3,0,.3,0,0,0,0,0,0,0-.1,.1-.3,.3-.4,.4,0,0-.1,0-.2,0Z"/><path class="cls-42" d="M73.5,75.5c0-.1,0-.2,0-.3,0-.2,0-.4,0-.6,0,0,0,0,0-.1,.1,0,.2-.2,.3-.3,0,.2,0,.4,0,.5,0,.2,0,.3-.1,.5,0,.1-.1,.2-.2,.3Z"/><path class="cls-42" d="M73.5,76.1c0,0-.1,0-.2,0,0,0,0,0-.1,0,0,0,0,0,0-.1,0,0,.2-.1,.2-.2,0,0,.1,0,.1,0,0,.1,.2,.2,.3,.2,0,0,0,0,0,0,0,0,0,0,0,0-.1,0-.3,0-.4,0Z"/></g></g><path class="cls-32" d="M111.4,63.8c2.1-.1,4.6-.8,5.5-3,.1-.3-.4-.5-.5-.1-.7,1.9-3.1,2.5-4.9,2.6s-.3,.6,0,.5h0Z"/><path class="cls-32" d="M112.4,66.9c2,.3,4.8-.1,6-2s-.3-.6-.5-.3c-1,1.7-3.7,2-5.5,1.7-.3,0-.3,.5,0,.5h0Z"/><path class="cls-32" d="M111.4,69c2,1.6,4.4,2.3,6.9,1.9,.3,0,.2-.6-.1-.5-2.3,.4-4.6-.3-6.4-1.7s-.6,.2-.4,.4h0Z"/><path class="cls-32" d="M110.1,69.8c-.3,3.2,1.9,5.2,4.7,6.2,.3,.1,.5-.4,.1-.5-2.6-.9-4.7-2.7-4.3-5.6s-.5-.3-.5,0h0Z"/></svg>