<?xml version="1.0" encoding="UTF-8"?><svg id="Layer_1" xmlns="http://www.w3.org/2000/svg" viewBox="0 0 150.3 111.1"><defs><style>.cls-1{fill:#f9e815;}.cls-2{fill:#f26767;}.cls-3{fill:#fdcd58;}.cls-4{fill:#fdcc58;}.cls-5{fill:#fff;}.cls-6{fill:#fee84b;}.cls-7{fill:#fafaf9;}.cls-8{fill:#f16767;}.cls-9{fill:#fdfdfd;}.cls-10{fill:#fecd58;}.cls-11{fill:#81aa3f;}.cls-12{fill:#98c83d;}.cls-13{fill:#9696ca;}.cls-14{fill:#97c63c;}.cls-15{fill:#323521;}.cls-16{fill:#333f22;}.cls-17{fill:#333a21;}.cls-18{fill:#302d20;}.cls-19{fill:#303420;}.cls-20{fill:#303320;}.cls-21{fill:#313820;}.cls-22{fill:#be5353;}.cls-23{fill:#c39e46;}.cls-24{fill:#cba548;}.cls-25{fill:#c7c5c5;}.cls-26{fill:#24231d;}.cls-27{fill:#1f211c;}.cls-28{fill:#1f1f1d;}.cls-29{fill:#1f1f1c;}.cls-30{fill:#1f201e;}.cls-31{fill:#1e1f1c;}.cls-32{fill:#1e201c;}.cls-33{fill:#22221d;}.cls-34{fill:#21201d;}.cls-35{fill:#20211d;}.cls-36{fill:#20221d;}.cls-37{fill:#20201d;}.cls-38{fill:#424725;}.cls-39{fill:#424024;}.cls-40{fill:#434c27;}.cls-41{fill:#434b26;}.cls-42{fill:#434625;}.cls-43{fill:#434124;}.cls-44{fill:#404223;}.cls-45{fill:#403f24;}.cls-46{fill:#414424;}.cls-47{fill:#414725;}.cls-48{fill:#413f24;}.cls-49{fill:#1d1e1c;}.cls-50{fill:#1d1d1b;}.cls-51{fill:#363a21;}.cls-52{fill:#363921;}.cls-53{fill:#363821;}.cls-54{fill:#373c22;}.cls-55{fill:#373a22;}.cls-56{fill:#373822;}.cls-57{fill:#373821;}.cls-58{fill:#444925;}.cls-59{fill:#454725;}.cls-60{fill:#3e4824;}.cls-61{fill:#3e3f23;}.cls-62{fill:#3e3d3c;}.cls-63{fill:#3f3f23;}.cls-64{fill:#3f3c23;}.cls-65{fill:#9aca3d;}.cls-66{fill:#713a38;}.cls-67{fill:#716fa6;}.cls-68{fill:#464b26;}.cls-69{fill:#87ad3b;}.cls-70{fill:#5c592c;}.cls-71{fill:#292b1e;}.cls-72{fill:#292a1e;}.cls-73{fill:#292d1e;}.cls-74{fill:#292c1e;}.cls-75{fill:#2c2b1f;}.cls-76{fill:#2b2c1f;}.cls-77{fill:#2d321f;}.cls-78{fill:#4a4a27;}.cls-79{fill:#4a4a6c;}.cls-80{fill:#2a2d1e;}.cls-81{fill:#2a281f;}.cls-82{fill:#29331f;}.cls-83{fill:#4a5128;}.cls-84{fill:#474525;}.cls-85{fill:#474826;}.cls-86{fill:#2c2f1f;}.cls-87{fill:#353521;}.cls-88{fill:#2f3520;}.cls-89{fill:#2f331f;}.cls-90{fill:#2e2f1f;}.cls-91{fill:#383d22;}.cls-92{fill:#383b22;}.cls-93{fill:#383f22;}.cls-94{fill:#3a3c22;}.cls-95{fill:#3a3a22;}.cls-96{fill:#3b3a22;}.cls-97{fill:#3b3e23;}.cls-98{fill:#343621;}.cls-99{fill:#353721;}.cls-100{fill:#353621;}.cls-101{fill:#3d3c23;}.cls-102{fill:#3d3d3c;}.cls-103{fill:#343221;}.cls-104{fill:#27281e;}.cls-105{fill:#393d22;}.cls-106{fill:#393b22;}.cls-107{fill:#393a22;}.cls-108{fill:#573130;}.cls-109{fill:#3c3c22;}.cls-110{fill:#3c4123;}.cls-111{fill:#3c3f23;}.cls-112{fill:#2f3120;}.cls-113{fill:#2f321f;}.cls-114{fill:#2f2f1f;}.cls-115{fill:#83aa3b;}.cls-116{fill:#2e331f;}.cls-117{fill:#4b4a28;}.cls-118{fill:#494626;}.cls-119{fill:#5e542c;}.cls-120{fill:#5d562c;}.cls-121{fill:#4b4c27;}.cls-122{fill:#4f512a;}.cls-123{fill:#4f4b28;}.cls-124{fill:#4e4d29;}.cls-125{fill:#4e4d28;}.cls-126{fill:#313320;}.cls-127{fill:#343720;}.cls-128{fill:#343721;}.cls-129{fill:#343421;}.cls-130{fill:#343521;}.cls-131{fill:#4e4827;}.cls-132{fill:#514e29;}</style></defs><path class="cls-5" d="M87.2,14.2c17.5,0,35,0,52.5,0,.3,0,.3,0,.3,.3,0,27.1,0,54.2,0,81.3,0,.3,0,.3-.3,.3-43,0-86,0-129.1,0-.3,0-.3,0-.3-.3,0-12.5,0-25.1,0-37.6,.2,0,.2,.2,.2,.3,.8,4.2,2.4,8.2,4,12.2,.9,2.1,1.8,4.2,2.8,6.2,0,.1,.1,.2,.1,.4,0,.2,0,.3-.1,.4-1,.6-1.1,1.6-1.1,2.7,0,1.2,.4,2.2,1.1,3.2,.9,1.3,2.8,1.7,4,.9,.4-.3,.8-.2,1.3-.2,3.2,0,6.5,0,9.7,0,1.1,0,2.3,0,3.4,0,.5,0,.5,0,.6,.5,.1,1.5,.5,2.9,1.1,4.3,.5,1.1,1.1,2,1.9,2.9,.8,.9,1.8,1.8,2.9,2.4,1.5,.9,3,1.4,4.7,1.6,2,.2,3.9,0,5.7-.8,4.1-1.7,6.5-4.8,7.3-9.2,0-.4,0-.8,.1-1.2,0-.3,.2-.4,.5-.4,.1,0,.2,0,.4,0,10.3,0,20.5,0,30.8,0,0,0,0,0,.1,0,.6,0,.6,0,.7,.7,.3,2.7,1.2,5.1,3,7.1,2,2.2,4.5,3.6,7.5,3.9,3.6,.4,6.8-.7,9.5-3.1,2.2-2,3.4-4.5,3.7-7.5,0-.2,0-.4,0-.6,0-.2,.2-.4,.4-.4,.1,0,.2,0,.3,0,3.1,0,6.1,0,9.2,0,.4,0,.7,0,1,.3,.8,.6,1.8,.5,2.7,.2,.5-.2,.7-.6,.9-1.1,.5-1.2,1-2.4,1.5-3.7,.2-.6,.5-1.1,.7-1.7,0-.3,0-.6,0-1-.2-.6-.6-.9-1.2-1,0,0-.2,0-.3,0q-.6,0-.5-.7c.2-.6,.3-1.2,.5-1.8,0-.3,.2-.4,.5-.3,.6,.2,1.2,.3,1.8,.4,.8,.1,1.4-.1,1.8-.8,.4-.5,.7-1.1,.9-1.8,.8-2,1.3-4,1.7-6.1,.5-2.2,.9-4.5,1.2-6.7,0-.4,0-.8,0-1.1,0-.6-.4-.9-.8-1.2-.8-.4-1.6-.5-2.5-.5-.4,0-.8,0-1.2,.1-.3,0-.4,0-.5-.4,0-.5-.2-1.1-.4-1.6-.3-1-.8-2-1.7-2.7-.2-.2-.2-.3-.2-.6,0-.5,0-.9,0-1.4-.2-1-.9-1.6-2-1.6-.7,0-1-.3-1.2-.8-3.3-6.7-6.7-13.4-10-20,0-.2-.2-.3-.2-.5-.2-.4-.1-.5,.3-.8,.2-.1,.5-.2,.8-.3,.4-.1,.6-.4,.5-.8,0-.4,0-.8-.3-1.1-.5-.8-1.2-1.4-2.1-1.9-1.8-1-3.8-1.4-5.9-1.7-1.1-.1-2.2-.2-3.3-.2-1.3,0-2.6,0-3.8-.1-1.4,0-2.8,0-4.2-.1-1.7,0-3.3,0-5-.2-.9,0-1.8,0-2.7,0-1.3-.1-2.6,0-3.9-.1-.4,0-.4,0-.4-.5,0-.8,0-1.7,0-2.5,0-.4,0-.7-.3-1.1-.2-.4-.6-.6-1-.7-.1,0-.2,0-.3,0,0,0,0,0,0-.1Z"/><path class="cls-49" d="M87.2,14.3c1.2,0,1.8,.6,1.8,1.8,0,.9,0,1.7,0,2.6,0,.2,0,.3,.3,.3,2.1,0,4.1,0,6.2,.1,2.4,0,4.8,.1,7.2,.2,2.5,0,5,.2,7.5,.3,2.6,.1,5.2,.6,7.6,1.7,1,.5,2,1.1,2.5,2.1,.2,.4,.3,.7,.3,1.2,0,.4-.2,.7-.6,.9-.3,.1-.6,.2-.9,.4-.2,.1-.3,.2-.1,.5,1.4,2.9,2.8,5.7,4.3,8.6,2.1,4.2,4.2,8.3,6.2,12.5,.1,.3,.3,.4,.5,.3,.4,0,.9,0,1.3,.2,1,.4,1.3,1.2,1.3,2.2,0,.7,.1,1.2,.6,1.7,.9,.9,1.2,2.1,1.5,3.3,0,.3,0,.7,.2,.8,.1,.1,.5,0,.8,0,.8,0,1.6,0,2.5,.1,.3,0,.5,.2,.8,.3,.6,.4,.9,.8,.9,1.5,0,.9-.2,1.8-.3,2.7-.4,2.5-.9,5-1.5,7.4-.4,1.5-.8,3-1.5,4.5,0,.1-.1,.3-.2,.4-.7,1.2-1.3,1.5-2.7,1.2-.5-.1-1.1-.2-1.6-.4-.1,0-.2,0-.2,.1,0,0,0,.2,0,.3-.2,.8-.4,1.5-.6,2.3,.3,0,.6,0,.9,0,.8,.2,1.3,1,1.2,1.9-.2,.8-.6,1.4-.8,2.1-.4,1-.8,2.1-1.2,3.1-.5,1.3-1.1,1.6-2.7,1.5-.5,0-1-.2-1.4-.6-.1-.1-.2-.1-.4-.1-3.3,0-6.5,0-9.8,0-.3,0-.3,.2-.4,.4-.2,2.8-1.2,5.3-3.1,7.3-2.1,2.3-4.6,3.5-7.7,3.9-6.2,.6-11.8-3.5-13-9.7-.1-.6-.2-1.1-.2-1.7,0-.2,0-.3-.3-.2,0,0,0,0-.1,0-10.5,0-21,0-31.5,0-.3,0-.4,0-.4,.4-.4,5.6-4.3,10-9.6,11.1-6.2,1.2-12.3-2.5-14-8.6-.2-.8-.4-1.7-.4-2.5,0-.2,0-.3-.3-.3-4.5,0-9,0-13.6,0-.4,0-.8,0-1.2,.3-1,.7-2.7,.4-3.5-.6-1.3-1.5-1.8-3.2-1.4-5.1,.1-.6,.4-1,.9-1.3,.2-.1,.2-.2,0-.3-1-2.2-2.1-4.4-3-6.7-1.4-3.4-2.7-6.9-3.7-10.5-.1-.6-.3-1.1-.3-1.7,0,0,0-.1,0-.1v-2.2c0-.5,.1-1,.5-1.4,.1-.1,0-.3,0-.4-.3-.6-.4-1.2-.4-1.8-.1-2.4,.4-4.7,.9-7,.9-4.1,1.9-8.2,2.9-12.2,.7-2.8,1.5-5.6,2.2-8.4,.1-.5,.3-.9,.5-1.4,.6-1.4,1.7-2.2,3.1-2.7,1.1-.4,2.2-.5,3.3-.6,1.6-.1,3.2-.2,4.7-.3,.5,0,1.1,0,1.6,0,1.4,0,2.7-.1,4-.2,1.9,0,3.8-.2,5.8-.2,1.3,0,2.5-.1,3.8-.1,.5,0,1,0,1.6,0,.2,0,.3-.1,.3-.3,0-.5,0-.9,0-1.4,.1-1.1,.7-1.9,1.8-2.2,.8-.2,1.5-.5,2.3-.6,1.1-.2,1.9,.5,2.1,1.5,.1,.7,0,1.5,0,2.2,0,.6,0,.6,.6,.6,1.9,0,3.9,0,5.8,0,1.7,0,3.4,0,5.1,0,3.9-.1,7.9,0,11.8,0,2.3,0,4.6,0,7,0,.3,0,.5,0,.8,0,.3,0,.4,0,.4-.4,0-.5,0-1,0-1.5,.2-1,.7-1.8,1.7-2.1,.7-.2,1.4-.5,2.1-.5,.1,0,.3,0,.4,0Z"/><path class="cls-5" d="M87.2,14.3c-1,.1-1.9,.4-2.9,.8-.8,.3-1.1,1-1.3,1.8,0,.5,0,1.1,0,1.6,0,.2,0,.3-.3,.3-3.7,0-7.3,0-11-.1-2.5,0-5.1,0-7.6,0-1.7,0-3.3,0-5,0-2.4,0-4.7,0-7.1,.1-.1,0-.2,0-.3,0-.3,0-.3,0-.3-.3,0-.8,0-1.6,0-2.3,0-1.1-.7-2-2.3-1.7-.7,.2-1.5,.4-2.2,.6-1,.3-1.4,1.1-1.5,2.1,0,.5-.1,1,0,1.5,0,.2,0,.3-.3,.3-1.7,0-3.3,0-5,.2-3.2,.1-6.4,.3-9.6,.4-1.8,0-3.5,.1-5.3,.2-1.4,0-2.8,.2-4.2,.5-2.4,.5-3.9,2-4.5,4.4-1.6,6.4-3.4,12.7-4.8,19.1-.4,1.8-.8,3.6-1.1,5.4-.2,1.4-.3,2.8,0,4.2,0,.4,.4,.7,.4,1,0,.3-.4,.6-.5,.9,0,.2,0,.5-.2,.7,0-13.8,0-27.7,0-41.5,0-.3,0-.3,.3-.3,25.5,0,51.1,0,76.6,0,0,0,0,0,0,0Z"/><path class="cls-2" d="M18.7,48.1c1.1,.4,2.2,.7,3.3,.9,.7,.1,1.4,.2,2.2,0,.6-.1,1-.5,1.1-1,.1-.6,0-1.1-.5-1.5-.5-.5-1.2-.6-1.9-.7-1.1,0-2.2,0-3.3,.3-.4,0-.4,0-.3-.3,.3-1.1,.9-1.9,1.7-2.5,.7-.5,1.4-.9,2.2-1.2,.1,0,.3,0,.3-.2,0-.2-.2-.2-.4-.2-1.3,0-2.6,.1-3.7,.9-1,.7-1.6,.2-2.1-.6-.4-.8-.6-1.7-.6-2.6,0-3.1,.7-6,2.2-8.7,.3-.6,.7-1.1,1.2-1.5,.8-.6,1.7-.7,2.6-.3,.2,0,.3,.1,.5,.2,.4,.1,.6,0,.6-.5,0-.4,0-.8-.2-1.2-.1-.5-.3-1-.3-1.5,0-1,.7-1.7,1.7-1.7,3.6,0,7.2,0,10.8,0,1.6,0,3.1,0,4.7,0,4.3,0,8.5,0,12.8,0,4.9,0,9.9,0,14.8,0,5,0,10,0,15,0,.5,0,1,0,1.5,0,.3,0,.4,0,.6,.3,.7,.9,.9,1.9,.9,3,0,1.4-.5,2.7-1,3.9-.3,.8-.7,1.7-1.1,2.5-.6,1.5-.5,3,.3,4.4,.4,.8,.9,1.6,1.2,2.4,.6,1.9,.2,3.5-1.1,5.1-.2-.2-.2-.5-.2-.7-.2-.7-.5-1.4-1-2-.2-.2-.5-.4-.7-.5-.5-.2-1-.1-1.4,.2-.4,.3-.4,.8-.4,1.2,.1,.8,.6,1.5,1,2.1,0,.1,.2,.3,.3,.4-.2,0-.3,0-.4-.1-.8-.3-1.5-.6-2.3-.5-.8,.1-1.3,.7-1.5,1.6-.1,.7,.2,1.4,.9,1.8,.8,.4,1.6,.5,2.5,.5,.2,0,.5,0,.7,0,0,.3-.3,.4-.5,.6-.7,.4-1.4,.5-2.2,.7-1,.2-2,.2-2.9,.2-16.1,0-32.3,0-48.4,0-1.5,0-2.9,0-4.4-.2-1.3-.2-2.6-.5-3.7-1.3-.5-.4-.8-.9-.8-1.6Z"/><path class="cls-2" d="M16.8,67.2c-.4-.6-.7-1.1-1.1-1.6-.8-1.1-1.7-2-2.9-2.6-.2,0-.4-.2-.5-.3-.4,0-.5-.3-.6-.7-.5-1.7-1-3.4-.9-5.2,0-.5,0-1,.2-1.4,.2-.4,.4-.7,.9-.7,2.2,0,4.3-.1,6.5-.2,1.9,0,3.8,0,5.6-.1,1.9,0,3.7,0,5.6-.1,1.9,0,3.8,0,5.7-.1,1.9,0,3.7,0,5.6-.1,1.9,0,3.8,0,5.6-.1,1.9,0,3.8,0,5.6-.1,1.9,0,3.8,0,5.6-.1,1.9,0,3.7,0,5.6-.1,1.9,0,3.8,0,5.7-.1,1.9,0,3.8,0,5.6-.1,1.9,0,3.7,0,5.6-.1,1.9,0,3.8,0,5.6-.1,.6,0,1.2,0,1.8,0,.2,0,.3,0,.4,.3,.2,2.7,.4,5.4,.6,8.1,.1,1.5,.2,2.9,.3,4.4,0,.3,0,.4-.3,.5-.4,.2-.8,.6-1.2,.9-.1,0-.2,.2-.4,.1-.2,0-.1-.3-.1-.4,0-.7,.2-1.3,.2-2,0-1.1,0-2.1-1-2.8-.4-.3-.8-.5-1.3-.4-.5,.2-.7,.6-.8,1.1-.1,.9,0,1.7,.3,2.5,.1,.4,.3,.7,.4,1.1,0,0,.1,.2,0,.3-.1,.1-.2,0-.3,0-.6-.3-1.2-.5-1.8-.6-1.7-.3-3,.5-3.7,2.1-.1,.3-.2,.7-.3,1,0,.1,0,.3,0,.3,.1,0,.2,0,.3-.1,.5-.5,1-.9,1.6-1.1,1.6-.8,2.8,.7,2.9,1.8,0,.9-.3,1.6-.8,2.2-1.4,1.5-3.1,2.5-5,3.1-2.2,.7-4.5,1.2-6.9,1.2-.8,0-1.5,0-2.3-.3-1-.3-1.9-.8-2.6-1.6-2.2-2.5-4.8-4.6-7.6-6.3-.1,0-.2-.2-.3-.4,0-.4-.2-.6-.4-.9-.8-1.1-1.8-2.1-3-2.8,0,0-.1,0-.2-.1,0,0,0,0,0-.1,.6,0,1.2,0,1.8-.2,1.1-.2,2.2-.4,3.2-.8,1.1-.5,1.5-1.8,.8-2.7-.5-.6-1.1-.8-1.9-.9-1.3-.1-2.5,0-3.7,.4,0,0-.2,0-.3,0,.2-.3,.5-.6,.7-.9,.5-.7,.8-1.4,.7-2.3-.1-1-.7-1.7-1.7-2-.6-.1-1.2-.2-1.8,0-.8,.1-1.4,.6-1.9,1.3-.7,1-1.2,2-1.5,3.2-.1,0-.1-.2-.2-.2-1-1.6-2.3-2.6-4.2-2.6-1.7,0-2.6,1.2-2.2,2.9,.3,1.1,1,1.9,1.9,2.5,.4,.3,.7,.5,1.2,.7-.9,0-1.7,.1-2.5,.5-.8,.3-1.6,.3-2.4,.3-2.8,.1-5.5,.4-8.2,1.2-1.5,.5-2.9,1.3-4.1,2.4-1.2,1.1-2.7,1.7-4.4,1.9,.4-.4,.8-.8,1.1-1.2,1.4-1.7,2.2-3.6,2.4-5.8,0-.6,0-.6-.5-.4-2.1,.6-3.6,1.9-4.8,3.6-.4,.6-.8,1.3-1.1,2.1-.1-1.1-.3-2.1-.5-3-.3-1-.6-2-1.1-3-.3-.6-.4-.6-.7,0-1.2,1.9-1.8,4-1.8,6.3Z"/><path class="cls-13" d="M86.8,83.8c0,0-.2,0-.3,0-7.4,0-14.8,0-22.1,0,0,0,0,0-.1,0-.2-.1-.2-.3-.2-.5-.5-3-1.1-5.9-2.3-8.6-.5-1.1-1-2.2-2-3-.4-.4-.8-.6-1.3-.7-.6-.2-1.2-.2-1.9-.3-1,0-2-.1-2.9,0-1.4,0-2.7,.1-4.1,.2-2.5,.2-5.1,.5-7.6,.9-1.7,.3-3.3,.6-5,1.1-1.4,.4-2.4,1.2-2.9,2.6-.7,1.8-1,3.7-1.3,5.6-.1,.8-.2,1.7-.3,2.5,0,.1,0,.2-.1,.3-.1,0-.2,0-.4,0-3.2,0-6.5,0-9.7,0-.3,0-.5,0-.3-.4,.1-.3,0-.6-.1-.9-.4-.8-.9-1.6-1.1-2.5,0-.3-.2-.7-.3-1-.3-1.1-1-1.6-2.1-1.7-.2,0-.3,0-.4-.3-2.2-4.6-4.2-9.2-5.8-14,0-.1,0-.2-.1-.4,.8,.3,1.4,.7,2,1.2,1.2,1,2,2.3,2.8,3.7,0,.1,.1,.4,.3,.3,.2,0,0-.2,0-.4-.1-2.3,.4-4.4,1.6-6.4,0,0,.1-.2,.2-.2,0,0,0,0,0,0,.5,.8,.8,1.7,1,2.6,.4,1.3,.6,2.7,.7,4,0,.1,0,.3,.2,.3,.2,0,.2-.2,.2-.3,.6-1.7,1.5-3.2,2.9-4.4,.9-.8,1.8-1.3,2.9-1.7,.2,0,.3,0,.2,.2-.3,2.8-1.6,5-3.6,6.8-.1,0-.3,.2-.2,.3,0,.1,.2,.1,.4,.1,.7,0,1.3-.2,2-.4,1.2-.4,2.2-1,3.2-1.8,1.7-1.5,3.7-2.3,5.9-2.7,2.2-.5,4.4-.7,6.8-.7-.2,.1-.3,.2-.4,.2-1.5,.8-1,2.5,0,3.2,.9,.6,1.8,.6,2.8,.3,.8-.2,1.5-.7,2.2-1.1,.1,0,.2-.2,.4-.2-.2,.2-.3,.5-.5,.7-.4,.6-.7,1.4-.7,2.1,0,1.4,.9,2.1,2.2,1.7,1.3-.4,2.1-1.2,2.8-2.3,.4-.6,.7-1.3,.9-2.1,.4,.7,.9,1.4,1.5,2,1.3,1.1,2.7,1.6,4.4,1.1,.4-.1,.7-.3,.9-.7,0-.2,.2-.2,.3,0,1.3,.8,2.6,1.7,3.8,2.7,1.3,1.1,2.5,2.2,3.6,3.5,1,1.2,2.4,1.7,3.9,1.9,2.2,.2,4.4-.2,6.5-.7,2.1-.5,4-1.3,5.6-2.6,.8-.6,1.4-1.3,1.8-2.2,.5-1.1,.2-2.3-.6-3.1-.6-.6-1.4-.8-2.2-.5-.5,.2-.9,.4-1.3,.7-.1,0-.2,.2-.4,.3,.4-1.2,1.1-2.1,2.3-2.3,.9-.2,1.7,0,2.5,.4,.3,.1,.5,.2,.8,.3,.3,0,.5,0,.5-.4,0-.3-.1-.5-.2-.8-.5-.9-.7-1.8-.6-2.8,0-.4,.2-.8,.6-1,.4-.2,.7,0,1.1,.2,.5,.5,.7,1.1,.8,1.8,0,.8,0,1.5-.2,2.3,0,.3-.1,.6,0,.9,0,.4,.3,.5,.7,.3,.4-.1,.6-.4,.9-.7,.2-.2,.5-.5,.7-.4,.2,0,0,.5,0,.7,.1,1.2,.2,2.5,.3,3.8,0,.9,.1,1.8,.2,2.7,0,0,0,.1,0,.2-.7,.9-1.1,2-1.4,3.1-.5,1.8-.8,3.6-1,5.4,0,.5,0,.9-.1,1.4,0,0,0,.2,0,.3Z"/><path class="cls-13" d="M23.9,24.3c-.7,.6-.9,1.3-.8,2.1,0,.4,.2,.7,.2,1.1,0,.3,.1,.7,.2,1,0,.1,0,.2,0,.3-.1,0-.2,0-.3,0-.3-.2-.7-.3-1.1-.4-.9-.1-1.6,.2-2.3,.7-.9,.8-1.5,1.9-1.9,3.1-.9,2.4-1.4,4.8-1.4,7.3,0,1.1,.2,2.1,.9,3,.6,.8,1.3,.9,2.1,.4,.8-.5,1.7-.8,2.7-.8,0,.2-.2,.2-.3,.2-1.3,.7-2.3,1.6-2.8,3-.1,.3-.2,.6-.2,.9,0,.3,0,.4,.3,.3,.6-.2,1.3-.3,1.9-.3,.9,0,1.8-.2,2.7,.1,.5,.2,.9,.4,1.1,.9,.3,.8-.2,1.4-1.1,1.5-1,.2-1.9,0-2.9-.3-.8-.2-1.5-.4-2.2-.7-.3-.1-.4,0-.4,.3,0,.7,.3,1.3,.8,1.7,.8,.8,1.9,1.1,3,1.3,1.3,.3,2.7,.4,4.1,.4,16.9,0,33.9,0,50.8,0,1.4,0,2.7-.1,4-.7,.5-.2,.9-.5,1.1-1,.1-.3,0-.3-.3-.3-.9,0-1.8,0-2.6-.3-1.2-.4-1.6-1.4-.9-2.4,.3-.5,1-.8,1.7-.6,.9,.2,1.7,.6,2.5,1.1,.1,0,.2,.3,.4,.1,.1-.2,0-.3-.1-.4-.5-.7-1.1-1.5-1.5-2.3-.1-.3-.2-.6-.3-1,0-.7,.5-1.1,1.2-.9,.4,.1,.7,.4,.9,.7,.5,.7,.8,1.6,1,2.5,0,.3,.2,.4,.4,.1,.9-.8,1.3-1.8,1.5-3,.3-1.6-.2-2.9-1-4.3-.4-.7-.7-1.3-1-2.1-.3-1.1,0-2.1,.4-3.2,.5-1.2,1.1-2.4,1.5-3.7,.4-1.2,.6-2.4,.4-3.6-.1-.7-.4-1.4-.8-1.9,0,0-.1-.1-.1-.3,1,0,2,0,3.1,0,.2,0,.2,.1,.2,.3,0,1.1,0,2.1,0,3.2,0,1.1,0,2.1,0,3.2,0,2.6,0,5.1-.1,7.7,0,2.4,0,4.8-.1,7.2,0,2.2-.1,4.5-.1,6.7,0,.3-.1,.3-.3,.3-1,0-2,0-3,0-2.9,0-5.8,.1-8.7,.2-1.8,0-3.7,0-5.5,.1-1.9,0-3.8,0-5.7,.1-1.8,0-3.7,0-5.5,.1-1.9,0-3.8,0-5.7,.1-1.8,0-3.7,0-5.5,.1-1.9,0-3.8,0-5.8,.1-1.8,0-3.6,0-5.4,.1-1.9,0-3.9,0-5.8,.1-1.8,0-3.5,0-5.3,.1-2.9,0-5.8,.1-8.7,.2-1.6,0-3.2,0-4.7,.1-.3,0-.6,.2-.8,0-.3-.3-.4-.7-.5-1.1-.2-1.3,0-2.6,.1-3.9,.6-4.1,1.8-8.2,2.7-12.3,1-4.1,2.1-8.2,3.2-12.3,0-.2,0-.3,.3-.3,2.2,0,4.3,0,6.5,0Z"/><path class="cls-13" d="M119.5,23.2c-.1,.1-.3,0-.4,0-1.2,0-2.4,0-3.6,0-3.5,0-7,.1-10.5,.2-2,0-4,0-6,0-3.5,0-7,0-10.6,0-3.6,0-7.3,0-10.9,0-4.4,0-8.7,0-13.1,0-5.1,0-10.3,0-15.4,0-4.6,0-9.1,0-13.7,0-1,0-2,0-3,0-4.7,0-9.4,0-14.1,0-.3,0-.7,0-1.1,0,.2-.6,.4-1.1,.8-1.5,.9-1,2-1.4,3.3-1.7,1.3-.3,2.6-.4,3.9-.4,2.3-.1,4.5-.2,6.8-.3,1.5,0,3-.1,4.4-.2,2,0,4-.1,6-.2,1.5,0,3-.1,4.5-.1,.5,0,1,0,1.5,0,.3,0,.3,.1,.3,.3,0,.2,.1,.4-.3,.4,0,0-.1,0-.2,0-.3,0-.3,0-.2,.3,.3,.6,.5,1.2,.3,1.9,0,.3,.2,.2,.3,.2,.9,0,1.7,0,2.6,0,.1,0,.3,0,.4,0q1,0,1-1c0-.3,0-.5-.2-.7-.3-.6-.5-.8-1.1-.7-.3,0-.4,0-.3-.3,0-.2-.2-.5,.3-.5,2.9,0,5.8-.1,8.7-.2,4.2,0,8.4,0,12.6,0,2.2,0,4.4,0,6.6,0,1.7,0,3.3,0,5,0,.6,0,1.2,0,1.8,0,.2,0,.2,0,.2,.3,0,.2,0,.3-.2,.3-.5,0-.5,0-.3,.6,.2,.5,.3,1,.2,1.5,0,.2,0,.3,.3,.3,1.2,0,2.4,0,3.6,0,.2,0,.3,0,.4-.3,0-.5,0-1-.2-1.4-.2-.6-.4-.7-1.1-.8-.1,0-.3,0-.3-.2,0-.2,0-.3,.3-.3,1.1,0,2.2,0,3.3,0,1.5,0,2.9,0,4.4,.1,2.3,0,4.6,.1,7,.2,1.9,0,3.8,0,5.7,.2,2.6,.2,5.2,.5,7.7,1.6,.9,.4,1.8,.9,2.4,1.7Z"/><path class="cls-2" d="M89.3,65.7c-.1-.5,0-1-.1-1.5-.2-2.3-.3-4.5-.5-6.8,0-1.5-.2-3-.3-4.5,0-.2,0-.3,.2-.3,1.9,0,3.7,0,5.6-.1,2.9,0,5.8-.1,8.7-.2,1.8,0,3.7,0,5.5-.1,2.8,0,5.7-.1,8.5-.2,1.8,0,3.7,0,5.5-.1,1.1,0,2.2,0,3.3-.1,.3,0,.4,0,.4,.3-.1,1.9-.2,3.9-.4,5.9-.5-.7-1.3-.9-2.1-1-1,0-2,0-2.9,.4,0,0-.2,0-.3,0,.3-.4,.6-.9,.9-1.3,0-.1,.2-.3,.2-.4,.3-.7,.4-1.3,0-1.9-.5-.7-1.2-.8-2-.6-1,.2-1.6,.9-2,1.8-.2,.5-.3,1-.5,1.6-.3-.6-.6-1.1-1-1.5-.7-.9-1.6-1.5-2.8-1.4-1.5,0-2.3,1.1-1.9,2.6,.3,1,1,1.7,1.9,2.2,.1,0,.3,.2,.5,.3-.9,0-1.7,.1-2.5,.2-1.1,.2-1.8,.8-2,1.6-.1,.6,0,1,.5,1.3,.4,.3,.8,.4,1.3,.4,1.1,.2,2.2,0,3.3-.3,0,0,0,0,.1,0-.2,.4-.4,.7-.7,1-.5,.7-.9,1.4-.8,2.3,0,1.1,.5,1.5,1.6,1.5,.7,0,1.3-.1,1.9-.4,.8-.3,1.2-.8,1.3-1.6,0-.5,.2-1.1,.3-1.6,.2,.2,.3,.5,.5,.7,.4,.5,.8,1,1.2,1.6,.8,1,2,.9,2.9,.5,.6-.3,.6-.8,.6-1.3-.1-1.4-.8-2.5-1.9-3.4,0,0-.2,0-.2-.2,.8,0,1.6-.1,2.3-.3,.8-.2,1.5-.4,2.1-1.1,0,.6,0,1.2-.1,1.8-.1,1.5-.2,3-.3,4.4-.1,1.7-.3,3.4-.4,5,0,.6-.1,1.2-.2,1.9,0,.4-.2,.4-.5,.4-.9,0-1.8-.2-2.7-.5-2.1-.8-4-2-5.9-3.3-1.5-1.1-3-2.2-4.6-3.2-2.7-1.7-5.6-2.7-8.8-3-4.4-.4-8.7,.2-12.7,2.3,0,0,0,0-.1,0Z"/><path class="cls-102" d="M48.4,72.5c6.2,0,11.6,5.2,11.4,11.6-.1,6.1-5.1,11.5-11.7,11.3-6.2-.2-11.3-5-11.3-11.6,0-6.4,5.2-11.5,11.6-11.4Z"/><path class="cls-102" d="M104.7,72.5c6.2,0,11.5,5.1,11.4,11.5,0,6.3-5.1,11.7-11.7,11.5-6.1-.1-11.4-5-11.3-11.8,0-6.2,5.2-11.3,11.6-11.2Z"/><path class="cls-13" d="M89.9,73.3c-.1-.2-.1-.4-.1-.5-.1-1.9-.3-3.8-.4-5.8h0c0-.9,0-.9,.7-1.3,2.2-1,4.5-1.7,6.9-2,5.8-.7,11,.7,15.7,4.2,2.1,1.6,4.2,3.1,6.6,4.3,1.1,.6,2.3,1.1,3.6,1.3,.5,0,.9,.2,1.4,0,.2,0,.3,0,.3,.3,0,.8-.1,1.5-.2,2.3-.2,1.3-.3,2.6-.5,3.8-.2,1.2-.3,2.3-.7,3.4-.1,.3-.3,.4-.6,.4-1.3,0-2.5,0-3.8,0-.2-.1-.2-.3-.2-.5-.4-2.4-.9-4.9-1.7-7.2-.4-1.2-.9-2.4-1.6-3.5-.8-1.2-1.9-1.9-3.4-2-1.5-.1-2.9-.2-4.4-.1-1.9,0-3.9,.2-5.8,.4-2.6,.3-5.2,.6-7.7,1.1-1.3,.3-2.5,.5-3.7,1.1,0,0-.2,0-.2,0Z"/><path class="cls-13" d="M88.4,51.3c0-1.3,0-2.7,0-4.1,0-2.5,0-5,.1-7.5,0-2.4,0-4.7,.1-7.1,0-2.5,0-5,.1-7.5,0-.1,0-.3,0-.4,0-.8,0-.8,.9-.8,3.3,0,6.5,0,9.8,0,2.3,0,4.5,0,6.8,0,1.9,0,3.7,0,5.6,0,.6,0,1.3,0,1.9,0,.2,0,.4,0,.4,.3,1.6,3.7,3.1,7.4,4.7,11.1,2.2,5.2,4.4,10.4,6.6,15.6,.3,.7,.3,.7-.5,.7-2.3,0-4.7,.1-7,.2-1.8,0-3.7,0-5.5,.1-1.9,0-3.8,0-5.7,.1-1.8,0-3.7,0-5.5,.1-1.9,0-3.8,0-5.7,.1-1.8,0-3.6,0-5.4,.1-.6,0-1.1,0-1.7,0-.2,0-.3,0-.3-.3,0-.2,0-.5,0-.8Z"/><path class="cls-50" d="M32.4,83.8c.1-1.9,.4-3.8,.8-5.6,.2-1,.5-2.1,.9-3.1,.5-1.3,1.3-2.1,2.7-2.4,1.9-.5,3.8-.9,5.7-1.2,1.6-.3,3.3-.5,4.9-.6,1.6-.2,3.3-.3,4.9-.3,1.4,0,2.9,0,4.3,0,.6,0,1.2,.1,1.8,.2,1.1,.2,1.8,.9,2.3,1.8,1,1.4,1.6,3.1,2.1,4.7,.7,2.2,1.1,4.4,1.5,6.6,0,.2-.2,.2-.4,.2-1.1,0-2.2,0-3.3,0-.2,0-.3,0-.3-.3-.1-2.6-.9-4.9-2.5-7-1.8-2.3-4.1-3.8-7-4.3-1-.2-2.1-.3-3.1-.2-2.4,.2-4.6,1-6.6,2.5-1.5,1.1-2.5,2.6-3.3,4.2-.5,1.1-.9,2.3-1,3.6,0,.4,0,.8,0,1.1,0,.3,0,.3-.3,.3-1.1,0-2.3,0-3.4,0-.2,0-.3,0-.3-.2Z"/><path class="cls-50" d="M89.9,73.3c.8-.5,1.7-.7,2.5-.9,2.2-.5,4.4-.9,6.6-1.2,2.6-.3,5.2-.6,7.9-.7,1.7,0,3.3,0,4.9,0,1.7,.1,2.8,1,3.6,2.4,1,1.6,1.6,3.4,2.1,5.2,.5,1.8,.9,3.7,1.2,5.6,0,.1-.2,.2-.3,.2-.5,0-1,0-1.5,0-.3,0-.4-.1-.4-.4,0-2.5-.9-4.7-2.3-6.7-1.4-1.9-3.2-3.2-5.4-4.1-1.6-.6-3.2-.8-4.9-.7-2.5,.2-4.7,1.1-6.7,2.6-2.2,1.8-3.6,4.1-4.1,6.9-.1,.6-.2,1.3-.2,2,0,.2-.1,.3-.3,.3-1.8,0-3.5,0-5.3,0-.2,0-.3,0-.3-.2,0-1.5,.3-3,.5-4.5,.2-1.3,.5-2.7,1-3.9,.3-.7,.6-1.3,1.1-1.9,.1,0,.2,0,.3-.2Z"/><path class="cls-65" d="M55.7,69.1c-1.5,0-2.7-.9-3.6-2.2-.3-.4-.5-.8-.7-1.2,0-.1,0-.3-.2-.2-.2,0-.2,.2-.2,.3-.4,1.5-1.1,2.8-2.3,3.8-.4,.3-.9,.6-1.4,.7-.9,.2-1.6-.3-1.6-1.3,0-.8,.2-1.5,.6-2.2,.3-.5,.7-.9,1.1-1.4,0,0,.2-.2,.1-.3,0-.1-.2,0-.4,0-.6,.3-1.2,.7-1.8,1-.8,.5-1.6,.9-2.6,.9-.7,0-1.4-.2-1.9-.7-.7-.8-.6-1.8,.3-2.4,1.2-.7,2.5-1.1,3.8-1.2,.4,0,.8,0,1.2,0,.1,0,.2,0,.3-.1,0-.2,0-.2-.2-.2-.9-.4-1.7-.9-2.4-1.5-.7-.6-1.2-1.4-1.2-2.4,0-1.3,.8-2,2-1.9,2.1,.2,3.5,1.3,4.2,3.2,0,.1,0,.3,.2,.2,.2,0,.2-.2,.2-.3,.2-1.4,.7-2.6,1.6-3.8,.9-1.3,2.5-1.3,3.6-.9,.9,.4,1.3,1.4,1,2.5-.2,.7-.6,1.3-1.1,1.8-.3,.3-.6,.6-.9,.8,0,0-.2,.1-.1,.3,0,.2,.2,0,.3,0,1.3-.6,2.8-.9,4.2-.9,.5,0,1,0,1.5,.3,.6,.3,.9,.7,.9,1.4,0,.7-.4,1.1-1,1.3-.9,.4-1.9,.6-2.9,.7-.9,.1-1.8,.2-2.7,.2-.1,0-.3,0-.3,.1,0,.2,.1,.2,.2,.3,1.4,.7,2.5,1.6,3.5,2.7,.2,.3,.4,.6,.6,.9,.2,.5,0,.9-.4,1.2-.5,.3-1,.4-1.7,.4Z"/><path class="cls-2" d="M130.1,64.7c-.8-.8-1.8-1.3-2.8-1.7-.1,0-.3-.2-.4,0-.1,.1,0,.3,0,.4,.3,1,.8,1.9,1.6,2.7-.8,.1-1.5,.2-2.1,.7-.4,.3-.4,.5,0,.7,.6,.3,1.2,.3,1.8,.2,.2,0,.3,0,.2,.2-.4,1.5-.9,2.9-1.9,4.1-.5,.6-1.2,1-1.8,1.2,0-.8,.1-1.6,.2-2.4,.1-1.3,.2-2.7,.3-4,.2-2.2,.3-4.4,.5-6.5,.1-1.6,.2-3.3,.3-4.9,0-1.1,.1-2.3,.2-3.4,0-.2,0-.2,.3-.2,1.5,0,2.9,0,4.4,0,.2,0,.5,0,.7,0,.6-.1,1,.2,1.3,.7,.7,.9,1,1.9,1.2,3,.4,1.6,.2,3.1,0,4.7-.1,1-.3,1.9-.5,2.9,0,.2-.1,.4-.3,.5-.4,.3-.8,.7-1.2,1.2,0-.7,0-1.2,0-1.8,0-.9-.2-1.7-.4-2.5,0-.1,0-.3-.2-.3-.1,0-.2,.1-.3,.2-.7,1.1-1.1,2.3-1.2,3.6,0,.3,0,.6,0,.9Z"/><path class="cls-65" d="M113.4,53.9c1.1,0,2,.6,2.6,1.5,.3,.5,.6,1,.9,1.6,0,.1,0,.3,.3,.3,.2,0,.1-.2,.2-.3,.2-.9,.3-1.8,.9-2.5,.4-.5,.8-.8,1.5-1,1-.2,2,.6,1.9,1.5,0,.3-.2,.6-.3,.8-.4,.7-.9,1.4-1.4,2,0,.1-.2,.2-.1,.4,.1,.2,.3,0,.4,0,1.4-.7,2.8-.9,4.3-.6,.2,0,.4,.1,.6,.2,.7,.4,.8,1.2,.3,1.8-.6,.7-1.3,.9-2.1,1-.8,.1-1.5,.2-2.3,.2-.1,0-.3,0-.4,.1,0,.2,.1,.2,.3,.3,1.2,.8,2,1.8,2.3,3.2,0,.2,0,.4,0,.6,0,.5-.2,.7-.7,.9-.9,.3-1.6,.1-2.2-.6-.7-.8-1.3-1.6-1.9-2.5,0-.1-.1-.3-.3-.2-.2,0-.1,.2-.1,.3,0,.7-.2,1.5-.3,2.2-.1,.5-.4,.8-.9,1-.7,.3-1.5,.4-2.2,.4-.4,0-.7-.2-.8-.6-.2-.6-.1-1.2,.1-1.7,.2-.4,.5-.8,.8-1.2,.2-.3,.5-.7,.7-1.1,0-.1,.1-.2,0-.3-.1-.1-.2,0-.3,0-1.2,.4-2.4,.5-3.6,.4-.2,0-.4,0-.6-.2-.9-.3-1.1-1.3-.4-2,.6-.5,1.3-.6,2-.7,.7,0,1.4,0,2.1-.1,.1,0,.3,0,.3-.2,0-.2-.1-.2-.3-.3-.8-.4-1.6-.8-2.1-1.6-.2-.3-.4-.7-.5-1.1-.2-1,.4-1.9,1.4-1.9,0,0,.2,0,.3,0Z"/><path class="cls-2" d="M139.4,58.2c-.1,.8-.3,1.9-.4,2.9-.4,2.6-.9,5.2-1.6,7.7-.4,1.3-.7,2.5-1.3,3.6,0,0-.1,.2-.2,.3-.4,.7-.9,1.1-1.8,.9-.6-.1-1.2-.2-1.7-.4-.3-.1-.4-.2-.3-.6,.7-3,1.4-6.1,2-9.1,.4-2.1,.8-4.2,.8-6.4,0-.7,0-.7,.7-.8,.9-.1,1.8-.1,2.7,.1,.8,.2,1.3,.7,1.2,1.7Z"/><path class="cls-13" d="M114.5,23.6c1.2,0,2.5,0,3.7,0,.4,0,.8,0,1.2,0,.2,0,.3,0,.4,.2,0,0,0,.1,0,.2,.2,.7,.2,.8-.5,1.1-.8,.3-1.4,.8-1.6,1.7-.1,.6,0,1.1,.2,1.6,1.2,2.7,2.5,5.3,3.7,8,1.6,3.4,3.2,6.9,4.8,10.3,.3,.7,.7,1.3,1.5,1.4,.5,.1,1,0,1.6,0,.4,0,.7,0,1.1,0,.7,.2,1.2,.7,1.3,1.4,0,.5,0,.9,0,1.4,0,.2,0,.2-.2,.2-1.6,0-3.3,0-4.9,.1-.6,0-.6,0-.8-.6-3.8-8.9-7.6-17.8-11.4-26.7,0-.1-.1-.2-.1-.5Z"/><path class="cls-13" d="M128.5,69.5c0,.7-.1,1.5,0,2.2,0,.2,.1,.4,.2,.5,.3,.7,.9,.8,1.5,.4,.6-.4,1-1,1.3-1.7,.7-1.4,1-2.9,.6-4.5-.1-.5-.3-1-.9-1.1-.6-.1-1,.2-1.3,.6-.4,.5-.7,1-.9,1.6,0-.2-.2-.2-.4-.2-.6,0-1.1,0-1.7,0-.1,0-.3,0-.4-.2,.5-.4,1.1-.5,1.7-.6,.2,0,.5,0,.7,0,0,0,.2,0,.3-.1,0-.1,0-.2-.2-.2-.9-.6-1.4-1.5-1.8-2.5,0,0,0,0,0,0,0,0,.2,0,.3,0,1,.4,1.9,.9,2.6,1.8,0,0,.1,.2,.2,.1,.1,0,0-.2,0-.3,0-1.1,0-2.1,.4-3.1,.2-.5,.4-1,.7-1.4,.2,.6,.2,1.1,.3,1.6,.1,1,.1,2,0,3,0,.1,0,.2,0,.2,.1,0,.2,0,.3-.1,.3-.5,.7-1,1.3-1.4,0,.5-.1,1-.2,1.4-.8,3.7-1.6,7.4-2.6,11,0,.2-.1,.2-.3,.2-.6,0-1.3,0-1.9,0-1,0-1.5,.6-1.6,1.6,0,1.6,0,3.2,0,4.8,0,.2,0,.5,0,.7,0,.1,0,.2-.1,.2-1.2,0-2.4,0-3.6,0,.6-1.9,.8-3.9,1.1-5.9,.2-1.4,.3-2.8,.4-4.2,0-.2,0-.3,.2-.3,1.1-.3,1.9-1.1,2.5-2.1,.4-.7,.7-1.4,1-2.1,.1,0,0,0,0,.1Z"/><path class="cls-25" d="M127.2,80.6c0-.9,0-1.7,0-2.6,0-.8,.4-1.2,1.2-1.2,1.1,0,2.2,0,3.2,0,1,0,1.4,.7,1.1,1.6-.7,1.7-1.3,3.4-2,5-.3,.8-.6,1-1.4,1-.3,0-.6,0-.9,0-.7,0-1.1-.4-1.1-1.1,0-.9,0-1.8,0-2.8h0Z"/><path class="cls-5" d="M129.3,47.8c-.3,0-.5,0-.7,0-.7,0-1.1-.3-1.4-.9-2.4-5.3-4.9-10.5-7.3-15.8-.4-1-.9-1.9-1.3-2.9-.3-.6-.3-1.2,0-1.8,3.6,7.1,7.1,14.2,10.7,21.4Z"/><path class="cls-25" d="M86,20.1q.7,0,.7-.7c0-.7,0-1.5,0-2.2,0-.7-.4-1-.9-.8-.3,0-.5,.3-.6,.6,0,.5,0,1.1,0,1.6,0,.4,0,.5-.5,.5-.3,0-.6,0-1,0-.1,0-.2,0-.2-.2,0-.8,0-1.6,.2-2.4,.1-.5,.4-.8,.9-1,.7-.2,1.4-.5,2.1-.7,1.2-.4,1.9,.2,1.9,1.4,0,1,0,2,0,2.9,0,0,0,.2,0,.3,0,.7,0,.7,.7,.7,.4,0,.6,.2,.7,.5,.2,.4,.2,.9,.2,1.3,0,.2,0,.2-.2,.2-1.1,0-2.2,0-3.3,0,0,0-.2,0-.2-.1,0-.6-.1-1.2-.4-1.8Z"/><path class="cls-25" d="M48.3,20.5q.6,0,.6-.7c0-.8,0-1.6,0-2.3,0-.6-.6-.9-1.1-.6-.3,.2-.4,.4-.4,.7,0,.5,0,1,0,1.4,0,.2,0,.3-.3,.3-.4,0-.8,0-1.2,0-.1,0-.2,0-.2-.1,0-.8,0-1.5,.2-2.3,.1-.5,.4-.9,1-1.1,.7-.2,1.5-.5,2.2-.7,1-.3,1.7,.2,1.7,1.3,0,1.2,0,2.5,0,3.7,0,.3,0,.4,.4,.4,.8,0,1,.2,1.1,.9q.2,1-.9,1c-.8,0-1.7,0-2.5,0-.3,0-.3,0-.3-.3,0-.6-.1-1.1-.3-1.6Z"/><path class="cls-25" d="M16.7,80c0-.4,0-.7,.2-1.1,.3-.9,.9-1.3,1.9-1.1,.8,.1,1.3,.7,1.5,1.4,.3,1.2,.8,2.3,1.3,3.3,.4,.8,.2,1.3-.5,1.6-1.1,.5-2.4,.2-3.1-.7-.8-1-1.1-2.2-1.2-3.5Z"/><path class="cls-5" d="M132.1,67.6c0,1.4-.4,2.8-1.2,4-.2,.3-.4,.5-.6,.7-.5,.4-1,.3-1.3-.3-.2-.3-.2-.7-.3-1,0-1.4,.2-2.7,.8-4,.2-.5,.6-.9,1-1.3,.5-.3,.9-.2,1.2,.3,.3,.5,.3,1.1,.3,1.6Z"/><path class="cls-7" d="M86.2,17.9c0,.2,0,.4,0,.6,0,.3,0,.3-.3,.3-.2,0-.3,0-.3-.3,0-.4,0-.8,0-1.1,0-.1,0-.3,0-.4,0-.2,.2-.2,.4-.2,.2,0,.2,.2,.2,.3,0,.3,0,.5,0,.8h0Z"/><path class="cls-9" d="M48.5,18.2c0,.2,0,.4,0,.5,0,.3,0,.3-.3,.3-.3,0-.4,0-.3-.3,0-.3,0-.7,0-1,0-.1,0-.2,0-.3,0-.2,.2-.2,.4-.2,.2,0,.2,.2,.2,.3,0,.2,0,.5,0,.7Z"/><path class="cls-67" d="M128.5,69.5h0v-.4c0,0,.1,0,.1,0,0,.1,0,.3,0,.4Z"/><path class="cls-79" d="M128.6,69.1h0v-.3c.2,.1,.2,.2,0,.3Z"/><path class="cls-31" d="M62.4,35.6c.2,0,.2,.1,.2,.3-.4,2.8-.9,5.6-1.3,8.4,0,.5-.2,1-.2,1.5,0,.2,0,.2-.2,.2-.6,0-1.2,0-1.8,0-.3,0-.3,0-.2-.3,.3-.6,.6-1.3,.8-2,0-.1,0-.2,0-.3,0-.3,0-.6-.3-.8-.3-.2-.6,0-.8,.2-.6,.5-.7,1.2-.8,1.8,0,.3,0,.7,0,1,0,.2,0,.3-.3,.3-.5,0-1.1,0-1.6,0-.2,0-.3,0-.2-.3,.4-2.7,.9-5.4,1.3-8.1,0-.2,0-.3,.3-.3,.6-.2,1.1-.3,1.7-.5,0,0,.2,0,.2,0,0,0,0,.2,0,.3-.1,.4-.2,.9-.3,1.3,0,.2,0,.5,0,.7,0,.3,.3,.5,.7,.3,.3-.2,.5-.4,.7-.8,.3-.7,.3-1.5,.3-2.3-.6,.2-1.2,.3-1.8,.4-.1,0-.3,0-.4,0-.2,0-.3,0-.3-.3,.2-2.1,.5-4.2,.9-6.3,.1-.6,.3-1.2,.7-1.8,.3-.4,.8-.7,1.3-.7,1.2-.1,2.3,0,3.5,.1,.3,0,.5,.3,.6,.5,.3,.5,.5,1.1,.6,1.6,.1,.9,.2,1.8,0,2.6-.1,.8-.5,1.4-1.1,1.8-.6,.5-1.4,.9-2.1,1.2,0,0,0,0,0,0,0,0,0,0,.1,0Z"/><path class="cls-31" d="M38.8,40c0,0,0-.1,0-.2,.2-1.5,.4-3.1,.5-4.6,.2-1.6,.4-3.2,.5-4.8,0-.8,.2-1.6,.3-2.4,0-.2,.1-.3,.3-.3,.6,0,1.2,0,1.8,0,.4,0,.4,0,.3,.4-.3,1.2-.7,2.4-.8,3.7,0,.3,0,.5,0,.7,0,.3,.2,.3,.4,0,.2-.2,.2-.4,.3-.6,.4-1,.5-2,.7-3.1,0-.3,.1-.6,.1-1,0-.2,0-.3,.3-.3,.3,0,.6,0,.8,0,.3,0,.3,0,.3,.3-.1,.7-.3,1.4-.4,2-.1,.7-.3,1.5-.1,2.2,0,.2,0,.4,.3,.5,.3,0,.4-.2,.5-.3,.4-.7,.5-1.4,.6-2.1,0-.8,.1-1.6,0-2.5,0-.2,0-.3,.3-.3,.5,0,1,0,1.5,0,.4,0,.4,0,.3,.4-.5,2-.9,4-1.4,6-.4,1.9-.9,3.8-1.3,5.7,0,.1,0,.2-.1,.3-.8,0-1.6,.1-2.3,0-.3,0-.2-.3-.1-.5,.1-.7,.3-1.5,.4-2.2,0-.6,.1-1.2,0-1.8,0-.2,0-.3-.2-.4-.2,0-.3,0-.4,.2-.4,.4-.6,.8-.7,1.4-.1,.6-.2,1.2-.2,1.9,0,.4,0,.7,0,1.1,0,.2,0,.3-.2,.4-.6,0-1.2,0-1.9,0-.1,0-.2,0-.3-.1Z"/><path class="cls-31" d="M70.9,36.4c0-.7,0-1.4,.1-2.1,0-.8,0-.6,.7-.7,.5,0,1,0,1.5-.1,.3,0,.4,0,.3,.3-.2,.9-.3,1.9-.5,2.8-.4,2.3-.7,4.6-1.1,7-.1,.7-.2,1.4-.3,2.1,0,.2-.1,.3-.3,.3-.6,0-1.2,0-1.8,0-.3,0-.4,0-.3-.4,.2-.9,.3-1.7,0-2.6-.1-.4-.3-.7-.5-1-.3-.3-.5-.3-.6,0-.2,.5-.2,1-.3,1.5,0,.7,0,1.4,0,2,0,.2,0,.3-.3,.3-.5,0-1.1,0-1.6,0-.4,0-.4,0-.4-.5,.2-1.1,.4-2.3,.6-3.4,.4-2.4,.9-4.9,1.3-7.3,0-.2,.1-.3,.3-.3,.4,0,.8-.1,1.1-.2,.6,0,1,.1,1.2,.6,.2,.4,.5,.9,.6,1.4,0,0,0,.2,.1,.3h0Z"/><path class="cls-31" d="M50.7,27.6c.7,0,1.5,0,2.2,0,.3,0,.3,0,.3,.3-.2,.7-.3,1.4-.5,2.1,0,.2-.1,.2-.3,.3-.6,0-1.3,0-1.9,.3-.3,.1-.5,.2-.7,.5-.1,.1-.3,.3-.2,.5,0,.2,.3,.2,.5,.2,.5,0,1,0,1.6,0q.6-.1,.5,.5c0,.4-.1,.9-.1,1.3,0,.2-.1,.3-.3,.3-.5,0-1,0-1.5,.1-.3,.1-.6,.3-.7,.5-.3,.5-.1,1,.5,1.2,.6,.2,1.3,0,1.9,0,.4,0,.4,0,.3,.3-.1,.7-.3,1.4-.4,2.1,0,.2-.1,.3-.3,.3-2,.4-3.9,1-5.8,1.7,0,0-.2,.1-.3,0-.1,0,0-.2,0-.3,.9-3.9,1.8-7.8,2.7-11.8,0-.3,.2-.4,.5-.4,.7,0,1.4,0,2.2,0Z"/><path class="cls-31" d="M74.1,45.7c-.6,0-1.2,0-1.9,0-.3,0-.4,0-.3-.3,.7-3.9,1.5-7.8,2.2-11.7,0-.2,.1-.3,.4-.3,1.1,0,2.2-.1,3.3-.2,.3,0,.4,0,.3,.4-.2,.8-.3,1.6-.4,2.4,0,.3-.2,.4-.5,.3-.3-.1-.7-.1-1,0-.5,0-.8,.4-.8,1,0,.5,.2,.7,.7,.9,.3,0,.6,0,.9,0,.2,0,.3,0,.2,.3,0,.6-.1,1.2-.2,1.9,0,.3-.1,.4-.4,.4-.5,0-1,0-1.4,.2-.4,.2-.7,.5-.7,1,0,.4,.1,.7,.6,.9,.4,.2,.8,.2,1.3,.1,.2,0,.3,0,.3,.2-.1,.8-.2,1.7-.3,2.5,0,.2-.2,.2-.3,.2-.6,0-1.3,0-1.9,0h0Z"/><path class="cls-31" d="M38.8,40h2.2c0,.2-.3,.2-.5,.2-.1,0-.3,0-.3,.2,0,.7,0,1.3,.3,1.9,0,0,0,.2,.1,.2,.2,.2,.3,.2,.5,0,.2-.3,.3-.7,.4-1,0-.3,.1-.6,.2-1,0-.5,.2-.6,.7-.5,.5,0,1,0,1.5,0,.1,0,.3,0,.4,.1,0,.5,0,1.1,0,1.6,0,1.2-.1,2.4-.2,3.7,0,.3-.1,.4-.4,.4-.6,0-1.1,0-1.7,0-.2,0-.3,0-.2-.3,.1-.4,.2-.7,.2-1.1,0-.1,0-.3,0-.4,0-.2-.2-.3-.4-.3-.2,0-.3,.1-.4,.3-.3,.5-.4,1-.4,1.5,0,.3-.2,.4-.5,.4-.8,0-.8,0-.6-.8,0-.3,.1-.7,.1-1,0-.2,0-.4-.3-.5-.2,0-.4,0-.5,.2-.2,.2-.3,.5-.4,.8,0,.3-.2,.6-.2,1,0,.2,0,.3-.3,.3-.5,0-1,0-1.5,0-.3,0-.3-.1-.3-.3,.5-1.7,1-3.4,1.5-5.1,0-.2,.2-.3,.4-.3,.3,0,.5,0,.8,0Z"/><path class="cls-31" d="M56.4,27.6c.7,0,1.4,0,2,0,.2,0,.3,0,.3,.3-.1,.6-.3,1.2-.4,1.7,0,.2-.1,.3-.3,.3-.5,0-1,0-1.5,.3-.2,0-.5,.2-.7,.4-.1,.1-.2,.2-.1,.4,0,.2,.2,.2,.3,.2,.5,0,1,0,1.5-.1,.3,0,.4,0,.4,.3,0,.4-.1,.8-.1,1.2,0,.2,0,.4-.4,.3-.4,0-.9,0-1.3,.2-.2,0-.3,.2-.5,.3-.2,.2-.3,.5-.2,.7,0,.3,.3,.4,.6,.4,.5,0,1.1,0,1.6-.1,.3,0,.4,0,.3,.3-.1,.6-.2,1.1-.3,1.7,0,.3-.1,.4-.5,.5-1.6,.3-3.2,.8-4.8,1.4-.1,0-.2,.1-.3,0-.1,0,0-.3,0-.4,.7-3.3,1.4-6.7,2-10,0-.3,.2-.3,.4-.3,.7,0,1.3,0,2,0Z"/><path class="cls-29" d="M33.4,32.5c.3,0,.5,0,.8,0,.3,0,.3,.1,.3,.4-.3,1-.5,2-.8,3.1-.3,1.2-.6,2.5-.9,3.7,0,.3-.2,.4-.6,.4-.3,0-.7,0-1,0-.5,0-.5,0-.3-.5,.2-.5,.5-1,.5-1.6,0-.6-.4-.8-.9-.7-.3,.1-.5,.3-.7,.6-.3,.5-.4,1.1-.4,1.7,0,.4-.1,.5-.5,.5-.4,0-.7,0-1.1,0-.3,0-.4-.1-.3-.4,.3-1.2,.6-2.5,.9-3.7,.2-1,.5-2,.7-3.1,0-.2,.1-.4,.4-.3,.5,0,.9,0,1.4,0,.3,0,.3,0,.2,.3-.2,.4-.4,.9-.5,1.3,0,.5,0,.8,.4,.9,.4,.2,.9,0,1.1-.4,.2-.3,.3-.7,.3-1.1,0-.3,0-.6,0-.9,0-.2,0-.3,.2-.2,.3,0,.6,0,.9,0Z"/><path class="cls-28" d="M35.1,40.1c-.6,0-1.2,0-1.8,0-.3,0-.3,0-.3-.3,.6-2.3,1.2-4.6,1.7-6.9,0-.2,.1-.3,.3-.3,1.1,0,2.3,0,3.4,0,.2,0,.3,0,.2,.3-.2,.5-.3,1-.4,1.6-.1,.4-.1,.4-.5,.2-.2-.1-.4-.3-.7-.3-.4,0-.7,.1-.8,.5-.1,.4,0,.7,.4,.8,.3,0,.6,0,.9,0,.2,0,.3,0,.2,.2,0,.4-.2,.8-.2,1.2,0,.2-.2,.2-.3,0-.2-.1-.5-.2-.8-.3-.5,0-.8,.1-.9,.6,0,.4,.2,.7,.6,.8,.3,0,.6,0,.8,0,.2,0,.3,0,.2,.2-.1,.5-.2,1-.4,1.5,0,.2-.2,.2-.4,.2-.6,0-1.1,0-1.7,0Z"/><path class="cls-31" d="M53.6,45.9c-.3,0-.6,0-.9,0-.7,0-1.1-.3-1.3-.9-.3-.6-.4-1.2-.5-1.8,0-.7-.1-1.4,0-2.1,.2-1,.8-1.8,1.6-2.4,1.1-.8,2.4-1.2,3.7-1.4,.2,0,.3,0,.3,.3-.2,.9-.3,1.9-.5,2.8,0,.2-.1,.3-.3,.2-.2-.1-.4-.2-.7-.2-.7-.1-1.1,0-1.3,.7,0,.2-.1,.5-.1,.7,0,.8,.5,1.2,1.3,1,.6-.1,.6-.1,.5,.5,0,.8,0,1.6-.1,2.4,0,.2,0,.2-.3,.3-.5,0-1,0-1.4,0Z"/><path class="cls-29" d="M66.1,36.8c0,2.3-.2,4.6-.9,6.8-.2,.7-.5,1.3-.8,2-.1,.2-.3,.3-.5,.3-.6,0-1.1,0-1.7,0-.2,0-.3,0-.3-.3,.1-2.8,.3-5.7,.9-8.5,.1-.6,.3-1.2,.6-1.7,0-.2,.2-.2,.4-.3,.6,0,1.3-.2,1.9-.3,.3,0,.4,0,.4,.3,0,.5,0,1.1,0,1.6Z"/><path class="cls-37" d="M24.1,35.3c-.5,0-1,0-1.5,0-.2,0-.3,0-.2-.3,.2-.7,.4-1.4,.6-2.2,0-.2,.1-.2,.3-.2,1.7,0,3.3,0,5,0,.2,0,.3,0,.2,.3-.2,.7-.4,1.4-.6,2.2,0,.2-.1,.2-.3,.2-.3,0-.6,0-.9,0-.3,0-.3,0-.4,.3,0,1.1-.3,2.2-.5,3.2,0,0,0,0,0,.1-.3,1.1-.4,1.2-1.5,1.2-.4,0-.7,0-1.1,0-.2,0-.3,0-.3-.3,0-1.1,.2-3.2,1-4.5Z"/><path class="cls-34" d="M50.4,42.3c0,1,0,2.1,0,3.1,0,.3,0,.4-.4,.4-.5,0-1.1,0-1.6,0-.3,0-.4,0-.4-.4,0-.2,0-.5-.1-.7-.2-.4-.6-.5-1-.2-.3,.3-.4,.6-.4,.9,0,.2,0,.3-.3,.3-.6,0-1.1,0-1.7,0-.2,0-.3,0-.3-.3,.1-1.3,.4-2.6,.9-3.8,.4-1,1-1.6,1.9-2,.9-.4,1.8-.7,2.8-.8,.3,0,.4,0,.4,.4,0,1,0,2.1,0,3.1Z"/><path class="cls-108" d="M44.3,40.1c-.4-.1-.8,0-1.2,0-.2,0-.5,0-.7,0,0,0,0,0,0,0,0,0,0,0,0,0h2.4c-.1,.2-.4,0-.5,.1Z"/><path class="cls-22" d="M62.4,35.6c0,0-.2,0-.3,0,0-.1,.1-.1,.2-.1h0Z"/><path class="cls-62" d="M99.5,56.4c-.3,0-.6,0-.8,0-.8-.4-1.6-.4-2.5-.5-.6,0-1.2,0-1.8,0-.3,0-.4,0-.6,.3-.3,.7-1.2,1.1-2,1-.9-.1-1.5-.6-1.7-1.4-.3-1,.5-2.1,1.6-2.2,.7,0,1.3,0,1.8,.6,0,0,.2,.1,.3,.1,1.8-.1,3.6,0,5.3-.1,.2,0,.5,0,.7,0,.6,.2,.9,.6,.9,1.1,0,.5-.5,1-1.1,1-.1,0-.2,0-.3,0Z"/><path class="cls-31" d="M54.5,84c0,3.3-2.7,6.2-6.2,6.2-3.3,0-6.4-2.4-6.3-6.5,0-3.3,2.6-5.9,6.3-6,3.4,0,6.2,2.9,6.2,6.3Z"/><path class="cls-31" d="M98.4,84c0-3.4,2.8-6.2,6.2-6.2,3.5,0,6.2,2.8,6.2,6.3,0,3.3-2.6,6.1-6.1,6.1-3.4,0-6.3-2.7-6.3-6.2Z"/><path class="cls-49" d="M102.6,25.5c1.2,0,2.9,0,4.6,0,2.5-.1,4.5,1,6.3,2.7,1.5,1.5,2.6,3.2,3.6,5.1,1.8,3.5,3,7.2,3.9,11,.5,1.9,.8,3.8,1.1,5.7,0,.3,0,.4-.4,.4-2.6,0-5.2,0-7.8,0-2.1,0-4.2,0-6.3,0-1.7,0-3.3,0-5,0-1.7,0-3.4,0-5.1,0-1.7,0-3.3,0-5,0-.5,0-1,0-1.5,0-.3,0-.3,0-.4-.3,0-1,0-2,0-3,0-1.9-.1-3.9-.2-5.8,0-1.8-.1-3.6-.2-5.4,0-2.1-.3-4.2-.3-6.3,0-.5,0-1,.2-1.5,.4-1.2,1.3-1.9,2.5-2.2,1-.3,2-.4,3.1-.5,2.1-.1,4.2-.1,6.8-.1Z"/><path class="cls-31" d="M53.3,62.2c-.2,1.9-2.1,2.9-4,2.1-.9-.4-1.3-1.1-1.3-1.8,0-.7,.5-1.3,1.1-1.6,.9-.5,1.8-.6,2.8-.5,.9,.1,1.4,.9,1.4,1.8Z"/><path class="cls-32" d="M117.5,61.6c-.6,0-1.1-.2-1.6-.5-.5-.3-.7-.8-.7-1.4,0-.6,.4-1,1-1.2,.6-.2,1.1-.2,1.7,0,.9,.2,1.3,.8,1.3,1.7,0,.8-.7,1.4-1.6,1.4,0,0-.1,0-.2,0Z"/><path class="cls-30" d="M127.9,75.2c0-.7,.2-1.3,.6-1.8,.2-.3,.4-.5,.8-.4,.3,.1,.4,.4,.4,.7,0,.6,0,1.2-.4,1.8,0,.2-.2,.4-.4,.5-.4,.3-.9,.2-1-.3,0-.2,0-.4,0-.6Z"/><path class="cls-6" d="M62,27.7c.7,0,1.4,0,2.1,.1,.3,0,.4,.2,.6,.4,.3,.5,.5,1,.6,1.5,.1,.7,.2,1.5,.1,2.2,0,1-.5,1.8-1.3,2.3-1.7,1.1-3.5,1.8-5.4,2.1-.4,0-.4,0-.4-.5,.2-1.9,.4-3.8,.8-5.6,0-.4,.2-.7,.3-1,.3-1,1-1.5,2-1.5,.2,0,.4,0,.6,0Z"/><path class="cls-6" d="M59.2,45.7c.2-.5,.4-1,.6-1.4,.1-.4,.3-.8,.2-1.1,0-.7-.5-1-1.2-.8-.5,.2-.7,.5-.9,.9-.3,.7-.4,1.4-.4,2.1,0,.4-.1,.4-.4,.4-.3,0-.6,0-.9,0-.2,0-.3,0-.2-.3,.4-2.5,.8-5.1,1.2-7.6,0-.2,.1-.3,.4-.4,.4-.1,.8-.2,1.3-.4,0,.5-.2,.9-.3,1.3,0,.1,0,.2,0,.4,0,.3,0,.7,.4,.8,.4,.2,.7,0,1-.2,.5-.5,.6-1.1,.7-1.7,0-.3,0-.6,0-.9,0-.1,0-.2,.2-.3,.4-.1,.8-.2,1.2-.4,.2,0,.2,0,.2,.2-.4,2.3-.7,4.6-1.1,6.9-.1,.8-.3,1.6-.4,2.4,0,.2,0,.3-.2,.3-.5,0-1,0-1.5,0Z"/><path class="cls-66" d="M61.5,35.8c0,0,.1,0,.2,0,0,0,0,0,0,0,0,0-.1,0-.2,0Z"/><path class="cls-6" d="M42.2,28c-.2,.9-.5,1.9-.7,2.8-.1,.5-.1,1.1-.1,1.6,0,.2,0,.5,.3,.6,.3,0,.5-.1,.6-.3,.5-.7,.6-1.5,.8-2.3,.2-.7,.3-1.5,.4-2.3,0-.2,.2-.2,.3-.2q.6,0,.5,.5c-.2,1-.4,2-.4,3,0,.4,0,.8,.1,1.1,.1,.5,.5,.6,.9,.3,.4-.4,.6-.8,.6-1.3,.2-1.1,.3-2.3,.3-3.4,0-.3,0-.4,.4-.4,.3,0,.6,0,.9,0,.3,0,.3,0,.3,.3-.2,1-.5,2.1-.7,3.1-.6,2.7-1.3,5.5-1.9,8.2,0,.3-.2,.4-.4,.3-.4,0-.8,0-1.2,0-.3,0-.4,0-.3-.4,.2-.9,.4-1.8,.4-2.7,0-.4,0-.9,0-1.3-.2-.6-.6-.8-1.1-.4-.7,.5-.9,1.2-1,1.9-.2,.9-.2,1.7-.1,2.6,0,.2,0,.3-.3,.3-.4,0-.9,0-1.3,0-.2,0-.2,0-.2-.2,.3-2.6,.6-5.2,.9-7.9,.1-1.1,.3-2.3,.4-3.4,0-.2,0-.3,.3-.3,.5,0,1.1,0,1.6,0Z"/><path class="cls-8" d="M42.4,40s0,0,0,0c-.3,0-.5,0-.5,.4,0,.6-.2,1.1-.4,1.7,0,.1,0,.2-.2,.4-.2,.4-.5,.4-.7,0-.3-.5-.3-1.1-.4-1.7,0-.3-.1-.6,0-.8,.1-.2,.5,0,.7,0,0,0,0,0,0,0,.1-.2,0-.4,0-.6,0-1.1,0-2.1,.3-3.1,.1-.4,.3-.8,.7-1,.1-.1,.3-.3,.5-.2,.2,0,.2,.3,.3,.5,.1,.6,0,1.3,0,1.9-.1,.8-.2,1.6-.4,2.4,0,0,0,.1,0,.2Z"/><path class="cls-6" d="M69.5,45.5c.2-.8,.2-1.5,.1-2.3-.1-.6-.3-1.1-.7-1.6-.4-.4-.8-.4-1,.2-.2,.5-.3,1.1-.3,1.6,0,.6,0,1.2,0,1.8,0,.2,0,.3-.3,.3-.4,0-.8,0-1.2,0-.2,0-.3,0-.2-.3,.3-1.8,.7-3.7,1-5.5,.3-1.6,.6-3.3,.9-4.9,0-.2,0-.3,.3-.3,.3,0,.6,0,1-.1,.4,0,.7,0,1,.5,.4,.7,.7,1.5,.9,2.3,0,.1,0,.3,.2,.3,.2,0,.1-.2,.1-.4,0-1,.1-2,.2-3,0-.2,0-.3,.3-.3,.5,0,.9,0,1.4-.1,.2,0,.3,0,.2,.2-.4,2.7-.9,5.4-1.3,8.1-.2,1.1-.4,2.2-.5,3.3,0,.1,0,.3-.2,.3-.6,0-1.1,0-1.7,0Z"/><path class="cls-6" d="M45.7,39.7c.3-1.4,.6-2.7,.9-4.1,.6-2.5,1.1-4.9,1.7-7.4,0-.3,.2-.4,.5-.4,1.3,0,2.5,0,3.8,0,.3,0,.4,0,.3,.4-.1,.5-.2,1-.4,1.6,0,.2-.1,.3-.3,.3-.7,0-1.4,.1-2,.4-.3,.1-.5,.3-.7,.6-.2,.4,0,.8,.4,.9,.5,.2,1.1,0,1.6,0,.1,0,.2,0,.3,0,.2,0,.2,0,.2,.2,0,.4-.1,.8-.1,1.2,0,.2-.2,.2-.3,.2-.5,0-.9,0-1.3,.1-.5,.2-.9,.4-1.1,1-.2,.6,0,1,.7,1.2,.6,.2,1.2,0,1.8,0,.4,0,.4,0,.3,.4-.1,.5-.2,1.1-.3,1.6,0,.2,0,.2-.2,.3-1.9,.4-3.8,.9-5.6,1.6,0,0,0,0-.1,0Z"/><path class="cls-6" d="M77.9,33.4c-.1,.8-.3,1.5-.4,2.3,0,.2-.1,.3-.3,.2-.4,0-.8,0-1.1,0-.5,.2-.9,.7-.9,1.3,0,.5,.3,.8,.9,1,.2,0,.5,.1,.7,.1,.2,0,.3,0,.3,.3,0,.4-.1,.9-.1,1.3,0,.3-.1,.3-.4,.3-.5,0-1,0-1.4,.3-.4,.2-.7,.5-.8,.9-.2,.7,.1,1.2,.8,1.4,.3,0,.7,.1,1,0,.3,0,.3,0,.3,.3,0,.6-.2,1.3-.2,1.9,0,.2-.1,.3-.3,.3-1.1,0-2.2,0-3.3,0-.2,0-.3,0-.2-.3,.7-3.8,1.4-7.5,2.1-11.3,0-.1,0-.3,.2-.3,1.1,0,2.2-.1,3.3-.2Z"/><path class="cls-6" d="M44,41.3c0,1.3-.1,2.6-.2,3.9,0,.2,0,.4-.3,.3-.4,0-.8,0-1.1,0-.3,0-.3,0-.2-.3,0-.4,.2-.8,0-1.2,0-.3-.2-.5-.4-.6-.3-.1-.6,0-.8,.4-.2,.4-.4,.9-.5,1.4,0,.3-.4,.4-.6,.3-.1,0,0-.1,0-.2,.1-.4,.2-.8,.2-1.3,0-.3-.2-.6-.5-.7-.3,0-.6,0-.8,.3-.3,.4-.5,.9-.5,1.5,0,.3-.1,.5-.5,.5-.3,0-.6,0-.9,0-.2,0-.2,0-.2-.2,.5-1.6,.9-3.2,1.4-4.8,0-.1,.1-.2,.3-.2,.5,0,1.1,0,1.6,0,.2,0,.2,0,.2,.2,0,.5,0,1,.2,1.6,0,.3,.2,.6,.4,.8,.3,.3,.6,.3,.9-.1,.3-.5,.5-1.1,.6-1.7,.2-.8,.1-.8,.9-.8,.3,0,.6,0,.9,0,.2,0,.2,0,.2,.2,0,.2,0,.5,0,.8h0Z"/><path class="cls-6" d="M52.3,38c.1-.7,.3-1.4,.4-2,.5-2.6,1-5.1,1.6-7.7,0-.3,.2-.4,.5-.4,1.1,0,2.3,0,3.4,0,.2,0,.3,0,.2,.3-.1,.4-.2,.9-.3,1.3,0,.2-.1,.3-.3,.3-.5,0-1,0-1.5,.3-.3,.1-.5,.3-.7,.6-.3,.4-.1,.8,.4,.9,.5,0,1,0,1.4,0,.3,0,.3,0,.2,.3,0,0,0,0,0,0,0,.3,0,.7-.1,.9-.2,.2-.6,0-.8,0-.3,0-.6,.1-.9,.3-.4,.3-.7,.8-.6,1.2,.1,.4,.4,.6,1,.7,.4,0,.8,0,1.2,0,.2,0,.2,0,.2,.2,0,.5-.2,1-.3,1.5,0,.1-.1,.2-.2,.2-1.6,.4-3.2,.8-4.8,1.4Z"/><path class="cls-6" d="M31.7,39.8c-.7,0-.7,0-.4-.6,.1-.3,.2-.6,.3-.9,0-.5,0-1-.4-1.1-.4-.2-1-.1-1.3,.2-.3,.3-.5,.7-.6,1.1,0,.4-.2,.7-.2,1.1,0,.2,0,.3-.3,.3-.2,0-.4,0-.6,0-.5,0-.5,0-.4-.5,.5-2.1,1-4.1,1.4-6.2,0-.2,.1-.4,.4-.3,.3,0,.5,0,.8,0,.2,0,.2,0,.1,.2-.2,.4-.3,.7-.4,1.1,0,.6,.2,1.1,.7,1.2,.6,.2,1.1,0,1.4-.6,.2-.5,.3-1,.3-1.6,0-.3,0-.4,.4-.4,.3,0,.6,0,1,0,.2,0,.2,0,.2,.2-.6,2.2-1.1,4.4-1.7,6.6,0,.2-.1,.2-.3,.2-.2,0-.3,0-.5,0Z"/><path class="cls-6" d="M38.2,34.4c-.3-.1-.5-.3-.7-.3-.7-.2-1.4,.4-1.2,1.2,0,.3,.3,.4,.5,.5,.3,0,.6,0,.9,0,.1,0,.2,0,.2,.1,0,0,0,0,0,0,0,.2,0,.5-.2,.6-.2,.2-.4,0-.6-.1-.9-.2-1.4,.2-1.4,1,0,.4,.3,.7,.7,.8,.3,0,.6,0,.9,0,0,.4-.2,.8-.3,1.2,0,.2-.1,.2-.2,.2-1.1,0-2.1,0-3.2,0-.2,0-.2,0-.2-.2,.5-2.2,1.1-4.4,1.6-6.6,0-.2,.1-.2,.3-.2,1,0,2,0,3,0,.1,0,.2,0,.2,.2-.1,.5-.2,.9-.4,1.4Z"/><path class="cls-6" d="M55.1,44.2c0,.4,0,.8,0,1.2,0,.2,0,.2-.3,.3-.8,0-1.6,0-2.4,0-.4,0-.6-.3-.7-.6-.3-.5-.4-1-.5-1.6,0-.6-.2-1.3,0-1.9,.1-1.3,.8-2.2,1.9-2.9,.9-.5,1.9-.9,2.9-1.1,.2,0,.3,0,.3,.2-.1,.7-.2,1.5-.4,2.2,0,.1,0,.2-.2,.1,0,0,0,0,0,0-.6-.2-1.2-.3-1.8,.2-.4,.5-.5,1.5-.3,2.1,.2,.4,.7,.7,1.4,.5,.3,0,.4,0,.3,.3,0,.3,0,.6,0,.9h0Z"/><path class="cls-6" d="M65.9,37.2c0,2.5-.3,4.9-1.3,7.1-.2,.4-.3,.7-.5,1.1,0,0,0,.2-.2,.2-.5,0-1,0-1.5,0-.2,0-.3,0-.3-.3,0-1.7,.2-3.5,.4-5.2,.1-1.1,.4-2.3,.6-3.4,.2-.9,.6-1.6,1.7-1.5,.3,0,.5,0,.8-.1,.2,0,.3,0,.3,.2,0,.7,0,1.4,0,1.9Z"/><path class="cls-6" d="M23.6,35c-.2,0-.7,.1-.8,0-.1-.2,.1-.6,.2-.8,0-.4,.2-.7,.3-1.1,0-.2,.1-.2,.3-.2,1.5,0,3,0,4.5,0,.2,0,.3,0,.2,.3-.2,.5-.3,1.1-.4,1.6,0,.3-.2,.3-.4,.3-.2,0-.5,0-.8,0-.3,0-.4,0-.4,.3,0,1.2-.2,2.3-.6,3.5-.3,1-.3,1-1.3,1s-.5,0-.7,0c-.3,0-.4,0-.4-.4,0-.9,.2-1.8,.4-2.7,.1-.5,.3-1.1,.7-1.5,0,0,.1-.1,0-.2,0,0-.1,0-.2,0-.2,0-.5,0-.8,0Z"/><path class="cls-6" d="M50.2,42.3c0,1,0,1.9,0,2.9,0,.2,0,.3-.3,.3-.4,0-.9,0-1.3,0-.1,0-.2,0-.2-.2,0-.2,0-.4,0-.6-.1-.3-.3-.5-.6-.6-.4,0-.7,0-.9,.4-.2,.2-.3,.5-.4,.8,0,.1,0,.2-.2,.2-.5,0-.9,0-1.4,0-.2,0-.2,0-.2-.2,.1-1.2,.4-2.3,.8-3.5,.4-1,1.1-1.6,2-2,.8-.3,1.5-.5,2.3-.7,.2,0,.3,0,.3,.3,0,1,0,1.9,0,2.9Z"/><path class="cls-25" d="M93.7,56c-.3,.7-.9,1-1.6,1-.7,0-1.3-.3-1.6-.9-.3-.6-.2-1.1,.2-1.6,.6-.8,1.8-.8,2.6-.1-.4,0-.8,.1-1.2,.2-.3,0-.6,0-.9,.3,0,0-.2,.2,0,.3,.1,.1,.2,0,.3,0,.5-.3,1-.3,1.6-.4,1.8-.2,3.5-.2,5.3-.2,.5,0,.9-.1,1.4,0,.6,.1,.8,.4,.9,.8,0,.5-.3,.8-.8,.9-.4,0-.7,0-1.1-.1-.5-.3-1.1-.4-1.7-.4-1.5,0-3.1,0-4.6,0,0,0,0,0-.1,0,0,0-.2,0-.2,.2,0,.1,.1,.1,.2,.1,.5,0,1,0,1.5,0Z"/><path class="cls-65" d="M51.8,81.4c.4,0,.7-.1,1-.2,.2,0,.4,0,.6-.1,.1,.1,0,.2,0,.3,0,0-.2,.2-.3,.3-.1,.1-.2,.2-.3,.3,0,0-.2,.1-.2,.2-.7,.7-1.5,1.3-2.4,1.8,0,0,0,0,0,.1-.3,.1-.6,.2-.9,.4-.2,.2-.6,.1-.8,.4-.4,0-.8,.1-1.1,.4-.2,0-.5,0-.7,0,.3-.1,.5,0,.8,0,.4,0,.8,.2,1.3,.2,.7,.2,1.3,.4,2,.7,.6,.2,1.2,.4,1.8,.6,0,0,.2,0,.2,.2,0,.1-.1,.1-.2,.2-.5,.2-1.1,.3-1.6,.3,0,0-.2,0-.2,0-1.1,0-2.1-.2-3.1-.8-.2-.2-.5-.2-.7-.4-.2-.1-.5-.2-.6-.4,.9,.8,1.6,1.9,2.3,3,0,.1,.2,.2,.1,.4,0,0,0,0-.1,.1-.3,0-.5-.2-.7-.3-.8-.6-1.4-1.3-1.8-2.2,0-.2-.2-.4-.3-.6,0-.1,0-.2,0-.4,0,.1,0,.3,0,.4,0,.2,0,.3,0,.5,0,.5,0,1,0,1.5,0,.1,0,.2,0,.3h-.1c-.3-.3-.3-.7-.4-1.1,0-.5,0-1,.1-1.5,0-.2,.2-.4,.2-.7,0,0,0-.1-.1-.2-.2-.2-.4-.4-.6-.7,0-.1-.1-.2-.2-.3-.4-.5-.6-1.1-.8-1.7,0-.1,0-.2,0-.4,0-.5-.1-1.1,0-1.6l.3,.5c.2,0,.2,.3,.3,.4,.2,.5,.5,.9,.7,1.4,.2,.6,.4,1.1,.5,1.8,0-.4-.1-.8,0-1.2,0-.5,.1-1,.1-1.5,0-.3,.1-.5,.2-.7,0-.1,.1-.3,.2-.4,.1-.2,.3-.4,.4-.6,.2,0,0-.2,.1-.2,.1,0,.2-.2,.3-.3,.2-.3,.5-.6,.8-.9,0,0,.2-.2,.3,0,0,.3-.2,.6-.1,1,0,0,0,0,0,0-.2,.2-.1,.5-.2,.7,0,.1,0,.3,0,.4-.1,.4-.1,.8-.2,1.2-.1,.4-.2,.7-.4,1,0,0,0,0,0,.2-.2,.2-.1,.4-.3,.6-.1,.2-.2,.3-.3,.5,.3-.4,.8-.7,1.1-1.1,0,0,0,0,0,0,.3-.1,.7-.3,.9-.6,.1-.1,.3,0,.5-.2,.9-.5,1.8-.9,2.8-1.2,.1,0,.2,0,.4,0Z"/><path class="cls-10" d="M53.5,81.3c.2,0,.2,.2,.2,.3,1.7,3.7-.7,7.9-4.7,8.4,0,0-.2,0-.3,0-.1,0-.2-.2-.2-.3-.5-.9-1-1.8-1.6-2.6,0,0,0-.1,0-.2,0,0,0,0,.1-.1,.2,0,.2,0,.3,.2,.5,.3,1.1,.5,1.7,.7,.2,0,.5,0,.7,0,.2,0,.5,0,.7,0,.6,0,1.3-.2,1.9-.4,0,0,.2,0,.2-.2,0-.1-.1,0-.2-.1-.6-.2-1.2-.5-1.8-.7-.6-.3-1.2-.5-1.8-.7-.2-.1-.5,0-.8-.2-.2,0-.4,0-.5-.2,0,0,.7-.3,.9-.3,.4-.2,.8-.2,1.1-.5,.2,0,.5-.2,.7-.3,.4-.4,.9-.7,1.4-1,.4-.3,.7-.6,1.1-.9,0,0,.1-.2,.2-.2,.1,0,.2-.2,.3-.3,.2-.2,.3-.4,.5-.5Z"/><path class="cls-10" d="M47.3,83.5h0c-.3,.2-.5,.5-.8,.6,0-.2,0-.4,.2-.6,0-.4,.3-.8,.4-1.2,0-.4,.1-.8,.2-1.2,0-.1,0-.2,0-.3,0-.3,0-.6,.2-.8h0c0-.3,0-.6,.1-.9,0,0,.1-.2,0-.3,0,0-.2,0-.2,0-.3,.2-.6,.5-.9,.8-.1,0-.2,.2-.3,.4,0,0-.1,.2-.2,.3-.1,.2-.2,.4-.3,.6,0,.1-.1,.3-.2,.4-.1,.2-.2,.4-.2,.6,0,.5-.2,1-.1,1.5,0,0,0,0,0,.1,0,0,0,.2-.2,.2-.1-.3-.2-.6-.3-.8-.2-.5-.4-.9-.6-1.4-.1-.2-.2-.3-.3-.5q-.3-.7,.2-1.3c2.7-2.7,7.1-2.3,9.2,.9,.2,.2,.2,.3-.2,.4-.4,0-.9,.1-1.3,.3-.5,.2-1,.3-1.5,.5-.5,.2-1.1,.5-1.6,.8-.4,.1-.7,.4-.9,.6-.1,.1-.4,0-.4,.3Z"/><path class="cls-10" d="M45,89c-1.6-1-2.4-2.5-2.6-4.3,0-.1-.1-.3,0-.3,.3,.2,.5,.5,.8,.7,.2,.1,.4,.3,.6,.4,.2,0,.4,.1,.6,.2,.2,0,.4,0,.4,.2,0,.2-.2,.2-.4,.3-.3,.2-.7,.2-1.1,.4-.1,0-.2,.1-.2,.3,.1,.1,.2,0,.3,0,.1,0,.2-.2,.3-.3,.1,0,.2-.2,.3-.2,.2,0,.3-.1,.5-.2,.1,0,.2-.1,.3,0,.1,0,0,.2,0,.3-.2,.5-.2,1-.2,1.5,0,.3,0,.6,.2,.9,0,.1,.1,.2,0,.3Z"/><path class="cls-3" d="M48.5,90c-1,0-2-.2-2.9-.7-.1,0-.3-.1-.3-.3,0-.6,0-1.3,0-1.9,0-.1,0-.3,0-.4,.1,0,.2,.2,.2,.3,0,0,0,0,0,.1,.5,1.1,1.4,2,2.5,2.6,0,0,.2,0,.2,.3Z"/><path class="cls-10" d="M43.7,84.4c-.3-.3-.7-.4-1.1-.6-.1,0-.2-.1-.2-.3,0-1,.4-1.9,.9-2.8,0,.6,0,1.1,0,1.6,.2,.6,.3,1.2,.6,1.7,0,.1,.2,.2,.2,.4,0,.1,.2,.2,.2,.4,0,0,0,.1,0,.1-.4,0-.6-.3-.8-.5Z"/><path class="cls-14" d="M45.1,85.4c0,0,0,.1,0,.2-.2,.2-.4,0-.7,0-.2,0-.3-.1-.5-.2-.2-.1-.5-.2-.7-.4-.3-.2-.6-.4-.8-.8,0,0-.2-.1-.1-.3l1.2,.6c.4,0,.6,.4,1,.6,.2,0,.3,.3,.5,.3Z"/><path class="cls-126" d="M48.5,90c-.2-.2-.4-.3-.6-.4-.9-.6-1.6-1.4-2.1-2.4,0,0,0,0,0,0,.5,1,1.3,1.9,2.3,2.4,0,0,.1,0,.2,0,0,0,.2,0,.2,0,0,0,0,0,0,0,0,0,.1,.2,.1,.3h-.3Z"/><path class="cls-20" d="M48.6,82.6c.3-.3,.7-.4,1.1-.6,.6-.3,1.3-.5,1.9-.7,0,0,.1,0,.2,0h0c-.1,.3-.4,.3-.6,.3-.6,.2-1.1,.4-1.6,.6-.3,.1-.5,.4-.8,.4,0,0,0,0,0,0Z"/><path class="cls-57" d="M44.3,84.5c-.4-.7-.8-1.4-.9-2.1h0c.2,.7,.5,1.4,.8,2.1,0,0,0,0,0,0Z"/><path class="cls-51" d="M45.5,87c0,.7,0,1.3-.1,1.9h0v-1.9c0,0,.1,0,.2,0Z"/><path class="cls-64" d="M45,89c-.1-.4-.3-.8-.3-1.2,0,0,0,0,.1,0l.3,1.2c0,0,0,.2-.1,0Z"/><path class="cls-105" d="M44.6,85.1l-1-.6h0c.3,0,.5,.3,.8,.4,.1,0,.2,0,.2,0,0,0,0,0-.1,.1Z"/><path class="cls-63" d="M42.5,84.2l.8,.7s0,0,0,0c-.3-.2-.6-.4-.8-.7h0Z"/><path class="cls-46" d="M53.5,81.3l-.5,.5s0,0,0,0c0-.1,.1-.2,.2-.3,0,0,.2-.1,.2-.3,.1,0,.1,0,.2,.1Z"/><path class="cls-121" d="M43.8,81.1c.1,.1,.2,.3,.3,.5,0,0,0,0,0,0-.1-.1-.2-.3-.2-.4h0Z"/><path class="cls-10" d="M102.5,89.4c-.1,.1-.2,0-.4,0-2-1-3.2-2.6-3.4-4.8-.4-3.1,1.7-5.9,4.9-6.5,0,0,0,0,.1,0,0,0,0,0,0,.2,0,.5-.2,1-.2,1.5,0,.1,0,.3,0,.4,0,.3,0,.6,0,.9,0,.3,0,.6,0,.9,0,.4,0,.7,.1,1.1,.1,.8,.3,1.5,.6,2.3,0,.1,.1,.2,0,.3-.2,0-.3-.2-.4-.3,0-.1-.2-.2-.3-.3-.2-.2-.4-.4-.7-.5-.1,0-.3-.1-.4-.2-.3-.1-.5-.3-.7-.4-.6-.3-1.2-.7-1.8-1,0,0-.1-.1-.2-.2-.1,.1,0,.2,0,.3,0,.2,.2,.4,.2,.6,.3,.6,.7,1.2,1.2,1.7,.1,.2,.3,.3,.5,.5,.5,.3,1,.5,1.4,.8,.2,0,.4,0,.6,.2,0,0,.2,0,0,.2-.2,.1-.4,0-.6,0-1,0-2,.1-3,.3,0,0,0,0,0,0,0,0,0,0,0,0,0,0,.2,0,.3,.1,.5,.2,1.1,.4,1.7,.4,.4,0,.8,0,1.2,0,.2,0,.5,0,.7-.1,.2,0,.4-.2,.5,0,0,.2-.2,.3-.3,.4-.2,.1-.3,.3-.5,.4-.4,.3-.7,.7-1.1,.9Z"/><path class="cls-65" d="M108.3,88.2s0,0,.1,0c0,.1,0,0-.1,0-.2,0-.4,0-.6,0-.6,0-1.1-.2-1.6-.5-.2-.1-.4-.3-.5-.4,0,0-.2,0-.3,0,0,0,0,0,0,0-.4,0-.8,.3-1.2,.3-.3,0-.7,.2-1,.2-.2,0-.5,0-.7,0-.6,0-1.2-.2-1.7-.4q-.3-.2,0-.3c1.1-.2,2.2-.3,3.4-.2,0,0,0,0,.1,0,.3,0,.5,.1,.8,.1-.3,0-.5-.1-.7-.2-.3-.1-.5-.2-.8-.3-.5-.3-1-.5-1.4-.8-.1-.2-.3-.3-.5-.4-.4-.6-.9-1.1-1.2-1.8,0-.2-.2-.5-.2-.7,0-.3,.2-.1,.3,0,.5,.3,1,.6,1.5,.9,0,0,.2,0,.3,.1,.2,.2,.4,.3,.7,.4,.1,.1,.3,.2,.4,.2,.3,.1,.5,.3,.7,.5,0,.1,.1,.3,.3,.3,0,.2,.2,.2,.4,.3,.2,.2,.3,.4,.5,.6-.3-.3-.3-.7-.5-1.1-.2-.5-.3-1-.5-1.5,0-.2,0-.4-.1-.6,0-.4,0-.7-.1-1,0-.3,0-.6,0-.9,0-.2,0-.4,0-.6,0-.2,0-.4,0-.6,0-.5,.1-1,.2-1.4,0,0,0-.1,0-.2,.1,0,.1,0,.2,0,.1,.1,.2,.3,.3,.5,.2,.4,.4,.9,.6,1.4,0,.1,0,.3,.1,.3,0,.3,.1,.6,.2,.8,.1,.2,0,.4,.2,.5,0,.1,0,.3,0,.4,0,.3,0,.7,.1,1,0,.3,.2,.5-.1,.8,0,0,0,0,0,0,.2,0,.1,.2,.1,.3-.1,.2,0,.4,0,.5,0,.2-.1,.3,0,.5,0,.2-.1,.5-.2,.7,.2-.5,.4-.9,.6-1.4,.2,0,.2-.4,.4-.5,0-.2,.2-.2,.3-.4,0-.2,.2-.3,.3-.5,0,0,.2-.1,.3-.2,0,0,.2-.2,.2-.3,.2-.3,.5-.6,.8-.9,.2-.2,.4-.5,.6-.7,0,0,0-.2,.2-.1,.1,0,.1,.1,.1,.2,0,.8-.2,1.5-.4,2.2-.1,.3-.2,.5-.4,.8-.3,.5-.6,.9-1,1.2-.2,.2-.4,.4-.6,.6,0,0,0,0,0,0-.3,.2-.6,.5-.9,.6,.9-.4,1.8-.8,2.7-.9,.4,0,.8-.2,1.2-.2,.1,0,.3-.1,.3,.1-.6,.5-1.1,.9-1.8,1.2-.4,.4-.8,.3-1.3,.4,0,0-.2,0-.3,0-.3,0-.7,0-1,0,.8,.3,1.6,.5,2.3,1Z"/><path class="cls-10" d="M104.2,78.1c2.4,0,4.3,.9,5.6,2.9,.8,1.3,1,2.6,.8,4.1,0,.1,0,.3-.2,.4-.4,.2-.8,.2-1.2,.3-.2,0-.4,0-.6,.1-.4,.1-.9,.2-1.3,.4,0,0-.4,.2-.3-.1h0c.1-.3,.5-.3,.6-.6,.4-.4,.8-.7,1-1.2,.3-.7,.6-1.4,.7-2.2,0-.3,0-.6,0-.9,0,0,0-.1-.1-.2,0,0,0,0-.1,0-.2,.3-.4,.5-.6,.7-.3,.3-.6,.6-.8,.9,0,.1-.2,.2-.2,.3,0,.1-.2,.2-.3,.3,0,.2-.3,.2-.3,.4,0,.1-.3,.2-.3,.4-.2,.1-.2,.4-.4,.6,0,.2-.2,.4-.3,.6,0,.1-.1,0-.1,0,0-.1,0-.2,0-.4,0-.2,0-.3,0-.5,.1-.4,0-.8,0-1.2,0-.3,0-.6,0-.9,0-.2,0-.5-.2-.7,0-.2-.1-.4-.2-.6,0-.2,0-.4-.2-.6,0,0,0-.2,0-.3,0,0,0,0,0-.1,0,0,0-.1,0-.2-.1-.4-.3-.7-.5-1.1-.1-.2-.2-.4-.2-.6Z"/><path class="cls-10" d="M107.5,88.5c.3,0,.6,0,.9,0-1.2,1.3-4.1,1.8-5.7,1.1l.4-.2h0c.4-.3,.9-.5,1.3-.9,.1-.1,.2-.2,.3-.3,.1-.2,.2-.3,.4-.5,0,0,.1-.2,.2-.1,0,0,0,.1,0,.2,0,.3,0,.7,0,1,0,.1,0,.2,0,.4,0,.1,0,.3,.2,.2,.2,0,0-.2,0-.3,0-.1,0-.3-.1-.4,0,0,0-.1,0-.2,0,0,0-.2,0-.3,0-.2,0-.4,0-.7,0-.1,.2,0,.2,0,.1,0,.2,.2,.3,.3,.5,.3,1,.4,1.5,.6Z"/><path class="cls-3" d="M108.6,86.9c.6-.2,1.1-.6,1.6-1,0,.4-.2,.6-.3,.9-.2,.4-.5,.8-.9,1.2-.2,.2-.4,.4-.7,.1-.2,0-.4-.1-.6-.2-.4-.1-.7-.3-1.1-.4-.1,0-.3,0-.3-.2,.2,0,.4,0,.6,0,.6,0,1.1-.2,1.7-.4Z"/><path class="cls-12" d="M103.1,89.4c-.1,0-.2,0-.3,0-.2-.1,0-.2,0-.3,.2-.2,.5-.5,.7-.7,.4-.3,.8-.6,1.1-.9,.1-.1,.3-.2,.5-.2h0c.1,.1,0,.2,0,.3,0,.1-.2,.3-.3,.4-.4,.6-1.1,.9-1.7,1.3h0Z"/><path class="cls-114" d="M106.9,87.3h-.6c.8,.3,1.4,.5,2,.9h0c-.8-.3-1.7-.6-2.5-.9h1.2s0,0,0,0c0,0,0,0,0,0Z"/><path class="cls-97" d="M108.5,85.8c.6-.2,1.2-.2,1.7-.3,0,0,.2,.1,0,.2-.2-.1-.4,0-.6,0-.3,0-.7,.1-1,.2,0,0-.1,0-.2,0Z"/><path class="cls-130" d="M107.5,88.5c-.6,0-1-.3-1.5-.6,0,0,0,0,0,0,.5,.3,1,.4,1.6,.6h-.1Z"/><path class="cls-48" d="M106.9,87.3s0,0,0,0c.3,0,.6-.1,.9-.2,.2,0,.4-.1,.6-.2h0c-.5,.3-1.1,.4-1.7,.5Z"/><path class="cls-98" d="M103.6,88.5c-.2,.2-.5,.4-.7,.7,0,0-.2,0,0,.2,0,.1-.2,0-.3,0,.3-.4,.6-.7,1-.9,0,0,0,0,0,0Z"/><path class="cls-118" d="M104.2,78.1c0,.2,.2,.4,.2,.6,0,0,0,0,0,0-.1-.1-.2-.3-.2-.5,0,0,0-.1,0-.2Z"/><path class="cls-70" d="M103.9,78.1v.2c0,0-.1,0-.1,0h.1Z"/><path class="cls-102" d="M100.3,25.8c1.2,0,2.3,0,3.3,0,1,0,1.9,0,2.9,0,.7,0,1.1,.2,1.6,.6,1.5,1.3,2.5,2.9,3.6,4.6,.9,1.3,1.6,2.7,2.3,4.1,1.2,2.6,2.2,5.3,3,8,.4,1.3,.6,2.6,.9,4,0,.2,0,.3-.1,.5-.6,.6-.9,1.4-.9,2.3,0,.3-.1,.3-.4,.3-2.1,0-4.2,0-6.3,0-1.7,0-3.4,0-5.2,0-1.7,0-3.3,0-4.9,0-1.7,0-3.4,0-5.1,0-1.1,0-2.2,0-3.4,0-.3,0-.3,0-.4-.3,0-1.3,0-2.5-.1-3.8,0-1.3,0-2.7-.1-4,0-1.2,0-2.3-.1-3.5,0-1.2,0-2.4-.1-3.5,0-1,0-2-.1-3,0-.9-.2-1.7-.1-2.6,0-1.2,.5-2.3,1.6-2.9,.6-.3,1.3-.6,1.9-.7,1-.2,2-.2,3-.3,1.3,0,2.5,0,3.6,0Z"/><path class="cls-1" d="M50.7,64.2c-.6,0-1.1-.1-1.6-.4-.8-.5-.9-1.6-.2-2.3,.9-.7,1.9-.9,3-.8,.9,.1,1.3,1,1,1.9-.3,.9-1.2,1.6-2.3,1.6Z"/><path class="cls-1" d="M117.3,58.7c.1,0,.3,0,.4,0,.7,0,1.2,.5,1.2,1.2,0,.6-.5,1.3-1.2,1.4-.7,.1-1.3,0-1.8-.5-.3-.3-.4-.7-.3-1.1,.1-.4,.4-.7,.8-.8,.3,0,.6-.1,.9,0Z"/><path class="cls-4" d="M128.2,75.2c0-.6,.2-1.2,.5-1.7,.1-.1,.2-.3,.4-.3,.2,0,.3,.2,.3,.4,0,.7,0,1.4-.4,2-.1,.2-.3,.4-.5,.3-.2,0-.2-.3-.3-.5,0,0,0-.1,0-.3Z"/><path class="cls-37" d="M61.8,29.3c1.2,0,1.8,.8,1.5,1.9-.3,1.2-1.1,2-2.2,2.5-.2,.1-.5,.2-.7,.3-.2,.1-.3,0-.3-.2,.2-1.4,.3-2.7,.5-4.1,0-.2,0-.3,.3-.3,.3,0,.6-.1,1-.1Z"/><path class="cls-26" d="M47.8,43.1c-.2,0-.5,0-.7,0-.2,0-.3,0-.3-.3,0-.5,.2-1.1,.4-1.5,.2-.3,.5-.5,.8-.5,.4,0,.5,.3,.6,.7,.1,.5,0,.9,0,1.4,0,.1,0,.2-.2,.2-.3,0-.5,0-.8,0Z"/><path class="cls-86" d="M48.6,89.7h0c0,0-.1,0-.1-.1-.7-1.4-1.6-2.6-2.7-3.7,.3,.2,.6,.5,.9,.6,0,0,0,0,0,.1,0,.1,.1,.2,.2,.3,.6,.8,1.1,1.7,1.6,2.6,0,0,0,.1,.1,.2Z"/><path class="cls-71" d="M50.5,86.3c.7,.2,1.4,.6,2.1,.8-.7,.5-1.5,.6-2.3,.6,0,0,0,0,0,0,0,0,0,0,0,0,.3-.2,.6,0,.9-.2,.4,0,.8-.2,1.2-.4-.7-.2-1.4-.5-2-.7,0,0,0-.1,0-.1Z"/><path class="cls-99" d="M52.5,82.3c-.5,.6-1.1,1-1.7,1.4-.3,.2-.5,.4-.8,.5,0,0,0,0,0,0,0-.3,.4-.3,.5-.4,.5-.3,.9-.6,1.3-1,.2-.2,.4-.4,.7-.6,0,0,0,0,0,0Z"/><path class="cls-53" d="M50.3,87.7s0,0,0,0c-.9,0-1.8,0-2.6-.5-.2-.1-.4,0-.5-.3,0,0,0,0,0,0,.5,.2,.9,.5,1.4,.6,.4,.1,.9,0,1.3,.1,0,0,.2,0,.3,0Z"/><path class="cls-15" d="M44.5,85.5h.7c.1,.2,0,.2,0,.4,0,.1-.1,.2-.2,.4,0,0-.1,0,0,0v-.3c-.2,0-.5,.3-.8,.3-.3,0-.5,.3-.8,.2,0,0,0,0,0,0,.5-.3,1-.3,1.5-.6h-.5c0-.1,0-.1,0-.2,0,0,0,0,0,0Z"/><path class="cls-88" d="M45.2,83.7h0c0,0,.1,0,0,0v1.5c-.2-.7-.4-1.4-.6-2.1,0,0,0,0,0,0,0,.3,.3,.6,.3,.9,0,0,0,.1,.1,.2,0-.1,0-.2,0-.3Z"/><path class="cls-100" d="M50.5,86.3c0,0,0,0,0,.1-.6-.3-1.2-.6-1.9-.7,0,0,0,0,0,0,0-.2,.1,0,.2,0,.4,0,.8,.2,1.2,.4,.2,0,.4,.2,.6,.3Z"/><path class="cls-112" d="M46.6,79.8c.2-.3,.6-.6,.9-.9,.1-.1,.3-.2,.4-.2,.1,0,0,.2,0,.4-.1,0,0,0,0-.1,0,0-.1,0-.2,0-.3,.3-.7,.5-.8,.9,0,0,0,0,0,0,0,0-.1,0,0-.1Z"/><path class="cls-88" d="M46.6,84.2c.3-.2,.5-.5,.8-.6-.2,.4-.5,.6-.9,.8-.2,.2-.3,.4-.5,.5,.1-.3,.2-.6,.4-.8,0,0,0,0,.1,0Z"/><path class="cls-106" d="M48.6,82.6h0c0,0,0,.4-.2,.2,0,0,0,0,0,0-.1,.3-.6,.3-.7,.6,0,.2-.3-.1-.3,0,0,0,0,0,0-.1,.4-.3,.8-.5,1.2-.8,0,0,0,0,.1,0Z"/><path class="cls-125" d="M48.6,85.7c0,0-.1,0-.2,0-.4,0-.8-.1-1.2-.2-.1,0-.1-.1,0-.2,0,0,0,0,0,0,.3,.2,.7,.2,1.1,.2,.1,0,.2,0,.2,.1Z"/><path class="cls-85" d="M45.3,83.7h0c-.2-.7,0-1.2,.1-1.8,0,0,0,.1,0,.2,0,.5-.2,1.1-.1,1.6Z"/><path class="cls-56" d="M45,86.2h0c-.1,.6-.1,1.1-.1,1.6h-.1c0-.5,0-1.1,.2-1.6Z"/><path class="cls-90" d="M44.8,83h0c-.2-.4-.4-.9-.7-1.4h0c.3,.4,.5,.9,.7,1.4Z"/><path class="cls-61" d="M47.1,82.4c0,.3,0,.5-.2,.7,0,.1-.1,.3-.2,.4,0,0,0,0,0,0,0-.1-.1-.2,0-.3,0,0,.2-.1,0-.2,0,0,0,0,0,0,.4,0,.1-.5,.3-.6,0,0,0,0,0,0Z"/><path class="cls-111" d="M47.1,82.4h0c0-.5,0-.9,.2-1.3,0,0,0,0,0,0,0,.4-.1,.9-.3,1.3Z"/><path class="cls-17" d="M47.3,85.3h0s0,0,0,0c0,0,0-.3,.2-.2,.1,0,.4,0,.4-.2,0,0,.3,0,.4,0,0,0,0,0,0,0,0,0,0,0,0,0l-.9,.3Z"/><path class="cls-126" d="M44.6,85.1c.2-.2,0-.1,0-.2h0c0-.2,0-.2,0-.2l.6,.6c0,0,0,.2-.1,0-.1-.1-.3-.2-.5-.3Z"/><path class="cls-101" d="M48.2,85h0c.2-.4,.5-.3,.8-.4,0-.2,.2-.1,.3,0-.3,.3-.7,.3-1.1,.5Z"/><path class="cls-83" d="M45.5,87h-.1v-.5c0,0,.1,0,.2,0,.1,.2,.2,.4,.3,.6h0l-.3-.4v.4Z"/><path class="cls-27" d="M47.1,85.3s0,0,0,0c0,0,0,.1,0,.2h-1c.3-.3,.6-.2,.9-.2Z"/><path class="cls-93" d="M49.3,84.5c-.1,0-.2,0-.3,0,0,0,0-.1,0-.1,.4,0,.6-.3,1-.3h0c-.3,.1-.5,.4-.7,.4Z"/><path class="cls-91" d="M47.7,79h0c0,.4-.1,.7-.2,1-.2-.4,0-.7,.1-1Z"/><path class="cls-47" d="M46.7,83.6h0l-.2,.6s0,0,0,0c0,0,0,0,0-.1,.1-.2,0-.5,.3-.6Z"/><path class="cls-110" d="M45.8,81c.1-.2,.2-.4,.3-.6,0,0,0,0,.1,0,0,.3-.2,.4-.4,.6,0,0,0,0,0,0Z"/><path class="cls-54" d="M47.6,80c0,.3,0,.5-.2,.8,0,0-.1,0,0,0,0-.2,0-.6,.2-.7Z"/><path class="cls-104" d="M45.4,82.2c0,0,0-.1,0-.2,.1-.2,0-.5,.2-.6,0,0,0,0,0,0l-.2,.7Z"/><path class="cls-58" d="M47.3,86.9h0c0,0-.1,0-.3,0-.1,0-.2,0-.3-.2v-.2c.2,.2,.5,.2,.7,.4Z"/><path class="cls-52" d="M45.6,86.5c0,0-.1,0-.2,0v-.6c.2,.2,.2,.4,.2,.6Z"/><path class="cls-38" d="M46.6,79.8h0c0,.2,0,.5-.3,.4,0,0,0,0,0,0,0-.1,.1-.3,.3-.4Z"/><path class="cls-61" d="M52.9,81.7h0c0,.2-.1,.3-.3,.4,0,0,0,0,0,0,0-.1,.1-.3,.3-.3Z"/><path class="cls-68" d="M45.6,81.4h0c0-.2,.1-.3,.2-.5h0c0,.2,0,.4-.2,.5Z"/><path class="cls-129" d="M46.3,80.1h0c0,.2,0,.3-.1,.3h-.1c0-.1,0-.2,.2-.3Z"/><path class="cls-123" d="M47.3,80.8h0c0,.2,0,.3,0,.4h0c-.1-.2,0-.3,0-.4Z"/><path class="cls-74" d="M52.7,82h0c0,.1,0,.3-.2,.3h0c0-.2,.1-.2,.2-.3Z"/><path class="cls-120" d="M44.5,84.7h0l-.2-.2h0c0,0,.2,.1,.2,.2Z"/><path class="cls-11" d="M48.4,89.5v.2c0,.1,0,0,0,0h0Z"/><path class="cls-23" d="M46.6,86.6l.3,.2h0c-.1,0-.2,0-.2-.2Z"/><path class="cls-24" d="M45.2,83.7v.4h0v-.2h0Z"/><path class="cls-69" d="M43.4,86.4c.3,0,.5-.3,.8-.2,0,.1-.2,.2-.3,.2,0,.1-.2,.1-.3,.2-.1,0-.2,.2-.4,.1,0-.2,0-.3,.2-.3Z"/><path class="cls-128" d="M43.3,85h0l.7,.3s0,0-.1,0c-.2,0-.5-.2-.6-.4Z"/><path class="cls-18" d="M43.9,85.4h.1c.1,0,.3,0,.4,.1h-.6Z"/><path class="cls-131" d="M43.3,86.7l.3-.2s0,0,0,0c-.1,0-.2,.4-.4,0,0,0,0,0,0,0Z"/><path class="cls-33" d="M43.3,86.7h0c0-.2,0-.3,.2-.4h0c0,.2-.2,.3-.1,.4Z"/><path class="cls-119" d="M43.6,86.7h0c0-.2,.2-.2,.3-.3,0,.2-.2,.2-.3,.3Z"/><path class="cls-89" d="M103.7,82.9c0,.2,.3,.3,0,.5,.3,.2,0,.6,.3,.9,0,0,.2,.1,0,.2,0,0,0,.1,0,.1,.3,.2,.3,.6,.4,.8,.1,.3,.3,.6,.4,.9-.2-.3-.6-.4-.7-.8,0,0,0,0,0-.1,0,0,.1,0,0,0-.3-.6-.4-1.3-.6-2,0-.1,0-.3,0-.4,0,0,0,0,0,0Z"/><path class="cls-112" d="M103.7,87c-.6,0-1.2,0-1.8,0-.5,0-1,.1-1.5,.2-.1,0-.3,.1-.4,0,1.2-.2,2.5-.4,3.7-.3,0,0,0,.1,0,.2Z"/><path class="cls-92" d="M100.1,83.5c.2,.2,.4,.4,.5,.7,.2,.4,.5,.7,.7,1.1,0,0,0,0-.1,0-.4-.4-.7-.9-1-1.3,0,0-.1-.2-.2-.3,0,0,0,0,0,0Z"/><path class="cls-127" d="M103.6,88.5h0c.3-.4,.6-.5,.9-.8-.2,0-.3,0-.5,0,0,0,0,0,0,0,0,0,0,0,0,0,.4-.1,.7-.2,1.1-.4,0,0,.2,0,.2,0-.6,.3-1.1,.8-1.6,1.1Z"/><path class="cls-53" d="M101.9,83.8c-.3,0-.5-.3-.7-.4-.4-.2-.7-.4-1-.7,0,0,0,0,0-.1l1.8,1s0,0,0,0Z"/><path class="cls-107" d="M100.4,87.4c.6,.2,1.1,.3,1.7,.4,0,.1,0,0-.2,0-.6,0-1.2-.2-1.7-.4,0-.1,0-.1,.1,0Z"/><path class="cls-45" d="M101.8,85.6c.2,.2,.4,.3,.6,.4,.3,.1,.6,.3,.8,.5,0,0,0,.1,0,0-.5-.3-1-.5-1.4-.8,0,0,0-.2,.1-.1Z"/><path class="cls-99" d="M103.7,78.3h.1c-.1,.5-.1,1-.2,1.5,0,0,0,0-.1,0,0-.5,0-1,.2-1.5Z"/><path class="cls-39" d="M103.7,82.9h0c-.1-.2,0-.6-.1-.9,0,0,0,0,0,0,.2,.2,0,.6,.2,.8,0,0-.2,0-.1,.2Z"/><path class="cls-44" d="M103.6,84.9c0,0,0-.1-.2,0,0,0,0,0,0,0,0-.4-.4-.3-.4-.5h0c.3,0,.5,.2,.7,.4,0,0,0,0,0,0Z"/><path class="cls-124" d="M102,87.9c0,0,.1,0,.2,0h.8c0,0,.2,0,.3,0-.4,0-.8,.1-1.3,0Z"/><path class="cls-117" d="M103.1,86.5h0c.3,0,.6,.1,.9,.2,0,.1,0,.2-.2,.2h0c-.2-.3-.5-.3-.7-.4Z"/><path class="cls-51" d="M101.9,83.8h0l.7,.3c0,0,0,0,0,0-.2-.1-.5-.1-.7-.4Z"/><path class="cls-78" d="M103.2,87.9c-.1,0-.2,0-.3,0h1c-.2,0-.5,0-.7,0Z"/><path class="cls-19" d="M103.6,81.8h0c0-.2-.1-.5,0-.8,0,0,0,0,0,0,0,.3,0,.6,0,.9Z"/><path class="cls-109" d="M101.8,85.6h-.1c-.1,0-.3-.1-.4-.4h.1l.5,.4Z"/><path class="cls-122" d="M100.4,87.4h-.1c-.1,0-.2,0-.3,0,0,0-.1,0,0-.2,0,0,.1,0,.2,0,.1,.1,.2,0,.4,0,0,0-.1,0-.2,.1,0,0,.1,0,.2,.1Z"/><path class="cls-132" d="M103.6,80.9h0c0-.2,0-.5,0-.7,0,0,0,.1,0,.2,0,.2,.1,.4,0,.6Z"/><path class="cls-55" d="M100.1,82.7h0c0,.1-.2-.2-.2,.1,0,0,0,.1,0,.1,0-.2-.1-.3,0-.5,.2,0,.2,.2,.3,.2Z"/><path class="cls-99" d="M99.8,82.9h0c.1,0,.2,.3,.2,.6h0l-.2-.6Z"/><path class="cls-36" d="M103.6,80.4c0,0,0-.1,0-.2v-.4h.1v.6Z"/><path class="cls-60" d="M104.2,85.4h0c-.2,.1-.3,0-.3-.2,0,0,0,0,0,0l.3,.2Z"/><path class="cls-40" d="M102.5,84.2h0c.1,0,.3,0,.3,.2h0c-.2,0-.3,0-.4-.2Z"/><path class="cls-103" d="M103.9,85.2h0c-.2,0-.3,0-.3-.2h0c0,0,.3,0,.3,.2Z"/><path class="cls-86" d="M108.4,81.8c.2-.3,.4-.6,.7-.8,0,0,0-.2,.2-.2,0,0,.1,.1,.1,.2,0,.4,0,.8,0,1.2-.2,.7-.3,1.4-.7,2,0,0,0,0,0,0,.4-.9,.7-1.8,.8-2.8,0-.1,0-.3,0-.4l-.7,.9c0,0-.1,0,0,0Z"/><path class="cls-80" d="M108.5,85.8h.2c-.5,.2-1,.4-1.5,.5-.5,.2-.9,.4-1.3,.6,0,0-.1,0-.2,0,0,0,0,0,0-.1,.4-.2,.7-.6,1.2-.7,.1,.2,.3,0,.4,0,.4-.2,.8-.2,1.2-.3Z"/><path class="cls-96" d="M105.7,82.4c0,.5,0,1,.1,1.6,0,.2,0,.4-.1,.5,0,0,0,0,0-.1,0-.2,0-.5,0-.7,0-.5,0-.9-.2-1.4,.2,0,.1,0,.2,.1Z"/><path class="cls-87" d="M104.7,88.1c.2-.2,.4-.4,.4-.7,.1,0,.2-.3,.4,0,0,0,0,.1,0,.2,0,.2,0,.5,0,.7-.3,0-.1-.3-.2-.5v-.2c-.2,.2-.3,.5-.6,.7,0,0,0,0,0-.2Z"/><path class="cls-77" d="M105.7,85.2s0,0,0,0c0,0,0,0,0,0,0-.2,.2-.4,.3-.6,0,0,0,0,0,0-.2,.5-.5,1-.7,1.5,0-.3,.1-.6,.2-.9,0,0,0,0,0,0Z"/><path class="cls-52" d="M104.3,78.7h0c.2,.3,.4,.6,.5,1.1,0,0,0,.2,0,.2,0,0,0,0,0,0,0,0,0,0,0,0-.3,0-.2-.3-.3-.5-.2-.3-.3-.6-.4-.9Z"/><path class="cls-116" d="M108.4,84.3h0c0,.3-.2,.4-.4,.6-.1,.2-.4,.4-.6,.6,0,0,0,0,0,0,.3-.3,.6-.6,.8-.9,0,0,0-.3,.2-.3Z"/><path class="cls-16" d="M103.9,86.9l.2-.2,1,.3c-.4,0-.7,0-1.1,0Z"/><path class="cls-94" d="M108.4,81.8h0c-.2,.4-.5,.7-.8,.9,0,0,0,0,0,0,.2-.3,.5-.6,.8-.9Z"/><path class="cls-84" d="M106.2,84.7h0c.2-.2,.1-.5,.4-.6,0,0,0,0,0,0,0,.2-.3,.3-.2,.5,0,.1-.1,0-.2,0Z"/><path class="cls-95" d="M107.5,85.5h0c0,.4-.4,.4-.7,.6,0,0,0-.2,0-.2,.2,0,.3-.3,.5-.4Z"/><path class="cls-113" d="M105.1,80.3l.2,.7c0,0,0,.2,0,.3l-.2-.9c0,0,0-.1,0,0Z"/><path class="cls-72" d="M105.2,81.3c0,0,0-.2,0-.3l.2,.6c0,0,0,.1,0,.2-.3,0,0-.4-.2-.5Z"/><path class="cls-81" d="M105.4,81.8c0,0,0-.1,0-.2,0,.2,.2,.5,.2,.7,0,0,0-.2-.2-.1v-.4Z"/><path class="cls-59" d="M105.5,87.6v-.2l.6,.4h0c-.2,0-.3-.2-.5-.3Z"/><path class="cls-73" d="M106.8,83.7c0-.2,.2-.3,.3-.4,0,0,0,0,0,0,0,.2-.3,.3-.3,.5,0,0-.1,0,0,0Z"/><path class="cls-21" d="M106.8,83.7h0c0,.3-.3,.2-.3,.4h0c0-.3,.1-.4,.3-.4Z"/><path class="cls-42" d="M107.2,83.3h0c0-.2,.1-.2,.3-.3,0,0,0,0,0,0,0,.1,0,.2-.3,.2Z"/><path class="cls-82" d="M105.7,84.3h0c.1,.3,0,.4,0,.6,0,0-.1,0,0,0,0-.2-.3-.3,0-.5Z"/><path class="cls-41" d="M105.7,84.9h0c0,.2,0,.3,0,.4h0c-.3,0,0-.2,0-.4Z"/><path class="cls-76" d="M107.4,83.1h0c0-.2,.2-.3,.2-.4h0c0,.2-.1,.3-.2,.4Z"/><path class="cls-75" d="M105.1,80.3h0c-.2,0,0-.1,0-.2h0v.2Z"/><path class="cls-35" d="M105,80c-.2,0-.2,0,0-.2,0,0,0,.1,0,.2Z"/><path class="cls-43" d="M105.3,87.7c.1,.1,0,.4,.2,.5,0,0,0,.1,0,.2-.1,.2,0,.5,0,.7,0,0,0,0,0,0,0,0,0,0,0,0,0,0,0,0,.1,0,0,0,0,0,0,.1,0,.1,.2,.3,0,.4-.2,0-.3,0-.4-.3-.1-.5,0-1,0-1.5Z"/><path class="cls-106" d="M104.7,88.1v.2c-.4,.6-1,.9-1.7,1.1,0-.2,.1-.2,.2-.2,.5-.3,1-.6,1.4-1.1Z"/><path class="cls-115" d="M105.7,89.1c0,0,0,.1,0,.2,0,0,0,0,0,.1,0,0,0,0,0,0-.2-.1-.2-.8,0-1,0,0,0,0,0,0v.2c0,.1,0,.3,0,.4Z"/><path class="cls-121" d="M105.7,89.1c0-.1-.1-.3,0-.4,0,.1,0,.3,.1,.4h0Z"/><path class="cls-8" d="M60.4,33.9c.1-.9,.2-1.8,.3-2.7,0-.4,0-.7,.1-1.1,0-.2,.1-.4,.4-.4,.4,0,.8-.1,1.1,0,.6,.1,.9,.6,.8,1.2,0,1-.7,1.8-1.5,2.4-.4,.3-.8,.5-1.3,.7Z"/><path class="cls-8" d="M47.8,42.8c-.8,0-.8,0-.6-.7,0-.3,.2-.6,.4-.8,.3-.3,.7-.3,.8,.1,.1,.4,.1,.8,.1,1.2,0,.1,0,.2-.2,.2-.2,0-.3,0-.5,0Z"/></svg>