<svg id="Layer_1" data-name="Layer 1" xmlns="http://www.w3.org/2000/svg" viewBox="0 0 634.9 775.6"><defs><style>.cls-1{fill:#fff;}.cls-2,.cls-5{fill:none;stroke:#00a03a;stroke-linecap:round;stroke-linejoin:round;}.cls-2{stroke-width:6px;}.cls-3{fill:#00a03a;}.cls-4{fill:#ffd400;}.cls-5{stroke-width:15px;}</style></defs><path class="cls-1" d="M122.7,224.9h25.9l95.3-6.8H433.7l85.5,6.7c.8,0,2.4,4.6,2.4,4.6l6.6,68.3,5.3,73.3v25.4L524.8,425s-16,39.5-16.5,40.4S473.1,513,473.1,513l-9.7,9.2-34.8,27.3s-137.4,26.7-138.4,27.3S210.6,548,210.6,548l-11.1-9.6-34.3-29.3-39.5-61.9-9.5-28.1-7.1-41.2,2.2-30,3.2-50.2,6.4-66.8Z"/><path class="cls-2" d="M34.4,543.1c3.7-.9,8.6-2,14.4-3.6,7.3-2,16.2-4.7,26.2-8.2L71.2,544a391.8,391.8,0,0,0,62.1-26.2l-4.5,14.6a376.7,376.7,0,0,0,39.9-22.7c6.9-4.5,13.3-9,19.2-13.4l-3.7,12.2h0l-1.6,5c11.3-7.8,25.6-19.3,37.6-29.5l6.1-5.2h0c3.6-3.2,7.2-6.6,10.7-10.1,5.9-5.8,11.3-11.4,16.2-16.9l-1.3,12.6h0l-.5,5.2c8.5-8.9,50-59.1,65.4-78.1-24.4,2.2-89.2,8.6-101.3,10.8l4.7,2.4h0l11.1,6c-7.2,1-14.9,2.4-23,4L194,418.1h0l-7.8,2.2c-15.1,4.2-32.6,9.7-45.4,14.7l5,1.5h0l12.2,3.7c-6.9,2.4-14.2,5.2-21.8,8.5a374.7,374.7,0,0,0-41.1,20.4l14.6,4.5a394.6,394.6,0,0,0-56.4,36.9L66,514.4c-8.5,6.3-15.6,12.2-21.4,17.3s-8.2,7.3-11,9.9"/><path class="cls-2" d="M601.3,541.6c-2.7-2.6-6.4-6-10.9-9.9s-13-11-21.5-17.3l12.7-3.9a389,389,0,0,0-56.4-36.9l14.6-4.5a382,382,0,0,0-41-20.4c-7.7-3.3-15-6.1-21.8-8.5l12.1-3.7h0l5-1.5c-12.7-5-30.3-10.5-45.4-14.7l-7.7-2.2h0l-14.4-3.3c-8.1-1.6-15.8-3-23-4l11.2-6h0l4.6-2.4c-12.1-2.2-76.9-8.6-101.3-10.8,15.4,19,56.9,69.2,65.4,78.1l-.5-5.2h0l-1.3-12.7c4.9,5.5,10.3,11.1,16.2,16.9,3.6,3.5,7.2,6.9,10.7,10.1h.1l6.1,5.2c11.9,10.2,26.2,21.7,37.5,29.5l-1.5-5h0l-3.7-12.2c5.8,4.4,12.2,8.9,19.1,13.4a376.7,376.7,0,0,0,39.9,22.7l-4.4-14.6A384.2,384.2,0,0,0,563.8,544l-3.9-12.7c10,3.5,18.9,6.2,26.3,8.2,5.8,1.6,10.6,2.7,14.4,3.6"/><path class="cls-3" d="M34.4,543.1c3.7-.9,8.6-2,14.4-3.6,7.3-2,16.2-4.7,26.2-8.2L71.2,544a391.8,391.8,0,0,0,62.1-26.2l-4.5,14.6a376.7,376.7,0,0,0,39.9-22.7c6.9-4.5,13.3-9,19.2-13.4l-3.7,12.2h0l-1.6,5c11.3-7.8,25.6-19.3,37.6-29.5l6.1-5.2h0c3.6-3.2,7.2-6.6,10.7-10.1,5.9-5.8,11.3-11.4,16.2-16.9l-1.3,12.6h0l-.5,5.2c8.5-8.9,50-59.1,65.4-78.1-24.4,2.2-89.2,8.6-101.3,10.8l4.7,2.4h0l11.1,6c-7.2,1-14.9,2.4-23,4L194,418.1h0l-7.8,2.2c-15.1,4.2-32.6,9.7-45.4,14.7l5,1.5h0l12.2,3.7c-6.9,2.4-14.2,5.2-21.8,8.5a374.7,374.7,0,0,0-41.1,20.4l14.6,4.5a394.6,394.6,0,0,0-56.4,36.9L66,514.4c-8.5,6.3-15.6,12.2-21.4,17.3s-8.2,7.3-11,9.9"/><path class="cls-3" d="M601.3,541.6c-2.7-2.6-6.4-6-10.9-9.9s-13-11-21.5-17.3l12.7-3.9a389,389,0,0,0-56.4-36.9l14.6-4.5a382,382,0,0,0-41-20.4c-7.7-3.3-15-6.1-21.8-8.5l12.1-3.7h0l5-1.5c-12.7-5-30.3-10.5-45.4-14.7l-7.7-2.2h0l-14.4-3.3c-8.1-1.6-15.8-3-23-4l11.2-6h0l4.6-2.4c-12.1-2.2-76.9-8.6-101.3-10.8,15.4,19,56.9,69.2,65.4,78.1l-.5-5.2h0l-1.3-12.7c4.9,5.5,10.3,11.1,16.2,16.9,3.6,3.5,7.2,6.9,10.7,10.1h.1l6.1,5.2c11.9,10.2,26.2,21.7,37.5,29.5l-1.5-5h0l-3.7-12.2c5.8,4.4,12.2,8.9,19.1,13.4a376.7,376.7,0,0,0,39.9,22.7l-4.4-14.6A384.2,384.2,0,0,0,563.8,544l-3.9-12.7c10,3.5,18.9,6.2,26.3,8.2,5.8,1.6,10.6,2.7,14.4,3.6"/><path class="cls-4" d="M389.4,218.8h.2q68.1,1.5,131.6,6.1l1.8,18.7c24.1-2.3,39.5-5.1,42.8-8l.7-1.2-3-2.6h0L321.9,26.1v-1l-.6.5-.5-.5v1L79.1,231.8h0l-3,2.6.7,1.2c3.4,2.9,18.7,5.7,42.9,8l1.8-18.7q63.3-4.5,131.5-6.1h.2c22.9-.6,45.5-.8,67.6-.7h1.1q33.2-.2,67.5.7"/><path class="cls-3" d="M313.4,552.5l-15.7-2.2-6.7.4-.8-1.7c-6.9-1.6-13.5-4.1-20.3-6-4.9-1.5-9.6-3-14.4-4.8l-4.6-2c-1.8-.8-6.1-1.8.4-.1a44.6,44.6,0,0,1-11.4-4.6l-3.5,2.3c-6.3,4.2-13.8,9.4-20.7,14.5-4,3-7.7,5.9-10.9,8.5l11.7-.9c-4.1,3.1-8.3,6.5-12.8,10.3-8.6,7.5-16.4,15-23.3,22.3l9.9-.7a315,315,0,0,0-30.8,36l8.7-.6c-8.1,10.5-13.7,19.2-16.9,24.3,5.1-3.2,13.8-8.8,24.3-16.9l-.6,8.7a315,315,0,0,0,36-30.8l-.7,9.9c3.6-3.4,7.2-7,10.9-10.8-2.7,6.1-5.2,12.1-7.4,17.9l11.4-5.1a354.7,354.7,0,0,0-17,54l9.9-4.5a324.8,324.8,0,0,0-6.9,34.8A314.8,314.8,0,0,0,231,675.3l3.9,10.1a342.1,342.1,0,0,0,26-50.2l4.5,11.7a338.7,338.7,0,0,0,13.8-36c1-3,1.9-6,2.7-8.9h0l9-9c-1.1,7.2-2.1,15-2.8,23.2a378.8,378.8,0,0,0-1.2,45.8l10.7-10.7a391.8,391.8,0,0,0,6.1,67.1l9.4-9.4c1.6,10.5,3.4,19.6,5.2,27.1,1.3,5.8,2.5,10.6,3.6,14.3V552.5a24.3,24.3,0,0,1-8.5,0"/><path class="cls-2" d="M321.8,378.4a19.5,19.5,0,0,1-4.9,0c-12.4-1.4-16.7-12.8-27.5-13.8a19.8,19.8,0,0,0-8.8,1.6"/><path class="cls-2" d="M276.6,338.1c-13.2,6.1-19.4,19.7-15.8,30.1s14.5,13.4,15.8,13.8"/><path class="cls-2" d="M321.6,749.1c-1-3.7-2.2-8.5-3.6-14.3-1.7-7.5-3.5-16.6-5.1-27.1l-9.4,9.4a391.8,391.8,0,0,1-6.1-67.1l-10.8,10.7a401.5,401.5,0,0,1,1.3-45.8c.7-8.2,1.7-16,2.8-23.2l-9,9h0l-3.7,3.7c1.6-13.6,5-31.7,8.3-47l1.8-7.9"/><path class="cls-2" d="M281.7,600.7h0c-.8,2.9-1.7,5.9-2.7,8.9a361.7,361.7,0,0,1-13.8,36l-4.5-11.7a342.1,342.1,0,0,1-26,50.2L230.8,674A336.2,336.2,0,0,1,211,703.4a324.8,324.8,0,0,1,6.9-34.8l-10,4.5a345.4,345.4,0,0,1,17.1-54l-11.4,5.1c2.2-5.8,4.7-11.8,7.4-17.9s5.2-11.4,8.2-17.3,6.4-11.9,9.6-17.1l-13.4,6c3.3-6.2,7.8-13.4,12.4-20.6h0c4.3-6.6,8.7-13.2,12.6-18.8"/><path class="cls-2" d="M236.2,532.5c-6.3,4.2-13.9,9.4-20.8,14.5-3.9,3-7.7,5.9-10.9,8.5l11.8-.9c-4.1,3.1-8.4,6.5-12.8,10.3a317.3,317.3,0,0,0-23.4,22.3l10-.7a327.8,327.8,0,0,0-30.9,36l8.7-.6c-8,10.5-13.7,19.2-16.9,24.3a281.4,281.4,0,0,0,24.4-16.9l-.7,8.7a315,315,0,0,0,36.1-30.8l-.8,9.9c3.6-3.4,7.3-7,11-10.8"/><path class="cls-5" d="M154.9,297.7c11.8-10.2,29.1-16.6,48.3-16.6s36.5,6.4,48.3,16.6"/><path class="cls-5" d="M391.1,297.7c11.8-10.2,29.1-16.6,48.3-16.6s36.5,6.4,48.3,16.6"/><path class="cls-2" d="M321.8,437.7h-.2a135.7,135.7,0,0,1-33.5-4.4L259.6,426"/><path class="cls-2" d="M190.2,476.4a195.7,195.7,0,0,0,74.6,43.2,193.2,193.2,0,0,0,57,8.5"/><path class="cls-2" d="M384.1,426l-28.6,7.3a134.3,134.3,0,0,1-33.4,4.4h-.2"/><path class="cls-2" d="M321.9,528.1a193.2,193.2,0,0,0,57-8.5,195.7,195.7,0,0,0,74.6-43.2"/><path class="cls-2" d="M235.7,531.2a191.6,191.6,0,0,0,86.1,20.3"/><path class="cls-2" d="M196.5,482a194.2,194.2,0,0,1-59-88.6,29.3,29.3,0,0,1,7.4-29.6l.5-.5a29.6,29.6,0,0,1,45.5,4.6,159,159,0,0,0,53,49.2"/><path class="cls-2" d="M123.5,391.6A41.3,41.3,0,0,1,133.9,350l.6-.7c18.7-18.7,49.4-15.3,64.1,6.5"/><path class="cls-2" d="M166.8,356.2a21.1,21.1,0,0,0,0,29.9,21.1,21.1,0,0,0-29.9,0"/><path class="cls-3" d="M166.8,356.2c-.8-.1-15.1-2.1-24.3,8.9-7.4,8.8-5.8,19.3-5.6,21,1-1,8-7.4,17.8-6a20.8,20.8,0,0,1,12.1,6c-1.2-1.6-6.7-9.3-4.8-19.4a23.9,23.9,0,0,1,4.8-10.5"/><path class="cls-3" d="M476.9,356.2c.8-.1,15.1-2.1,24.3,8.9,7.3,8.8,5.8,19.3,5.6,21-1-1-8-7.4-17.9-6a20.4,20.4,0,0,0-12,6c1.1-1.6,6.6-9.4,4.8-19.4a23.9,23.9,0,0,0-4.8-10.5"/><path class="cls-2" d="M321.9,218.1c-23.9,0-46.9.2-68.7.7H253c-53.7,1-99.9,3.2-131.5,6.1-21.5,2-36.4,4.4-42.4,6.9h0c-1.9.9-3,1.7-3,2.6a1.9,1.9,0,0,0,.7,1.2c3.4,2.9,18.7,5.7,42.9,8"/><polyline class="cls-2" points="76.2 234.4 79.1 231.8 79.1 231.8 321.3 25.6"/><path class="cls-2" d="M169.1,513.3a215.2,215.2,0,0,1-59-170.1l9.6-99.6,1.8-18.7"/><path class="cls-2" d="M284.1,338.6c.5-2.5,2.3-11.8,10.8-18.5a28,28,0,0,1,13.5-5.7"/><path class="cls-2" d="M196.5,482a194.2,194.2,0,0,1-59-88.6,29.3,29.3,0,0,1,7.4-29.6l.5-.5a29.6,29.6,0,0,1,45.5,4.6,159,159,0,0,0,53,49.2"/><path class="cls-2" d="M195.4,408.8a10.6,10.6,0,0,1-15-1.2"/><path class="cls-2" d="M195.4,408.8a10.7,10.7,0,0,0-1.1,15.1"/><path class="cls-2" d="M179.2,422.7a10.7,10.7,0,0,0,1.2-15.1"/><path class="cls-2" d="M179.2,422.7a10.8,10.8,0,0,1,15.1,1.2"/><path class="cls-3" d="M329.3,552.5l15.6-2.2,6.8.4a8.9,8.9,0,0,1,.8-1.7c6.9-1.6,13.5-4.1,20.3-6,4.8-1.5,9.6-3,14.3-4.8l4.6-2c1.8-.8,6.1-1.8-.4-.1a46.9,46.9,0,0,0,11.5-4.6l3.4,2.3c6.3,4.2,13.9,9.4,20.8,14.5,3.9,3,7.7,5.9,10.9,8.5l-11.8-.9c4.1,3.1,8.4,6.5,12.8,10.3a317.3,317.3,0,0,1,23.4,22.3l-10-.7a317.1,317.1,0,0,1,30.9,36l-8.7-.6c8.1,10.5,13.7,19.2,16.9,24.3A281.4,281.4,0,0,1,467,630.6l.7,8.7a323.8,323.8,0,0,1-36.1-30.8l.8,9.9c-3.6-3.4-7.3-7-11-10.8,2.7,6.1,5.2,12.1,7.4,17.9l-11.4-5.1a345.4,345.4,0,0,1,17.1,54l-10-4.5a324.8,324.8,0,0,1,6.9,34.8,318.7,318.7,0,0,1-19.7-29.4l-4,10.1a342.1,342.1,0,0,1-26-50.2l-4.5,11.7a361.7,361.7,0,0,1-13.8-36c-1-3-1.9-6-2.7-8.9h0l-9-9c1.2,7.2,2.1,15,2.8,23.2a379.7,379.7,0,0,1,1.3,45.8L345,651.3a391.8,391.8,0,0,1-6.1,67.1l-9.4-9.4c-1.6,10.5-3.4,19.6-5.1,27.1-1.3,5.8-2.6,10.6-3.6,14.3V552.5a24.3,24.3,0,0,0,8.5,0"/><path class="cls-2" d="M320.8,378.4a20.2,20.2,0,0,0,5,0c12.4-1.4,16.6-12.8,27.4-13.8a19.4,19.4,0,0,1,8.8,1.6"/><path class="cls-2" d="M366,338.1c13.3,6.1,19.4,19.7,15.8,30.1S367.4,381.6,366,382"/><path class="cls-2" d="M354.5,549.5l1.8,7.9c3.3,15.3,6.7,33.4,8.3,47l-3.7-3.7h0l-8.9-9c1.1,7.2,2,15,2.8,23.2a378.8,378.8,0,0,1,1.2,45.8L345.3,650a402.2,402.2,0,0,1-6.1,67.1l-9.4-9.4c-1.6,10.5-3.5,19.6-5.2,27.1-1.3,5.8-2.6,10.6-3.6,14.3"/><path class="cls-2" d="M392.2,538.4c3.9,5.6,8.3,12.2,12.6,18.8h.1c4.6,7.2,9,14.4,12.4,20.6l-13.4-6c3.1,5.2,6.3,11,9.5,17.1s5.7,11.6,8.3,17.3,5.1,12.1,7.3,17.9l-11.3-5.1a354.7,354.7,0,0,1,17,54l-9.9-4.5a318.4,318.4,0,0,1,6.8,34.8A318.7,318.7,0,0,1,411.9,674L408,684.1a351.4,351.4,0,0,1-26.1-50.2l-4.5,11.7a361.7,361.7,0,0,1-13.8-36l-2.7-8.9h0"/><path class="cls-2" d="M421.7,606.3c3.6,3.8,7.3,7.4,10.9,10.8l-.8-9.9A323.8,323.8,0,0,0,467.9,638l-.7-8.7c10.6,8.1,19.2,13.7,24.4,16.9-3.2-5.1-8.8-13.8-16.9-24.3l8.7.6a325.6,325.6,0,0,0-30.8-36l9.9.7a317.3,317.3,0,0,0-23.4-22.3c-4.4-3.8-8.7-7.2-12.7-10.3l11.7.9c-3.2-2.6-6.9-5.5-10.9-8.5-6.9-5.1-14.4-10.3-20.7-14.5"/><path class="cls-2" d="M320.8,551.5A192,192,0,0,0,407,531.2"/><path class="cls-2" d="M398.7,417.1a159.3,159.3,0,0,0,53.1-49.2,29.6,29.6,0,0,1,45.5-4.6l.5.5a29.4,29.4,0,0,1,7.3,29.6A193.2,193.2,0,0,1,446.2,482"/><path class="cls-2" d="M444,355.8c14.7-21.8,45.5-25.2,64.1-6.5l.7.7a41.1,41.1,0,0,1,10.3,41.6"/><path class="cls-2" d="M475.9,356.2a21.2,21.2,0,0,1,0,29.9,20.9,20.9,0,0,1,29.8,0"/><path class="cls-2" d="M523,243.6c24.1-2.3,39.5-5.1,42.8-8a1.5,1.5,0,0,0,.7-1.2c0-.9-1-1.7-3-2.6h0c-6-2.5-20.8-4.9-42.3-6.9-31.7-2.9-77.8-5.1-131.6-6.1h-.2c-21.7-.5-44.8-.7-68.6-.7"/><polyline class="cls-2" points="321.3 25.6 563.5 231.8 563.5 231.8 566.5 234.4"/><path class="cls-2" d="M358.5,338.6a30.1,30.1,0,0,0-10.8-18.5,28.1,28.1,0,0,0-13.4-5.7"/><path class="cls-2" d="M398.7,417.1a159.3,159.3,0,0,0,53.1-49.2,29.6,29.6,0,0,1,45.5-4.6l.5.5a29.4,29.4,0,0,1,7.3,29.6A193.2,193.2,0,0,1,446.2,482"/><path class="cls-2" d="M447.2,408.8a10.8,10.8,0,0,0,15.1-1.2"/><path class="cls-2" d="M447.2,408.8a10.7,10.7,0,0,1,1.2,15.1"/><path class="cls-2" d="M463.4,422.7a10.7,10.7,0,0,1-1.1-15.1"/><path class="cls-2" d="M463.4,422.7a10.6,10.6,0,0,0-15,1.2"/><path class="cls-2" d="M148.6,488a212.4,212.4,0,0,0,357-18l-32.1,43.3a215,215,0,0,0,59.1-170.1L523,243.6l-1.8-18.7"/><rect class="cls-3" x="183.4" y="412" width="7.1" height="7.1"/><rect class="cls-3" x="452.6" y="411.2" width="5.7" height="10.76"/></svg>